<?xml version="1.0" encoding="utf-8"?>
<!-- Generator: Adobe Illustrator 16.0.0, SVG Export Plug-In . SVG Version: 6.00 Build 0)  -->
<!DOCTYPE svg PUBLIC "-//W3C//DTD SVG 1.1//EN" "http://www.w3.org/Graphics/SVG/1.1/DTD/svg11.dtd">
<svg version="1.1" xmlns="http://www.w3.org/2000/svg" xmlns:xlink="http://www.w3.org/1999/xlink" x="0px" y="0px"
	 width="841.89px" height="595.28px" viewBox="0 0 841.89 595.28" enable-background="new 0 0 841.89 595.28" xml:space="preserve">
<g id="Ebene_1">
	<rect stroke="#000000" stroke-miterlimit="10" width="846" height="595.28"/>
</g>
<g id="Ebene_2">
	<g>
		<defs>
			<rect id="SVGID_1_" x="56.733" y="40.309" width="728.423" height="527.563"/>
		</defs>
		<clipPath id="SVGID_2_">
			<use xlink:href="#SVGID_1_"  overflow="visible"/>
		</clipPath>
		<path clip-path="url(#SVGID_2_)" fill="#a41c31" d="M506.087,111.06c-0.411-0.124-0.642-0.247-0.864-0.233
			c-0.13,0.011-0.255,0.233-0.392,0.352c0.172,0.161,0.353,0.458,0.509,0.446C505.54,111.61,505.727,111.35,506.087,111.06
			 M465.904,110.849c0-0.057,0-0.101,0-0.141h-1.254c0.004,0.06,0.004,0.123,0.004,0.189
			C465.077,110.884,465.492,110.862,465.904,110.849 M448.679,181.736c0.04,0.071,0.07,0.146,0.102,0.216
			c0.4-0.136,0.803-0.277,1.205-0.411c-0.051-0.13-0.097-0.257-0.141-0.376C449.458,181.354,449.07,181.545,448.679,181.736
			 M585.599,80.639c0.271-0.433,0.466-0.66,0.431-0.699c-0.165-0.2-0.385-0.345-0.592-0.51
			C585.478,79.746,585.528,80.067,585.599,80.639 M526.977,186.971c-0.156-0.09-0.311-0.185-0.462-0.271
			c-0.114,0.187-0.231,0.372-0.337,0.561c0.181,0.035,0.376,0.127,0.537,0.082C526.826,187.318,526.886,187.103,526.977,186.971
			 M493.373,191.433c-0.2-0.169-0.381-0.356-0.596-0.461c-0.047-0.024-0.227,0.195-0.352,0.306c0.18,0.176,0.336,0.367,0.531,0.501
			C492.992,191.805,493.188,191.594,493.373,191.433 M627.878,208.854c0.163,0.092,0.321,0.176,0.492,0.262
			c0.04-0.112,0.091-0.222,0.142-0.332c-0.181-0.06-0.353-0.137-0.533-0.181C627.971,208.603,627.92,208.771,627.878,208.854
			 M550.108,215.672c-0.044,0.18-0.095,0.36-0.134,0.541c0.355,0.07,0.712,0.141,1.064,0.211c0.028-0.117,0.048-0.227,0.079-0.343
			C550.781,215.944,550.445,215.811,550.108,215.672 M565.653,218.26c-0.156,0.356-0.311,0.579-0.321,0.803
			c-0.005,0.083,0.352,0.312,0.446,0.266c0.22-0.099,0.383-0.336,0.567-0.517C566.154,218.656,565.959,218.5,565.653,218.26
			 M697.652,267.214c0.277,0.127,0.532,0.242,0.794,0.356c0.071-0.158,0.212-0.339,0.191-0.497c-0.021-0.169-0.202-0.31-0.312-0.466
			C698.205,266.717,698.075,266.834,697.652,267.214 M422.324,151.127c-0.035-0.147-0.07-0.293-0.105-0.434
			c-0.36,0.064-0.723,0.13-1.083,0.205c0.035,0.152,0.07,0.308,0.101,0.468C421.597,151.281,421.958,151.202,422.324,151.127
			 M470.041,120.022c-0.102-0.231-0.196-0.462-0.293-0.688c-0.209,0.102-0.404,0.198-0.606,0.292
			c0.116,0.216,0.222,0.451,0.378,0.631C469.539,120.297,469.806,120.134,470.041,120.022 M604.381,129.82
			c0.239,0.07,0.481,0.15,0.721,0.22c0.102-0.396,0.212-0.792,0.293-1.188c0.004-0.031-0.458-0.187-0.478-0.158
			C604.717,129.057,604.55,129.438,604.381,129.82 M466.507,116.862c0.039,0.255,0.074,0.51,0.109,0.772
			c0.484-0.112,0.966-0.227,1.447-0.332c-0.042-0.176-0.07-0.346-0.101-0.517C467.48,116.809,466.995,116.831,466.507,116.862
			 M586.496,102.364c-0.295-0.205-0.495-0.35-0.697-0.49c-0.086,0.156-0.26,0.352-0.22,0.477c0.074,0.235,0.271,0.44,0.422,0.662
			C586.14,102.821,586.287,102.637,586.496,102.364 M605.419,113.594c-0.105,0.341-0.177,0.431-0.156,0.506
			c0.086,0.477,0.191,0.95,0.292,1.42c0.119-0.026,0.353-0.055,0.353-0.079c-0.031-0.477-0.071-0.963-0.128-1.443
			C605.775,113.928,605.665,113.871,605.419,113.594 M702.119,262.438c-0.174-0.04-0.345-0.086-0.51-0.125
			c-0.16,0.618-0.321,1.229-0.481,1.841c0.16,0.046,0.31,0.092,0.471,0.132C701.77,263.667,701.945,263.053,702.119,262.438
			 M417.451,150.955c0.07,0.216,0.141,0.427,0.211,0.638c0.365-0.141,0.737-0.281,1.104-0.417c-0.04-0.154-0.09-0.312-0.137-0.462
			C418.234,150.792,417.843,150.87,417.451,150.955 M465.904,114.667c0.171-0.146,0.343-0.295,0.512-0.447
			c-0.29-0.332-0.582-0.677-0.896-0.983c-0.027-0.031-0.277,0.171-0.427,0.271C465.363,113.893,465.634,114.28,465.904,114.667
			 M591.69,106.355c-0.169,0.029-0.341,0.055-0.51,0.086c0.099,0.446,0.2,0.897,0.294,1.351c0.147-0.031,0.286-0.058,0.438-0.086
			C591.838,107.26,591.761,106.807,591.69,106.355 M505.054,189.641c-0.2,0.198-0.473,0.392-0.442,0.438
			c0.121,0.227,0.312,0.407,0.481,0.607c0.13-0.121,0.381-0.286,0.361-0.363C505.375,190.079,505.194,189.874,505.054,189.641
			 M507.783,110.286c-0.024,0.271-0.049,0.537-0.07,0.814h1.762c0.015-0.187,0.035-0.378,0.055-0.563
			C508.948,110.458,508.361,110.369,507.783,110.286 M488.044,175.02v0.11h1.489c0-0.035-0.004-0.075-0.004-0.11H488.044z
			 M515.01,110.933c-0.004-0.049-0.004-0.11-0.004-0.159h-1.735c0,0.048,0,0.11,0,0.159H515.01z M331.195,215.707
			c-0.042-0.229-0.09-0.449-0.136-0.673c-0.667,0.193-1.331,0.391-1.993,0.585c0.024,0.127,0.055,0.25,0.082,0.378
			C329.829,215.9,330.511,215.806,331.195,215.707 M590.773,119.013c0.146-0.099,0.29-0.194,0.436-0.299
			c-0.26-0.387-0.521-0.774-0.792-1.161c-0.151,0.101-0.292,0.202-0.442,0.297C590.246,118.241,590.508,118.625,590.773,119.013
			 M537.546,188.306c0.081-0.271,0.161-0.543,0.242-0.812c-0.523-0.097-1.054-0.187-1.577-0.281
			c-0.039,0.211-0.079,0.422-0.13,0.638C536.572,188,537.06,188.154,537.546,188.306 M456.574,149.618
			c-0.266,0.303-0.527,0.528-0.677,0.809c-0.031,0.062,0.387,0.506,0.521,0.471c0.317-0.075,0.583-0.334,0.865-0.519
			C457.103,150.177,456.911,149.974,456.574,149.618 M606.758,125.659c-0.506-0.36-0.757-0.622-1.054-0.717
			c-0.101-0.031-0.497,0.427-0.462,0.607c0.04,0.216,0.368,0.451,0.614,0.528C606.017,126.125,606.263,125.905,606.758,125.659
			 M413.787,154.413c0.02,0.237,0.051,0.466,0.082,0.699c0.53-0.088,1.062-0.176,1.601-0.264c-0.016-0.146-0.035-0.291-0.051-0.436
			H413.787z M451.872,154.393c-0.015,0.11-0.026,0.227-0.035,0.336c0.546,0.083,1.089,0.167,1.641,0.251
			c0.016-0.161,0.031-0.321,0.051-0.488C452.977,154.463,452.425,154.428,451.872,154.393 M386.133,159.532
			c-0.055-0.325-0.121-0.642-0.171-0.963c-0.643,0.176-1.285,0.356-1.927,0.532c0.051,0.224,0.095,0.444,0.145,0.673
			C384.833,159.693,385.48,159.607,386.133,159.532 M695.058,272.154c-0.2,0.066-0.404,0.136-0.611,0.207
			c0.165,0.545,0.325,1.1,0.677,2.309c0.312-0.989,0.533-1.333,0.482-1.627C695.55,272.722,695.244,272.444,695.058,272.154
			 M463.391,113.822c-1.461-0.792-1.461-0.792-1.802,0.603C462.231,114.209,462.752,114.033,463.391,113.822 M532.97,189.26
			c-1.261-1.084-1.809-0.798-2.69,0.693C531.458,189.652,532.046,189.5,532.97,189.26 M485.484,190.795
			c-0.567-0.392-0.908-0.728-1.311-0.842c-0.141-0.04-0.678,0.576-0.632,0.655c0.22,0.378,0.541,0.754,0.913,0.946
			C484.592,191.625,484.991,191.176,485.484,190.795 M645.907,203.655c-1.341-0.145-1.926,0.282-1.697,1.962
			C645.008,204.688,645.461,204.165,645.907,203.655 M589.082,82.641c0.11,0.136,0.211,0.281,0.311,0.427
			c0.433-0.306,0.864-0.607,1.295-0.908c-0.109-0.156-0.22-0.311-0.341-0.469C589.925,82.007,589.505,82.319,589.082,82.641
			 M700.67,268.059c-0.2-0.079-0.396-0.156-0.592-0.227c-0.297,0.684-0.587,1.37-0.884,2.059c0.246,0.099,0.486,0.191,0.737,0.29
			C700.182,269.469,700.424,268.763,700.67,268.059 M330.3,220.013c0.022,0.205,0.042,0.405,0.062,0.6
			c0.552-0.075,1.093-0.16,1.645-0.235c-0.075-0.266-0.145-0.532-0.22-0.798C331.289,219.725,330.797,219.873,330.3,220.013
			 M499.993,189.582c-0.04,0.235-0.079,0.466-0.13,0.702c0.613,0.127,1.214,0.281,1.832,0.347c0.07,0.004,0.195-0.471,0.376-0.928
			C501.273,189.656,500.631,189.617,499.993,189.582 M216.515,119.399c-0.2,0.15-0.398,0.302-0.598,0.458
			c0.301,0.979,0.523,2.023,2.32,1.856C217.663,120.946,217.086,120.174,216.515,119.399 M527.392,163.474
			c0.959,1.209,0.959,1.209,2.336,0.792C528.804,163.953,528.096,163.707,527.392,163.474 M642.945,187.358
			c-0.209-0.055-0.411-0.11-0.611-0.161c-0.302,1.304-0.599,2.615-0.904,3.919c0.146,0.046,0.291,0.081,0.432,0.117
			C642.224,189.942,642.585,188.651,642.945,187.358 M699.751,264.239c0.132-0.935-0.134-1.634-1.144-1.617
			c-0.306,0.011-0.92,0.823-0.834,1.017C698.146,264.45,698.827,264.782,699.751,264.239 M693.644,258.382
			c-1.261,1.958-1.261,1.958,0.352,3.519C693.89,260.836,693.804,259.979,693.644,258.382 M419.745,148.373
			c1.275-0.022,2.705,0.774,4.024-0.585C422.074,146.926,420.924,147.848,419.745,148.373 M477.589,183.413
			c2.333,2.784,3.011,3.026,5.41,1.693C481.062,184.497,479.437,183.989,477.589,183.413 M476.755,188.383
			c-0.083,0.345-0.169,0.686-0.25,1.029c1.816,0.455,3.629,0.906,5.821,1.449c-0.4-1.115-0.611-1.722-0.717-2.012
			c-1.01,0-1.746,0.059-2.475-0.016C478.341,188.744,477.549,188.532,476.755,188.383 M600.364,133.07
			c-0.297,1.979-0.598,3.95-0.893,5.925C600.536,137.122,602.588,135.441,600.364,133.07 M466.353,188.732
			c1.047-0.09,2.071-0.18,3.116-0.266c-0.441-2.423-0.712-2.569-3.675-2.129C465.966,187.081,466.135,187.805,466.353,188.732
			 M459.084,180.148c-2.052,2.155-2.052,2.155-0.387,4.518c0.829-0.999,1.607-1.946,2.489-3.009
			C460.313,181.028,459.691,180.588,459.084,180.148 M425.535,150.595c-1.488,1.676,0.152,2.489,0.549,3.523
			c0.096,0.255,1.416,0.04,2.277,0.04c-0.059-1.038-0.105-1.878-0.148-2.681C427.191,151.145,426.354,150.863,425.535,150.595
			 M433.141,144.516c-2.379-1.12-6.38-0.356-8.361,2.153C427.881,145.866,430.656,145.153,433.141,144.516 M695.968,257.595
			c-1.014,5.133-0.935,8.982,0.256,11.337C696.5,264.876,696.9,261.224,695.968,257.595 M536.216,189.892
			c-2.243,0.316-3.04,2.67-4.781,3.985c1.132,0.075,2.267,0.145,3.708,0.237C534.152,192.236,537.711,192.157,536.216,189.892
			 M665.301,215.971c3.508,1.511,1.932,4.614,3.152,6.847c2.098-1.683,1.225-3.308,0.531-4.874
			C668.483,216.798,668.092,215.408,665.301,215.971 M344.204,150.291c2.032,0.699,3.653,0.215,5.351-0.444
			c1.555-0.603,3.312-0.668,4.917-0.963c-0.842-0.981-0.842-0.97-1.848-0.765c-2.533,0.512-5.078,1.009-7.607,1.562
			C344.716,149.746,344.474,150.08,344.204,150.291 M596.751,91.601c-0.473-3.589-1.797-6.11-5.148-7.258
			c1.012,2.283,2.232,4.456,3.543,6.563C595.346,91.233,595.983,91.284,596.751,91.601 M567.6,80.061
			c0.112,2.87,2.45,5.346,7.383,7.688C573.333,84.492,570.872,81.999,567.6,80.061 M603.747,144.437
			c-0.442,0.818-0.583,1.469-0.989,1.775c-0.929,0.688-1.951,1.256-2.991,1.777c-1.168,0.592-1.14,1.386-0.783,2.496
			c1.075,3.336,2.043,6.712,3.068,10.077c0.114,0.365,0.301,0.722,0.4,0.955c0.95-0.097,1.776-0.183,2.676-0.272
			c0.673-1.786,0.867-4.051,2.103-5.234c2.831-2.714,2.529-5.753,2.185-8.973c-2.153-0.523-2.153-0.523-5.266,0.475
			c0.818-2.982,1.821-5.701,2.264-8.507c0.457-2.912,0.364-5.903,0.527-8.914c-2.56,1.713-2.811,2.017-2.441,4.021
			c0.764,4.04-1.304,7.238-2.819,10.7C602.137,144.731,602.744,144.617,603.747,144.437 M563.434,222.285
			c1.206-1.44,2.336,0.994,4.177-0.336c-0.682-0.361-1.189-0.651-1.706-0.919c-1.315-0.673-1.817-1.649-1.642-3.185
			c0.156-1.315-0.055-2.683-0.176-4.027c-0.09-1.023-0.708-1.872-1.757-1.476c-1.797,0.678-2.6-0.281-3.402-1.55
			c-0.908-1.436-2.334-2.083-4.157-2.215c1.769,1.777,3.535,3.565,5.155,5.19c-0.798-0.11-1.801-0.255-2.775-0.396
			c0.822,0.944,2.099,1.733,2.145,2.591c0.114,2.098-2.274,0.365-3.193,1.911c0.316,0.708,0.557,1.828,1.221,2.571
			c0.833,0.937,1.946,1.676,3.062,2.292c0.833,0.466,1.845,0.814,2.784,0.823c0.798,0.006,0.728-0.761,0.348-1.355L563.434,222.285z
			 M531.94,183.347c0.527,0.492,0.497,1.788,1.992,1.297c-0.442-1.086-1.064-1.456-2.067-1.216
			c-3.926-1.555-7.939-2.747-12.448-3.097C522.254,183.1,526.534,184.077,531.94,183.347 M643.011,211.207
			c-0.035-0.345-0.074-0.69-0.12-1.047c-0.476,0.999-2.178,1.179-1.812,2.358c0.643-0.447,1.326-0.919,2.015-1.395
			c-0.117,1.194-0.227,2.397-0.337,3.598c0.189,0.097,0.392,0.185,0.592,0.281c0.778-0.774,1.555-1.542,2.399-2.371
			C644.683,212.083,643.85,211.645,643.011,211.207 M434.285,152.692c0.742-0.559,1.486-1.11,2.228-1.667
			c-0.114-0.211-0.231-0.422-0.341-0.633c-0.513,0.196-1.184,0.262-1.472,0.629c-0.325,0.409-0.286,1.104-0.411,1.671
			c-0.517,0.506-2.002-0.492-1.75,1.337c1.114,0.097,2.309,0.68,3.503-0.84C435.279,152.972,434.777,152.833,434.285,152.692
			 M507.543,174.699c0.858-0.31,1.419-0.893,1.069-1.812c-0.356-0.946-1.19-1.086-1.938-0.959c0.345,1.056,0.653,1.944,0.959,2.846
			c-0.453,0.251-0.904,0.504-1.949,1.086c1.15,0.2,1.644,0.286,2.138,0.37C507.728,175.719,507.634,175.211,507.543,174.699
			 M597.312,127.581c-0.09,0.933-0.18,1.878-0.274,2.815c0.149,0.004,0.297,0.011,0.446,0.016
			C597.429,129.464,597.373,128.518,597.312,127.581c-0.38-0.528-0.752-1.042-1.174-1.621
			C595.687,127.229,596.56,127.357,597.312,127.581 M523.081,195.513c0.172,0.893,0.332,1.786,0.563,3.018
			c-0.724,0-1.467-0.035-2.204,0.009c-1.054,0.066-2.103,0.203-3.147,0.277c-0.38,0.026-0.873,0.11-1.119-0.086
			c-2.062-1.601-4.462-1.5-6.855-1.524c-0.684-0.007-1.601,0.004-2.012-0.398c-2.039-1.962-4.498-1.531-6.818-1.203
			c-2.639,0.38-4.682-0.057-6.193-2.652c-0.109,0.783-0.211,1.562-0.35,2.571c-0.668-0.156-1.356-0.2-1.938-0.468
			c-3.151-1.438-6.443-2.237-9.912-2.419c-1.084-0.057-2.164-0.409-3.222-0.695c-4.238-1.139-8.408-2.661-12.926-1.753
			c-0.673,0.141-1.405-0.016-2.117,0.007c-1.496,0.048-2.42-0.44-2.726-2.12c-0.23-1.234-0.947-2.373-1.706-4.157
			c-0.869,2.313-2.424,2.366-4.056,2.52c-0.924,0.079-1.802,0.752-3.011,1.302c-0.156-1.614-0.309-3.149-0.458-4.764
			c-0.622,0.275-1.163,0.51-1.656,0.726c-0.743,1.566,2.153,2.991-0.07,4.705c-1.471-1.111-2.811-2.642-4.471-3.237
			c-1.537-0.557-3.434-0.121-5.477-0.121c1.848-1.25,3.422-2.31,5.078-3.422c-1.476-2.16-2.99-0.202-4.537-0.783
			c0.344,0.941,0.532,1.46,0.829,2.274c-1.018,0-1.801-0.145-2.509,0.035c-0.709,0.185-1.347,0.691-2.055,1.078
			c-1.379-1.395-0.325-2.459,0.854-3.594c-1.284-0.937-1.79-1.957-0.842-3.378c0.29-0.431,0.081-1.253-0.012-1.883
			c-0.134-0.906-0.38-1.812-0.62-2.929c-0.684-0.247-1.628-0.576-2.763-0.974c0.328-0.508,0.623-0.979,0.936-1.456
			c1.946,1.471,3.281,1.48,5.117,0.035c1.196,0.904,0.273,1.993,0.246,2.986l-0.02-0.169c0.007,0.888,0.016,1.781,0.02,2.679
			c0.007,0,0-0.149,0-0.149c0.423,0.721,0.688,1.667,1.307,2.115c0.889,0.645,1.832,0.497,2.443-0.706
			c0.557-1.093,1.34-2.07,2.023-3.097c0.196,0.117,0.396,0.231,0.592,0.345c-0.235,0.548-0.486,1.095-0.783,1.781
			c1.245,0.444,1.934-0.063,2.756-0.987c1.597-1.777,4.486-1.999,6.495-0.653c-1.355,0.979-2.682,1.927-4.146,2.987
			c1.696,1.781,2.761-0.642,4.087-0.291c1.335,0.346,2.679,0.646,3.673,0.884c1.354-1.221,2.399-2.828,3.794-3.244
			c1.816-0.537,3.322-1.977,5.632-1.484c1.946,0.416,4.126-0.449,6.204-0.453c3.994-0.009,8.01-0.347,11.96,0.618
			c0.567,0.13,1.198,0.011,1.781,0.094c1.456,0.227,2.917,0.484,4.357,0.774c1.139,0.224,2.267,0.51,3.327,0.756
			c1.772-4.57,4.651-7.066,9.721-7.222c0.873,1.1,2.16,2.305,2.901,3.78c1.186,2.36,3.604,3.697,4.629,6.229
			c0.381,0.97,2.408,1.128,2.508,2.831c0.011,0.097,1.005,0.341,1.295,0.145c0.267-0.171,0.191-0.849,0.286-1.398
			c6.893,1.104,13.818,2.248,20.453,4.632c1.324,0.475,2.525,1.319,3.864,1.685c1.793,0.508,3.655,0.895,5.507,0.97
			c0.948,0.028,1.896-0.583,2.433,0.697c0.337-0.181,0.673-0.361,1.456-0.772c-1.223-0.953-2.138-1.819-3.191-2.474
			c-2.298-1.441-4.055-3.143-4.446-6.057c-0.126-0.941-1.029-1.854-1.758-2.613c-0.532-0.545-1.354-0.8-2.043-1.188
			c-0.209-0.272-0.427-0.554-0.646-0.829c-2.153,0.719-2.364-1.516-2.631-2.342c-0.45-1.452-1.158-1.958-2.443-2.168
			c-0.989-0.163-1.977-0.339-2.955-0.519c-1.377-0.251-2.561-0.756-3.825-1.496c-2.224-1.297-4.829-1.975-7.319-2.758
			c-2.412-0.761-4.878-1.326-7.316-1.971c-0.583-0.149-1.175-0.35-1.773-0.378c-1.629-0.077-3.034-0.378-4.646-1.157
			c-2.443-1.188-5.435-1.293-8.21-1.755c-1.382-0.227-2.802-0.222-3.91-0.291c-1.186-0.809,0.301-3.294-2.446-2.595
			c0.183,0.682,0.367,1.364,0.567,2.098c-0.404,0.159-0.682,0.378-0.933,0.361c-4.939-0.392-9.868-0.805-14.797-1.221
			c-0.399-0.028-0.882-0.286-1.189-0.141c-3.007,1.386-5.876-0.631-8.888-0.31c-3.081,0.33-6.243-0.242-9.355-0.121
			c-4.709,0.187-9.396,0.627-14.098,0.944c-0.387,0.026-0.859,0.07-1.161-0.11c-2.349-1.416-4.878-0.84-7.368-0.798
			c-0.994,0.016-1.996-0.035-2.995-0.09c-0.297-0.016-0.688-0.297-0.864-0.181c-3.297,2.103-6.594-0.625-9.972,0.048
			c-3.444,0.688-7.018,0.801-10.545,0.963c-3.519,0.171-7.066-0.105-10.57,0.203c-2.615,0.23-5.186,1.088-7.7,2.146
			c1.601,0.167,3.202,0.334,4.799,0.497c0,0.229,0.004,0.448,0.016,0.673c-1.742,0.202-3.475,0.488-5.215,0.583
			c-4.242,0.235-8.478,0.469-12.723,0.539c-2.701,0.044-5.437,0-8.103-0.398c-1.209-0.181-2.283-1.304-3.644-2.145
			c-3.011,0.97-3.011,0.97-3.774,0.247c-1.214,0.352-2.204,0.954-3.112,0.844c-4.009-0.493-7.838,0.446-11.724,1.078
			c-7.579,1.236-15.142,2.56-22.756,3.471c-4.526,0.541-9.079,0.079-13.24-2.279c-1.555-0.888-3.211-1.788-4.929-2.195
			c-2.303-0.545-4.717-0.622-7.359-0.937c0.222-2.754-2.349-2.969-4.486-3.343c-1.084-0.198-2.349,0.334-3.462,0.722
			c-0.308,0.105-0.391,0.869-0.563,1.295c-1.385,0.262-2.771,0.525-4.157,0.794c0.011,0.224,0.02,0.448,0.031,0.677
			c1.988-0.238,3.906-0.273,5.899,1.43c-2.083,0.739-3.781,1.61-5.573,1.907c-3.085,0.512-6.217,0.794-9.345,0.913
			c-2.197,0.075-4.443-0.154-6.62-0.479c-2.192-0.321-4.311-0.895-6.545-0.167c-0.712,0.231-1.61,0.026-2.389-0.141
			c-6.615-1.405-13.279-2.639-19.82-4.337c-5.758-1.491-11.59-3.057-16.242-7.117c-1.969-1.725-3.75-3.673-5.646-5.477
			c-3.82-3.603-7.715-7.117-11.474-10.781c-2.962-2.89-5.962-5.775-8.573-8.969c-2.951-3.618-6.22-6.82-9.736-9.888
			c-4.176-3.633-7.856-7.834-11.711-11.832c-1.399-1.452-2.529-3.185-4.029-4.509c-1.958-1.726-2.424-3.818-2.32-6.241
			c0.191-4.605,3.746-8.305,8.263-9.046c3.974-0.658,7.176,0.501,9.877,3.284c2.109,2.168,4.051,4.495,6.169,6.659
			c2.54,2.595,5.265,5.01,7.754,7.649c3.242,3.453,6.252,7.13,9.505,10.579c4.909,5.195,8.843,11.289,14.524,15.765
			c0.873,0.684,1.737,1.396,2.666,1.992c2.138,1.386,4.09,2.815,5.034,5.411c0.712,1.988,2.536,3.119,4.486,3.827
			c2.279,0.827,4.557,1.689,6.906,2.261c5.993,1.462,11.997,2.837,18.03,4.108c5.003,1.051,10.088,0.877,15.103,0.154
			c6.659-0.968,13.284-1.012,19.925,0.062c0.497,0.079,1.003,0.119,1.511,0.119c5.544,0.018,11.095,0.066,16.646-0.009
			c1.832-0.026,3.664-1.209,5.476,0.242c0.271,0.215,1.164,0.105,1.417-0.171c1.986-2.184,4.713-1.557,7.086-1.687
			c4.757-0.262,9.426-0.983,14.098-1.823c4.563-0.812,9.164-1.425,13.759-2.037c3.23-0.431,4.737-0.04,7.387,1.757
			c-2.059,0.952-0.763,2.936-1.938,4.486c0.794,0.06,1.311,0.251,1.52,0.082c0.939-0.77,1.812-0.829,3.022-0.554
			c1.993,0.458,2.846-0.185,3.992-2.448c0.431,0.759,0.757,1.348,1.164,2.078c2.157-1.583,4.502-2.043,7.108-1.15
			c0.713,0.246,1.601-0.051,2.397,0c0.994,0.059,2.118-0.042,2.952,0.398c3.292,1.75,6.215,0.721,8.863-1.223
			c0.97-0.713,1.588-1.098,2.602-0.4c0.581,0.407,1.144,0.946,1.786,0c0.082-0.119,0.752,0.176,1.164,0.255
			c0.554,0.124,1.326,0.497,1.647,0.269c2.098-1.522,3.915,0.229,5.853,0.409c0.171,0.022,0.271,0.704,0.271,0.704
			c2.003,0.281,3.794,0.528,6.384,0.889c1.104-0.933,2.8-2.369,5.12-4.333c2.635,0,6.143-0.092,9.646,0.046
			c1.244,0.051,2.454,0.684,3.694,0.994c0.37,0.09,0.783-0.007,1.184-0.02c0,0,1.776,0.658,2.048,0.757
			c0.07-0.561,0.132-1.064,0.234-1.971c2.274,0.114,4.584,0.235,6.902,0.356c0.03,0.211,0.062,0.422,0.097,0.631
			c-1.045,0.317-2.094,0.638-3.52,1.076c4.357,1.801,8.401,2.076,12.648,1.28c2.514-0.483,5.109-0.603,7.673-0.805
			c0.544-0.044,1.101,0.272,1.656,0.418c0.864,0.22,1.727,0.62,2.596,0.626c2.936,0.007,3.026,0.02,3.459,2.776
			c0.064,0.38,0.095,0.776,0.189,1.526c-1.219,0.204-2.354,0.396-3.488,0.591c4.258,0.537,4.913,0.044,5.195-4.051
			c0.497,0.075,0.97,0.146,1.411,0.222c0.783,1.516-1.687,3.277,0.515,4.538c-2.522,3.081-3.011,3.193-5.363,1.038
			c-0.955,2.27-3.012,1.381-4.733,1.694c3.931,0.923,7.865,1.284,12.237,0.66c-1.832-2.221,0.706-3.822,0.266-5.96
			c0.999-0.229,1.86-0.427,2.503-0.579c-0.687-0.328-1.57-0.748-2.874-1.375c0.822-0.528,1.385-1.126,1.664-1.016
			c1.507,0.609,2.928,1.447,4.435,2.076c0.576,0.237,1.379,0.334,1.935,0.123c1.647-0.638,3.214-1.46,5.508-2.529
			c-0.732,1.095-1.069,1.588-1.452,2.142c1.863,0.247,3.711,0.739,5.245-1.011c0.604-0.688,1.401-0.649,2.139,0.03
			c0.433,0.396,0.979,0.651,1.467,0.968c2.349,1.54,4.697,1.28,6.213-1.056c1.968-3.039,4.497-5.032,8.096-5.709
			c0.606-0.117,1.13-0.766,1.667-1.201c1.841-1.511,2.282-1.575,4.24-0.189c0.803,0.576,1.605,1.262,2.148,2.081
			c2.278,3.448,5.441,5.538,9.406,6.596c4.983,1.331,9.835,3.037,14.234,5.821c0.427,0.273,0.893,0.484,1.304,0.783
			c2.811,2.059,2.811,2.059,5.928,2.234c1.35,2.936,4.246,3.977,7.072,5.375c-0.813-2.635-1.576-5.292-2.45-7.896
			c-0.341-0.999-0.682-2.107-2.27-1.957c-0.501,0.044-1.194-0.678-1.614-1.201c-1.436-1.794-2.888-3.587-4.141-5.509
			c-2.364-3.622-4.522-7.383-6.891-11.007c-2.47-3.774-5.452-6.765-10.17-7.935c-9.226-2.278-18.41-4.641-28.006-4.337
			c-2.811,0.092-5.667,0.312-8.393,0.955c-5.089,1.189-10.237,1.064-15.377,1.17c-1.261,0.026-2.541-0.88-4.357-1.562
			c-3.373,2.239-7.743,1.452-12.071,1.577c-4.723,0.139-9.415,1.034-14.124,1.57c-5.516,0.638-11.025,1.28-16.548,1.863
			c-1.899,0.194-3.822,0.194-5.74,0.334c-5.362,0.374-10.721,0.374-16.026-0.561c-4.914-0.864-9.802-0.943-14.747-0.31
			c-5.43,0.695-10.816,0.73-16.286-0.207c-2.76-0.481-5.753,0.563-8.654,0.783c-2.6,0.207-5.219,0.417-7.818,0.312
			c-6.354-0.268-12.699-0.946-19.057-1.029c-7.865-0.105-15.745,0.207-23.609,0.37c-8.769,0.18-17.337-1.192-25.785-3.36
			c-4.581-1.186-9.134-2.547-13.605-4.102c-3.77-1.304-6.963-3.598-9.731-6.534c-2.551-2.716-5.362-5.199-7.981-7.86
			c-3.684-3.726-4.909-8.312-4.154-13.376c0.204-1.42,0.952-2.94,1.887-4.04c1.614-1.907,3.488-3.622,5.419-5.219
			c1.476-1.214,3.193-1.342,5.116-0.618c3.539,1.326,5.586,4.236,7.825,6.941c2.052,2.483,3.798,5.236,5.936,7.634
			c4.453,4.995,9.622,8.885,16.457,10.13c6.439,1.174,12.835,2.635,19.279,3.783c1.852,0.333,3.829,0.04,5.747,0.009
			c5.551-0.092,11.091-0.356,16.623,0.621c1.746,0.299,3.633,0.145,5.417-0.132c4.964-0.748,9.811-0.301,14.65,0.869
			c0.673,0.165,1.41,0.046,2.109,0.099c1.7,0.141,3.402,0.468,5.094,0.422c2.399-0.07,4.792-0.387,7.191-0.638
			c1.395-0.149,2.791-0.561,4.186-0.545c6.505,0.07,12.899-0.854,19.268-1.958c3.75-0.646,7.434-0.414,11.172-0.145
			c3.921,0.275,7.856,0.365,11.78,0.521c0.703,0.024,1.416-0.116,2.119-0.09c8.591,0.229,17.08-0.818,25.548-2.085
			c2.045-0.304,4.165-0.992,6.061,0.638c0.309,0.262,0.979,0.132,1.477,0.132c5.46,0,10.921,0.11,16.378-0.07
			c2.162-0.075,4.302-0.818,6.459-1.214c1.386-0.255,2.78-0.488,4.189-0.66c3.876-0.455,7.76-0.875,11.842-0.752
			c-0.774,0.281-1.547,0.563-2.23,0.81c0.363,0.11,0.813,0.246,1.322,0.396c-0.216,0.603-0.377,1.038-0.588,1.641h3
			c-0.396-0.666-0.655-1.113-0.943-1.597c1.742-1.047,1.416,1.175,2.56,1.502c3.284-0.658,6.787-1.762,11.122-0.592
			c-0.682-0.724-0.963-1.271-1.223-1.267c-2.912,0.066-5.824,0.222-8.775,0.11c2.215-1.012,3.966-2.804,6.842-2.362
			c3.379,0.532,6.866,0.255,10.28,0.627c1.961,0.222,3.837,1.135,5.79,1.566c1.326,0.292,2.717,0.398,4.075,0.402
			c0.979,0,1.988-0.211,2.947-0.471c2.877-0.778,5.078,0.08,6.966,2.358c0.582,0.717,1.682,1.113,2.621,1.405
			c7.95,2.448,14.806,6.811,21.261,11.92c1.465,1.159,2.971,2.267,4.858,3.704c-0.673-1.872-0.845-3.398-1.656-4.392
			c-1.593-1.962-3.358-3.884-5.391-5.366c-3.222-2.349-6.752-4.366-9.129-7.623c-2.364-3.246-5.503-5.25-9.03-6.897
			c-4.863-2.274-9.455-5.003-13.592-8.48c-2.31-1.944-3.469-4.423-3.764-7.315c-0.413-4.055,1.978-6.969,6.084-6.934
			c2.784,0.028,5.605,0.646,8.331,1.344c4.005,1.016,8.04,2.063,11.865,3.611c2.951,1.188,5.911,2.793,8.307,4.86
			c5.575,4.821,10.864,9.974,16.164,15.104c4.076,3.939,8.072,8.03,10.249,13.39c1.396,3.453,2.391,7.068,3.565,10.609
			c0.662,2.01,1.183,4.077,2.008,6.008c0.4,0.924,1.39,1.588,2.096,2.384c0.548,0.611,1.064,1.249,1.643,1.922
			c0.482-0.29,1.21-0.721,2.123-1.269c0.13-1.484,0.697-3.438-2.145-3.754c-0.36-0.044-0.736-0.911-0.908-1.447
			c-0.314-1.047-0.49-2.138-0.776-3.396c-0.537,0.436-0.929,0.752-1.722,1.395c-0.604-2.146-1.336-4.005-1.617-5.934
			c-0.548-3.646-2.157-6.888-3.462-10.258c-0.613-1.585-1.291-3.158-1.732-4.794c-0.799-2.98-1.43-6.018-2.173-9.018
			c-0.11-0.448-0.407-1.08-0.752-1.192c-1.817-0.6-2.341-2.292-3.394-3.572c-1.647-1.992-3.645-3.695-5.517-5.502
			c-0.938-0.902-2.043-1.665-2.856-2.664c-1.496-1.812-3.292-3.178-5.224-4.506c-4.105-2.833-8.177-5.777-11.931-9.057
			c-2.107-1.845-4.401-3.994-3.931-7.431c0.055-0.346-0.525-0.783-0.611-0.889c1.395-1.918,3.143-3.574,3.899-5.602
			c0.673-1.821,2.059-2.349,3.304-3.264c0.615-0.449,1.354-0.726,1.887-1.003c3.433,1.214,6.785,2.335,10.068,3.604
			c1.59,0.607,3.211,1.313,4.562,2.325c6.213,4.671,12.366,9.431,18.461,14.258c1.495,1.167,2.749,2.663,4.033,4.084
			c0.434,0.479,0.618,1.186,1.256,2.465c-1.37-0.662-2.109-1.009-2.94-1.41c-0.086,0.235-0.258,0.481-0.246,0.717
			c0.02,0.392,0.035,0.908,0.271,1.148c1.479,1.533,3.021,3.004,4.99,4.936c-0.645-1.601-1.076-2.697-1.679-4.209
			c0.803,0.294,1.205,0.33,1.276,0.484c0.833,1.983,1.52,3.906,2.876,5.749c1.685,2.292,2.162,5.455,3.267,8.195
			c2.073,5.146,4.223,10.26,6.325,15.391c0.259,0.646,0.42,1.333,0.627,2.001c-0.196,0.09-0.392,0.18-0.592,0.271
			c-0.634-0.829-1.275-1.652-2.173-2.815c-0.392,2.008,1.555,4.37-1.758,5.324c0.812,0.519,1.184,0.759,1.696,1.084
			c-0.191,1.174-0.407,2.5-0.713,4.306c0.864-0.548,1.315-0.838,1.927-1.225c0.336,0.431,0.684,0.875,1.174,1.496
			c-1.093,0.361-1.985,0.653-3.145,1.034c0.687,1.15,2.384,1.478,1.887,3.132c-0.327,1.104-0.23,2.335-0.327,3.625
			c3.111-1.012,3.138-1.042,3.765-4.249c3.102,1.403,3.272,1.57,2.448,4.451c-0.511,1.794,0.483,3.262,0.854,4.786
			c0.547,2.265,0.673,4.214-0.683,6.2c-0.677,0.994-1.214,2.109-1.676,3.222c-1.515,3.644-3.352,7.147-4.678,11.042
			c0.402,0.271,0.768,0.688,1.186,0.748c1.363,0.187,1.484,0.974,1.445,2.153c-0.142,3.919-0.152,7.85-0.242,11.775
			c-0.04,2.309-0.231,4.612-0.176,6.915c0.026,1.025,0.462,2.049,0.789,3.048c0.325,1.019,0.823,1.988,1.093,3.011
			c0.383,1.41,0.623,2.856,1.064,4.979c-0.25,1.852-0.652,4.502-0.958,7.152c-0.256,2.208-0.85,4.115-3.108,5.136
			c-0.45,0.205-0.787,0.862-1.018,1.385c-2.972,6.578-8.945,8.164-14.791,3.897c-0.25-0.181-0.512-0.33-1.123-0.726
			c-0.732,0.682-1.538,1.425-2.475,2.303c-0.578-0.187-1.315-0.42-2.34-0.748c0.055,0.607-0.051,1.309,0.151,1.41
			c0.385,0.198,0.938,0.046,1.419,0.046c1.948-0.007,3.294,1.097,3.824,2.995c0.376,1.357,0.915,2.666,1.271,4.016
			c0.204,0.759,0.211,1.559,0.295,2.349c0.086,0.858,0.16,1.718,0.301,3.183c2.028-2.27,4.036-3.414,6.615-3.066
			c0.186,0.024,0.497-0.026,0.563-0.152c1.621-2.967,5.477-2.208,7.539-4.506c0.36-0.402,1.289-0.427,1.951-0.409
			c2.6,0.07,2.725,0.035,3.949-2.483c3.108,0.873,5.391-1.124,8.037-2.529c-0.478-1.445-1.034-2.267-2.815-1.973
			c-1.486,0.255-4.498-2.125-4.729-3.62c-0.121-0.761,0.381-2.322,0.631-2.327c2.069-0.066,1.456-4.799,4.634-2.63
			c0.064,0.048,0.196,0.004,0.306,0.004c2.29-2.063,5.004-3.84,5.25-7.803c-0.838,0.409-1.436,0.695-2.078,1.012
			c-1.351-3.4-0.643-5.3,3.083-8.309c0.53,0.491,1.089,1.003,1.74,1.606c0.462-0.304,0.938-0.618,1.706-1.131
			c-0.149,1.073-0.266,1.887-0.38,2.701c1.876-1.667,2.604-3.835,3.116-6.475c1.707,2.6,0.717,4.878,0.692,7.253
			c0.623-1.799,1.25-3.604,2.037-5.872c0.664,0.813,0.985,1.214,1.326,1.625c0.16,1.256-1.946,2.408,0.246,3.699
			c-0.095-1.251-0.195-2.505-0.297-3.754c0.873,0.075,1.737,0.149,2.811,0.242c-0.101,0.541-0.22,1.152-0.341,1.817
			c0.838,0.134,1.676,0.651,2.259-0.572c0.211-0.438,0.904-0.643,1.381-0.959h-0.086c0.697-0.328,1.384-0.653,2.067-0.985
			c-0.543,1.746-0.38,3.382-1.244,4.975c-0.823,1.509-0.141,3.875,0.039,5.857c0.02,0.257,1.076,0.708,1.507,0.572
			c0.933-0.286,1.876-0.759,2.63-1.379c2.413-1.984,4.762-4.042,7.091-6.123c1.029-0.919,1.746-1.869,0.427-3.294
			c-0.427-0.462-0.33-1.711-0.079-2.459c0.536-1.515,1.386-2.916,2.027-4.403c0.353-0.823,0.827-1.72,0.799-2.573
			c-0.141-3.754,2.001-6.71,3.266-9.978c0.181-0.46,0.481-0.886,0.794-1.278c1.366-1.678,2.996-1.83,4.331-0.187
			c0.868,1.069,1.265,2.494,2.012,3.675c1.874,2.96,1.518,5.791-0.09,8.753c-2.178,4.034-1.918,8.542-2.118,12.936
			c-0.02,0.387,0.007,0.896,0.231,1.15c1.676,1.953,0.633,3.664-0.683,5.039c-1.746,1.823-2.579,4.021-3.573,6.596
			c1.045,0.169,1.902,0.473,2.751,0.438c2.087-0.093,3.481,0.842,4.346,2.648c1.676,3.519,3.504,6.989,4.918,10.601
			c0.789,2.003,2.094,3.114,3.855,3.976c1.812,0.884,3.624,1.742,5.391,2.705c1.715,0.933,2.177,2.51,1.444,4.291
			c-0.321,0.759-1.119,1.194-0.682,2.408c1.305,3.629,1.194,3.675,2.819,4.808c1.135-0.321,2.281-0.642,3.525-0.992
			c0.772,0.857,0.902,2.223,2.468,2.267c0.924,0.026,1.769,2.571,1.467,3.796c-0.183,0.768-0.453,1.508-0.824,2.718
			c0.924-0.334,1.472-0.532,2.399-0.858c-0.757,1.848-0.29,3.429,0.513,5.116c0.492-0.196,1.003-0.396,1.722-0.682
			c0.114,2.502,1.489,3.728,3.899,3.833c0.332-1.139,0.657-2.263,1.019-3.495c0.567,0.312,0.895,0.403,0.895,0.497
			c0.095,2.793,0.948,5.608-0.206,8.362c-0.196,0.468-0.482,0.955-0.478,1.421c0.016,3.855-1.309,7.385-2.329,11.027
			c-1.651,5.898-2.835,11.92-4.189,17.897c-1.437,6.356-3.941,12.272-7.179,17.894c-1.711,2.972-3.715,5.775-5.496,8.71
			c-2.294,3.804-4.4,7.719-6.761,11.488c-3.875,6.216-8.48,11.814-14.544,16.072c-4.137,2.908-8.263,5.815-12.382,8.719
			c-3.801,2.679-8.115,3.426-12.629,3.527c-0.959,0.021-2.043,0.114-2.826,0.581c-0.982,0.589-1.796,0.475-2.498-0.119
			c-2.756-2.292-5.441-4.667-8.142-7.024c-0.889-0.778-1.175-1.707-1.194-2.943c-0.031-2.384-0.587-4.692-0.367-7.169
			c0.356-4.038,2.477-6.36,5.863-8.059c1.781-0.889,3.468-2.015,5.094-3.18c2.45-1.769,4.97-3.497,7.179-5.552
			c3.18-2.942,6.213-6.053,9.098-9.281c1.949-2.182,3.5-4.701,5.285-7.02c0.864-1.115,1.772-2.265,2.872-3.123
			c5.164-4.016,8.833-9.422,13.189-14.172c0.743-0.805,1.309-1.812,1.746-2.815c0.242-0.563,0.321-1.474,0.021-1.936
			c-0.834-1.302-0.521-2.534-0.06-3.763c0.571-1.502,1.198-2.987,1.906-4.427c1.727-3.532,3.042-7.166,3.534-11.102
			c0.174-1.37,0.894-2.666,1.175-4.025c0.471-2.313,0.803-4.649,1.219-7.108c-0.456-0.55-0.999-1.128-1.45-1.777
			c-0.622-0.897-1.185-1.724-0.813-3.026c0.251-0.853-0.211-1.9-0.352-2.87c-3.141,0.561-3.387,0.794-2.298,3.05
			c1.033,2.151-1.054,1.894-1.848,2.705c0.517,1.733,0.873,3.455-1.19,5.146c-0.325-2.063-0.587-3.761-0.796-5.089
			c-0.924-0.167-1.823-0.05-2.164-0.431c-1.702-1.909-1.651-1.953-3.724-0.277c0.436-1.562,0.827-3.136,1.324-4.671
			c0.346-1.076,0.657-1.958-0.156-3.097c-0.455-0.633-0.141-1.865-0.07-2.822c0.07-1.018,0.251-2.039,0.372-3.006
			c-1.566-0.458-2.057,0.361-2.545,1.135c-2.001,3.167-4.432,5.912-7.321,8.351c-2.45,2.063-4.423,4.691-6.827,6.812
			c-6.494,5.727-13.109,11.313-19.679,16.958c-2.529,2.168-5.109,4.282-7.586,6.517c-7.627,6.879-16.47,11.612-26.127,14.936
			c-3.144,1.084-6.29,2.173-9.416,3.301c-5.256,1.909-10.682,2.028-16.162,1.601c-0.901-0.07-1.806-0.251-2.71-0.271
			c-6.063-0.117-11.007-5.883-9.919-11.819c0.693-3.815,2.661-6.725,6.02-9.023c5.074-3.475,10.634-5.155,16.557-6.286
			c3.945-0.752,7.81-2.063,11.595-3.438c1.516-0.552,2.681-2.028,4.095-2.94c1.929-1.245,3.887-2.481,5.943-3.475
			c1.455-0.712,2.676-1.7,3.991-2.511c2.514-1.557,4.033-3.946,6.143-5.809c0.146-0.134,0.337-0.235,0.462-0.392
			c2.54-3.033,5.907-4.282,9.741-4.587c0.567-0.051,1.216-0.211,1.643-0.552c2.224-1.737,4.361-3.574,6.564-5.327
			c0.697-0.554,1.44-1.218,2.272-1.418c2.551-0.603,3.866-2.549,4.623-4.643c0.677-1.887,2.082-2.956,3.519-3.475
			c2.6-0.946,4.161-2.839,5.832-4.737c0.191-0.205,0.518-0.275,0.783-0.405c-0.297-1.588-0.583-3.119-0.97-5.182
			c-2.424,1.619-4.572,3.018-6.69,4.452c-4.476,3.068-8.832,6.33-13.451,9.187c-8.964,5.562-17.682,11.553-27.414,15.846
			c-8.14,3.594-16.571,5.784-25.431,6.323c-4.834,0.292-9.7,0.857-14.511,0.543c-5.108-0.338-10.187-1.473-15.236-2.454
			c-2.499-0.493-5.039-4.685-5.14-7.922c-0.091-2.608,0.642-4.993,2.108-7.148c0.491-0.726,1.034-1.425,1.575-2.177
			c-2.74-0.545-5.31-1.069-8.146-1.636c0.297-0.642,0.497-1.06,0.688-1.474c0.146-0.343,0.281-0.69,0.462-1.106
			c-3.759-1.144-7.309-2.373-10.941-3.266c-2.529-0.629-5.159-0.836-7.759-1.126c-0.302-0.035-0.674,0.598-1.015,0.919l0.064-0.075
			c-0.225,0.31-0.456,0.633-0.818,1.128c4.098,2.344,8.423,3.794,12.815,5.1c-0.077,0.255-0.161,0.51-0.237,0.774
			c-1.184-0.303-2.369-0.603-3.553-0.915c-7.229-1.887-14.436-3.867-21.687-5.626c-3.026-0.739-6.185-0.899-9.242-1.553
			c-4.22-0.902-8.521-1.093-12.788-1.535c-2.879-0.294-5.807-0.105-8.712-0.101c-4.739,0.018-9.473,0.053-14.205,0.082
			c-3.121,0.015-6.248,0-9.38,0.05c-3.739,0.066-7.493,0.488-11.208,0.235c-11.106-0.752-22.184,0.521-33.286,0.205
			c-5.089-0.145-10.218,0.088-15.298,0.919c-7.708,1.26-15.499,0.959-23.282,1.056c-6.33,0.07-12.723-0.343-18.967,1.445
			c-6.596,1.887-13.282,3.468-19.891,5.305c-5.727,1.59-9.206,5.41-11.911,10.752c-3.171,6.25-6.334,12.626-10.981,18.061
			c-1.415,1.654-2.479,3.682-3.358,5.692c-1.562,3.594-4.671,4.92-8.045,5.632c-2.498,0.526-5.1-1.735-5.57-4.924
			c-0.422-2.866-0.653-5.907-0.165-8.731c1.566-9.156,3.327-18.32,7.528-26.739c5.234-10.482,13.466-16.948,25.371-18.271
			c3.288-0.368,6.569-0.825,9.846-1.315c2.099-0.316,4.056-0.871,5.703-2.477c1.284-1.245,3.147-1.41,4.862-0.901
			c3.739,1.104,7.443,0.446,11.036-0.402c3.781-0.889,7.531-1.384,11.395-1.366c1.485,0.004,3.042-0.229,4.456-0.69
			c4.979-1.632,9.938-2.472,15.164-0.977c3.668,1.051,7.432,0.042,11.126-0.314c3.926-0.38,7.801-0.854,11.75-0.187
			c2.578,0.427,5.234,0.418,7.843,0.633c1.201,0.102,2.391,0.321,3.585,0.431c0.693,0.062,1.575,0.277,2.059-0.048
			c3.868-2.661,7.878-0.075,11.792-0.422c3.168,2.38,6.847,0.726,10.249,1.285c0.332,0.055,0.735-0.247,1.342-0.466
			c-0.262-0.477-0.462-0.845-0.759-1.377c0.813-0.176,1.581-0.479,2.34-0.47c5.646,0.055,11.287-0.541,16.933,0.365
			c3.475,0.563,7.029,0.7,10.553,0.754c4.334,0.075,8.683-0.306,13.018-0.156c3.726,0.125,7.457,0.583,11.133,1.196
			c1.33,0.216,2.479,0.264,3.371-0.585c2.833-2.694,5.934-1.935,8.153,0.187c3.111,2.991,6.965,3.464,10.699,4.493
			c2.43,0.66,4.939,0.988,7.669,1.513c0.813-1.262,1.432-2.903,2.61-3.838c1.045-0.833,2.357-1.797,4.064-1.484
			c1.267,0.229,2.631,0.314,3.895,0.11c0.724-0.116,1.698-0.822,1.918-1.478c0.321-1.016-0.281-1.887-1.484-2.236
			c-0.939-0.271-1.812-0.759-2.747-1.159v-3.343c-3.151-0.748-6.158-1.472-9.173-2.199c0.877-0.581,1.771-1.144,2.956-1.907
			c-3.495-0.583-3.641-0.468-2.896,1.969c-1.797-0.84-3.066,0.458-4.498,1.108c-0.086-0.623-0.176-1.249-0.306-2.217
			c-1.189,0.831-2.514,0.862-2.681,2.452C521.186,196.476,522.122,195.931,523.081,195.513"/>
		<path clip-path="url(#SVGID_2_)" fill="#a41c31" d="M245.077,307.057c0.004-0.086,0.004-0.176,0.011-0.262h-1.335
			c0,0.055-0.011,0.121-0.011,0.183C244.188,307,244.637,307.026,245.077,307.057 M67.844,202.324
			c-0.13,0.09-0.341,0.165-0.361,0.266c-0.02,0.167,0.097,0.348,0.152,0.523c0.141-0.101,0.365-0.176,0.385-0.292
			C68.046,202.676,67.906,202.494,67.844,202.324 M388.02,89.186c-0.105-0.242-0.191-0.497-0.336-0.704
			c-0.026-0.035-0.442,0.127-0.438,0.152c0.042,0.25,0.141,0.501,0.215,0.748C387.618,89.327,387.778,89.27,388.02,89.186
			 M315.635,57.575c-0.422-0.231-0.712-0.495-0.833-0.438c-0.301,0.163-0.521,0.468-0.776,0.719c0.2,0.156,0.451,0.473,0.576,0.42
			C314.927,58.171,315.193,57.898,315.635,57.575 M319.771,59.662c0.44-0.479,0.667-0.721,0.893-0.972
			c-0.262-0.227-0.493-0.528-0.794-0.638c-0.13-0.04-0.552,0.317-0.572,0.517C319.279,58.835,319.519,59.121,319.771,59.662
			 M61.462,147.146c0.18,0.024,0.352,0.048,0.521,0.07c0.082-0.739,0.161-1.471,0.242-2.214c-0.112-0.011-0.227-0.024-0.332-0.04
			C61.748,145.69,61.607,146.416,61.462,147.146 M332.549,62.882c-0.363-1.518-0.697-2.25-2.109-1.412
			C331.104,61.912,331.626,62.262,332.549,62.882 M84.378,242.356c-0.242-0.033-0.497-0.064-0.743-0.099
			c-0.101,0.642-0.2,1.284-0.301,1.927c0.211,0.035,0.422,0.07,0.633,0.101C84.106,243.643,84.242,243,84.378,242.356
			 M78.335,150.81c0.02,0,0.031,0,0.05-0.004v-1.788h-0.05V150.81z M77.633,136.928c0.224-0.026,0.451-0.042,0.677-0.071
			c-0.125-0.899-0.262-1.799-0.387-2.696c-0.172,0.014-0.326,0.035-0.486,0.055C77.501,135.116,77.563,136.018,77.633,136.928
			 M86.807,62.618c-0.079-0.255-0.165-0.51-0.251-0.765c-1.042,0.11-2.071,0.24-2.709,2.182
			C85.157,63.401,85.984,63.016,86.807,62.618 M333.071,58.62c-1.817-1.949-1.938-1.944-2.639,0H333.071z M234.01,61.188
			c0.939,0.121,1.863,0.238,2.866,0.367c-0.24-1.682-0.24-1.682-2.252-3.438C234.417,59.141,234.236,60.089,234.01,61.188
			 M64.231,180.617c-1.313,1.911-0.592,3.609,0.02,6.033C65.084,184.222,65.957,182.515,64.231,180.617 M224.43,59.201
			c-0.508-0.198-1.201-0.722-1.467-0.55c-1.355,0.858-1.605,2.296-1.755,3.805C223.044,62.35,223.044,62.35,224.43,59.201
			 M86.441,75.73c-2.936,3.583-3.358,4.878-2.103,6.112C85.608,80.076,86.591,78.22,86.441,75.73 M205.89,291.913
			c-0.844-0.565-1.405-0.941-1.768-1.188c-1.445,0.622-2.67,1.144-3.853,1.656c0.486,0.592,1.022,1.245,1.585,1.938
			C203.143,293.549,204.324,292.847,205.89,291.913 M63.103,174.82c0-0.451,0.105-0.948-0.015-1.37
			c-1.309-4.417-1.08-8.868-0.392-13.341c0.031-0.18-0.31-0.416-0.506-0.655C60.96,161.741,61.231,171.109,63.103,174.82
			 M136.691,313.065c3.257,1.716,11.34,1.425,14.46-0.734c-3.402,0.304-6.165,0.515-8.925,0.81
			c-1.379,0.141-2.733,0.611-4.055-0.339C137.951,312.639,137.399,312.929,136.691,313.065 M382.449,77.767
			c-0.503,1.931-0.813,3.119-1.154,4.416c1.062,0.374,1.938,1.874,3.261,0.312c0.09-0.11,0.827,0.11,1.049,0.36
			c0.959,1.109,1.832,2.294,2.745,3.44c0.321,0.4,0.668,0.776,1.491,1.729c-0.075-1.209,0.075-1.816-0.156-2.085
			C387.438,83.322,385.124,80.762,382.449,77.767 M377.028,67.826c0.281-0.031,0.572-0.062,0.853-0.097
			c0-0.792,0.33-1.852-0.055-2.345c-2.083-2.654-5.065-4.17-7.705-6.114c-0.132,0.152-0.253,0.297-0.382,0.453
			c1.06,1.049,2.122,2.093,3.237,3.193c-0.662,0.409-1.009,0.631-1.168,0.73c0.761,1.021,1.434,1.918,2.116,2.841
			c0.508-0.176,1.045-0.36,1.592-0.545C376.065,66.621,376.546,67.228,377.028,67.826 M77.935,103.002
			c-0.242,0.03-0.488,0.066-0.728,0.097c-1.993,15.773-2.054,24.883,0,27.447c0.114-0.621,0.306-1.073,0.275-1.513
			c-0.501-7.48-0.169-14.922,0.915-22.34C78.566,105.509,78.1,104.233,77.935,103.002 M76.327,75.334
			c-0.121-0.543-0.24-1.091-0.513-2.309c-0.431,1.117-0.631,1.614-0.893,2.287c0.724-0.035,1.115-0.055,1.507-0.075
			c0.149,1.452,0.31,2.894,0.462,4.262c1.687,0.176,3.352,0.35,4.968,0.519c1.445-2.307,1.445-2.307,0.035-3.704
			c0.919-2.056,1.209-4.231,0.989-6.66C80.534,71.688,78.436,73.511,76.327,75.334 M358.919,298.691
			c0.451,0.224,0.919,0.451,1.601,0.788c-7.563,3.875-13.134,4.838-16.116,3.025c-7.231,3.748-15.217,4.205-23.062,5.27
			c-8.005,1.085-15.945-0.055-23.875-0.817c-4.634-0.446-9.246-0.909-13.882-0.497c-5.085,0.457-9.809-0.709-14.366-2.83
			c-0.451-0.209-0.924-0.502-1.401-0.521c-0.998-0.035-2.012,0.025-2.995,0.148c-0.994,0.137-1.966,0.506-2.971,0.577
			c-0.893,0.065-1.812-0.139-2.721-0.22c-0.07,0.202-0.141,0.406-0.211,0.606c0.402,0.427,0.813,0.854,1.401,1.478
			c-7.548,1.052-14.861,2.121-22.189,3.055c-1.948,0.254-3.996,0.779-5.833-0.717c-0.436-0.355-1.366-0.32-2.001-0.169
			c-3.028,0.699-6.019,1.565-9.05,2.243c-0.983,0.216-2.059,0.04-3.348,0.04c0.231-1.267,0.381-2.114,0.565-3.123
			c-2.94,0.132-5.947-0.788-8.912,1.179c0.858,0.543,1.489,0.945,2.268,1.436c-0.411,0.267-0.631,0.533-0.873,0.553
			c-2.219,0.18-4.443,0.23-6.646,0.488c-4.15,0.485-8.28,1.104-12.426,1.625c-1.194,0.151-2.499,0.332-2.94-1.269
			c-0.147-0.537-0.09-1.131-0.141-2.046c-0.242-0.044-0.853-0.174-1.476-0.275c-0.082-0.015-0.202,0.126-0.272,0.102
			c-3.376-0.982-6.473,0.808-9.736,0.971c-1.476,0.074-2.008-0.579-1.986-2.094c2.67-1.623,5.611-2.477,8.833-2.631
			c-4.583-1.225-9.615-0.734-13.873,1.41c0.442,0.336,0.813,0.609,1.181,0.881c-0.979,0.393-1.958,0.797-2.927,1.192
			c0.547,0.964,1.034,1.821,1.546,2.714c3.332,0.744,6.765-0.571,10.378,0.458c-0.952,1.288-2.107,1.082-3.121,1.183
			c-2.912,0.312-5.833,0.506-8.729,0.92c-2.173,0.303-4.295,0.901-6.459,1.288c-0.943,0.172-1.927,0.203-2.896,0.177
			c-2.784-0.075-5.494,0.36-8.256,0.682c-3.673,0.439-7.466,0.285-11.181,0.044c-7.152-0.471-14.304-1.087-21.432-1.83
			c-4.014-0.409-7.979-1.267-11.984-1.786c-1.656-0.211-3.354-0.026-5.034-0.062c-0.477-0.004-1.06-0.004-1.417-0.259
			c-2.544-1.844-5.727-1.821-8.526-2.896c-0.412-0.156-0.994-0.005-1.445,0.151c-0.884,0.306-1.737,0.717-2.602,1.093
			c0.042,0.381,0.082,0.779,0.121,1.159c-0.205,0.066-0.436,0.211-0.561,0.149c-2.461-1.168-4.889-2.377-7.343-3.559
			c-2.168-1.037-3.389-2.74-3.449-5.124c-1.616-0.706-3.121-1.309-4.568-2.015c-1.997-0.98-3.211-2.547-3.935-4.715
			c-1.168-3.488-2.239-6.919-1.253-10.649c0.094-0.356-0.222-0.833-0.845-1.225c-0.07,1.375-0.134,2.751-0.209,4.166
			c-1.707,0.105-2.582-0.748-3.053-1.887c-1.139-2.677-2.479-5.336-3.081-8.146c-0.512-2.377-0.101-4.955-0.101-7.77
			c3.202,0.572,4.141-2.327,6.294-3.211c0.321-0.132,0.466-1.049,0.436-1.582c-0.095-1.812-0.314-3.609-0.506-5.621
			c-0.367,0.25-0.614,0.416-1.115,0.754c0.156-1.608-1.042-3.312,1.24-4.192c0.176-0.066,0.326-0.532,0.277-0.779
			c-0.422-2.258,1.313-4.794-0.864-6.84c-0.161-0.151-0.06-0.583-0.082-0.884c-0.24-3.906-0.541-7.803-0.69-11.705
			c-0.051-1.188,0.306-2.389,0.471-3.589l-0.016,0.046c0.095-0.169,0.266-0.341,0.282-0.525c0.306-3.968,1.792-7.86,0.563-11.916
			c-0.257-0.822-0.066-1.777-0.066-2.666c-0.011-1.385,0-2.762,0-4.548c-0.713,0.367-1.095,0.567-1.667,0.875
			c-0.337-0.673-0.671-1.341-0.812-1.623c2.017-3.677,1.375-7.372,1.997-11.067c-0.783,0.216-1.225,0.336-1.878,0.523
			c0.512-1.216,0.963-2.274,1.44-3.409c-1.104-0.321-1.735-0.11-2.043,0.884c-0.607,2.028-1.25,4.045-1.876,6.062
			c-0.513,1.658-0.614,3.253-0.372,5.041c0.251,1.876-0.4,3.868-0.657,5.811c-0.216-0.009-0.431-0.02-0.647-0.035
			c-0.066-0.537-0.215-1.073-0.191-1.61c0.25-5.947,0.29-11.9,1.557-17.783c0.752-3.532,1.354-7.176,1.379-10.781
			c0.031-3.884-0.368-7.843-1.15-11.647c-1.425-6.994-1.88-14.005-1.645-21.096c0.235-7.108-1.135-14.075-1.878-21.091
			c-0.189-1.801-0.18-3.633-0.079-5.446c0.341-6.061,1.315-12,2.991-17.867c1.225-4.271,2.043-8.647,4.075-12.648
			c0.592-1.168,1.025-2.455,1.777-3.508c3.202-4.502,4.737-9.743,6.785-14.766c0.994-2.424,2.27-4.733,3.283-7.148
			c0.361-0.857,0.321-1.882-0.024-2.982c1.669-1.856,3.347-3.708,5.032-5.564c0.132-0.149,0.282-0.378,0.442-0.392
			c2.951-0.301,4.247-2.791,6.143-4.533c2.379-2.179,5.663-2.505,8.529-3.675c3.559-1.449,7.293-1.395,11.027-1.263
			c1.354,0.044,2.232-0.193,2.74-1.702c0.471-1.42,1.656-2.168,3.222-2.791c3.613-1.456,7.407-0.653,11.041-1.401
			c0.191-0.035,0.402,0.057,0.603,0.062c2.404,0.035,4.196,2.349,6.857,1.671c2.338-0.589,4.752-0.928,7.146-1.175
			c4.317-0.448,8.663-0.664,12.98-1.115c8.839-0.939,17.667-1.942,26.5-2.967c6.943-0.803,13.893-1.095,20.875-0.832
			c0.497,0.018,1.078,0.009,1.476,0.251c3.77,2.248,7.865,2.162,11.999,1.781c9.662-0.904,19.314-1.863,28.976-2.709
			c6.028-0.532,12.07-0.966,18.113-1.315c2.49-0.151,5.12-0.497,7.458,0.115c3.558,0.937,7.086,0.704,10.651,0.818
			c0.189,0.004,0.411,0.176,0.581,0.125c1.406-0.387,2.795-1.089,4.208-1.15c1.425-0.048,2.701,1.366,4.35,0.598
			c0.579-0.272,1.351-0.105,2.023-0.207c0.794-0.114,1.577-0.295,2.896-0.557c1.484,0.983,3.75,0.913,6.052,1.128
			c3.409,0.317,6.561-0.189,9.807-0.941c1.412-0.321,3.007,0.053,4.502,0.251c7.801,0.994,15.541,2.432,23.218,4.13
			c9.065,1.997,18.391,2.901,27.174,6.092c3.414,1.236,6.781,2.692,9.928,4.456c2.243,1.267,4.161,3.154,6.103,4.892
			c3.818,3.442,7.223,7.469,11.412,10.348c5.824,3.996,8.131,10.075,11.093,15.854c0.345,0.673,0.396,1.57,0.372,2.36
			c-0.055,1.636-0.552,1.792-2.27,1.841c-3.171,0.092-5.399-1.891-7.759-3.07c-0.688,1.491-1.331,3.042-2.164,4.486
			c-0.114,0.207-1.46,0.097-1.735-0.26c-1.326-1.713-2.474-3.554-3.89-5.656c-0.501,0.994-0.924,1.821-1.386,2.733
			c-0.862,0.117-1.454-0.195-1.524-1.242c-0.102-1.573-0.543-2.982-2.098-3.902c-0.719,0.317-1.496,0.664-2.411,1.069
			c-0.075-0.481-0.246-0.831-0.141-0.999c0.383-0.563,0.854-1.06,1.361-1.663c-2.012-3.121-5.786-4.786-6.822-9.18
			c1.417,0.849,2.461,1.474,3.503,2.098c0.132-0.11,0.262-0.225,0.387-0.334c-1.471-1.882-2.936-3.761-4.403-5.644
			c1.993-0.294,3.038,1.241,4.383,2.215c0.768,0.552,1.621,0.975,2.444,1.449c0.594,2.004,2.359,2.908,3.796,4.126
			c-1.045-1.579-1.898-3.352-3.871-4.051c-1.088-2.859-3.638-4.311-5.993-6.712c-0.306,1.383-0.49,2.221-0.677,3.055
			c-0.477-0.165-0.943-0.396-1.425-0.477c-1.938-0.321-3.112-1.32-2.962-3.829c-1.418,0.31-2.538,0.561-3.873,0.86v-2.397
			c-0.132-0.093-0.277-0.269-0.453-0.321c-3.352-0.924-6.655-2.05-10.058-2.705c-4.126-0.792-8.111-2.419-12.452-2.052
			c-1.586,0.125-2.705,0.556-3.409,2.43c1.427,0.365,2.811,0.717,4.317,1.104c-1.245,0.954-1.245,0.954-4.832,0.094
			c-0.077,0.552-0.147,1.089-0.176,1.315c-1.291,0.743-2.461,1.414-4.056,2.344c-0.552-0.367-1.487-0.983-2.63-1.742
			c-0.145,0.082-0.704,0.658-1.124,0.567c-3.213-0.649-6.446-1.311-9.587-2.219c-0.924-0.266-1.617-1.346-2.61-2.223
			c-0.557,0.387-1.234,0.86-1.883,1.315c-1.042-0.532-2.012-1.018-2.976-1.506l0.02,0.101c0.653-1.218,1.3-2.428,2.079-3.888
			c4.964-0.333,9.932,0.435,14.938,1.478c-1.729-0.752-2.727-2.784-5.17-2.232c-1.276,0.286-2.826-0.095-4.122-0.557
			c-2.338-0.833-5.034-0.149-7.192-1.781c-0.341-0.255-1.198-0.07-1.707,0.158c-1.335,0.598-2.499,1.086-3.805-0.224
			c-0.361-0.361-1.656-0.238-2.217,0.132c-1.656,1.078-3.488,0.677-5.202,1.042c-2.419,0.517-4.542-0.959-6.871-0.11
			c-0.044-0.203-0.094-0.396-0.136-0.598c0.774-0.506,1.557-1.012,2.496-1.637c-1.053-1.053-2.274-0.352-3.468-0.743
			c-0.262,0.941-0.453,1.654-0.633,2.313c-3.543,0.163-6.985,0.022-10.319,0.563c-2.87,0.462-5.705,0.889-8.602,0.862
			c-1.01-0.009-2.054,0.171-3.022-0.029c-5.52-1.159-11.003-0.246-16.484,0.231c-2.558,0.216-2.529,0.337-1.645,2.771
			c0.121,0.316-0.062,0.748-0.11,1.249c1.179,0.125,2.358,0.25,3.316,0.352c1.285-0.484,0.864-2.731,2.736-2.079
			c-0.383,1.124-0.763,2.232-1.144,3.354c0.616,0.198,1.144,0.374,1.907,0.62c-0.431,0.343-0.603,0.567-0.838,0.66
			c-2.395,0.952-4.814,1.429-7.262,0.189c-0.669-0.336-1.428-0.633-1.909-1.166c-1.896-2.076-3.963-3.383-6.895-2.12
			c0.099,0.937,0.205,1.887,0.361,3.27c1.045-0.336,2.008-0.648,3.207-1.04c0.528,0.37,1.241,0.853,2.551,1.737
			c-1.874,0.145-3.127,0.255-4.383,0.332c-2.208,0.117-4.416,0.205-6.615,0.31c-6.424,0.308-12.849,0.634-19.262,0.935
			c-1.687,0.081-3.382,0.145-5.065,0.099c-0.987-0.024-2.032-0.123-2.936-0.475c-1.104-0.435-1.942-0.336-3.101,0.031
			c-1.335,0.416-2.991,0.193-4.412-0.141c-1.326-0.312-2.424-0.444-3.781,0.053c-1.253,0.462-2.76,0.317-4.15,0.317
			c-1.5-0.004-3.042-0.422-4.498-0.193c-5.36,0.835-10.786,0.439-16.185,1.559c-6.587,1.37-13.376,2.063-20.108,2.338
			c-5.109,0.207-10.269-0.585-15.377-1.152c-2.639-0.297-5.113-0.418-7.719,0.506c-2.248,0.798-4.737,0.904-7.117,1.315
			c-3.653,0.638-7.203,1.817-11.051,1.452c-2.074-0.191-4.012,0.682-5.485,2.595c-2.325,3.015-5.034,5.736-7.444,8.691
			c-0.873,1.069-1.355,2.459-2.043,3.686c-0.369,0.651-0.807,1.263-1.35,2.103c-0.4-0.748-0.62-1.166-0.882-1.636
			c-0.242,0.181-0.528,0.31-0.693,0.532c-0.658,0.889-1.375,1.746-1.867,2.714c-0.482,0.963-1.034,2.059-1.005,3.082
			c0.066,2.736-0.69,5.17-2.045,7.488c-0.714,1.219-0.825,2.428-0.719,3.959c0.271,3.776,0.04,7.543-0.814,11.366
			c-0.693,3.121-1.911,5.967-2.756,8.973c-0.51,1.826-0.048,3.95,0.093,5.934c0.211,3.004,0.461,6.006,0.822,8.997
			c0.114,0.939,0.642,1.828,0.924,2.58c-0.387,0.708-0.955,1.381-1.135,2.142c-0.4,1.764-0.563,3.576-0.904,5.354
			c-0.411,2.103-0.149,4.064,0.825,6.101c1.124-0.849-0.027-3.396,2.745-2.714c-0.438,2.905-0.216,5.907-2.305,8.441
			c-0.439,0.537-0.642,1.491-0.561,2.204c0.512,4.291,1.39,8.551,1.616,12.853c0.119,2.332-0.402,4.885-1.35,7.029
			c-1.496,3.396-2.384,6.778-2.094,10.478c0.07,0.899-0.121,1.812-0.149,2.723c-0.031,0.901-0.152,1.83,0.009,2.709
			c0.787,4.361,1.707,8.696,2.47,13.064c0.572,3.288,0.913,6.6-0.07,9.908c-0.165,0.547-0.262,1.269-0.051,1.771
			c1.034,2.454-0.044,4.627-1.003,6.919c-0.171-0.695-0.341-1.392-0.501-2.076c-0.101,0.048-0.352,0.088-0.383,0.183
			c-1.124,4.702-0.974,7.383,0.673,8.812c0.246-0.908,0.466-1.702,0.686-2.509c1.601,1.992,2.18,1.854,3.917-1.256
			c0.658,3.554,1.038,6.827,0.525,10.099c-0.231,1.476-1.113,2.857-1.796,4.526c-0.994-1.654-2.048-3.441-3.203-5.388
			c-1.35,1.139-1.073,2.895-0.431,4.13c1.691,3.198,1.585,6.283,0.521,9.598c-0.38,1.184-0.09,2.604,0.016,3.904
			c0.116,1.331,0.297,2.509-1.089,3.488c-0.481,0.336-0.321,1.605-0.451,2.448c1.771,0.176,0.893,3.163,3.105,2.938
			c0.207-0.022,0.547,0.501,0.688,0.831c1.007,2.248,0.999,2.254,3.414,1.513c0.189-0.057,0.392-0.066,0.673-0.123
			c1.524,1.957-2.148,3.862-0.141,5.612c-0.743,0.873-1.843,1.605-1.929,2.446c-0.099,0.937,0.693,1.986,1.15,2.965
			c0.115,0.259,0.387,0.506,0.643,0.633c5.089,2.454,9.27,6.655,15.558,6.813c4.392,0.112,8.729,1.557,13.121,2.239
			c4.486,0.695,9.028,1.044,13.501,1.812c3.97,0.682,7.845,1.944,11.83,2.547c4.698,0.717,9.384,0.526,14.003-1.021
			c2.364-0.792,4.917-0.994,7.387-1.434c1.887-0.343,3.774-0.668,5.661-0.941c3.382-0.491,6.765-0.946,10.209-0.532
			c1.19,0.147,2.419-0.115,3.633-0.083c1.507,0.039,3.013,0.189,5.041,0.325c1.234-1.531,3.684-1.328,5.932-1.808
			c5.206-1.104,10.394-2.292,15.58-3.488c1.133-0.259,1.113-0.339,2.686,0.668c-1.452,1.482-4.443,0.336-5.096,2.996
			c0.638,0.158,1.28,0.317,2.114,0.528c0.105-1.781,1.265-2.138,2.866-2.142c2.61-0.004,5.219-0.372,7.81-0.255
			c0.924,0.039,1.801,1.033,2.666,1.565c-0.227,0.519-0.376,0.867-0.658,1.496c0.702-0.198,1.656-0.277,1.691-0.497
			c0.587-3.765,3.394-3.22,6.022-3.358c6.039-0.311,12.072-0.86,18.104-1.206c2.419-0.145,4.847-0.02,7.267-0.028
			c2.43-0.018,4.849-0.057,7.279-0.088c0.803-0.009,1.645-0.18,2.413-0.004c2.791,0.642,5.226,0.833,8.006-0.906
			c1.913-1.196,4.854-0.77,7.339-1.016c1.896-0.185,3.853-0.066,5.692-0.482c6.424-1.445,12.817-1.08,19.288-0.321
			c6.699,0.79,13.46,0.959,20.172,1.682c5.771,0.621,11.423-0.572,17.155-0.638c2.518-0.031,4.929-0.506,7.328-1.557
			c2.463-1.078,5.278-1.311,7.878-2.129c1.707-0.541,3.299-1.454,4.951-2.197c0.442-0.2,0.888-0.513,1.348-0.557
			c4.944-0.497,9.607-2.335,13.587-4.904c5.613-3.633,11.689-6.721,16.458-11.568c0.603-0.611,0.979-1.465,1.39-2.239
			c0.308-0.581,0.552-1.21,0.759-1.843c0.255-0.812,0.436-1.649,0.658-2.468c0.176-0.653,0.145-1.592,0.572-1.917
			c2.419-1.836,1.396-3.915,0.572-5.982c-0.721-1.828-0.752-1.817,0.02-3.774c0.528,0.697,0.985,1.298,1.707,2.268
			c0.152-0.332,0.392-0.613,0.363-0.857c-0.151-0.963-0.066-2.419-0.633-2.769c-1.421-0.88-1.656-2.023-1.746-3.44
			c-0.031-0.431-0.486-0.833-0.919-1.521c2.305-0.26,3.805,2.094,6.178,1.209c1.973-0.73,4.282-0.567,6.281-2.659
			c0.897,3.073,1.61,5.527,2.333,7.981c2.047-0.594,2.408,2.017,4.462,1.946c0.405-0.332,1.073-0.882,1.801-1.476
			c0.231,0.259,0.567,0.466,0.576,0.686c0.125,2.371-0.25,4.816,1.181,6.958c-0.854,2.956,0.123,6.598-3.279,8.613
			c-0.486,0.29-0.702,1.082-1.199,1.304c-1.185,0.532,0.814,3.011-1.838,2.76c-0.51-0.048-1.203,1.843-1.826,2.833
			c-0.211,0.339-0.611,0.647-0.653,1.003c-0.42,3.677-3.343,5.857-5.149,8.709c-1.656,2.624-3.644,4.926-6.846,6.257
			c0.161-2.85,3.303-4.04,3.604-7.075c-0.904,0.812-1.658,1.289-2.16,1.962c-1.801,2.428-3.743,4.687-6.404,6.233
			c-0.686,0.396-1.285,0.999-1.806,1.605c-2.391,2.78-5.546,3.926-9.065,4.205c-0.994,0.088-1.801-0.018-2.529,0.994
			c-0.537,0.754-1.585,1.249-2.505,1.572c-0.537,0.187-1.269-0.2-1.902-0.323c-0.251,1.707-0.205,1.808-1.727,2.477
			c-2.584,1.135-5.173,2.34-7.88,3.088c-1.516,0.413-3.266-0.035-5.56-0.128c0.983-1.258,1.546-1.966,2.322-2.96
			c-0.815,0.149-1.484,0.095-1.902,0.387c-1.473,1.038-3.105,1.333-4.858,1.41c-1.104,0.046-2.307,0.094-1.676,1.922
			c0.121,0.356-0.827,1.093-1.565,1.997c2.47-0.748,4.783-0.697,6.31-2.628L358.919,298.691z"/>
		<path clip-path="url(#SVGID_2_)" fill="#a41c31" d="M706.195,547.985c-0.115,0.114-0.229,0.242-0.351,0.356
			c0.33,0.339,0.667,0.682,0.994,1.012c0.13-0.127,0.26-0.269,0.392-0.404C706.883,548.628,706.538,548.303,706.195,547.985
			 M659.218,481.466c-0.181-0.022-0.36-0.053-0.532-0.079c-0.079,0.603-0.165,1.196-0.251,1.799
			c0.161,0.021,0.321,0.049,0.481,0.079C659.018,482.666,659.116,482.068,659.218,481.466 M655.664,452.338
			c-0.321,3.304-0.271,3.453,1.476,4.562C657.48,455.201,657.802,453.631,655.664,452.338 M698.959,555.234
			c0.161-0.281,0.33-0.559,0.49-0.836c-3.287-2.296-6.584-4.601-9.928-6.94c-0.903,0.985-0.606,1.658,0.332,2.234
			C692.896,551.535,695.926,553.383,698.959,555.234 M729.389,550.511c-3.434,0.127-3.277,0.545-7.203,2.045
			c-3.481,1.328-5.621,4.082-8.194,6.286c-2.118,1.812-3.444,4.604-4.924,7.077c-1.108,1.856-2.114,2.454-3.84,1.509
			c-0.478-0.26-1.038-1.184-0.904-1.57c0.306-0.836-0.035-1.175-0.442-1.816c-1.449-2.306-1.379-2.332-3.657-3.339
			c-0.552-0.233-1.075-0.546-1.577-0.871c-0.141-0.088-0.169-0.339-0.36-0.743c0.528-0.035,0.959-0.062,1.395-0.088
			c0.03-0.114,0.062-0.229,0.081-0.344c-1.135-0.162-2.278-0.32-3.604-0.506c-0.169-2.089-1.21-3.246-3.692-3.998
			c-2.505-0.766-5.32-1.83-6.752-4.658c-1.128-2.221-2.561-4.284-3.884-6.399c-1.256-1.984-3.488-1.821-5.396-2.341
			c-0.462-0.132-0.985-0.021-1.546-0.021c-1.205-2.287-2.34-4.447-2.31-7.139c0.012-1.012-0.782-2.336-1.62-3
			c-1.927-1.531-3.202-3.541-4.654-5.424c-0.316-0.422-0.45-1.104-0.42-1.653c0.114-2.222-0.312-4.135-1.401-6.229
			c-1.561-2.996-2.313-6.422-3.347-9.686c-0.563-1.809-1.005-3.66-1.898-5.49c-0.079,0.933-0.16,1.865-0.274,3.225
			c-1.812-1.535-1.221-5.292-4.854-4.056v-5.512c0.212-0.109,0.421-0.215,0.632-0.32c1.115,0.945,2.229,1.882,3.715,3.141v-4.905
			c-3.555-0.844-1.617-3.734-2.299-6.069c-0.396,1.623-0.703,2.907-1.019,4.191c-0.187-0.004-0.367-0.009-0.547-0.009
			c-0.146-0.325-0.442-0.673-0.411-0.985c0.341-3.717,0.74-7.429,1.084-11.142c0.149-1.693,0.2-3.387,0.321-5.08
			c0.114-1.685-0.704-3.563,1.476-4.764c0.763-0.418,0.552-1.781-0.411-2.266c-1.566-0.801-1.566-2.164-1.707-3.594
			c-0.523-5.11-1.084-10.227-1.658-15.333c-0.26-2.318-0.29-4.539,0.508-6.854c0.599-1.75,0.537-3.787,0.508-5.696
			c-0.057-4.24-0.211-8.48-0.468-12.716c-0.064-1.214-0.597-2.401-1.019-3.998c-0.948,0.861-1.535,1.258-1.938,1.781
			c-2.96,3.84-5.826,7.741-7.579,12.338c-0.827,2.168-1.968,4.218-2.795,6.387c-4.298,11.326-4.553,22.622,0.246,33.913
			c1.605,3.778,2.589,7.597,0.141,11.568c-1.346,2.19-3.453,3.422-5.456,4.491c-2.631,1.398-5.677,2.05-8.566,2.92
			c-1.597,0.484-3.063-0.118-4.177-1.223c-2.544-2.516-6.088-2.199-9.109-3.329c-0.453-0.172-1.124,0.343-1.711,0.431
			c-2.199,0.344-2.837-0.216-2.9-2.441c-0.012-0.598-0.093-1.191-0.152-1.957c0.928-0.352,1.828-0.69,2.815-1.061
			c0.622-1.852-0.526-3.148-1.57-5.036c-0.332,1.175-0.528,1.87-0.818,2.917c-1.938-2.292-2.138-4.707-2.373-7.562
			c1.062,0.422,1.746,0.69,2.951,1.17c-0.845-4.359-1.612-8.345-2.399-12.399c-0.692-0.172-1.346-0.326-1.957-0.476v-3.98
			c0.873,0.523,1.425,0.854,2.048,1.231c0.16-0.237,0.45-0.453,0.466-0.69c0.181-3.018,0.325-6.035,0.467-9.053
			c0.015-0.202,0.015-0.523-0.091-0.585c-2.505-1.267-1.154-3.399-1.205-5.212c-0.005-0.176-0.149-0.348-0.341-0.739
			c-0.532,0.678-0.994,1.267-1.495,1.909c-0.964-5.978-0.683-7.033,2.329-7.685c0.371-1.975,0.771-4.077,1.17-6.176
			c0.697-1.495,3.397-1.262,3.387-3.984c-0.561,0.206-1.064,0.391-1.575,0.585c-0.077-0.154-0.262-0.353-0.222-0.444
			c1.957-4.315,3.935-8.621,5.911-12.924c0.082-0.185,0.121-0.452,0.262-0.531c3.544-1.979,4.549-5.943,6.792-8.912
			c3.578-4.746,6.812-9.773,9.861-14.881c2.22-3.707,3.957-7.701,5.817-11.621c0.989-2.066,0.097-4.165-1.007-5.713
			c-1.659-2.327-0.595-4.179,0.22-6.202c0.36-0.894,0.732-1.79,1.179-2.644c0.462-0.889,0.899-1.834,1.557-2.573
			c2.243-2.494,4.992-4.649,8.236-5.106c3.306-0.467,6.845-0.04,9.646,2.379c2.94,2.538,6.076,4.588,10.049,5.208
			c4.095,0.643,6.162,2.714,6.805,7.39c1.465,10.623,4.708,20.862,6.604,31.389c1.421,7.864,2.229,15.795,2.298,23.801
			c0.051,6.664,0.141,13.332,0.473,19.991c0.227,4.526,0.894,9.03,1.347,13.548c0.721,7.188,0.173,14.353-0.697,21.475
			c-0.317,2.572-1.573,4.952-1.498,7.68c0.151,5.08,1.15,9.984,2.315,14.911c1.74,7.363,5.661,13.732,8.969,20.374
			c1.489,3.004,4.091,5.19,6.237,7.715c2.752,3.233,6.655,4.509,9.717,7.087c0.523,0.439,1.24,0.655,1.887,0.905
			c1.491,0.581,2.974,1.215,4.505,1.641c1.319,0.365,2.709,0.66,4.06,0.656c5.113-0.014,6.032,0.58,7.247,5.291
			c0.222,0.875,0.332,1.777,0.45,2.675C729.666,550.149,729.485,550.334,729.389,550.511"/>
		<path clip-path="url(#SVGID_2_)" fill="#a41c31" d="M706.868,452.092c0.116-0.237,0.23-0.475,0.347-0.713
			c-0.206-0.101-0.406-0.188-0.613-0.285c-0.086,0.255-0.195,0.501-0.235,0.756C706.362,451.894,706.647,451.99,706.868,452.092
			 M710.954,454.449c0.13,0.04,0.262,0.088,0.392,0.123c0.2-0.554,0.396-1.1,0.598-1.653c-0.167-0.053-0.336-0.105-0.508-0.163
			C711.275,453.319,711.114,453.887,710.954,454.449 M702.381,472.906c1.256-0.59,0.933-1.597,0.704-2.604
			c-0.724-3.162-0.653-3.268,3.035-4.785c-0.185,2.309-2.654,4.557,0.086,7.179c-0.592-2.517-0.332-4.21,2.765-4.403
			c-0.194-0.211-0.385-0.427-0.585-0.643c-0.453-0.185-0.9-0.369-1.608-0.655c0.411-1.451,0.845-2.978,1.311-4.645
			c-0.536-0.229-1.028-0.44-1.561-0.673c0.109-1.456,1.887-2.684,0.352-4.412c-1.005,0.915-2.023,1.825-2.771,2.489
			c-0.952-0.475-1.687-0.849-2.729-1.363c-0.559-1.549,0.014-3.215,1.089-4.76c3.058-4.385,5.175-9.236,7.163-14.172
			c0.396-0.98,1.093-2.023,1.958-2.573c0.642-0.418,1.535-0.457,1.565-1.434c0.04-1.184,0.42-2.97-0.183-3.453
			c-1.915-1.518-1.174-3.141-0.521-4.605c0.779-1.729,0.557-3.176,0.086-4.927c-0.668-2.48-0.88-5.102-1.159-7.675
			c-0.105-0.985-0.371-1.865-0.633-2.793c-0.813-2.891-1.265-5.907-1.551-8.903c-0.578-6.188,0.506-12.276,1.3-18.382
			c0.271-2.098,0.396-4.218,0.513-6.334c0.039-0.686,0.035-1.5-0.271-2.076c-2.38-4.425-1.772-9.192-1.546-13.882
			c0.079-1.491-0.086-2.714-0.825-4.021c-2.659-4.755-5.259-9.545-7.799-14.365c-0.862-1.637-1.676-3.128-3.515-3.977
			c-0.901-0.427-1.555-1.513-2.177-2.406c-0.814-1.165-1.496-1.864-3.202-1.319c-2.185,0.695-3.172-0.26-2.626-2.512
			c0.738-2.995,1.843-5.907,2.867-8.823c0.533-1.535,0.944-3.114,2.694-3.977c0.557-0.272,0.592-1.618,0.948-2.728
			c2.591-0.048,4.92-1.697,7.671-1.49c0.481,0.039,1.027,0.013,1.454,0.22c2.782,1.346,5.733,2.326,8.096,4.509
			c4.478,4.125,8.416,8.695,12.142,13.494c2.229,2.859,4.793,5.445,7.152,8.199c4.131,4.816,6.397,10.451,5.516,16.741
			c-0.954,6.726,0.783,12.606,4.155,18.188c2.199,3.629,4.453,7.235,6.967,10.648c1.848,2.503,4.005,4.821,6.279,6.95
			c3.567,3.343,7.678,3.567,12.061,1.553c2.237-1.021,4.597-1.782,7.348-2.833c-0.989-0.193-1.44-0.277-2.179-0.418
			c0.341-0.488,0.538-1.095,0.873-1.184c2.159-0.62,3.98-2.137,6.466-1.917c1.636,0.145,3.332-0.37,5.602-0.664
			c-0.985,1.82-1.788,3.136-2.419,4.525c-0.403,0.876-0.544,1.861-0.825,2.794c-0.768,2.555-1.746,4.896-4.565,5.934
			c-2.411,0.884-4.458,2.182-5.452,4.834c-0.392,1.047-1.616,1.764-2.378,2.696c-0.754,0.91-1.407,1.892-2.219,3.013
			c0.759,0.035,1.219,0.053,1.957,0.084c-0.292,0.606-0.422,1.231-0.794,1.579c-4.063,3.778-8.651,6.343-14.444,5.612
			c-6.931-0.862-13.4-2.921-18.831-7.565c-0.822-0.704-1.801-1.231-2.911-1.711c1.075,3.026,0.657,6.408,2.712,9.118
			c0.38,0.501,0.399,1.324,0.45,2.01c0.211,2.895,0.02,5.758,0.657,8.696c0.432,2.01,0.467,4.662-1.198,6.655
			c-0.246,0.295-0.422,0.703-0.513,1.086c-1.636,7.144-5.535,13.398-7.961,20.221c-0.502,1.412-0.651,2.938-1.073,4.381
			c-1.496,4.997-3.323,9.914-3.825,15.166c-0.07,0.704-0.141,1.403-0.171,2.111c-0.06,1.303,0.438,3.181-0.235,3.792
			c-1.876,1.707-2.745,4.368-5.477,5.335c-2.006,0.713-3.844,1.122-5.846,0.388c-1.511-0.563-3.018-1.117-4.502-1.733
			c-0.321-0.136-0.763-0.488-0.794-0.778c-0.095-0.954-0.592-0.998-1.414-1.064c-1.075-0.079-2.12-0.501-3.153-0.766
			c-0.279,0.247-0.772,0.95-1.062,0.88c-0.724-0.172-1.507-0.589-1.988-1.144c-0.422-0.497-0.724-1.346-0.643-1.975
			c0.267-2.055,0.673-4.108,1.184-6.11c0.102-0.404,0.915-0.629,1.396-0.937l-0.02,0.005c-0.07,0.255-0.147,0.51-0.223,0.761
			c0.11,0.065,0.223,0.136,0.332,0.202c1.186-1.852,2.364-3.699,3.555-5.551L702.381,472.906z"/>
		<path clip-path="url(#SVGID_2_)" fill="#a41c31" d="M335.771,180.712c-0.145,0.011-0.29,0.018-0.431,0.026
			c0.079,0.501,0.161,1.007,0.231,1.504c0.064-0.013,0.13-0.031,0.2-0.048V180.712z M243.942,222.19
			c0.112,0.083,0.211,0.18,0.323,0.271c0.306-0.38,0.623-0.763,0.922-1.139c-0.09-0.082-0.181-0.161-0.271-0.235
			C244.591,221.447,244.265,221.823,243.942,222.19 M320.649,193.811c-0.211,0.427-0.493,0.754-0.422,0.884
			c0.141,0.25,0.466,0.449,0.758,0.554c0.075,0.022,0.466-0.438,0.42-0.532C321.261,194.413,320.975,194.18,320.649,193.811
			 M309.844,189.808c-0.16-0.238-0.328-0.466-0.492-0.704c-0.422,0.348-0.843,0.7-1.256,1.049c0.077,0.121,0.156,0.24,0.231,0.372
			C308.834,190.288,309.34,190.048,309.844,189.808 M313.086,189.707c1.003-0.286,2.012-0.576,3.312-0.939
			C314.605,187.578,313.787,188.466,313.086,189.707 M329.809,186.223c2.65,1.707,4.196,1.315,4.838-0.818
			C333.211,185.647,331.817,185.882,329.809,186.223 M274.699,207.596c-1.916,0.141-3.724,0.491-5.762,0.291
			c-3.271-0.317-6.77,0.2-9.494,2.876c-0.985,0.968-2.701,1.179-4.067,1.76c-0.525,0.227-1.084,0.453-1.526,0.8
			c-1.637,1.285-3.227,2.628-4.839,3.937c-0.842,0.684-1.695,1.346-2.608,2.063c0.513,0.774,0.893,1.346,1.39,2.094
			c1.57-1.118,3.042-2.118,4.44-3.198c1.016-0.772,1.94-1.661,2.881-2.512c1.377-1.245,2.782-2.446,4.819-2.793
			c-0.099,0.695-0.169,1.144-0.25,1.632c1.335,0.145,2.109-0.302,2.494-1.628c0.614-2.098,1.522-2.564,3.71-2.208
			c0.651,0.105,1.429,0.317,1.977,0.075c2.29-1.003,4.518-2.173,6.765-3.271c0.924-0.187,1.847-0.372,2.767-0.552
			C276.236,206.375,275.242,206.364,274.699,207.596 M341.648,187.085c0.046,0.404,0.075,0.8,0.152,1.502
			c-1.456,0.376-2.962,0.772-4.764,1.251c0.873,0.264,1.465,0.44,2.059,0.611c0,0.2,0,0.396,0,0.592
			c-2.129,0.321-4.256,0.635-6.396,0.952c0.02,0.264,0.031,0.523,0.05,0.778c2.58,0.422,5.206-0.185,7.86,0.031
			c-3.519,2.886-8.212,1.747-12.743,3.726c2.153,0.409,3.629,0.695,5.103,0.976c0.022,0.167,0.042,0.336,0.057,0.508
			c-0.402,0.161-0.798,0.442-1.209,0.466c-4.418,0.257-8.839,0.356-13.242,0.743c-2.686,0.24-5.329,0.939-8.014,1.348
			c-0.919,0.136-1.792,0.405-2.635-0.752c-0.81-1.1-2.18-0.515-3.163,0.281c-2.278,1.832-4.737,1.663-7.337,0.858
			c-0.79-0.255-1.757-0.462-2.516-0.235c-4.322,1.265-8.617,2.666-12.912,4.031c-0.358,0.119-0.684,0.352-0.955,0.814
			c1.135-0.097,2.259-0.203,3.387-0.299c-15.474,5.195-29.752,12.549-43.203,21.733c0.537-0.541,1.078-1.078,1.601-1.625
			c0.517-0.548,1.023-1.106,1.797-1.953c-2.76,0.983-5.125,3.503-5.767,5.54c-0.281,0.911-0.849,1.799-1.502,2.49
			c-1.098,1.174-2.256,2.375-3.594,3.242c-3.286,2.133-5.622,5.388-9.173,7.289c-1.907,1.02-3.107,3.374-4.568,5.17
			c-0.943,1.167-1.656,2.525-3.374,2.826c-0.462,0.083-1.14,0.768-1.168,1.214c-0.147,1.988-1.315,2.802-2.415,2.89
			c-1.245,1.949-2.239,3.4-3.127,4.927c-2.162,3.732-5.516,6.382-8.417,9.466c-3.704,3.928-8.507,5.696-13.279,7.572
			c-1.757,0.688-3.704,1.064-5.593,1.234c-4.357,0.396-7.999-3.04-8.221-7.434c-0.18-3.501,0.559-6.84,1.843-10.038
			c1.009-2.507,3.03-4.291,5.265-5.709c4.757-3.043,8.562-7.06,11.955-11.48c3.704-4.812,7.7-9.352,12.175-13.447
			c1.396-1.275,2.736-2.624,4.828-2.951c0.994-0.154,1.878-1.078,2.888-1.696c-0.231-0.763-0.422-1.383-0.607-2.003
			c3.07-1.76,6.013-3.466,9.054-5.219c0.491,0.231,1.214,0.884,1.786,0.763c0.924-0.18,1.962-0.682,1.847-2.012
			c1.104-0.743,2.197-1.484,3.292-2.228c-0.161-0.18-0.321-0.367-0.477-0.554c-0.909,0.95-1.828,1.9-2.741,2.846
			c-0.486-0.088-0.967-0.189-1.872-0.369c2.991-2.512,5.731-4.808,8.472-7.113c0.381-0.321,0.783-0.646,1.089-1.029
			c1.311-1.656,2.876-2.89,4.623-4.13c1.766-1.26,3.695-2.298,5.437-3.603c3.497-2.622,7.403-4.478,11.467-6
			c1.295-0.476,2.65-0.796,4.188-1.258c1.284-2.27,1.258-2.19,3.963-1.478c1.115,0.292,2.411,0.409,3.515,0.146
			c5.692-1.344,11.482-2.459,16.979-4.377c5.527-1.931,11.148-2.096,16.829-2.487c4.407-0.306,8.792-0.818,13.2-1.199
			c0.662-0.062,1.385-0.022,2.017,0.163c3.132,0.935,5.914,0.714,8.001-2.151l-0.055,0.031c0.556,0.088,1.108,0.185,2.094,0.356
			c-0.904,0.854-1.507,1.414-2.285,2.146c0.442,0.348,0.93,0.919,1.119,0.827c1.175-0.506,2.279-1.168,3.633-1.905
			c0.453,1.504,1.518,2.248,3.594,1.7c-0.501-1.034-1.133-1.993-1.425-3.05c-0.255-0.893-0.42-2.054-0.044-2.787
			c0.235-0.455,1.59-0.548,2.404-0.451c1.988,0.229,3.935,0.662,6.173,1.064c-0.391,0.831-0.752,1.579-1.174,2.454
			c2.811,0.854,1.59-2.45,3.574-2.701c0.702,1.047,1.546,2.303,2.479,3.682c-1.68,2.12-3.754,2.859-6.475,2.712
			c1.557,0.607,3.112,1.22,4.667,1.832L341.648,187.085z"/>
		<path clip-path="url(#SVGID_2_)" fill="#a41c31" d="M647.85,170.263c-0.181-0.151-0.356-0.292-0.537-0.442
			c-0.355,0.603-0.719,1.209-1.075,1.808c0.202,0.119,0.414,0.235,0.614,0.356C647.188,171.409,647.513,170.834,647.85,170.263
			 M638.689,168.897c2.705-0.229,3.483-1.843,3.053-4.319C640.722,166.016,639.703,167.459,638.689,168.897 M652.985,151.989
			c0.481-0.365,0.853-0.646,1.323-1.003c0.13,0.31,0.367,0.596,0.312,0.807c-0.532,2.272-1.256,4.412-1.049,6.93
			c0.134,1.733-1.482,3.598-2.301,5.417c-0.45,1.009-1.159,2.008-1.229,3.05c-0.18,2.395-1.073,4.381-2.443,6.29
			c-0.928,1.289-0.807,1.37-3.187,1.801c-0.081-0.928-0.523-2.028-0.16-2.686c0.998-1.816,1.797-3.563,1.46-5.696
			c-0.075-0.453,0.105-1.113,0.42-1.398c0.356-0.339,1.001-0.352,1.718-0.563c0.631-0.924,1.484-2.168,2.298-3.358
			c-0.993-0.398-0.497-1.265-0.044-2.204c0.651-1.335,1.245-2.699,1.782-4.084c0.105-0.268-0.181-0.677-0.326-1.157
			c-0.422,0.251-0.728,0.334-0.884,0.539c-0.794,1.062-0.713,3.002-2.802,2.745c-0.812,1.379-1.751,2.716-2.413,4.167
			c-1.119,2.468-2.043,5.019-3.088,7.522c-0.141,0.347-0.411,0.688-0.701,0.939c-1.28,1.115-2.586,2.197-3.985,3.382
			c-0.684-0.16-1.792-0.427-3.132-0.754c0.553-2.723,1.144-5.615,1.731-8.5c-0.126-0.06-0.247-0.117-0.376-0.165
			c-0.889,1.262-1.777,2.534-2.952,4.205c-0.301-1.12-0.752-1.826-0.603-2.371c1.166-4.169,0.552-8.605,2.048-12.736
			c0.994-2.747,1.697-5.593,2.399-8.428c0.383-1.555,0.552-3.171,0.692-4.772c0.544-6.068-0.994-11.804-3.213-17.337
			c-3.634-9.075-7.388-18.114-11.353-27.056c-1.848-4.172-4.858-7.649-8.041-10.933c-1.896-1.951-3.763-3.95-5.556-5.998
			c-2.775-3.176-4.156-6.941-4-11.137c0.147-4.029,2.14-7.289,5.089-9.901c1.566-1.386,3.539-1.602,5.371-0.473
			c1.788,1.115,3.624,2.263,5.104,3.728c4.678,4.614,9.113,9.448,12.954,14.812c2.278,3.191,5.245,5.892,6.815,9.591
			c1.812,4.271,3.613,8.546,5.426,12.817c1.064,2.5,2.073,5.032,3.178,7.515c3.026,6.732,5.802,13.585,7.353,20.79
			c0.833,3.875,0.717,7.975,0.747,11.979c0.031,3.178-0.336,6.354-0.622,9.521c-0.07,0.728-0.525,1.417-1.073,2.067
			c-0.572-2.142-0.643-4.245-0.262-6.369c0.587-3.292,0.592-6.523-1.465-9.615c-0.156,2.353-0.453,4.711-0.431,7.066
			c0.02,1.88-0.183,3.745,0.07,5.657C653.803,148.32,653.225,150.106,652.985,151.989"/>
		<path clip-path="url(#SVGID_2_)" fill="#a41c31" d="M655.765,263.572c-0.22-0.116-0.446-0.227-0.668-0.343
			c-0.356,0.73-0.718,1.456-1.078,2.184c0.2,0.105,0.4,0.205,0.607,0.31C655.002,265.002,655.382,264.29,655.765,263.572
			 M630.418,286.339c0.398-0.488,0.794-0.98,1.366-1.682C629.846,284.25,630.018,285.293,630.418,286.339 M639.433,287.782
			c1.777-0.737,2.51-1.395,1.516-3.202C640.427,285.684,640.04,286.498,639.433,287.782 M647.553,274.714
			c-0.732-0.308-1.284-0.532-2.173-0.897c0.337,1.284,0.559,2.103,0.919,3.483C646.86,276.139,647.172,275.497,647.553,274.714
			 M605.625,315.062c-1.697,0.497-3.394,0.994-5.089,1.491c0.084,0.269,0.165,0.541,0.251,0.813
			C602.417,316.668,604.42,317.121,605.625,315.062 M637.256,284.422c1.324-1.472,2.307-2.446,3.132-3.545
			c0.286-0.387,0.4-1.35,0.158-1.57c-0.381-0.352-1.133-0.312-1.524-0.396C638.438,280.753,637.953,282.253,637.256,284.422
			 M658.067,270.318c2.606-2.303,4.509-4.819,2.775-8.531C657.867,264.034,658.901,267.465,658.067,270.318 M658.893,272.646
			c-0.908,2.063-2.728,3.669-2.967,6.066c-0.031,0.343-0.432,0.946-0.627,0.93c-2.355-0.169-2.188,2.153-3.037,3.284
			c-0.864,1.148-1.566,1.993-3.218,1.911c-0.031,3.512-3.097,4.779-5.085,6.697c-1.254,1.219-2.408,2.288-3.006,3.928
			c-0.135,0.378-0.377,0.717-0.651,1.218c-0.869-0.757-1.361-1.192-1.942-1.705c-0.121,0.291-0.371,0.583-0.312,0.776
			c0.604,1.905-0.297,3.273-1.46,4.634c-1.581,1.823-3.077,3.715-4.572,5.605c-0.222,0.277-0.255,0.704,0.02,1.416
			c1.166-1.104,2.29-2.26,3.515-3.299c1.223-1.037,2.545-1.961,4.104-2.748c-0.771,1.029-1.555,2.059-2.337,3.085
			c0.059,0.091,0.129,0.176,0.19,0.271c0.511-0.275,1.023-0.562,1.531-0.836c0.134,0.135,0.266,0.264,0.396,0.4
			c-1.394,1.609-2.689,3.328-4.216,4.808c-1.005,0.979-1.605,2.534-3.534,2.475c-0.611-0.016-1.43,1.093-1.867,1.854
			c-1.328,2.313-3.121,4.025-5.461,5.371c-1.986,1.14-3.774,2.696-5.485,4.249c-2.584,2.336-5.435,4.191-8.678,5.401
			c-5.301,1.957-10.614,3.854-15.93,5.767c-2.479,0.893-4.146-0.862-5.993-1.931c-1.022-0.594-1.957-1.377-2.87-2.143
			c-2.631-2.221-4.098-4.927-3.483-8.507c0.095-0.571,0.039-1.179-0.021-1.76c-0.352-3.598,0.662-5.437,4.021-6.919
			c2.213-0.972,4.437-1.979,6.741-2.674c2.197-0.655,4.506-0.929,6.866-1.39c0.65,0.954,1.312,1.904,2.036,2.962
			c1.467-0.935,2.787-1.781,4.263-2.729c-0.137-3.104,2.604-4.267,4.526-6.03c1.249-1.144,2.584-2.208,3.824-3.352
			c1.612-1.48,3.088-3.101,4.814-4.456c0.611-0.477,1.033-1.209,1.523-1.843c0.854-1.078,1.909-1.579,3.038-1.28
			c1.123-2.709,2.234-5.375,3.076-7.422c1.816-0.893,3.081-1.511,4.612-2.25c0.336,0.273,0.928,0.766,1.562,1.28
			c0.13-0.149,0.321-0.264,0.36-0.42c0.262-1.084,0.603-1.933,1.848-2.461c1.01-0.44,1.757-1.54,2.58-2.393
			c2.48-2.58,4.055-5.657,5.214-9.035c0.658-1.917,0.85-1.847,3.007-2.986v2.371c0.306-0.132,0.633-0.163,0.774-0.343
			c1.123-1.469,2.223-2.965,3.331-4.456c0.256,0.119,0.521,0.251,0.772,0.37c-0.381,1.223-0.768,2.445-1.152,3.664
			c0.09,0.048,0.185,0.092,0.279,0.136c1.21-1.707,2.419-3.417,3.78-5.335c-2.003-0.721-1.788-2.01-0.998-3.528
			c0.787-1.515,1.438-3.006,3.18-3.849c0.896-0.442,1.412-1.663,2.129-2.505c0.823-0.974,1.676-1.933,2.521-2.892
			c0.205,0.066,0.416,0.127,0.627,0.198c0,0.854,0.346,1.958-0.066,2.514c-1.69,2.368-0.752,5.27-2.021,7.779
			c3.677,0.763,3.187-3.458,5.544-4.337c0.975,2.459-2.447,3.832-1.295,6.303c0.554-0.185,1.071-0.356,1.588-0.525
			c0.58,1.357,0.4,2.514-0.293,3.91c-1.183,2.395-1.722,5.109-3.272,7.348c-0.356,0.51-1.018,1.188-1.511,1.166
			c-1.108-0.053-0.928-1.082-0.908-1.883c0.673-0.719,1.918-1.08,1.201-2.641C659.64,270.839,659.269,271.743,658.893,272.646"/>
		<path clip-path="url(#SVGID_2_)" fill="#a41c31" d="M627.85,551.918c0.477-0.105,0.959-0.207,1.766-0.392
			c-2.584-2.015-5.027-3.603-8.21-3.989c-1.346-0.163-2.916-0.713-3.836-1.632c-1.926-1.913-4.205-1.584-6.464-1.667
			c-1.2-0.044-2.398-0.009-3.51-0.009c-0.901-1.148-0.356-1.984,0.258-2.833c1.535-2.15,3.723-3.501,6.118-4.262
			c5.716-1.812,10.434-5.046,14.911-8.965c3.534-3.088,7.207-6.229,12.12-7.104c3.258-2.846,7.896-1.821,11.43-4.175
			c2.041-1.354,4.326-0.308,5.811,1.707c0.181,0.242,0.453,0.506,0.453,0.761c0.024,1.575,0.267,3.211-0.09,4.693
			c-1.602,6.642-2.67,13.486-6.947,19.174c-3.051,4.06-6.585,7.618-10.781,10.481c-1.084,0.73-2.318,1.263-3.708,0.625
			c-0.262-0.119-0.629-0.185-0.889-0.105C633.033,555.239,630.569,553.07,627.85,551.918"/>
		<path clip-path="url(#SVGID_2_)" fill="#a41c31" d="M351.576,185.596c0.196,0.004,0.431,0.09,0.579,0.004
			c0.631-0.345,1.225-0.748,1.836-1.132c-0.211-0.273-0.431-0.543-0.642-0.818c-0.528,0.475-1.064,0.941-1.557,1.443
			c-0.119,0.116-0.09,0.378-0.119,0.578c-0.759,0.368-1.518,0.744-2.265,1.12c0.642,0.633,1.341,0.963,1.777,0.752
			C351.974,187.173,352.213,186.399,351.576,185.596 M348.22,182.225c-2.149-1.557-5.993-0.515-5.111-4.676
			c3.684,0.356,7.277,0.713,10.882,1.065c1.324-2.934,5.045-3.297,6.625,0.11h4.537c-0.161,1.161-0.134,2.175,1.307,1.894
			c1.887-0.376,3.527-1.269,4.878-2.69c0.873-0.923,1.852-1.636,3.301-0.417c-0.326,0.613-0.671,1.255-1.023,1.898
			c3.684,2.962,8.261,3.061,12.422,3.774c4.192,0.719,8.647-0.086,13.066,0.077c-3.314,1.782-7.86,0.42-10.621,4.377h5.104
			c0.036,0.163,0.064,0.325,0.095,0.49c-1.537,0.818-2.991,1.883-4.627,2.391c-1.772,0.55-3.704,0.589-5.711,0.871
			c-0.141,0.594-0.301,1.24-0.508,2.089c-2.435,0.369-4.894,0.822-7.372,1.082c-0.704,0.083-1.978-0.216-2.118-0.625
			c-0.712-2.226-2.379-1.297-3.746-1.39c-0.055,0.105-0.149,0.224-0.121,0.255c0.05,0.07,0.191,0.08,0.242,0.154
			c0.161,0.222,0.473,0.523,0.411,0.688c-0.521,1.449-1.746,1.858-3.125,1.902c-1.221,0.04-2.215-0.295-2.226-1.821
			c0-0.141-0.24-0.286-0.545-0.618c-1.029,0.156-2.199,0.337-3.715,0.561c0.508,0.414,0.748,0.607,1.25,1.016
			c-2.419,0.702-4.405,2.274-6.917,2.037c-3.316-0.306-6.499,0.411-9.716,0.972c-0.225,0.042-0.501-0.22-1.144-0.526
			c2.635-1.467,4.979-2.769,8.353-3.015c-0.875-0.81-1.287-1.522-1.777-1.583c-1.064-0.123-2.215,0.299-3.249,0.092
			c-0.987-0.207-1.872-0.924-3.057-1.553C343.645,187.547,345.378,184.712,348.22,182.225"/>
		<path clip-path="url(#SVGID_2_)" fill="#a41c31" d="M410.193,188.581c0.361-0.303,0.713-0.607,1.135-0.963
			c-0.697-1.128-1.405-2.274-2.27-3.673c-1.465,1.938-3.358,2.59-5.555,2.188c-1.37-1.295,1.344-3.833-1.507-4.607
			c0.865-1.649,1.722-3.303,2.58-4.948c2.771,0.255,3.127,0.748,2.566,3.327c-0.082,0.372,0.37,0.838,0.341,1.238
			c-0.046,0.403-0.391,0.774-0.673,1.276c0.772,0.062,1.766,0.752,2.529-0.598c0.145-0.251,0.431-0.596,0.646-0.585
			c3.233,0.059,6.481-2.424,9.982,0.264c-0.812,0.312-1.46,0.559-1.746,0.668c-0.497,0.985-0.968,1.711-1.218,2.512
			c-0.247,0.756-0.257,1.595-0.392,2.534c-0.99-0.11-1.872-0.216-2.866-0.332c-0.082,0.728,0.02,1.922-0.292,2.039
			c-0.928,0.361-2.021,0.306-3.057,0.409C410.334,189.078,410.264,188.827,410.193,188.581"/>
		<path clip-path="url(#SVGID_2_)" fill="#a41c31" d="M481.112,145.8c0.241-0.954,0.352-1.412,0.473-1.878
			c-1.396-1.548-2.45,1.139-4.126,0.123c0.987-1.326,1.946-2.622,2.83-3.812c2.396-0.466,4.698-0.963,7.008-1.339
			c2.008-0.33,3.903-0.196,5.872,0.678c1.776,0.787,3.853,0.884,6.122,1.346c-2.066,2.303-4.563,2.745-7.548,3.348
			c0.482-0.919,0.753-1.447,1.214-2.336c-1.867,0.238-3.492,0.453-5.621,0.724c1.129,0.684,1.793,1.076,2.74,1.643
			c-1.801,1.051-3.182-0.181-4.518-0.026C484.145,144.437,482.799,145.188,481.112,145.8"/>
		<path clip-path="url(#SVGID_2_)" fill="#a41c31" d="M378.653,91.233c-2.313-0.235-3.833-1.472-4.687-3.794
			c0.156-0.312,0.31-0.928,0.693-1.342c0.983-1.058,2.067-0.787,2.369,0.563c0.2,0.963,0.29,1.948,0.451,3.048
			c1.432,0.656,2.866,1.313,4.396,2.01c-0.902,0.704-1.946,1.166-2.404,1.962c-0.436,0.77,0.587,2.16-1.37,2.63
			c-0.537-0.225-1.601-0.409-2.279-1.023c-0.576-0.521-1.064-1.585-0.952-2.32c0.149-1.073,1.152-1.535,2.313-1.32
			c0.447,0.082,0.897,0.152,1.339,0.233C378.574,91.667,378.614,91.449,378.653,91.233"/>
		<path clip-path="url(#SVGID_2_)" fill="#a41c31" d="M506.619,140.66c-0.97,1.045-1.676,1.946-2.529,2.672
			c-0.97,0.812-2.019,1.594-3.158,2.131c-0.466,0.222-1.455-0.063-1.836-0.466c-0.367-0.38-0.557-1.414-0.29-1.823
			c0.567-0.877,1.335-1.86,2.252-2.232C502.795,140.24,504.702,140.069,506.619,140.66"/>
		<path clip-path="url(#SVGID_2_)" fill="#a41c31" d="M533.264,197.58c-0.446,0.845-0.756,1.443-1.097,2.081
			c0.49,0.541,0.943,1.034,1.385,1.524c-2.841-0.416-5.641-0.748-8.091-2.525c1.39-0.748,2.63-1.418,3.824-2.061
			C530.453,196.885,531.689,197.195,533.264,197.58"/>
		<path clip-path="url(#SVGID_2_)" fill="#a41c31" d="M401.691,173.797c-3.358,1.276-3.543,1.034-4.176,4.225
			c-0.897-0.064-1.836-0.13-3.086-0.222c0.297-0.695,0.506-1.179,0.788-1.825c-0.642-0.412-1.324-0.845-2.126-1.351
			C395.427,173.324,397.882,173.089,401.691,173.797"/>
		<path clip-path="url(#SVGID_2_)" fill="#a41c31" d="M423.867,176.902c0.74-1.06,1.082-1.531,1.664-2.353
			c-1.128-1.135-2.289-2.305-3.574-3.594c2.375,0.25,4.779,0.506,7.069,0.748c0.138,0.506,0.271,0.717,0.229,0.88
			c-0.3,1.148-1.022,1.434-2.217,1.465c-0.402,0.009-0.678,1.636-1.186,2.397C425.661,176.727,424.959,176.674,423.867,176.902"/>
		<path clip-path="url(#SVGID_2_)" fill="#a41c31" d="M698.818,477.424c-0.312-0.906-1.068-1.918-0.869-2.688
			c0.909-3.471,2.074-6.875,3.188-10.298c0.065-0.198,0.441-0.29,1.205-0.77c-0.739,5.041-2.932,9.211-3.559,13.755
			C698.799,477.428,698.818,477.424,698.818,477.424"/>
		<path clip-path="url(#SVGID_2_)" fill="#a41c31" d="M645.109,183.474c0,0,0.081,0,0.081,0.004
			c-0.062-1.342-0.116-2.674-0.176-4.012l-0.077,0.086c0.768-1.57,1.271-3.453,4.075-3.101c-0.193,0.748-0.153,1.832-0.631,2.173
			C646.636,179.854,645.982,181.717,645.109,183.474"/>
		<path clip-path="url(#SVGID_2_)" fill="#a41c31" d="M309.782,59.904l-0.02-0.101c0.121,0.453,0.246,0.904,0.453,1.632
			c-1.126,0-2.019-0.02-2.903,0.004c-2.749,0.081-2.749,0.092-3.642-2.835c2.589-0.07,2.589-0.07,3.473,2.426
			c0.583-1.047,1.003-1.803,1.617-2.898C309.171,58.84,309.472,59.372,309.782,59.904"/>
		<path clip-path="url(#SVGID_2_)" fill="#a41c31" d="M275.794,59.317c1.203,0.97,2.307,1.863,3.825,3.086
			c-1.988,0.136-3.488,1.306-5.312,0.488C274.018,60.311,274.127,60.08,275.794,59.317"/>
		<path clip-path="url(#SVGID_2_)" fill="#a41c31" d="M652.884,288.068c-2.389,2.296-4.604,4.429-6.812,6.549
			c-0.191-0.209-0.387-0.424-0.576-0.642C647.513,291.613,648.387,287.949,652.884,288.068"/>
		<path clip-path="url(#SVGID_2_)" fill="#a41c31" d="M266.85,58.906c-0.361,0.326-0.724,0.651-1.155,1.049
			c-1.555-1.511,0.051-2.905-0.282-4.278c2.285-0.924,2.536,1.047,3.605,1.949c-0.88,0.537-1.562,0.954-2.239,1.363L266.85,58.906z"
			/>
		<path clip-path="url(#SVGID_2_)" fill="#a41c31" d="M383.804,179.92c-1.436,0.416-2.861,0.908-4.328,1.194
			c-0.392,0.07-0.902-0.513-1.359-0.79c0.418-0.471,0.823-1.344,1.25-1.351c1.476-0.018,2.962,0.247,4.438,0.414
			C383.804,179.563,383.804,179.744,383.804,179.92"/>
		<path clip-path="url(#SVGID_2_)" fill="#a41c31" d="M291.708,58.932c-1.225-0.018-1.425-0.69-1.022-1.794
			c-0.719,0.046-1.37,0.081-2.032,0.127c0.02-0.304-0.011-0.603,0.064-0.638c1.209-0.541,2.445-1.06,3.664-1.582
			c0.196,0.196,0.387,0.392,0.579,0.579c-0.442,1.132-0.895,2.261-1.337,3.387L291.708,58.932z"/>
		<path clip-path="url(#SVGID_2_)" fill="#a41c31" d="M534.144,231.049c1.907,0.271,3.429,0.493,5.34,0.765
			c0.251,0.363,0.717,1.047,1.417,2.076c-0.865,0-1.391,0.154-1.749-0.031C537.597,233.055,536.086,232.153,534.144,231.049"/>
		<path clip-path="url(#SVGID_2_)" fill="#a41c31" d="M667.338,239.78c-0.392-0.189-1.098-0.338-1.124-0.576
			c-0.24-2.037-0.079-3.958,2.521-4.922c-0.528,1.975-0.999,3.783-1.476,5.595L667.338,239.78z"/>
		<path clip-path="url(#SVGID_2_)" fill="#a41c31" d="M399.413,181.882c-1.009,0.097-1.907,0.171-3.312,0.301
			c0.497-1.344,0.712-2.29,1.203-3.062c0.171-0.266,1.115-0.286,1.537-0.086c0.627,0.297,0.787,0.862,0.051,1.406
			C398.801,180.507,399.131,181.143,399.413,181.882"/>
		<path clip-path="url(#SVGID_2_)" fill="#a41c31" d="M266.779,58.985c1.672,0.11,3.343,0.216,5.38,0.348
			c-0.662,1.135-1.159,1.993-1.716,2.96c-1.315-1.241-2.454-2.314-3.593-3.387L266.779,58.985"/>
		<path clip-path="url(#SVGID_2_)" fill="#a41c31" d="M645.015,179.467c-1.186,1.228-2.545,1.231-4.188,0.664
			c0.312-1.311,0.904-2.23,2.138-2.168c0.875,0.04,2.055,0.176,1.969,1.597C644.944,179.559,645.015,179.467,645.015,179.467"/>
		<path clip-path="url(#SVGID_2_)" fill="#a41c31" d="M656.588,282.961c-1.315,1.438-2.239,2.455-3.233,3.537
			C652.818,283.248,653.216,282.697,656.588,282.961"/>
		<path clip-path="url(#SVGID_2_)" fill="#a41c31" d="M300.398,60.331c-0.266,1.61-1.396,1.35-2.952,1.271
			c0.317-1.452,0.592-2.696,0.862-3.937c0.231-0.013,0.466-0.031,0.699-0.044c0.486,0.923,0.968,1.847,1.45,2.771L300.398,60.331z"
			/>
		<path clip-path="url(#SVGID_2_)" fill="#a41c31" d="M361.248,75.931c-0.09-0.567-0.176-1.139-0.281-1.872
			c2.34-0.07,3.081,1.52,3.774,3.316c-1.164-0.488-2.329-0.972-3.493-1.46V75.931z"/>
		<path clip-path="url(#SVGID_2_)" fill="#a41c31" d="M382.287,175.662c-2.811,1.298-4.275,0.66-5.054-1.848
			C378.825,174.4,380.305,174.941,382.287,175.662"/>
		<path clip-path="url(#SVGID_2_)" fill="#a41c31" d="M371.446,176.282c-1.414-0.088-2.826-0.176-4.24-0.268
			c-0.042-0.2-0.077-0.405-0.117-0.612c0.431-0.266,0.854-0.547,1.295-0.792c0.513-0.277,1.045-0.523,1.656-0.818
			c0.567,0.677,1.064,1.267,1.557,1.856C371.547,175.86,371.497,176.076,371.446,176.282"/>
		<path clip-path="url(#SVGID_2_)" fill="#a41c31" d="M434.234,173.27c1.887,2.019,1.887,2.252,0.151,3.954
			C432.849,176.076,433.121,174.844,434.234,173.27"/>
		<path clip-path="url(#SVGID_2_)" fill="#a41c31" d="M417.792,173.155c-2.705,0.902-2.971,0.686-2.819-2.25
			C416.583,170.846,417.476,171.593,417.792,173.155"/>
		<path clip-path="url(#SVGID_2_)" fill="#a41c31" d="M291.623,59.011c1.135-0.097,2.441-0.215,2.349,1.41
			c-0.079,1.34-0.957,1.883-2.443,1.155c0.066-0.908,0.125-1.777,0.18-2.65C291.708,58.932,291.623,59.011,291.623,59.011"/>
		<path clip-path="url(#SVGID_2_)" fill="#a41c31" d="M261.805,304.943h4.931C264.792,306.143,263.617,306.138,261.805,304.943"/>
		<path clip-path="url(#SVGID_2_)" fill="#a41c31" d="M519.819,223.439c1.812-0.246,3.473,0.137,5.224,1.144
			c-3.167,0.834-3.638,0.717-5.159-1.218C519.884,223.369,519.819,223.439,519.819,223.439"/>
		<path clip-path="url(#SVGID_2_)" fill="#a41c31" d="M667.259,239.873c0.301-0.247,0.603-0.493,1.174-0.955
			c0.262,1.755,0.216,3.222-0.653,4.97c-1.515-1.537-0.441-2.863-0.441-4.108L667.259,239.873z"/>
		<path clip-path="url(#SVGID_2_)" fill="#a41c31" d="M369.56,75.022c0.662,1.289,1.319,2.58,1.977,3.864
			c-1.848-0.642-2.98-1.665-2.765-3.499C369.034,75.264,369.298,75.147,369.56,75.022"/>
		<path clip-path="url(#SVGID_2_)" fill="#a41c31" d="M59.575,266.137v-7.093c1.273,1.678,0.451,2.771,0.361,3.829
			c-0.09,1.095-0.185,2.199-0.281,3.294C59.623,266.157,59.599,266.146,59.575,266.137"/>
		<path clip-path="url(#SVGID_2_)" fill="#a41c31" d="M455.536,187.197h3.643C457.819,189.346,457.793,189.346,455.536,187.197"/>
		<path clip-path="url(#SVGID_2_)" fill="#a41c31" d="M323.444,181.235c-0.266-0.704-0.532-1.401-0.913-2.384
			c1.034-0.458,1.931-0.854,3.442-1.522c-0.642,2.063-1.845,2.833-2.569,3.919C323.385,181.259,323.444,181.235,323.444,181.235"/>
		<path clip-path="url(#SVGID_2_)" fill="#a41c31" d="M417.862,175.68c1.304,3.035,1.304,3.035-0.633,3.594
			C417.451,178.002,417.662,176.836,417.862,175.68"/>
		<path clip-path="url(#SVGID_2_)" fill="#a41c31" d="M270.749,188.442c-0.967,0.53-1.931,1.062-3.026,1.669
			c-0.141-2.406-0.141-2.406,2.771-2.296C270.584,188.02,270.664,188.231,270.749,188.442"/>
		<path clip-path="url(#SVGID_2_)" fill="#a41c31" d="M263.839,60.234c0.491,0.519,0.979,1.036,1.524,1.607
			c-0.913,0.776-1.771,1.034-2.428,0.257c-0.262-0.317,0.09-1.152,0.172-1.749C263.351,60.315,263.593,60.276,263.839,60.234"/>
		<path clip-path="url(#SVGID_2_)" fill="#a41c31" d="M64.563,233.165c-0.994,0.668-1.981,1.337-2.78,1.874
			c0.07-0.528,0.22-1.546,0.411-2.872c1.009,0.462,1.671,0.77,2.344,1.06C64.547,233.211,64.563,233.165,64.563,233.165"/>
		<path clip-path="url(#SVGID_2_)" fill="#a41c31" d="M431.039,189.852c1.996,0.242,3.406,0.418,5.445,0.664
			C433.24,191.484,433.24,191.484,431.039,189.852"/>
		<path clip-path="url(#SVGID_2_)" fill="#a41c31" d="M361.248,75.911c-1.737-0.431-3.613-0.583-4.737-2.212
			c2.118-0.328,3.572,0.66,4.737,2.226V75.911"/>
		<path clip-path="url(#SVGID_2_)" fill="#a41c31" d="M390.459,181.983c1.023-1.064,1.755-1.821,2.866-2.974
			c0.2,1.1,0.281,1.548,0.376,2.063C392.698,181.354,391.81,181.604,390.459,181.983"/>
		<path clip-path="url(#SVGID_2_)" fill="#a41c31" d="M411.784,179.432h-3.497c1.504-1.073,2.474-1.253,3.503-0.673
			C411.79,178.987,411.784,179.212,411.784,179.432"/>
		<path clip-path="url(#SVGID_2_)" fill="#a41c31" d="M406.389,188.141c2.349-0.321,2.349-0.321,2.36,2.439
			C407.896,189.691,407.273,189.049,406.389,188.141"/>
		<path clip-path="url(#SVGID_2_)" fill="#a41c31" d="M642.729,300.164c-0.717-2.894-0.717-2.894,1.159-3.833
			C643.488,297.646,643.188,298.66,642.729,300.164"/>
		<path clip-path="url(#SVGID_2_)" fill="#a41c31" d="M604.49,457.383c-0.145,1.624-0.29,3.256-0.431,4.883
			c-0.077,0.005-0.152,0.009-0.231,0.014v-4.918C604.049,457.37,604.271,457.375,604.49,457.383"/>
		<path clip-path="url(#SVGID_2_)" fill="#a41c31" d="M70.475,77.547c0.398-1.366,0.798-2.727,1.196-4.086
			c0.2,0.055,0.4,0.105,0.601,0.16c-0.345,1.361-0.682,2.712-1.027,4.062C70.987,77.635,70.725,77.591,70.475,77.547"/>
		<path clip-path="url(#SVGID_2_)" fill="#a41c31" d="M286.373,62.794c-1.269-0.706-2.118-1.174-3.006-1.676
			C285.43,60.41,285.766,60.555,286.373,62.794"/>
		<path clip-path="url(#SVGID_2_)" fill="#a41c31" d="M346.823,69.265c-0.858-0.165-1.716-0.317-2.56-0.521
			c-0.04-0.006,0.062-0.743,0.07-0.743c0.873,0.046,1.737,0.141,2.615,0.222C346.904,68.567,346.862,68.913,346.823,69.265"/>
		<path clip-path="url(#SVGID_2_)" fill="#a41c31" d="M311.164,55.382c-1.139,0.623-1.907,1.042-2.696,1.469
			C308.087,54.881,308.327,54.718,311.164,55.382"/>
		<path clip-path="url(#SVGID_2_)" fill="#a41c31" d="M440.904,172.869l0.016,0.169c1.405-1.665,1.405-1.665,3.312-1.084
			C443.3,173.164,442.235,173.458,440.904,172.869"/>
		<path clip-path="url(#SVGID_2_)" fill="#a41c31" d="M96.776,51.167c1.093-0.521,1.938-0.93,2.93-1.405
			C99.099,51.824,99.099,51.824,96.776,51.167"/>
		<path clip-path="url(#SVGID_2_)" fill="#a41c31" d="M356.575,65.961c1.04,0.579,2.074,1.146,3.107,1.718
			c-0.062,0.13-0.121,0.257-0.18,0.387c-1.076-0.539-2.149-1.071-3.222-1.608C356.379,66.289,356.48,66.128,356.575,65.961"/>
		<path clip-path="url(#SVGID_2_)" fill="#a41c31" d="M448.459,171.131c-0.924-0.156-1.848-0.312-3.013-0.501
			C446.783,169.491,446.783,169.491,448.459,171.131"/>
		<path clip-path="url(#SVGID_2_)" fill="#a41c31" d="M295.478,58.682c0.161-0.832,0.321-1.663,0.501-2.567
			C297.235,57.388,297.235,57.388,295.478,58.682"/>
		<path clip-path="url(#SVGID_2_)" fill="#a41c31" d="M457.212,171.778c-3.292-0.176-3.292-0.176-2.79-1.993
			C455.22,170.357,455.957,170.885,457.212,171.778"/>
		<path clip-path="url(#SVGID_2_)" fill="#a41c31" d="M462.24,170.976c0.833,0.134,1.667,0.266,3.173,0.503
			C463.379,172.02,463.379,172.02,462.24,170.976"/>
		<path clip-path="url(#SVGID_2_)" fill="#a41c31" d="M348.906,67.118c-1.042,0.099-2.358,0.857-2.866-1.32
			C347.204,66.339,348.057,66.731,348.906,67.118"/>
		<path clip-path="url(#SVGID_2_)" fill="#a41c31" d="M696.932,471.424c-0.07-0.678-0.137-1.351-0.223-2.318
			C698.667,469.77,698.326,470.557,696.932,471.424"/>
		<path clip-path="url(#SVGID_2_)" fill="#a41c31" d="M440.92,175.398l0.011,0.149c0.748-0.999,1.676-1.014,3.066-0.559
			C442.847,176.1,441.993,176.625,440.92,175.398"/>
		<path clip-path="url(#SVGID_2_)" fill="#a41c31" d="M384.497,141.74c0.741-0.181,1.484-0.356,2.714-0.653
			C385.852,142.374,385.852,142.374,384.497,141.74"/>
		<path clip-path="url(#SVGID_2_)" fill="#a41c31" d="M539.394,173.254c0.22,0.281,0.438,0.557,0.646,0.829
			c0.167,0.29,0.337,0.592,0.508,0.884c-0.241,0.083-0.552,0.299-0.712,0.215C538.951,174.734,538.329,174.173,539.394,173.254"/>
		<path clip-path="url(#SVGID_2_)" fill="#a41c31" d="M399.382,191.317c1.064-0.176,2.129-0.345,3.193-0.521
			C401.707,192.302,400.517,191.66,399.382,191.317"/>
		<path clip-path="url(#SVGID_2_)" fill="#a41c31" d="M213.649,287.457c0.693-0.106,1.39-0.207,2.087-0.312
			c0.04,0.211,0.09,0.427,0.141,0.638c-0.724,0.207-1.445,0.409-2.164,0.607C213.693,288.079,213.668,287.769,213.649,287.457"/>
		<path clip-path="url(#SVGID_2_)" fill="#a41c31" d="M324.469,284.708c0.561-1.663,1.335-1.291,2.558-0.387
			C325.914,284.492,325.197,284.598,324.469,284.708"/>
		<path clip-path="url(#SVGID_2_)" fill="#a41c31" d="M702.913,565.202c-0.541,0.378-0.833,0.756-1.084,0.726
			c-0.266-0.04-0.521-0.427-0.688-0.717c-0.035-0.066,0.337-0.523,0.508-0.511C701.975,564.714,702.291,564.934,702.913,565.202"/>
		<path clip-path="url(#SVGID_2_)" fill="#a41c31" d="M341.729,187.147c-0.418-1.476-0.418-1.476,1.209-1.289
			c-0.547,0.51-0.924,0.862-1.295,1.223C341.652,187.085,341.729,187.147,341.729,187.147"/>
		<path clip-path="url(#SVGID_2_)" fill="#a41c31" d="M283.684,183.738c-0.818,0.884-1.254,1.351-1.802,1.94
			c-0.246-0.418-0.508-0.66-0.497-0.875C281.451,183.773,282.067,183.492,283.684,183.738"/>
		<path clip-path="url(#SVGID_2_)" fill="#a41c31" d="M631.131,181.785c0.187-0.541,0.327-1.108,0.567-1.63
			c0.105-0.24,0.406-0.385,1.064-0.376c-0.337,0.752-0.678,1.511-1.019,2.263C631.537,181.957,631.337,181.877,631.131,181.785"/>
		<path clip-path="url(#SVGID_2_)" fill="#a41c31" d="M338.837,64.914c-0.4,0.225-0.737,0.51-0.823,0.451
			c-0.266-0.2-0.471-0.517-0.626-0.825c-0.027-0.044,0.451-0.466,0.541-0.42C338.235,64.276,338.466,64.562,338.837,64.914"/>
		<path clip-path="url(#SVGID_2_)" fill="#a41c31" d="M279.076,57.938c-0.631,0.396-0.999,0.625-1.366,0.858
			c-0.169-0.291-0.525-0.633-0.466-0.864c0.075-0.279,0.478-0.607,0.779-0.653C278.264,57.239,278.563,57.591,279.076,57.938"/>
		<path clip-path="url(#SVGID_2_)" fill="#a41c31" d="M611.051,128.83c-0.055-0.493-0.116-0.989-0.167-1.48
			c0.202-0.02,0.411-0.042,0.622-0.055c0.04,0.493,0.082,0.983,0.126,1.48C611.436,128.795,611.247,128.817,611.051,128.83"/>
		<path clip-path="url(#SVGID_2_)" fill="#a41c31" d="M359.005,298.616c-0.677,0.063-1.351,0.134-2.032,0.198
			c-0.051-0.079-0.105-0.169-0.163-0.25c0.724-0.365,1.447-0.73,2.626-1.333c-0.286,0.812-0.4,1.135-0.517,1.46L359.005,298.616"/>
		<path clip-path="url(#SVGID_2_)" fill="#a41c31" d="M445.838,187.424c-1.059,0.702-1.344,0.889-1.626,1.078
			c-0.149-0.33-0.406-0.651-0.427-0.994c-0.009-0.185,0.363-0.556,0.557-0.556C444.714,186.951,445.085,187.167,445.838,187.424"/>
		<path clip-path="url(#SVGID_2_)" fill="#a41c31" d="M415.733,179.489c-0.51,0.048-1.034,0.105-1.544,0.159
			c-0.042-0.216-0.081-0.427-0.132-0.638c0.523-0.123,1.045-0.25,1.562-0.378C415.659,178.917,415.694,179.203,415.733,179.489"/>
		<path clip-path="url(#SVGID_2_)" fill="#a41c31" d="M185.194,312.437c-0.737,0.057-1.484,0.101-2.221,0.149
			c-0.022-0.139-0.031-0.274-0.042-0.409c0.704-0.074,1.421-0.156,2.129-0.233C185.111,312.111,185.15,312.278,185.194,312.437"/>
		<path clip-path="url(#SVGID_2_)" fill="#a41c31" d="M702.463,472.831c-0.609-0.457-1.347-0.875-0.196-2.045
			c0.049,0.91,0.084,1.513,0.126,2.12C702.381,472.906,702.463,472.831,702.463,472.831"/>
		<path clip-path="url(#SVGID_2_)" fill="#a41c31" d="M635.934,277.736c0.117-0.326,0.227-0.646,0.337-0.968
			c0.151,0.189,0.352,0.361,0.411,0.572c0.031,0.124-0.189,0.311-0.29,0.471C636.239,277.784,636.09,277.76,635.934,277.736"/>
		<path clip-path="url(#SVGID_2_)" fill="#a41c31" d="M70.928,79.971c-0.383,0.22-0.664,0.422-0.979,0.528
			c-0.046,0.013-0.398-0.488-0.337-0.594c0.161-0.277,0.471-0.466,0.722-0.691C70.497,79.412,70.65,79.619,70.928,79.971"/>
		<path clip-path="url(#SVGID_2_)" fill="#a41c31" d="M633.71,176.276c0.031,0.391,0.066,0.79,0.097,1.185
			c-0.257,0.004-0.508,0.013-0.758,0.024c0.059-0.411,0.129-0.818,0.199-1.225C633.4,176.265,633.557,176.269,633.71,176.276"/>
		<path clip-path="url(#SVGID_2_)" fill="#a41c31" d="M433.367,183.157c-0.422-0.563-0.708-0.805-0.778-1.091
			c-0.03-0.141,0.337-0.49,0.557-0.521c0.235-0.04,0.517,0.182,0.778,0.292C433.787,182.159,433.653,182.476,433.367,183.157"/>
		<path clip-path="url(#SVGID_2_)" fill="#a41c31" d="M290.268,61.871c-0.776,0.167-1.28,0.272-2.091,0.449
			C289.05,61.299,289.05,61.299,290.268,61.871"/>
		<path clip-path="url(#SVGID_2_)" fill="#a41c31" d="M388.13,176.01c-0.341-0.235-0.739-0.422-0.719-0.517
			c0.066-0.321,0.277-0.614,0.438-0.908c0.282,0.145,0.567,0.291,0.842,0.44C388.521,175.328,388.35,175.627,388.13,176.01"/>
		<path clip-path="url(#SVGID_2_)" fill="#a41c31" d="M611.674,155.783c-0.539-0.759-0.548-1.418,0.35-1.867
			c0.146-0.07,0.608,0.141,0.673,0.316C613.023,155.134,612.672,155.673,611.674,155.783"/>
		<path clip-path="url(#SVGID_2_)" fill="#a41c31" d="M406.079,172.456c0.4,0.242,0.812,0.484,1.214,0.728
			c-0.066,0.13-0.129,0.266-0.2,0.398c-0.442-0.18-0.874-0.363-1.315-0.55C405.876,172.838,405.978,172.647,406.079,172.456"/>
		<path clip-path="url(#SVGID_2_)" fill="#a41c31" d="M629.094,170.56c-0.16,0.451-0.316,0.906-0.477,1.359
			c-0.231-0.097-0.462-0.196-0.693-0.291c0.227-0.431,0.446-0.857,0.673-1.284C628.762,170.415,628.934,170.489,629.094,170.56"/>
		<path clip-path="url(#SVGID_2_)" fill="#a41c31" d="M424.126,169.495c0.191,0.326,0.325,0.557,0.466,0.788
			c-0.254,0.121-0.516,0.336-0.756,0.308c-0.16-0.018-0.297-0.363-0.442-0.567C423.613,169.865,423.824,169.711,424.126,169.495"/>
		<path clip-path="url(#SVGID_2_)" fill="#a41c31" d="M272.447,55.844c-0.387,0.266-0.567,0.447-0.779,0.521
			c-0.141,0.042-0.332-0.086-0.493-0.13c0.105-0.215,0.172-0.537,0.341-0.603C271.697,55.559,271.979,55.73,272.447,55.844"/>
		<path clip-path="url(#SVGID_2_)" fill="#a41c31" d="M332.394,281.717c0.382-0.137,0.768-0.277,1.15-0.409
			c0.04,0.171,0.146,0.484,0.121,0.488c-0.363,0.154-0.743,0.259-1.115,0.383C332.499,282.02,332.448,281.866,332.394,281.717"/>
		<path clip-path="url(#SVGID_2_)" fill="#a41c31" d="M438.259,202.845c0.183,0.292,0.312,0.501,0.442,0.719
			c-0.231,0.104-0.482,0.332-0.693,0.291c-0.18-0.029-0.31-0.345-0.471-0.537C437.748,203.178,437.96,203.043,438.259,202.845"/>
		<path clip-path="url(#SVGID_2_)" fill="#a41c31" d="M535.037,197.255c0,0.442,0.011,0.884-0.021,1.324
			c-0.004,0.022-0.352,0.018-0.532,0.022v-1.385C534.665,197.23,534.856,197.246,535.037,197.255"/>
		<path clip-path="url(#SVGID_2_)" fill="#a41c31" d="M341.081,190.345c0.422-0.101,0.833-0.203,1.256-0.301
			c0.046,0.156,0.086,0.306,0.125,0.466c-0.418,0.116-0.829,0.235-1.241,0.356C341.173,190.69,341.127,190.516,341.081,190.345"/>
		<path clip-path="url(#SVGID_2_)" fill="#a41c31" d="M397.627,184.638c0.22,0.591,0.411,0.853,0.372,1.068
			c-0.031,0.183-0.312,0.363-0.523,0.442c-0.086,0.035-0.392-0.196-0.387-0.308C397.099,185.636,397.255,185.436,397.627,184.638"/>
		<path clip-path="url(#SVGID_2_)" fill="#a41c31" d="M426.982,184.2c-0.266-0.374-0.547-0.638-0.496-0.737
			c0.105-0.222,0.36-0.451,0.592-0.49c0.18-0.042,0.402,0.215,0.611,0.334C427.488,183.558,427.289,183.808,426.982,184.2"/>
		<path clip-path="url(#SVGID_2_)" fill="#a41c31" d="M300.458,60.393c-0.082-0.684-0.161-1.368-0.31-2.595
			c1.445,1.324,0.541,1.882,0.24,2.525C300.398,60.331,300.458,60.393,300.458,60.393"/>
		<path clip-path="url(#SVGID_2_)" fill="#a41c31" d="M601.75,150.172c-0.081,0.33-0.141,0.673-0.262,0.983
			c-0.02,0.051-0.321-0.011-0.497-0.015c0.105-0.365,0.207-0.726,0.317-1.089C601.453,150.086,601.599,150.133,601.75,150.172"/>
		<path clip-path="url(#SVGID_2_)" fill="#a41c31" d="M561.863,218.43c-0.211-0.427-0.422-0.858-0.638-1.289
			c0.121-0.079,0.235-0.149,0.353-0.227c0.29,0.363,0.582,0.732,0.877,1.1C562.26,218.155,562.06,218.289,561.863,218.43"/>
		<path clip-path="url(#SVGID_2_)" fill="#a41c31" d="M563.52,222.199c-1.068-0.242-1.269-0.778-0.987-1.474
			c0.251-0.062,0.501-0.123,0.748-0.183c0.055,0.574,0.105,1.155,0.153,1.742L563.52,222.199"/>
	</g>
</g>
</svg>
