<?xml version="1.0" encoding="UTF-8" standalone="no"?>
<!-- Generator: Adobe Illustrator 21.0.2, SVG Export Plug-In . SVG Version: 6.00 Build 0)  -->

<svg
   xmlns:dc="http://purl.org/dc/elements/1.1/"
   xmlns:cc="http://creativecommons.org/ns#"
   xmlns:rdf="http://www.w3.org/1999/02/22-rdf-syntax-ns#"
   xmlns:svg="http://www.w3.org/2000/svg"
   xmlns="http://www.w3.org/2000/svg"
   xmlns:sodipodi="http://sodipodi.sourceforge.net/DTD/sodipodi-0.dtd"
   xmlns:inkscape="http://www.inkscape.org/namespaces/inkscape"
   version="1.1"
   id="Layer_1"
   x="0px"
   y="0px"
   viewBox="0 0 759.99999 799.99997"
   xml:space="preserve"
   sodipodi:docname="171119_Phasenpruefer_Single_Outline_Black.svg"
   width="760"
   height="800"
   inkscape:version="0.92.2 5c3e80d, 2017-08-06"><metadata
     id="metadata25"><rdf:RDF><cc:Work
         rdf:about=""><dc:format>image/svg+xml</dc:format><dc:type
           rdf:resource="http://purl.org/dc/dcmitype/StillImage" /><dc:title></dc:title></cc:Work></rdf:RDF></metadata><defs
     id="defs23" /><sodipodi:namedview
     pagecolor="#ffffff"
     bordercolor="#666666"
     borderopacity="1"
     objecttolerance="10"
     gridtolerance="10"
     guidetolerance="10"
     inkscape:pageopacity="0"
     inkscape:pageshadow="2"
     inkscape:window-width="1619"
     inkscape:window-height="1005"
     id="namedview21"
     showgrid="false"
     inkscape:zoom="0.1982277"
     inkscape:cx="420.94501"
     inkscape:cy="595.27502"
     inkscape:window-x="61"
     inkscape:window-y="1"
     inkscape:window-maximized="1"
     inkscape:current-layer="Layer_1" /><g
     id="g18"
     transform="matrix(1.1049949,0,0,1.1049949,-100.449,-163.6401)"
     style="stroke-width:0.90498155"><path
       style="clip-rule:evenodd;fill-rule:evenodd;stroke-width:0.90498155"
       d="m 499.704,157.444 c -0.082,0.011 1.18,-0.457 2.5,-0.25 4.025,0.631 7.623,5.245 9.499,8.749 1.628,3.044 3.077,7.311 4.249,11.499 1.223,4.371 2.389,9.318 2.5,13.248 0.125,4.373 0.297,8.419 1.748,11.709 1.434,3.248 3.731,5.192 5.752,8.038 2.695,3.799 5.379,9.095 5.248,15.498 -0.104,5.135 -2.729,11.2 -7.248,11.249 -7.111,0.077 -6.529,-9.444 -8,-15.998 -0.664,-2.966 -2.355,-6.451 -3.748,-9.999 -1.256,-3.194 -2.58,-6.44 -4.251,-9.249 -3.705,-6.23 -5.153,-13.464 -7.749,-19.248 -1.798,-4.007 -3.773,-7.337 -4.998,-12.998 -0.66,-3.045 -1.395,-6.798 -0.5,-9.249 0.77,-2.112 3.064,-2.741 4.998,-2.999 z m 1,19.498 c 2.015,4.231 4.206,8.436 5.5,12.248 0.727,2.14 1.074,4.181 1.749,6 0.71,1.911 1.556,3.44 2.5,5.249 2.845,5.451 4.524,9.796 6.499,15.498 0.607,1.753 1.458,3.302 1.75,4.749 1.106,5.483 0.227,13.089 4.75,13.249 3.45,0.122 5.215,-5.651 4.5,-10.749 -0.232,-1.645 -1.199,-3.765 -2,-5.499 -1.814,-3.922 -3.544,-6.149 -5.663,-9.257 -0.967,-1.417 -2.119,-3.062 -2.838,-4.966 -1.608,-4.26 -2.114,-8.601 -2.499,-13.524 -0.721,-9.234 -3.254,-15.83 -6.749,-22.247 -1.807,-3.319 -3.565,-7.309 -6.999,-6.749 -6.275,1.022 -2.492,11.813 -0.5,15.998 z"
       id="path2"
       inkscape:connector-curvature="0" /><path
       style="clip-rule:evenodd;fill-rule:evenodd;stroke-width:0.90498155"
       d="m 393.218,160.194 c 1.02,-0.106 2.013,-0.387 4,0.75 1.535,0.878 2.84,2.077 2.499,1.749 6.02,5.784 9.03,14.733 13.748,22.248 3.847,6.126 6.834,9.741 11.999,15.248 3.629,3.869 7.858,8.152 11.747,12.248 4.407,4.642 10.688,10.697 13.499,16.998 2.43,5.448 2.583,16.324 -4.75,16.498 -4,0.095 -8.405,-4.665 -10.747,-7.499 -1.113,-1.346 -2.43,-2.614 -3.25,-4 -1.515,-2.555 -2.491,-5.671 -3.999,-8.499 -1.396,-2.616 -3.052,-5.148 -4.5,-7.749 -2.747,-4.934 -5.981,-10.157 -10.749,-13.999 -4.907,-3.953 -9.381,-5.544 -13.999,-9.749 -3.636,-3.311 -8.341,-8.945 -10.499,-13.499 -2.177,-4.594 -4.749,-12.581 -1.25,-17.498 1.294,-1.813 3.831,-2.994 6.251,-3.247 z m -3.499,14.498 c 2.177,6.339 5.349,11.849 8.999,15.498 5.571,5.571 12.088,8.379 18.248,14.498 4.995,4.961 9.458,11.654 13.499,19.248 1.695,3.186 3.451,6.86 5.75,10.499 1.813,2.874 4.714,7.954 8.997,7.499 3.587,-0.38 4.567,-4.77 3.5,-8.749 -0.456,-1.704 -1.751,-3.822 -3,-5.749 -5.926,-9.152 -14.642,-15.63 -20.996,-23.497 -4.454,-5.514 -7.881,-8.025 -11.499,-12.999 -2.872,-3.948 -5.052,-8.008 -7.25,-12.499 -1.21,-2.473 -2.991,-5.568 -4.749,-8.498 -0.805,-1.342 -1.326,-2.314 -2.75,-3.75 -1.634,-1.648 -3.251,-2.238 -4.999,-2 -5.824,0.796 -5.473,5.485 -3.75,10.499 z"
       id="path4"
       inkscape:connector-curvature="0" /><path
       style="clip-rule:evenodd;fill-rule:evenodd;stroke-width:0.90498155"
       d="m 120.002,831.36 c 1.747,2.805 2.676,3.248 4.749,5 1.37,1.156 3.905,3.754 5.75,3.749 1.318,-0.004 6.029,-3.376 7.249,-4.249 2.526,-1.81 4.517,-3.808 6.249,-5.25 8.761,-7.291 15.745,-13.529 23.497,-21.997 1.629,-1.779 3.375,-3.788 5.499,-5.999 1.793,-1.866 4.301,-4.55 4.5,-6.75 0.404,-4.467 -3.515,-6.465 -2.5,-11.748 0.598,-3.111 4.137,-5.907 6.749,-8.749 7.26,-7.898 15.272,-16.021 22.497,-23.247 7.798,-7.798 14.193,-16.044 22.247,-23.497 10.436,-9.656 19.775,-20.774 29.997,-30.996 5.106,-5.106 10.027,-10.026 15.248,-15.248 5.052,-5.053 9.661,-10.551 14.748,-15.748 2.532,-2.587 5.282,-4.917 7.749,-7.499 10.021,-10.486 19.651,-21.15 29.747,-31.246 5.06,-5.06 10.25,-10.076 14.998,-15.498 2.361,-2.695 4.609,-5.497 7.249,-7.999 2.571,-2.438 5.018,-5.183 7.499,-7.749 7.143,-7.385 14.912,-15.548 22.247,-23.497 2.322,-2.516 5.27,-5.276 8.749,-6.499 4.191,-1.473 9.219,-0.648 12.999,0.75 3.672,1.358 7.232,3.038 10.998,4.249 7.744,2.49 17.763,5.151 24.998,1 6.795,-3.9 11.15,-12.601 13.747,-21.497 2.686,-9.198 3.146,-20.003 5.749,-29.497 2.59,-9.443 5.545,-17.406 10.25,-24.997 4.483,-7.234 10.426,-13.027 16.747,-18.498 6.532,-5.651 13.508,-9.924 20.997,-14.248 3.713,-2.143 7.318,-4.522 11.25,-6.499 11.465,-5.765 23.342,-11.645 33.744,-18.998 14.203,-10.037 27.029,-18.932 40.245,-30.246 3.108,-2.661 6.162,-5.618 9.249,-8.499 6.066,-5.658 11.891,-11.376 17.248,-17.998 2.572,-3.179 5.566,-6.086 8.249,-9.249 2.685,-3.167 5.017,-6.786 7.5,-10.249 9.378,-13.087 19.288,-28.173 21.997,-48.494 1.477,-11.075 -2.156,-20.871 -6.5,-28.246 -6.447,-10.948 -14.695,-20.688 -26.747,-25.997 -8.482,-3.736 -18.195,-5.295 -29.496,-2.749 -9.046,2.038 -17.409,6.596 -24.247,10.999 -7.379,4.751 -13.961,9.5 -20.246,14.998 -7.927,6.933 -14.996,14.349 -21.998,22.248 -0.357,0.402 -0.547,0.833 -1,1.249 -1.092,1.003 -1.652,2.324 -2.75,3.75 -5.019,6.516 -10.557,12.851 -15.748,19.497 -7.666,9.817 -14.183,20.802 -20.997,31.746 -2.274,3.652 -4.728,7.236 -6.749,10.999 -2.068,3.849 -3.799,7.869 -5.75,11.748 -1.89,3.762 -4.104,7.651 -5.748,11.999 -4.752,12.563 -10.691,24.866 -17.499,35.245 -11.61,17.706 -27.701,30.739 -46.744,41.495 -3.756,2.122 -7.849,3.75 -11.998,5.499 -8.419,3.548 -16.162,7.345 -22.247,12.998 -6.261,5.817 -11.634,12.035 -12.749,22.498 -0.975,9.154 0.602,15.669 3.5,22.247 0.671,1.522 2.816,4.454 2.75,5.999 -0.055,1.263 -1.875,3.264 -3,4.499 -1.314,1.444 -2.587,2.612 -3.75,3.75 -1.948,1.907 -5.892,6.443 -8.749,6.249 -1.416,-0.096 -1.858,-0.677 -2.749,-2 -4.285,-6.354 -7.233,-15.897 -8.499,-24.497 -1.891,-12.839 0.506,-25.639 3.999,-32.746 4.045,-8.231 9.156,-16.13 15.748,-21.998 3.302,-2.939 7.253,-5.428 10.999,-7.999 3.781,-2.596 7.682,-5.101 11.749,-6.999 9.131,-4.261 18.347,-6.705 26.747,-10.998 1.914,-0.979 3.799,-2.537 5.749,-3.75 13.361,-8.306 23.22,-20.428 29.748,-36.246 1.867,-4.529 2.887,-9.583 4.248,-14.498 1.322,-4.77 2.812,-9.32 4.749,-13.998 1.907,-4.604 3.771,-9 5.75,-13.249 1.966,-4.22 4.532,-7.717 6.999,-11.749 4.762,-7.778 9.338,-15.542 14.498,-23.247 2.494,-3.723 5.309,-7.41 7.999,-10.999 16.042,-21.396 34.225,-41.045 54.743,-58.492 5.077,-4.316 10.002,-8.788 15.748,-12.498 9.193,-5.937 20.049,-11.663 31.746,-15.248 2.642,-0.81 4.979,-1.358 7.749,-1.75 2.825,-0.4 6.21,-0.856 9.249,-1 14.079,-0.666 25.934,4.173 34.996,10.499 9.494,6.627 16.547,13.703 23.246,22.247 3.463,4.416 6.521,8.464 9,13.749 2.387,5.091 4.629,10.529 5.498,17.247 1.693,13.068 -0.172,27.064 -4.248,38.995 -9.596,28.079 -23.91,51.689 -42.245,71.241 -3.671,3.913 -7.249,7.998 -10.999,11.749 -7.582,7.582 -15.5,14.707 -23.748,21.497 -4.051,3.335 -8.494,6.405 -12.998,9.749 -12.605,9.36 -27.305,19.408 -42.494,25.747 -4.994,2.085 -9.754,5.157 -14.748,7.999 -9.417,5.358 -18.869,11.66 -26.746,18.748 -4.065,3.657 -7.95,7.464 -11,11.499 -6.546,8.66 -10.633,20.155 -13.498,31.996 -3.111,12.863 -5.475,23.555 -12.498,32.746 -3.342,4.375 -6.98,7.751 -11.749,10.999 -4.529,3.085 -9.567,6.075 -15.747,6.999 -11.521,1.723 -20.285,-0.928 -28.997,-3.999 -3.17,-1.118 -6.878,-2.542 -10.249,-1.75 -4.76,1.118 -9.309,7.585 -12.999,11.499 -11.984,12.711 -23.783,25.531 -35.746,37.494 -8.179,8.18 -15.993,16.742 -23.997,24.748 -24.226,24.228 -48.236,49.734 -72.491,73.99 -7.635,7.636 -15.459,16.209 -23.997,24.747 -3.717,3.718 -7.841,8.234 -12.249,12.248 -1.897,1.728 -3.839,3.814 -6.249,5.999 -2.23,2.023 -5.255,4.389 -5.499,6.5 -0.316,2.727 1.477,4.492 2.25,6.499 0.809,2.101 1.978,4.372 1.749,6.999 -0.296,3.409 -4.731,6.982 -7.249,9.748 -1.372,1.507 -3.046,2.688 -4.499,4 -7.364,6.652 -14.338,13.46 -22.247,19.998 -2.886,2.385 -6.094,5.22 -9.249,7.748 -4.714,3.778 -9.525,7.438 -14.498,10.749 -3.174,2.113 -6.039,4.607 -9.999,6.999 -3.936,2.379 -6.041,3.655 -10.499,1.75 -4.883,-2.087 -7.982,-6.199 -12.249,-10.748 -1.944,-2.074 -3.446,-3.684 -5.499,-6 -1.518,-1.711 -4.452,-4.691 -4.749,-6.749 -0.492,-3.396 2.784,-9.292 4.749,-12.249 2.284,-3.433 5.138,-6.957 6.999,-9.748 8.882,-13.319 17.765,-26.242 27.247,-39.995 2.074,-3.009 4.195,-6.564 6.749,-9.999 2.069,-2.782 5.822,-8.55 8.499,-8.748 1.491,-0.111 3.238,0.817 4.75,1.749 2.879,1.775 9.146,6.432 9.249,9.749 0.086,2.798 -3.418,6.393 -5.249,8.749 -10.279,13.216 -20.414,25.097 -30.996,37.745 -4.34,5.189 -8.806,10.609 -11.999,15.499 z m 27.747,-60.992 c -1.968,2.82 -4.225,5.619 -6.249,8.499 -3.99,5.677 -7.883,11.566 -12.248,17.247 -6.224,8.1 -11.92,17.83 -17.748,26.247 -2.113,3.053 -4.639,5.829 -5.999,8.749 -0.762,1.635 -1.685,4.25 -1.5,5.999 0.326,3.091 2.239,4.739 4.25,6.749 3.674,3.675 6.391,6.996 10.248,10.499 2.683,2.436 4.917,4.353 8.749,3.749 3.595,-0.564 6.889,-3.095 10.249,-5.499 6.687,-4.785 12.269,-8.845 17.998,-13.498 2.879,-2.339 5.763,-4.267 8.999,-6.999 9.449,-7.981 19.543,-17.736 28.997,-26.497 1.811,-1.679 3.087,-2.977 3.249,-4.749 0.229,-2.495 -1.18,-5.003 -1.999,-6.999 -0.935,-2.276 -2.367,-3.951 -2,-6.749 0.361,-2.75 2.8,-5.276 4.999,-7.5 14.45,-14.606 28.17,-28.918 42.245,-42.994 24.221,-24.223 48.328,-49.326 72.491,-73.49 22.278,-22.28 43.899,-45.428 65.242,-68.742 2.054,-2.243 4.142,-4.542 6.249,-5.999 4.87,-3.367 11.183,-1.893 16.248,0 8.203,3.065 17.378,5.983 28.247,3.75 14.644,-3.009 24.463,-13.031 30.495,-25.247 3.84,-7.778 5.266,-16.299 7.498,-25.997 2.656,-11.529 7.415,-22.473 13.999,-30.746 9.65,-12.125 23.433,-21.456 36.995,-29.746 4.75,-2.903 9.686,-5.204 14.748,-7.749 2.455,-1.234 5.164,-2.157 7.5,-3.5 16.258,-9.345 32.992,-20.252 46.993,-31.246 20.521,-16.112 38.782,-36.251 54.243,-57.243 3.197,-4.34 5.715,-9.055 8.5,-13.749 5.616,-9.469 10.266,-19.705 13.998,-30.746 3.941,-11.659 6.666,-25.086 4.75,-38.745 -0.898,-6.4 -2.984,-11.918 -5.25,-16.998 -2.309,-5.174 -5.576,-9.385 -9,-13.499 -6.896,-8.288 -13.729,-15.333 -22.995,-21.497 -9.411,-6.257 -20.769,-10.264 -35.497,-9.249 -10.496,0.724 -19.938,4.906 -28.496,8.999 -8.143,3.895 -15.471,9.14 -22.248,14.248 -14.441,10.886 -26.834,22.537 -37.994,35.246 -14.307,16.289 -27.777,33.541 -39.496,51.993 -2.346,3.695 -5.064,7.215 -7.248,10.999 -5.554,9.621 -10.666,20.146 -14.499,31.246 -2.408,6.976 -3.784,14.448 -6.249,21.248 -6.197,17.101 -19.366,31.078 -33.496,39.495 -3.818,2.274 -7.718,4.469 -11.998,6.249 -4.155,1.728 -8.73,3.076 -13.499,4.999 -8.357,3.371 -16.277,8.004 -22.997,13.499 -3.454,2.824 -6.85,5.553 -9.499,8.749 -2.843,3.43 -4.95,7.07 -7.25,11.249 -4.619,8.394 -6.7,16.833 -6.499,29.996 0.091,5.969 1.064,10.632 2.75,15.498 1.462,4.22 2.988,8.59 5.999,12.499 3.211,-1.955 3.71,-2.896 5.999,-5 1.519,-1.396 4.999,-3.905 4.999,-6.249 0,-0.58 -0.778,-2.01 -1.25,-3 -3.517,-7.377 -4.925,-16.458 -3.499,-26.497 2.833,-19.95 18.768,-29.877 35.496,-36.246 17.325,-6.596 31.425,-16.676 43.246,-28.497 6.2,-6.201 11.616,-12.409 15.997,-19.997 2.15,-3.727 4.551,-7.321 6.499,-11.249 3.979,-8.021 7.644,-16.706 10.999,-24.997 1.728,-4.271 3.638,-8.267 5.748,-12.249 3.791,-7.147 8.324,-15.001 12.999,-22.747 4.482,-7.428 9.265,-14.915 14.249,-21.747 1.23,-1.687 2.279,-3.569 3.498,-5.249 3.828,-5.276 7.961,-10.085 11.999,-14.999 5.534,-6.729 10.669,-13.667 16.499,-19.497 10.896,-10.896 24.862,-24.147 39.494,-32.246 6.98,-3.863 16.234,-8.578 25.996,-9.999 22.908,-3.332 39.725,8.874 49.494,21.248 5.399,6.836 9.916,14.443 12.248,23.747 4.113,16.398 -1.788,32.965 -7.498,43.745 -6.363,12.016 -13.256,22.497 -21.247,32.496 -16.095,20.137 -34.358,37.734 -54.993,52.993 -13.553,10.022 -27.298,20.729 -43.244,28.496 -15.841,7.715 -32.514,16.456 -44.746,26.997 -3.373,2.908 -6.197,5.669 -8.998,8.748 -8.702,9.569 -13.423,22.212 -17.498,36.496 -1.42,4.983 -1.962,10.245 -2.75,15.248 -1.608,10.214 -4.316,19.669 -9.498,26.497 -2.53,3.333 -6.271,6.692 -9.748,8.249 -3.433,1.537 -8.525,1.561 -12.499,1.25 -8.545,-0.668 -15.048,-3.66 -21.747,-6.249 -3.431,-1.326 -7.191,-2.836 -11.748,-2.25 -3.12,0.401 -5.678,3.427 -8.249,6 -6.745,6.745 -13.232,13.981 -19.498,20.247 -9.07,9.07 -17.8,18.801 -25.997,26.997 -6.63,6.63 -12.893,13.703 -19.248,20.247 -1.05,1.082 -2.484,1.899 -3.5,3 -0.531,0.575 -0.749,1.447 -1.25,2 -0.561,0.618 -1.195,1.184 -1.749,1.749 -13.141,13.407 -26.258,26.781 -38.745,40.495 -4.158,4.566 -9.034,8.62 -13.248,13.248 -8.402,9.227 -17.337,18.102 -25.997,26.997 -8.389,8.616 -17.328,17.665 -25.997,26.997 -6.046,6.508 -13.215,13.131 -19.498,20.247 -2.122,2.403 -5.584,5.677 -5.749,7.499 -0.327,3.613 3.569,6.004 3.499,10.248 -0.013,0.804 -0.613,2.616 -1,3.5 -1.974,4.516 -7.438,8.542 -11.249,12.498 -9.973,10.354 -19.716,19.181 -31.746,27.497 -2.583,1.786 -5.548,4.27 -7.749,4.249 -3.213,-0.029 -5.747,-2.682 -7.999,-4.749 -2.115,-1.942 -5.305,-3.853 -5.25,-7.499 0.044,-2.818 3.379,-5.908 5.25,-8.249 12.374,-15.483 23.606,-29.822 35.996,-44.994 1.633,-2 5.677,-6.232 5.499,-8.249 -0.144,-1.643 -2.973,-3.184 -4.249,-4.25 -1.895,-1.582 -3.562,-3.225 -5.5,-3.249 -2.832,2.084 -4.233,5.363 -6.248,8.25 z"
       id="path6"
       inkscape:connector-curvature="0" /><path
       style="clip-rule:evenodd;fill-rule:evenodd;stroke-width:0.90498155"
       d="m 356.723,271.431 c 5.719,-0.983 10.996,4.045 15.748,6.499 7.736,3.995 16.324,7.867 23.997,12.998 3.925,2.625 8.509,5.528 9.498,8.999 0.773,2.708 -0.252,6.091 -1.249,6.999 -4.292,3.908 -13.093,-1.606 -16.998,-3.999 -2.123,-1.302 -4.694,-2.829 -7.499,-4.25 -2.863,-1.45 -5.771,-3.22 -7.999,-3.749 -3.536,-0.84 -6.733,-0.141 -9.499,-0.75 -1.42,-0.313 -4.385,-1.488 -5.75,-2.25 -2.554,-1.426 -5.158,-3.691 -6.249,-6.249 -0.896,-2.099 -1.419,-6.453 -0.75,-8.749 0.837,-2.871 4.274,-5.074 6.75,-5.499 z m 37.995,21.747 c -7.043,-4.957 -15.676,-8.911 -23.497,-12.999 -3.795,-1.983 -8.256,-5.95 -12.999,-5.5 -5.122,0.487 -6.916,5.442 -4.75,9.999 2.125,4.471 7.796,6.508 13.498,6.999 1.149,0.099 2.432,-0.176 3.75,0 4.048,0.541 6.856,2.526 9.999,3.999 1.881,0.882 3.88,1.547 5.499,2.5 2.449,1.441 4.826,3.458 7.499,4.75 2.749,1.328 6.095,3.252 8.999,0.25 0.326,-5.232 -4.569,-7.585 -7.998,-9.998 z"
       id="path8"
       inkscape:connector-curvature="0" /><path
       style="clip-rule:evenodd;fill-rule:evenodd;stroke-width:0.90498155"
       d="m 591.692,347.421 c -2.441,-5.307 -5.271,-10.072 -9.748,-14.248 -1.219,-1.137 -3.238,-3.191 -4.5,-3.25 -2.543,-0.119 -6.711,5.181 -8.998,8.499 -2.488,3.609 -4.928,7.337 -7,10.249 -5.119,7.195 -9.834,13.293 -14.998,19.497 -5.192,6.24 -10.562,12.021 -15.998,18.748 -1.225,1.517 -2.275,3.382 -3.748,4.999 -1.381,1.517 -2.969,2.75 -4,4.5 -2.156,3.66 -4.131,8.033 -4.25,12.998 -0.131,5.478 1.721,9.301 1.5,14.748 -0.215,5.321 -2.834,10.783 -7,11.999 -3.695,1.079 -9.027,-0.688 -12.248,0.25 -1.588,0.462 -4.154,2.652 -4.748,4.499 -0.744,2.306 0.107,5.902 -0.25,8.499 -0.184,1.324 -1.091,3.107 -1.75,4.749 -1.316,3.272 -3.017,6.31 -5.5,8.249 -4.8,3.748 -11.086,5.137 -18.748,5 -0.152,-0.002 -0.35,-0.03 -0.5,0 -3.586,0.718 -8.456,3.889 -11.748,6.75 -9.701,8.428 -17.898,19.296 -26.496,28.246 -5.949,6.192 -11.65,12.649 -17.748,18.748 -6.179,6.179 -11.6,13.1 -17.498,18.997 -3.049,3.05 -6.395,5.938 -9.249,9.249 -1.424,1.652 -2.775,3.413 -4.25,5 -4.287,4.615 -9.07,8.912 -13.498,13.748 -4.407,4.815 -8.403,9.701 -12.998,14.498 -1.459,1.523 -3.328,2.688 -4.75,4.249 -2.882,3.166 -5.566,6.52 -8.499,9.749 -2.839,3.127 -6.292,5.871 -9.249,8.999 -3.011,3.185 -5.482,6.896 -8.499,9.749 -6.164,5.826 -12.185,12.154 -17.998,18.747 -2.792,3.166 -6.042,6.096 -8.999,9.249 -1.504,1.605 -2.807,3.411 -4.249,5 -4.209,4.634 -8.867,9.104 -13.499,13.748 -3.082,3.09 -5.552,6.555 -8.499,9.748 -5.889,6.382 -12.574,12.041 -17.998,18.498 -4.217,5.02 -9.196,9.145 -13.749,13.998 -7.136,7.61 -14.872,15.125 -22.247,23.247 -8.299,9.14 -17.074,18.974 -26.246,28.497 -2.526,2.622 -7.514,8.668 -9.499,8.748 -1.786,0.072 -5.395,-3.266 -6.749,-4.499 -2.159,-1.966 -4.581,-3.714 -4.749,-6.249 -0.178,-2.675 2.069,-5.072 3.999,-7.249 9.023,-10.179 18.062,-19.202 27.247,-28.997 10.749,-11.461 21.83,-23.877 32.496,-34.995 5.508,-5.741 10.806,-11.505 16.248,-17.498 1.712,-1.886 4.001,-3.346 5.5,-5.499 16.86,-18.05 33.617,-36.143 51.246,-54.668 14.576,-15.315 29.939,-30.964 44.762,-46.77 8.018,-8.55 15.913,-17.345 23.977,-25.796 7.884,-8.262 15.609,-16.858 23.997,-25.247 7.919,-7.919 15.486,-16.795 23.747,-25.747 3.775,-4.09 7.905,-8.296 11.999,-12.749 3.88,-4.222 8.509,-9.464 12.997,-11.499 5.153,-2.335 13.908,-0.187 18.497,-2.75 1.633,-0.911 3.676,-3.436 4,-5.249 0.815,-4.561 -2.481,-6.936 -2.75,-10.999 -0.213,-3.226 0.973,-6.958 2.75,-8.499 2.777,-2.407 7.813,-2.249 12.998,-2.249 7.588,0 15.675,-0.305 17.748,-6.25 0.927,-2.651 0.558,-7.184 0,-10.499 -0.416,-2.474 -1.574,-4.652 -1.75,-6.999 -0.564,-7.571 4.016,-11.55 8.999,-15.998 2.985,-2.664 6.3,-5.39 8.749,-7.749 11.942,-11.501 20.377,-23.336 29.246,-37.246 3.281,-5.145 6.207,-10.213 9,-15.998 0.916,-1.901 1.416,-3.989 2.5,-5.749 2.688,-4.374 7.588,-9.259 12.498,-10.499 3.508,-0.887 8.107,2.343 11.248,4.249 5.414,3.285 10.158,6.827 14.748,11.249 2.287,2.203 4.844,4.193 6.75,6.249 2.049,2.212 4.375,5.789 5.748,8.749 3.285,7.08 1.166,16.3 -2.25,22.497 -1.639,2.975 -4.361,5.845 -6.998,8.749 -2.44,2.686 -4.886,5.379 -7.75,7.749 -6.098,5.048 -11.07,8.771 -18.496,12.498 -6.452,3.239 -13.645,6.742 -20.748,10.499 -3.017,1.596 -6.858,3.751 -9.748,5.749 -2.688,1.858 -6.59,5.891 -9.75,5.75 -0.971,-0.044 -3.707,-1.23 -4.5,-2.5 -0.956,-1.534 -0.856,-4.942 -1,-7.5 -0.168,-3.001 -0.382,-5.647 0.5,-6.749 0.967,-1.207 6.757,-2.142 8.5,-2.75 3.055,-1.066 6.082,-2 8.248,-3 2.398,-1.106 4.637,-3.021 7,-4.499 6.938,-4.337 12.983,-9.746 18.998,-14.998 4.215,-3.683 7.914,-7.39 11.248,-11.499 3.318,-4.084 7.051,-7.996 8.999,-13.744 z M 246.61,692.255 c 15.997,-15.968 42.188,-43.887 62.119,-65.619 1.434,-1.563 2.756,-3.24 4.249,-4.749 11.872,-12.001 24.217,-24.326 35.496,-36.746 4.369,-4.811 8.896,-9.564 12.999,-14.248 4.284,-4.892 8.906,-9.306 13.248,-13.999 1.442,-1.559 3.108,-2.899 4.5,-4.499 4.3,-4.943 8.876,-9.312 13.248,-13.998 1.442,-1.546 2.666,-3.264 4.25,-4.75 1.521,-1.427 3.109,-2.976 4.499,-4.499 2.85,-3.121 5.983,-6.062 8.749,-9.249 3.429,-3.952 7.354,-8.04 10.749,-11.749 2.233,-2.44 4.232,-4.984 6.5,-7.249 5.638,-5.631 11.507,-12.381 17.246,-18.997 5.533,-6.377 12.216,-13.649 19.749,-16.498 1.906,-0.722 4.967,-1.35 6.748,-1.5 3.911,-0.33 7.012,0.1 9.499,-0.75 4.929,-1.685 7.549,-4.728 9.749,-8.749 0.921,-1.682 1.517,-2.853 1.75,-4.249 0.607,-3.63 -0.351,-7.148 0.5,-9.999 1.021,-3.424 3.675,-5.681 6.748,-6.499 0.901,-0.239 1.949,-0.629 2.75,-0.75 2.183,-0.33 4.725,0.305 7.249,-0.25 0.435,-0.095 1.141,-0.751 1.75,-1 0.77,-0.313 1.423,-0.407 1.999,-0.75 3.293,-1.953 4.004,-6.162 3.75,-11.498 -0.178,-3.744 -1.709,-8.268 -1.25,-13.499 0.391,-4.434 2.77,-8.65 5.25,-12.249 1.156,-1.676 2.885,-2.939 4.25,-4.499 1.481,-1.694 2.668,-3.423 3.998,-4.75 5.9,-5.883 11.131,-12.679 16.248,-18.997 4.918,-6.071 9.973,-12.809 14.748,-20.248 2.076,-3.232 4.232,-6.882 7,-10.499 2.559,-3.345 6.082,-8.079 9.248,-8.499 3.09,-0.41 4.737,0.974 6.75,2.75 3.561,3.139 6.078,6.407 8.748,10.249 1.423,2.046 3.225,3.614 3.5,5.999 0.475,4.097 -1.894,7.917 -4,10.749 -8.713,11.718 -19.07,20.527 -29.996,29.496 -2.798,2.297 -5.637,4.448 -8.748,6.249 -4.967,2.876 -10.283,4.826 -15.748,6.75 -1.732,0.609 -3.727,1.124 -5,2.5 0.133,1.884 -0.715,8.307 1.75,9.999 4.236,-0.442 7.243,-3.711 10.748,-6 3.428,-2.238 7.358,-4.072 11.25,-5.999 7.502,-3.715 15.337,-7.481 22.496,-12.249 7.138,-4.753 13.805,-9.333 19.248,-15.498 4.713,-5.337 11.217,-13.974 10.748,-23.997 -0.31,-6.664 -4.633,-10.081 -8.248,-13.998 -4.94,-5.351 -10.584,-9.905 -16.748,-13.748 -1.326,-0.827 -2.832,-2.01 -4.5,-3 -2.277,-1.351 -5.339,-3.395 -8.498,-2.25 -7.975,2.891 -10.893,14.473 -15.498,21.998 -2.336,3.815 -4.83,7.69 -7.25,11.499 -2.471,3.891 -4.934,7.837 -7.498,11.249 -2.938,3.908 -5.673,7.118 -8.25,10.499 -3.766,4.942 -8.391,10.442 -13.248,14.748 -1.674,1.483 -3.277,3.133 -5,4.5 -4.15,3.294 -8.162,6.172 -9.248,9.499 -1.912,5.862 1.749,14.143 1.75,19.998 0,3.55 -0.795,6.986 -3.5,9.249 -3.301,2.762 -9.367,3.23 -13.748,3.749 -2.329,0.276 -5.26,0.747 -7.999,0.75 -3.169,0.004 -5.076,-0.364 -6.749,1 -0.504,0.411 -1.515,1.406 -1.75,2.5 -0.553,2.583 1.438,5.38 2,8.499 0.818,4.537 0.201,8.152 -1.25,10.749 -2.43,2.295 -5.422,4.32 -10.248,4.999 -3.824,0.538 -7.958,-0.131 -11.499,0.75 -3.371,0.839 -6.93,5.43 -9.999,8.499 -3.189,3.19 -6.15,6.202 -8.748,8.999 -5.904,6.355 -12.096,12.269 -17.249,18.248 -2.761,3.204 -5.987,5.871 -8.749,8.999 -8.408,9.523 -17.393,18.548 -25.747,27.746 -5.586,6.151 -11.683,11.945 -17.497,17.998 -2.899,3.018 -5.5,6.249 -8.499,9.249 -2.945,2.945 -5.911,5.924 -8.749,8.999 -5.689,6.164 -11.51,12.297 -17.174,18.393 -12.888,13.873 -26.33,27.292 -38.819,41.1 -4.292,4.744 -8.779,9.114 -12.998,13.748 -2.821,3.099 -5.458,6.426 -8.249,9.499 -2.823,3.108 -5.915,5.948 -8.749,8.999 -4.351,4.683 -8.759,9.347 -12.999,13.748 -4.442,4.611 -8.668,9.198 -12.998,13.748 -2.903,3.051 -5.612,6.252 -8.499,9.249 -8.5,8.825 -17.294,18.508 -25.747,27.497 -2.783,2.959 -5.763,5.897 -8.749,8.998 -2.766,2.871 -6.15,5.947 -8.749,8.999 -2.309,2.712 -8.256,7.587 -8.249,9.749 0.005,1.764 2.32,3.066 3.5,4.25 1.559,1.562 2.801,2.65 3.999,3.999 23.346,-23.068 41.248,-44.795 65.365,-68.867 z"
       id="path10"
       inkscape:connector-curvature="0" /><path
       style="clip-rule:evenodd;fill-rule:evenodd;stroke-width:0.90498155"
       d="m 711.178,378.667 c 6.023,-0.523 13.132,0.651 19.499,1.25 2.079,0.195 4.271,0.087 6.748,0.25 4.539,0.297 9.814,1.05 14.748,1.5 4.494,0.41 11.32,0.138 13.748,2.249 1.859,1.617 5.58,10.151 3.5,13.999 -1.537,2.844 -9.631,3.586 -15.248,3 -3.662,-0.382 -7.095,-1.838 -11.249,-2.25 -1.201,-0.119 -2.483,0.025 -3.749,-0.25 -2.195,-0.477 -3.695,-2.588 -6.25,-3 -3.631,-0.585 -6.81,0.814 -9.748,0.75 -6.166,-0.134 -8.955,-2.173 -11.999,-6.249 -1.491,-1.999 -3.507,-3.878 -3.499,-6.249 0.007,-2.373 1.478,-4.09 3.499,-5 z m 51.993,7.999 c -3.298,-2.479 -8.155,-2.156 -13.498,-2.25 -5.373,-0.094 -11.252,-0.567 -16.248,-0.999 -4.846,-0.419 -8.607,0.209 -13.498,-0.5 -2.225,-0.323 -4.346,-1.286 -5.499,-1 -5.261,1.306 1.001,8.748 2.999,9.748 4.65,2.327 11.447,-0.381 17.498,1 2.084,0.476 4.086,1.754 6.25,2.25 2.496,0.572 4.985,0.318 7.498,0.75 2.555,0.438 4.707,1.54 6.75,1.75 3.812,0.391 8.284,0.218 10.498,-1 0.952,-4.077 -0.469,-8.034 -2.75,-9.749 z"
       id="path12"
       inkscape:connector-curvature="0" /><path
       style="clip-rule:evenodd;fill-rule:evenodd;stroke-width:0.90498155"
       d="m 691.181,453.908 c 6.134,-1.381 10.396,2.973 14.248,6.749 3.744,3.67 7.457,7.092 11.998,9.749 3.787,2.214 8.676,3.402 13,5.749 1.885,1.024 3.414,2.897 5.248,4 1.305,0.784 2.869,1.313 4.25,2 3.947,1.964 7.727,4.317 11.498,6.999 3.692,2.624 7.693,4.799 11.498,7.249 0.607,0.391 1.115,0.871 1.75,1.25 2.121,1.266 4.99,3.923 6,6.749 1.906,5.34 -0.012,12.132 -4.25,12.498 -3.102,0.269 -7.686,-2.587 -10.748,-4.499 -5.971,-3.728 -10.66,-6.342 -15.998,-10.249 -0.412,-0.302 -0.885,-0.452 -1.25,-0.75 -0.295,-0.24 -0.435,-0.749 -0.75,-1 -2.766,-2.195 -5.932,-3.644 -9.248,-5.75 -7.297,-4.632 -13.348,-7.304 -19.248,-10.999 -4.506,-2.821 -8.934,-5.933 -13.498,-8.999 -3.051,-2.048 -5.275,-3.378 -7.75,-6.5 -1.018,-1.284 -2.215,-2.913 -2.5,-4 -1.342,-5.131 2.636,-9.545 5.75,-10.246 z m 5.5,17.747 c 9.502,6.801 20.516,12.034 30.246,17.498 10.273,5.769 18.412,13.488 27.996,19.498 3.264,2.045 6.953,5.059 11.498,3.999 1.19,-1.938 1.272,-3.75 0.75,-5.749 -1.343,-5.136 -7.969,-9.189 -11.998,-11.499 -9.793,-5.612 -18.404,-12.674 -29.246,-16.998 -2.955,-1.178 -5.93,-2.562 -8.75,-4.249 -5.891,-3.524 -9.395,-7.608 -14.498,-11.999 -3.229,-2.779 -6.372,-5.191 -10.498,-4.999 -6.137,4.735 0.408,11.571 4.5,14.498 z"
       id="path14"
       inkscape:connector-curvature="0" /><path
       style="clip-rule:evenodd;fill-rule:evenodd;stroke-width:0.90498155"
       d="m 619.94,487.403 c 0.327,-0.066 2.308,-0.533 4,0 3.841,1.211 5.524,6.545 7,10.499 1.507,4.044 4.589,8.896 6.497,10.998 2.57,2.831 6.623,5.052 9.75,8.499 1.741,1.921 3.406,4.117 5.25,6.25 1.736,2.01 3.18,4.305 4.748,6.499 3.191,4.465 8.258,8.393 10.5,12.249 2.863,4.926 3.625,11.747 -2.25,13.498 -5.907,1.761 -10.326,-1.595 -13.498,-4.499 -5.58,-5.108 -8.732,-12.751 -13.25,-19.498 -1.453,-2.172 -3.281,-4.229 -4.748,-6.499 -2.994,-4.629 -5.629,-8.57 -9.749,-12.248 -3.054,-2.726 -7.29,-5.005 -9.249,-8.749 -1.533,-2.929 -2.209,-8.257 -1.75,-10.749 0.679,-3.697 4.685,-5.833 6.749,-6.25 z m 37.995,48.495 c -2.891,-3.464 -5.787,-7.229 -8.498,-10.749 -2.973,-3.857 -5.85,-6.658 -9.5,-9.749 -5.104,-4.324 -7.151,-8.615 -10.747,-15.248 -1.331,-2.452 -3.235,-7.222 -5,-7.999 -3.454,-1.52 -6.6,1.232 -7.25,3.25 -1.944,6.035 3.54,10.268 6.5,12.999 2.517,2.323 5.305,4.415 7.25,6.749 3.122,3.747 6.313,8.848 9.247,13.999 1.338,2.347 3.256,4.53 4.75,6.999 3.299,5.451 5.438,9.965 10.248,13.498 2.625,1.928 5.896,3.459 9.25,2.5 4.122,-6.44 -2.795,-12.11 -6.25,-16.249 z"
       id="path16"
       inkscape:connector-curvature="0" /></g></svg>