<svg xmlns="http://www.w3.org/2000/svg" viewBox="0 0 759.99999 799.99997" width="760" height="800">
  <g stroke-width=".9" clip-rule="evenodd" fill-rule="evenodd">
    <path d="M451.72 10.33c-.1.02 1.3-.5 2.76-.27 4.45.7 8.43 5.8 10.5 9.67 1.8 3.36 3.4 8.07 4.7 12.7 1.35 4.83 2.64 10.3 2.76 14.64.14 4.83.33 9.3 1.93 12.94 1.58 3.6 4.12 5.75 6.36 8.9 2.97 4.2 5.94 10.04 5.8 17.12-.12 5.67-3.02 12.37-8 12.43-7.87.08-7.23-10.44-8.85-17.68-.74-3.28-2.6-7.13-4.15-11.05-1.38-3.53-2.85-7.12-4.7-10.22-4.1-6.88-5.7-14.88-8.56-21.27-1.98-4.43-4.17-8.1-5.52-14.36-.73-3.37-1.54-7.5-.55-10.22.85-2.34 3.38-3.03 5.52-3.32zm1.1 21.55c2.23 4.68 4.65 9.32 6.08 13.53.8 2.38 1.2 4.63 1.94 6.64.78 2.12 1.72 3.8 2.76 5.8 3.14 6.03 5 10.83 7.18 17.13.67 1.94 1.6 3.65 1.93 5.25 1.24 6.06.26 14.46 5.26 14.64 3.82.13 5.77-6.25 4.98-11.88-.26-1.82-1.33-4.16-2.2-6.08-2.02-4.33-3.93-6.8-6.27-10.23-1.07-1.56-2.34-3.38-3.14-5.48-1.78-4.72-2.33-9.52-2.76-14.96-.8-10.2-3.6-17.5-7.46-24.58-1.98-3.67-3.93-8.08-7.72-7.46-6.93 1.13-2.75 13.06-.55 17.68zM334.05 13.37c1.13-.1 2.23-.42 4.42.83 1.7.97 3.14 2.3 2.77 1.93 6.65 6.4 9.97 16.28 15.2 24.6 4.24 6.76 7.54 10.75 13.25 16.84 4 4.27 8.67 9 12.97 13.53 4.87 5.13 11.8 11.82 14.9 18.78 2.7 6.02 2.87 18.04-5.24 18.23-4.42.12-9.28-5.14-11.87-8.27-1.23-1.5-2.7-2.9-3.6-4.42-1.67-2.8-2.74-6.26-4.4-9.38-1.55-2.9-3.38-5.7-4.98-8.57-3.04-5.45-6.6-11.22-11.88-15.46-5.42-4.38-10.37-6.14-15.47-10.8-4.02-3.65-9.22-9.87-11.6-14.9-2.4-5.08-5.25-13.9-1.38-19.34 1.43-2 4.23-3.3 6.9-3.6zM330.2 29.4c2.4 7 5.9 13.1 9.93 17.12 6.16 6.15 13.36 9.26 20.17 16.02 5.52 5.48 10.45 12.88 14.9 21.27 1.9 3.53 3.83 7.6 6.37 11.6 2 3.2 5.2 8.8 9.94 8.3 3.97-.42 5.05-5.28 3.88-9.67-.5-1.88-1.94-4.23-3.32-6.35-6.55-10.12-16.18-17.28-23.2-25.97-4.92-6.08-8.7-8.86-12.7-14.35-3.18-4.36-5.6-8.85-8.02-13.8-1.33-2.75-3.3-6.17-5.25-9.4-.9-1.5-1.47-2.56-3.04-4.15-1.8-1.82-3.6-2.47-5.53-2.2-6.43.87-6.05 6.05-4.14 11.6zM32.15 755c1.93 3.1 2.96 3.6 5.25 5.53 1.5 1.28 4.32 4.15 6.35 4.15 1.46 0 6.67-3.73 8-4.7 2.8-2 5-4.2 6.92-5.8 9.68-8.06 17.4-14.95 25.96-24.3 1.8-1.97 3.73-4.2 6.08-6.64 2-2.06 4.76-5.02 4.98-7.45.45-4.95-3.88-7.16-2.76-13 .66-3.43 4.57-6.52 7.46-9.66 8.02-8.73 16.87-17.7 24.86-25.7 8.6-8.6 15.68-17.72 24.58-25.96 11.53-10.67 21.85-22.95 33.15-34.25l16.84-16.84c5.6-5.6 10.7-11.67 16.3-17.42 2.8-2.85 5.85-5.43 8.57-8.28 11.08-11.6 21.72-23.37 32.87-34.53 5.6-5.6 11.33-11.13 16.58-17.12 2.6-2.98 5.1-6.08 8-8.84 2.85-2.7 5.55-5.72 8.3-8.56 7.9-8.16 16.47-17.18 24.58-25.96 2.56-2.78 5.82-5.83 9.66-7.18 4.63-1.63 10.2-.72 14.37.83 4.05 1.5 8 3.35 12.15 4.7 8.56 2.74 19.63 5.68 27.62 1.1 7.5-4.3 12.32-13.93 15.2-23.76 2.96-10.16 3.47-22.1 6.35-32.6 2.86-10.43 6.12-19.22 11.32-27.6 4.96-8 11.52-14.4 18.5-20.45 7.23-6.25 14.93-10.97 23.2-15.75 4.1-2.36 8.1-5 12.44-7.18 12.68-6.38 25.8-12.88 37.3-21 15.7-11.1 29.86-20.92 44.47-33.42 3.43-2.94 6.8-6.2 10.22-9.4 6.7-6.25 13.13-12.56 19.05-19.88 2.84-3.5 6.15-6.73 9.1-10.22 2.98-3.5 5.56-7.5 8.3-11.33 10.36-14.46 21.3-31.13 24.3-53.58 1.64-12.24-2.38-23.06-7.18-31.2-7.12-12.1-16.23-22.87-29.55-28.74-9.37-4.13-20.1-5.85-32.6-3.04-10 2.24-19.23 7.28-26.8 12.15-8.14 5.25-15.4 10.5-22.36 16.57-8.76 7.66-16.57 15.85-24.3 24.58-.4.45-.6.92-1.1 1.38-1.22 1.1-1.84 2.57-3.05 4.15-5.54 7.2-11.66 14.2-17.4 21.54-8.46 10.85-15.66 23-23.2 35.08-2.5 4.04-5.22 8-7.45 12.15-2.3 4.26-4.2 8.7-6.36 13-2.1 4.14-4.54 8.44-6.36 13.24-5.25 13.9-11.8 27.48-19.33 38.95-12.82 19.55-30.6 33.96-51.64 45.84-4.16 2.35-8.68 4.14-13.26 6.08-9.3 3.92-17.86 8.1-24.6 14.36-6.9 6.43-12.84 13.3-14.07 24.86-1.08 10.12.66 17.3 3.86 24.58.74 1.7 3.1 4.92 3.03 6.63-.06 1.4-2.07 3.6-3.3 4.97-1.46 1.6-2.87 2.9-4.16 4.15-2.15 2.1-6.5 7.12-9.66 6.9-1.56-.1-2.05-.75-3.03-2.2-4.74-7.03-8-17.57-9.4-27.08-2.08-14.2.57-28.34 4.43-36.2 4.47-9.1 10.1-17.8 17.4-24.3 3.65-3.25 8-6 12.15-8.84 4.18-2.87 8.5-5.63 12.98-7.73 10.1-4.7 20.28-7.4 29.56-12.15 2.1-1.1 4.2-2.8 6.34-4.15 14.77-9.18 25.66-22.57 32.87-40.05 2.08-5 3.2-10.6 4.7-16.02 1.47-5.27 3.12-10.3 5.26-15.47 2.1-5.1 4.16-9.95 6.35-14.65 2.18-4.66 5.02-8.52 7.74-12.98 5.27-8.6 10.32-17.17 16.02-25.7 2.76-4.1 5.87-8.18 8.84-12.14 17.73-23.64 37.82-45.36 60.5-64.63 5.6-4.77 11.05-9.72 17.4-13.82 10.15-6.56 22.15-12.88 35.07-16.84 2.92-.9 5.5-1.5 8.57-1.94 3.12-.44 6.86-.94 10.22-1.1 15.55-.74 28.65 4.6 38.67 11.6 10.5 7.32 18.28 15.14 25.68 24.58 3.84 4.88 7.22 9.35 9.96 15.2 2.64 5.62 5.1 11.63 6.07 19.05 1.87 14.44-.2 29.9-4.7 43.1-10.6 31.02-26.4 57.1-46.67 78.7-4.06 4.34-8 8.85-12.15 13-8.37 8.37-17.12 16.25-26.24 23.75-4.47 3.68-9.38 7.08-14.36 10.77-13.93 10.34-30.17 21.45-46.95 28.45-5.52 2.3-10.78 5.7-16.3 8.84-10.4 5.92-20.85 12.88-29.56 20.72-4.5 4.04-8.8 8.24-12.16 12.7-7.23 9.57-11.75 22.27-14.92 35.36-3.43 14.2-6.05 26.03-13.8 36.18-3.7 4.84-7.72 8.57-13 12.16-5 3.4-10.56 6.7-17.4 7.73-12.72 1.9-22.4-1.03-32.03-4.43-3.5-1.23-7.6-2.8-11.34-1.93-5.26 1.23-10.28 8.38-14.36 12.7-13.24 14.05-26.28 28.22-39.5 41.43-9.04 9.04-17.67 18.5-26.5 27.35-26.78 26.77-53.32 54.96-80.12 81.76-8.43 8.44-17.08 17.9-26.5 27.35-4.12 4.1-8.68 9.1-13.55 13.53-2.1 1.9-4.24 4.2-6.9 6.63-2.47 2.22-5.8 4.84-6.08 7.17-.35 3 1.63 4.96 2.5 7.18.88 2.32 2.17 4.83 1.92 7.74-.33 3.75-5.23 7.7-8 10.76-1.53 1.66-3.38 2.97-4.98 4.42-8.15 7.35-15.86 14.87-24.6 22.1-3.18 2.63-6.73 5.76-10.22 8.56-5.2 4.17-10.52 8.22-16.02 11.87-3.5 2.35-6.67 5.1-11.04 7.75-4.35 2.63-6.68 4.04-11.6 1.93-5.4-2.3-8.83-6.85-13.54-11.87-2.15-2.3-3.8-4.07-6.08-6.62-1.67-1.9-4.92-5.2-5.25-7.46-.54-3.76 3.08-10.27 5.25-13.54 2.53-3.8 5.68-7.7 7.74-10.77 9.8-14.7 19.63-29 30.1-44.18 2.3-3.33 4.64-7.26 7.46-11.05 2.3-3.08 6.44-9.45 9.4-9.67 1.64-.12 3.57.9 5.24 1.93 3.18 1.97 10.1 7.1 10.22 10.78.1 3.1-3.77 7.07-5.8 9.67-11.36 14.6-22.56 27.74-34.25 41.7-4.78 5.75-9.72 11.74-13.25 17.14zm30.66-67.4c-2.16 3.13-4.66 6.22-6.9 9.4-4.4 6.28-8.7 12.78-13.53 19.06-6.87 8.95-13.17 19.7-19.6 29-2.34 3.38-5.13 6.45-6.64 9.67-.84 1.8-1.86 4.7-1.65 6.63.36 3.42 2.47 5.24 4.7 7.46 4.05 4.06 7.05 7.73 11.32 11.6 2.96 2.7 5.43 4.8 9.66 4.14 3.98-.62 7.62-3.42 11.33-6.07 7.38-5.3 13.55-9.8 19.88-14.93 3.18-2.58 6.36-4.7 9.94-7.73 10.44-8.82 21.6-19.6 32.04-29.28 2-1.86 3.4-3.3 3.6-5.25.25-2.75-1.3-5.52-2.22-7.72-1.03-2.52-2.6-4.37-2.2-7.46.4-3.04 3.1-5.83 5.52-8.3 15.96-16.13 31.12-31.94 46.68-47.5 26.76-26.76 53.4-54.5 80.1-81.2 24.62-24.62 48.5-50.2 72.1-75.96 2.26-2.48 4.57-5.02 6.9-6.63 5.38-3.72 12.35-2.1 17.95 0 9.06 3.4 19.2 6.6 31.2 4.14 16.2-3.32 27.04-14.4 33.7-27.9 4.24-8.6 5.82-18 8.3-28.72 2.92-12.74 8.18-24.83 15.45-33.98 10.67-13.4 25.9-23.7 40.88-32.87 5.25-3.2 10.7-5.75 16.3-8.56 2.7-1.36 5.7-2.38 8.3-3.87 17.95-10.32 36.44-22.37 51.9-34.52 22.7-17.8 42.87-40.06 59.95-63.26 3.54-4.8 6.32-10 9.4-15.2 6.2-10.46 11.34-21.77 15.46-33.97 4.36-12.88 7.37-27.72 5.25-42.8-1-7.1-3.3-13.18-5.8-18.8-2.56-5.7-6.17-10.37-9.95-14.9-7.62-9.17-15.17-16.96-25.4-23.77-10.4-6.9-22.96-11.34-39.24-10.22-11.6.8-22.02 5.42-31.48 9.95-9 4.3-17.1 10.1-24.58 15.73-15.96 12.03-29.65 24.9-41.98 38.95-15.8 18-30.7 37.06-43.65 57.45-2.58 4.08-5.58 7.97-8 12.15-6.13 10.63-11.78 22.26-16.02 34.53-2.66 7.72-4.18 15.97-6.9 23.5-6.85 18.88-21.4 34.33-37 43.63-4.23 2.5-8.54 4.94-13.27 6.9-4.58 1.9-9.64 3.4-14.9 5.53-9.24 3.72-18 8.84-25.42 14.92-3.82 3.12-7.57 6.13-10.5 9.66-3.14 3.8-5.47 7.8-8 12.43-5.1 9.28-7.4 18.6-7.2 33.15.1 6.6 1.2 11.75 3.05 17.12 1.62 4.67 3.3 9.5 6.63 13.8 3.55-2.15 4.1-3.2 6.63-5.5 1.67-1.55 5.5-4.33 5.5-6.92 0-.64-.85-2.22-1.37-3.3-3.9-8.16-5.44-18.2-3.87-29.3 3.13-22.03 20.74-33 39.23-40.04 19.13-7.3 34.7-18.43 47.77-31.5 6.85-6.84 12.84-13.7 17.68-22.1 2.38-4.1 5.03-8.08 7.18-12.42 4.4-8.86 8.45-18.46 12.16-27.62 1.9-4.72 4-9.13 6.34-13.53 4.2-7.9 9.2-16.57 14.36-25.13 4.95-8.2 10.24-16.48 15.75-24.03 1.36-1.86 2.5-3.94 3.86-5.8 4.24-5.83 8.8-11.14 13.27-16.57 6.12-7.44 11.8-15.1 18.23-21.55 12.04-12.04 27.47-26.68 43.64-35.63 7.72-4.28 17.94-9.5 28.73-11.06 25.3-3.68 43.9 9.8 54.7 23.48 5.95 7.56 10.95 15.96 13.52 26.24 4.54 18.12-1.98 36.43-8.3 48.34-7.02 13.28-14.64 24.86-23.47 35.9-17.8 22.26-37.97 41.7-60.77 58.56-14.97 11.08-30.16 22.9-47.78 31.5-17.5 8.52-35.93 18.18-49.45 29.82-3.72 3.22-6.84 6.27-9.94 9.67-9.62 10.57-14.84 24.54-19.34 40.33-1.57 5.5-2.17 11.32-3.04 16.85-1.78 11.28-4.77 21.73-10.5 29.28-2.8 3.7-6.93 7.4-10.77 9.12-3.8 1.7-9.42 1.73-13.8 1.38-9.45-.74-16.64-4.04-24.04-6.9-3.78-1.47-7.94-3.14-12.97-2.5-3.45.45-6.28 3.8-9.12 6.64-7.44 7.45-14.6 15.45-21.53 22.37-10.03 10.04-19.67 20.8-28.73 29.85-7.33 7.32-14.25 15.14-21.27 22.37-1.16 1.2-2.74 2.1-3.87 3.3-.58.65-.82 1.6-1.38 2.22-.62.7-1.32 1.3-1.93 1.94-14.53 14.8-29.02 29.6-42.82 44.74-4.6 5.05-10 9.53-14.64 14.64-9.3 10.2-19.16 20-28.73 29.83-9.26 9.5-19.14 19.5-28.72 29.83-6.68 7.2-14.6 14.5-21.54 22.37-2.35 2.65-6.17 6.27-6.35 8.28-.37 4 3.93 6.64 3.85 11.33 0 .9-.67 2.9-1.1 3.88-2.18 5-8.22 9.43-12.43 13.8-11.02 11.45-21.8 21.2-35.08 30.4-2.86 1.96-6.13 4.7-8.56 4.7-3.55-.05-6.35-2.98-8.84-5.26-2.34-2.15-5.86-4.26-5.8-8.3.05-3.1 3.73-6.52 5.8-9.1 13.67-17.1 26.08-32.96 39.77-49.72 1.82-2.2 6.3-6.9 6.1-9.12-.17-1.8-3.3-3.52-4.7-4.7-2.1-1.74-3.94-3.56-6.08-3.58-3.13 2.3-4.68 5.92-6.9 9.1zM293.73 136.3c6.32-1.1 12.15 4.46 17.4 7.17 8.55 4.42 18.04 8.7 26.52 14.36 4.33 2.9 9.4 6.1 10.5 9.95.85 3-.3 6.73-1.4 7.73-4.73 4.33-14.46-1.76-18.77-4.4-2.35-1.45-5.2-3.13-8.3-4.7-3.15-1.6-6.36-3.56-8.83-4.15-3.9-.92-7.44-.15-10.5-.82-1.56-.35-4.84-1.65-6.35-2.5-2.82-1.57-5.7-4.07-6.9-6.9-1-2.32-1.57-7.13-.83-9.66.92-3.18 4.72-5.6 7.46-6.08zm41.98 24.02c-7.77-5.48-17.3-9.85-25.95-14.36-4.2-2.2-9.12-6.58-14.37-6.08-5.66.54-7.64 6-5.24 11.05 2.34 4.94 8.6 7.2 14.9 7.73 1.28.1 2.7-.2 4.15 0 4.47.6 7.57 2.8 11.04 4.42 2.08.97 4.3 1.7 6.08 2.76 2.7 1.6 5.33 3.82 8.3 5.25 3.02 1.46 6.72 3.6 9.93.27.36-5.78-5.05-8.38-8.84-11.05z"/>
    <path d="M553.37 220.26c-2.7-5.87-5.83-11.13-10.77-15.75-1.35-1.24-3.58-3.5-4.98-3.58-2.8-.13-7.4 5.73-9.94 9.4-2.75 3.98-5.44 8.1-7.73 11.32-5.66 7.95-10.87 14.7-16.58 21.54-5.73 6.9-11.67 13.3-17.67 20.72-1.36 1.68-2.52 3.74-4.15 5.52-1.52 1.68-3.28 3.04-4.42 4.98-2.38 4.04-4.56 8.87-4.7 14.36-.14 6.05 1.9 10.28 1.67 16.3-.24 5.88-3.14 11.9-7.74 13.25-4.08 1.2-9.97-.75-13.53.3-1.76.5-4.6 2.92-5.25 4.96-.82 2.55.12 6.52-.28 9.4-.2 1.46-1.2 3.43-1.93 5.24-1.45 3.62-3.33 6.97-6.08 9.12-5.3 4.14-12.26 5.67-20.72 5.52-.17 0-.4-.03-.56 0-3.96.8-9.34 4.3-12.98 7.46-10.72 9.3-19.78 21.32-29.28 31.2-6.57 6.85-12.87 14-19.6 20.73-6.84 6.83-12.83 14.47-19.34 21-3.37 3.36-7.07 6.55-10.22 10.2-1.58 1.84-3.07 3.78-4.7 5.53-4.74 5.1-10.02 9.85-14.9 15.2-4.88 5.32-9.3 10.72-14.38 16.02-1.6 1.68-3.67 2.97-5.25 4.7-3.18 3.5-6.15 7.2-9.4 10.76-3.12 3.46-6.94 6.5-10.2 9.95-3.33 3.5-6.06 7.6-9.4 10.76-6.8 6.44-13.46 13.43-19.9 20.72-3.07 3.5-6.66 6.73-9.93 10.22-1.66 1.77-3.1 3.77-4.7 5.52-4.65 5.12-9.8 10.06-14.9 15.2-3.42 3.4-6.15 7.24-9.4 10.76-6.5 7.06-13.9 13.3-19.9 20.44-4.65 5.55-10.15 10.1-15.18 15.47-7.9 8.4-16.44 16.7-24.6 25.68-9.16 10.1-18.85 20.97-29 31.5-2.78 2.9-8.3 9.57-10.48 9.66-1.98.07-5.97-3.6-7.46-4.98-2.4-2.17-5.06-4.1-5.25-6.9-.2-2.96 2.3-5.6 4.42-8 9.96-11.26 19.95-21.23 30.1-32.05 11.88-12.66 24.12-26.38 35.9-38.66 6.1-6.35 11.95-12.72 17.96-19.34 1.9-2.08 4.42-3.7 6.08-6.07 18.63-19.95 37.14-39.94 56.62-60.4 16.1-16.93 33.1-34.23 49.47-51.7 8.86-9.44 17.58-19.16 26.5-28.5 8.7-9.13 17.24-18.62 26.5-27.9 8.76-8.75 17.12-18.55 26.25-28.44 4.17-4.53 8.73-9.18 13.26-14.1 4.28-4.67 9.4-10.46 14.36-12.7 5.7-2.6 15.37-.22 20.44-3.05 1.8-1 4.06-3.8 4.42-5.8.9-5.04-2.75-7.66-3.04-12.15-.24-3.57 1.07-7.7 3.04-9.4 3.06-2.65 8.63-2.48 14.36-2.48 8.38 0 17.32-.34 19.6-6.9 1.03-2.93.63-7.94 0-11.6-.45-2.74-1.73-5.15-1.92-7.74-.63-8.37 4.43-12.76 9.94-17.68 3.3-2.94 6.96-5.95 9.67-8.56 13.2-12.7 22.52-25.8 32.32-41.16 3.63-5.68 6.86-11.28 9.95-17.67 1-2.1 1.56-4.4 2.76-6.35 2.97-4.83 8.4-10.23 13.8-11.6 3.9-.98 8.97 2.6 12.44 4.7 5.98 3.63 11.23 7.54 16.3 12.43 2.52 2.43 5.35 4.63 7.46 6.9 2.26 2.45 4.83 6.4 6.35 9.67 3.63 7.82 1.3 18-2.5 24.86-1.8 3.3-4.8 6.47-7.72 9.68-2.7 2.96-5.4 5.94-8.56 8.56-6.74 5.58-12.24 9.7-20.44 13.8-7.13 3.6-15.08 7.46-22.93 11.6-3.33 1.77-7.58 4.16-10.77 6.36-2.97 2.06-7.28 6.5-10.77 6.36-1.1-.05-4.1-1.36-5-2.77-1.04-1.7-.93-5.47-1.1-8.3-.18-3.3-.4-6.23.56-7.45 1.07-1.33 7.47-2.37 9.4-3.04 3.37-1.17 6.7-2.2 9.1-3.3 2.66-1.23 5.13-3.34 7.74-4.98 7.67-4.8 14.35-10.76 21-16.57 4.65-4.07 8.74-8.16 12.42-12.7 3.67-4.52 7.8-8.84 9.95-15.2zM172.05 601.3c17.68-17.65 46.62-48.5 68.64-72.5 1.58-1.74 3.04-3.6 4.7-5.26 13.1-13.26 26.75-26.88 39.2-40.6 4.84-5.32 9.84-10.57 14.38-15.75 4.73-5.4 9.84-10.3 14.64-15.48 1.6-1.72 3.43-3.2 4.97-4.97 4.74-5.46 9.8-10.3 14.63-15.46 1.6-1.72 2.94-3.62 4.7-5.26 1.67-1.58 3.43-3.3 4.96-4.97 3.14-3.45 6.6-6.7 9.66-10.22 3.8-4.37 8.13-8.9 11.88-13 2.47-2.68 4.68-5.5 7.18-8 6.23-6.22 12.72-13.68 19.06-21 6.1-7.04 13.5-15.07 21.82-18.22 2.1-.8 5.5-1.5 7.46-1.66 4.32-.36 7.75.1 10.5-.83 5.44-1.86 8.34-5.22 10.77-9.66 1-1.86 1.67-3.16 1.93-4.7.67-4-.4-7.9.55-11.05 1.14-3.78 4.07-6.27 7.47-7.18 1-.26 2.15-.7 3.04-.83 2.42-.36 5.23.34 8.02-.27.48-.1 1.26-.83 1.93-1.1.85-.35 1.57-.46 2.2-.84 3.65-2.14 4.44-6.8 4.16-12.7-.2-4.13-1.88-9.13-1.38-14.9.44-4.9 3.06-9.57 5.8-13.54 1.28-1.86 3.2-3.25 4.7-4.97 1.64-1.9 2.95-3.8 4.42-5.26 6.52-6.5 12.3-14 17.95-21 5.43-6.7 11-14.15 16.3-22.37 2.28-3.57 4.67-7.6 7.72-11.6 2.83-3.7 6.73-8.93 10.22-9.4 3.42-.44 5.24 1.08 7.46 3.05 3.94 3.47 6.72 7.08 9.67 11.32 1.57 2.26 3.56 4 3.87 6.63.52 4.53-2.1 8.75-4.42 11.88-9.63 12.95-21.08 22.68-33.15 32.6-3.1 2.53-6.23 4.9-9.67 6.9-5.48 3.17-11.36 5.33-17.4 7.46-1.9.68-4.12 1.25-5.52 2.77.14 2.08-.8 9.18 1.93 11.05 4.7-.5 8.02-4.1 11.9-6.63 3.78-2.5 8.12-4.5 12.42-6.64 8.3-4.1 16.95-8.27 24.86-13.54 7.88-5.25 15.25-10.3 21.27-17.12 5.2-5.9 12.4-15.44 11.87-26.52-.34-7.36-5.12-11.14-9.1-15.47-5.47-5.9-11.7-10.93-18.52-15.18-1.46-.9-3.13-2.22-4.97-3.3-2.52-1.5-5.9-3.76-9.4-2.5-8.8 3.2-12.03 16-17.12 24.3-2.57 4.22-5.32 8.5-8 12.7-2.73 4.3-5.45 8.67-8.28 12.44-3.25 4.32-6.27 7.87-9.12 11.6-4.16 5.47-9.27 11.54-14.64 16.3-1.85 1.64-3.62 3.46-5.52 4.97-4.6 3.64-9.02 6.82-10.22 10.5-2.1 6.48 1.93 15.63 1.93 22.1 0 3.92-.88 7.72-3.87 10.22-3.64 3.05-10.35 3.57-15.2 4.14-2.56.3-5.8.82-8.83.82-3.5 0-5.6-.4-7.45 1.1-.56.46-1.68 1.56-1.94 2.77-.6 2.84 1.6 5.93 2.2 9.38.92 5 .24 9-1.37 11.88-2.7 2.53-6 4.77-11.33 5.52-4.23.6-8.8-.14-12.7.83-3.73.94-7.67 6-11.06 9.4-3.5 3.53-6.78 6.85-9.65 9.94-6.53 7.03-13.37 13.56-19.06 20.17-3.06 3.55-6.63 6.5-9.68 9.95-9.3 10.53-19.22 20.5-28.45 30.66-6.17 6.8-12.9 13.2-19.34 19.9-3.2 3.33-6.07 6.9-9.4 10.22-3.24 3.25-6.52 6.55-9.65 9.94-6.3 6.8-12.72 13.6-18.98 20.33-14.24 15.32-29.1 30.15-42.9 45.4-4.74 5.24-9.7 10.07-14.36 15.2-3.12 3.42-6.03 7.1-9.1 10.5-3.13 3.42-6.55 6.56-9.68 9.93-4.8 5.18-9.68 10.33-14.37 15.2-4.9 5.1-9.58 10.16-14.37 15.2-3.2 3.36-6.2 6.9-9.4 10.2-9.38 9.76-19.1 20.46-28.44 30.4-3.1 3.26-6.38 6.5-9.68 9.93-3.05 3.18-6.8 6.58-9.67 9.95-2.55 3-9.12 8.4-9.1 10.78 0 1.95 2.55 3.4 3.86 4.7 1.73 1.72 3.1 2.93 4.43 4.42 25.8-25.5 45.57-49.5 72.22-76.1zM685.4 254.8c6.65-.6 14.5.7 21.55 1.37 2.3.2 4.7.1 7.45.27 5.02.33 10.85 1.16 16.3 1.66 4.96.45 12.5.15 15.2 2.5 2.04 1.77 6.16 11.2 3.86 15.45-1.7 3.15-10.64 3.97-16.85 3.32-4.04-.42-7.83-2.03-12.42-2.5-1.33-.12-2.75.04-4.14-.26-2.43-.52-4.1-2.85-6.9-3.3-4.02-.65-7.54.9-10.78.82-6.82-.15-9.9-2.4-13.26-6.9-1.65-2.2-3.88-4.3-3.87-6.9 0-2.63 1.64-4.53 3.87-5.53zm57.45 8.82c-3.64-2.74-9-2.38-14.9-2.48-5.95-.1-12.45-.63-17.97-1.1-5.35-.47-9.5.22-14.9-.56-2.47-.36-4.82-1.42-6.1-1.1-5.8 1.44 1.12 9.66 3.32 10.77 5.14 2.57 12.65-.42 19.34 1.1 2.3.53 4.5 1.94 6.9 2.5 2.76.62 5.5.34 8.3.82 2.8.48 5.2 1.7 7.45 1.93 4.2.43 9.14.24 11.6-1.1 1.04-4.5-.53-8.88-3.05-10.78zM663.3 337.93c6.78-1.53 11.5 3.28 15.75 7.45 4.13 4.06 8.24 7.84 13.25 10.78 4.2 2.44 9.6 3.76 14.37 6.35 2.08 1.14 3.77 3.2 5.8 4.43 1.44.87 3.17 1.45 4.7 2.2 4.36 2.18 8.53 4.78 12.7 7.74 4.08 2.9 8.5 5.3 12.7 8 .68.44 1.24.98 1.94 1.4 2.35 1.4 5.52 4.33 6.64 7.45 2.1 5.9 0 13.4-4.7 13.8-3.43.3-8.5-2.85-11.87-4.96-6.6-4.12-11.78-7-17.68-11.32-.47-.34-1-.5-1.4-.83-.32-.26-.47-.82-.82-1.1-3.06-2.42-6.56-4.03-10.22-6.35-8.06-5.12-14.75-8.07-21.27-12.16-5-3.12-9.88-6.56-14.93-9.95-3.37-2.26-5.82-3.73-8.56-7.18-1.1-1.42-2.44-3.22-2.75-4.42-1.48-5.67 2.9-10.55 6.35-11.32zm6.08 19.6c10.5 7.52 22.67 13.3 33.42 19.34 11.35 6.38 20.35 14.9 30.94 21.55 3.6 2.26 7.68 5.6 12.7 4.42 1.32-2.15 1.4-4.15.83-6.36-1.48-5.67-8.8-10.15-13.26-12.7-10.8-6.2-20.32-14-32.3-18.8-3.27-1.3-6.56-2.82-9.67-4.68-6.5-3.9-10.38-8.4-16.02-13.26-3.56-3.07-7.03-5.74-11.6-5.52-6.77 5.23.46 12.78 4.98 16.02zM584.58 374.94c.36-.08 2.55-.6 4.42 0 4.25 1.34 6.1 7.23 7.74 11.6 1.66 4.47 5.07 9.83 7.18 12.15 2.84 3.12 7.3 5.57 10.77 9.38 1.9 2.13 3.75 4.55 5.8 6.9 1.9 2.23 3.5 4.77 5.24 7.2 3.52 4.92 9.12 9.26 11.6 13.53 3.16 5.45 4 13-2.5 14.92-6.5 1.95-11.4-1.76-14.9-4.97-6.17-5.64-9.65-14.1-14.64-21.55-1.6-2.4-3.63-4.67-5.25-7.18-3.3-5.1-6.22-9.47-10.77-13.53-3.38-3.02-8.06-5.54-10.22-9.68-1.7-3.23-2.44-9.12-1.94-11.88.75-4.08 5.18-6.44 7.46-6.9zm42 53.58c-3.2-3.82-6.4-7.98-9.4-11.87-3.3-4.27-6.47-7.36-10.5-10.78-5.64-4.77-7.9-9.52-11.88-16.84-1.47-2.7-3.57-7.98-5.52-8.84-3.82-1.7-7.3 1.35-8 3.58-2.16 6.67 3.9 11.34 7.17 14.36 2.78 2.57 5.86 4.88 8 7.46 3.46 4.14 7 9.78 10.23 15.47 1.48 2.6 3.6 5 5.25 7.73 3.64 6.03 6 11 11.32 14.92 2.9 2.13 6.52 3.82 10.22 2.76 4.56-7.12-3.1-13.38-6.9-17.96z"/>
  </g>
</svg>
