<?xml version="1.0" encoding="utf-8"?>
<!-- Generator: Adobe Illustrator 16.0.0, SVG Export Plug-In . SVG Version: 6.00 Build 0)  -->
<!DOCTYPE svg PUBLIC "-//W3C//DTD SVG 1.1//EN" "http://www.w3.org/Graphics/SVG/1.1/DTD/svg11.dtd">
<svg version="1.1" xmlns="http://www.w3.org/2000/svg" xmlns:xlink="http://www.w3.org/1999/xlink" x="0px" y="0px"
	 width="841.89px" height="595.28px" viewBox="0 0 841.89 595.28" enable-background="new 0 0 841.89 595.28" xml:space="preserve">
<g id="Ebene_1">
	<rect stroke="#000000" stroke-miterlimit="10" width="846" height="595.28"/>
</g>
<g id="Ebene_2">
	<g>
		<defs>
			<rect id="SVGID_1_" x="112.81" y="43.416" width="621.389" height="526.039"/>
		</defs>
		<clipPath id="SVGID_2_">
			<use xlink:href="#SVGID_1_"  overflow="visible"/>
		</clipPath>
		<path clip-path="url(#SVGID_2_)" fill="#a41c31" d="M396.048,183.523c0.143,0.03,0.288,0.065,0.436,0.101
			c0.082-0.396,0.163-0.796,0.244-1.197c-0.111-0.025-0.224-0.051-0.329-0.081C396.281,182.736,396.164,183.127,396.048,183.523
			 M729.171,87.823c0.118-0.248,0.26-0.467,0.314-0.705c0.015-0.065-0.208-0.188-0.323-0.289c-0.133,0.213-0.286,0.42-0.387,0.649
			C728.761,87.52,728.989,87.666,729.171,87.823 M267.816,198.599c-0.163-0.146-0.279-0.243-0.386-0.335
			c-0.127,0.208-0.274,0.406-0.355,0.629c-0.02,0.045,0.192,0.183,0.305,0.273C267.532,198.975,267.675,198.782,267.816,198.599
			 M244.886,227.711c-0.097,0.544-0.192,0.788-0.142,0.823c0.224,0.157,0.482,0.244,0.73,0.361
			C245.324,228.589,245.17,228.296,244.886,227.711 M521.114,198.808c0.121-0.254,0.234-0.472,0.335-0.69
			c-0.153-0.041-0.347-0.157-0.456-0.107c-0.133,0.061-0.254,0.269-0.254,0.421C520.739,198.528,520.93,198.64,521.114,198.808
			 M521.793,117.763c-0.15,0.045-0.315,0.092-0.465,0.132c0.109,0.39,0.222,0.771,0.338,1.162c0.138-0.041,0.288-0.076,0.433-0.117
			C521.997,118.549,521.894,118.159,521.793,117.763 M425.395,391.292c0.075,0.136,0.161,0.279,0.238,0.416
			c0.385-0.224,0.771-0.447,1.156-0.67c-0.081-0.137-0.162-0.274-0.232-0.407C426.165,390.855,425.779,391.073,425.395,391.292
			 M413.975,227.083c-0.193,0.085-0.385,0.167-0.572,0.249c0.146,0.351,0.288,0.7,0.456,1.029c0.006,0.012,0.421-0.141,0.411-0.172
			C414.198,227.818,414.082,227.455,413.975,227.083 M518.592,201.369c-0.202,0.057-0.398,0.107-0.604,0.163
			c0.142,0.478,0.294,0.96,0.433,1.436c0.168-0.041,0.329-0.086,0.502-0.127C518.811,202.348,518.698,201.862,518.592,201.369
			 M517.451,122.913c0.375-0.477,0.725-0.726,0.71-0.959c-0.02-0.213-0.387-0.471-0.649-0.568c-0.101-0.041-0.496,0.294-0.496,0.467
			C517.004,122.116,517.218,122.385,517.451,122.913 M507.731,213.772c0.066,0.092,0.133,0.183,0.202,0.274
			c0.255-0.334,0.509-0.659,0.757-0.994C508.37,213.29,508.052,213.534,507.731,213.772 M363.211,191.918
			c0.106,0.096,0.224,0.198,0.33,0.299c0.151-0.071,0.396-0.117,0.426-0.228c0.087-0.279,0.071-0.589,0.097-0.882
			C363.783,191.375,363.495,191.645,363.211,191.918 M222.973,348.715c-0.72-0.41-0.964-0.634-1.239-0.685
			c-0.228-0.046-0.492,0.107-0.736,0.178c0.179,0.258,0.31,0.634,0.564,0.746C221.785,349.056,222.14,348.878,222.973,348.715
			 M683.095,239.518c0,0.116,0,0.237,0,0.355h1.345c0-0.119-0.006-0.24-0.006-0.355H683.095z M432.288,389.207
			c-0.162-0.117-0.325-0.234-0.482-0.351c-0.339,0.456-0.674,0.913-1.015,1.369c0.167,0.117,0.33,0.234,0.492,0.356
			C431.618,390.12,431.953,389.663,432.288,389.207 M522.522,196.697c0.226-0.391,0.457-0.66,0.521-0.969
			c0.02-0.111-0.474-0.476-0.543-0.431c-0.26,0.157-0.503,0.42-0.595,0.695C521.87,196.114,522.22,196.357,522.522,196.697
			 M245.901,227.352c0.385,0.314,0.64,0.645,0.771,0.599c0.28-0.093,0.502-0.375,0.752-0.575c-0.178-0.171-0.365-0.491-0.528-0.48
			C246.607,226.92,246.333,227.14,245.901,227.352 M440.734,241.384c-0.138-0.042-0.279-0.086-0.422-0.127
			c-0.212,0.706-0.42,1.416-0.634,2.12c0.127,0.041,0.248,0.081,0.371,0.117C440.278,242.794,440.506,242.094,440.734,241.384
			 M127.409,103.828c-1.598-0.233-1.886,0.264-1.896,1.567C126.192,104.838,126.614,104.493,127.409,103.828 M474.904,332.699
			c-0.48-0.365-0.812-0.805-1.096-0.771c-0.278,0.026-0.725,0.559-0.694,0.827c0.035,0.319,0.477,0.786,0.781,0.821
			C474.149,333.608,474.469,333.106,474.904,332.699 M309.261,71.275c-0.131-0.243-0.274-0.487-0.406-0.73
			c-0.66,0.396-1.329,0.792-1.989,1.182c0.097,0.177,0.193,0.36,0.289,0.538C307.861,71.935,308.561,71.605,309.261,71.275
			 M178.199,316.386c-0.208,0.212-0.411,0.426-0.619,0.64c0.569,0.553,1.136,1.111,1.705,1.662c0.152-0.146,0.305-0.293,0.456-0.444
			C179.229,317.629,178.716,317.01,178.199,316.386 M337.355,368.728c-0.873,0.924-1,1.628,0.477,2.165
			C337.629,369.945,337.486,369.337,337.355,368.728 M441.297,239.163c0.097,0.188,0.193,0.37,0.284,0.551
			c0.837-0.188,1.675-0.369,2.039-1.501C442.85,238.528,442.079,238.848,441.297,239.163 M227.36,350.892
			c0.066-0.243,0.137-0.482,0.202-0.721c-0.852-0.284-1.708-0.579-2.56-0.861c-0.077,0.202-0.153,0.409-0.224,0.613
			C225.64,350.241,226.503,350.566,227.36,350.892 M466.667,339.103c-0.716,1.638,0.273,1.562,0.857,1.916
			c0.142-0.136,0.283-0.274,0.431-0.405C467.524,340.106,467.098,339.604,466.667,339.103 M536.587,215.948
			c0.471,0.964,0.759,1.553,1.111,2.278C538.723,216.739,538.723,216.739,536.587,215.948 M275.147,244.646
			c-0.147-0.152-0.29-0.311-0.432-0.466c-0.857,0.592-1.709,1.187-2.566,1.775c0.091,0.136,0.172,0.269,0.263,0.399
			C273.315,245.788,274.233,245.213,275.147,244.646 M715.078,148.819c-0.142-0.036-0.282-0.071-0.424-0.101
			c-0.335,1.354-0.67,2.708-1.002,4.063c0.165,0.035,0.332,0.076,0.493,0.112C714.461,151.539,714.77,150.179,715.078,148.819
			 M252.689,127.959c-0.66,0.964-1.142,1.665-1.826,2.664C253.308,130.309,253.308,130.309,252.689,127.959 M522.22,121.101
			c0.416,1.299,0.725,2.273,1.033,3.252C523.772,123.095,524.091,121.903,522.22,121.101 M266.852,253.183
			c2.203-1.146,2.334-1.521,1.694-3.603C267.974,250.799,267.411,251.991,266.852,253.183 M337.902,377.696
			c0.02,0.137,0.046,0.274,0.07,0.41c1.107,0.184,2.213,0.366,3.649,0.604c-0.294-0.827-0.534-1.497-0.817-2.298
			C339.637,376.926,338.77,377.311,337.902,377.696 M618.137,111.204c0.214,0.051,0.436,0.101,0.649,0.157
			c1.138-2.912,1.359-4.195,0.722-6.113C619.049,107.232,618.599,109.221,618.137,111.204 M723.328,109.125
			c-0.396,2.46-1.755,4.824-0.935,7.411C723.978,114.222,723.415,111.646,723.328,109.125 M376.761,293.05
			c0.137-0.02,0.264-0.036,0.396-0.056c0.08-0.237,0.264-0.502,0.224-0.719c-0.513-2.856-1.035-5.713-1.618-8.559
			c-0.184-0.892-0.32-1.908-1.888-2.505C374.909,285.437,375.837,289.241,376.761,293.05 M465.332,333.638
			c1.36,2.584,4.089,0.641,6.058,1.817c-1.318-1.249-1.105-2.562-0.178-3.922c-0.146-0.121-0.289-0.244-0.426-0.365
			C468.976,331.989,467.17,332.812,465.332,333.638 M613.192,130.973c0.207,0.086,0.421,0.167,0.632,0.249
			c1.271-5.417,2.965-10.729,4.197-16.157c-0.254-0.071-0.503-0.132-0.757-0.193C615.905,120.239,614.546,125.605,613.192,130.973
			 M491.746,89.167c-0.156,0.167-0.31,0.335-0.462,0.492c2.133,2.668,3.948,5.544,6.754,7.711c2.445,1.892,4.61,4.15,6.796,6.346
			c0.603,0.604,0.97,1.527,1.212,2.369c0.508,1.827,0.441,1.842,2.699,1.385c-0.13-1.836-1.527-2.84-2.652-3.987
			c-1.851-1.882-3.799-3.667-5.606-5.595c-1.374-1.461-2.485-3.181-3.905-4.601C495.086,91.795,493.365,90.532,491.746,89.167
			 M337.192,365.451c1.269-2.355,1.985-4.638,2.04-7.22c0.061-2.369,0.559-4.748,1.085-7.076c0.314-1.4,0.244-2.404-0.908-3.425
			c-1.437-1.277-2.724-2.739-3.962-4.215c-0.933-1.111-2.161-1.543-3.43-1.446c-2.251,0.174-4.296-0.269-6.487-1.892
			c0.817,2.005,1.39,3.425,1.938,4.778c0.593-0.057,1.04-0.101,2.044-0.193c-1.876,1.827-1.105,4.942-4.048,5.033
			c-0.289,1.236-0.517,2.281-0.781,3.312c-0.599,2.334-0.111,4.434,1.729,5.971c0.889,0.734,1.649,1.477,1.041,2.465
			c-0.456,0.767-1.511,1.172-2.704,2.02c-0.026,0.202-0.127,1.005-0.244,1.942C328.762,366.586,332.901,364.913,337.192,365.451
			 M481.039,375.302c3.011,0.767,6.105,1.543,9.197,2.338c0.531,0.138,1.048,0.331,1.562,0.533c2.806,1.105,4.099,0.239,4.267-2.841
			c0.095-1.745,0.081-3.521,0.403-5.225c0.621-3.247,0.286-6.387-0.415-9.563c-0.497-2.237-0.941-4.56-0.852-6.821
			c0.133-2.959-0.719-5.632-1.594-8.336c-0.338-1.07-0.927-1.992-2.494-2.298c-0.314,0.816-0.915,1.644-0.862,2.431
			c0.074,1.197,0.161,2.327-1.04,2.855c-0.958,0.421-2.075,0.588-3.141,0.654c-1.801,0.097-3.616,0.026-5.651,0.026
			c-0.32,1.426-0.944,2.698-0.8,3.879c0.511,4.287,1.275,8.549,1.945,12.825c0.314,1.958,0.589,3.906-1.541,4.977
			C480.353,372.197,480.632,373.436,481.039,375.302 M299.623,340.928c-0.248-0.137-0.497-0.278-0.75-0.42
			c-0.527,0.577-0.958,1.334-1.608,1.679c-0.696,0.365-1.658,0.184-2.384,0.507c-0.914,0.411-1.933,0.938-2.491,1.704
			c-0.892,1.243-1.876,2.075-3.317,2.634c-0.629,0.237-1.024,1.421-1.202,2.246c-0.077,0.347,0.654,0.934,1.11,1.299
			c0.294,0.234,0.761,0.26,1.198,0.396c-0.438,1.273-0.792,2.344-1.218,3.608c-1.689-3.974-2.617-4.389-4.576-2.229
			c0.426,0.229,0.853,0.462,1.552,0.849c-0.953,0.39-1.592,0.648-2.455,0.993c0.732,0.97,1.339,1.781,2.08,2.755
			c-0.812,0.392-1.44,0.685-1.876,0.888c-0.894,2.599,2.201,4.469,0.446,7.238c2.354,0.305,3.47,1.543,3.821,3.607
			c0.141,0.797,0.908,1.272,2.11,1.223c-0.482-1.506-1.533-3.038-1.182-4.118c0.573-1.787-1.396-2.766-0.68-4.997
			c0.593,1.167,0.924,1.836,1.279,2.49c1.542,2.876,3.712,4.896,7.184,4.637c2.566-0.193,5.134-0.574,7.654-1.091
			c1.767-0.365,2.598-1.836,2.674-3.653c0.071-1.739,0.293-3.474,0.466-5.209c0.127-1.284,0.548-2.592,0.39-3.836
			c-0.43-3.474-0.061-6.792,1.214-10.038c0.044-0.117-0.123-0.319-0.244-0.609c-2.81-0.466-5.565,0.051-8.325,1.045v-1.354
			c-0.7,0.202-1.334,0.391-2.074,0.604C298.892,342.663,299.257,341.795,299.623,340.928 M467.569,351.089
			c-0.496-2.775-1.319-4.834-3.724-5.792c-0.288-0.106-0.375-0.646-0.647-0.863c-0.91-0.7-1.812-1.431-2.635,0.193
			c-0.178,0.35-0.871,0.547-1.35,0.607c-2.535,0.325-5.082,0.579-7.623,0.863c-1.264,0.146-2.562,0.142-3.511,1.293
			c-0.746,0.898-1.609,1.715-2.501,2.455c-0.938,0.782-1.115,1.608-0.589,2.679c0.736,1.487,1.38,3.019,2.171,4.475
			c2.06,3.811,2.42,7.736,0.736,11.734c-0.563,1.338-0.198,2.326,0.542,3.311c0.549,0.73,1.289,1.331,1.866,2.046
			c0.98,1.222,2.143,1.44,3.684,1.208c1.888-0.286,3.845-0.144,5.758-0.311c0.879-0.081,1.811-0.311,2.567-0.746
			c1.588-0.912,3.068-2.018,4.605-3.019c1.933-1.248,2.821-3.215,2.461-5.493c-0.057-0.36-0.04-0.735-0.046-1.101
			c-0.055-4.937-0.117-9.873-0.188-14.803c0-0.138-0.172-0.278-0.346-0.522C468.497,349.745,468.215,350.161,467.569,351.089
			 M367.243,343.008c-2.516,0.127-3.926,1.329-4.265,3.987c-0.381,2.943-1.537,5.596-3.395,8.025
			c-0.725,0.964-1.146,2.942-0.645,3.881c0.797,1.471,0.685,2.724,0.6,4.194c-0.224,4.064-0.168,4.07-2.35,6.961
			c0.498,0.253,0.934,0.594,1.431,0.715c1.979,0.472,3.961,0.889,5.946,1.305c3.327,0.698,6.646,1.461,9.994,2.054
			c2.348,0.411,4.738,0.646,7.117,0.867c1.278,0.121,2.596,0.214,3.854,0.036c1.578-0.218,2.086-0.934,1.862-2.501
			c-0.284-1.959-0.821-3.875-1.156-5.824c-0.284-1.604-0.659-3.246-0.579-4.85c0.107-2.267,0.589-4.504,0.938-6.908
			c-0.767-0.269-1.517-0.696-2.288-0.757c-1.238-0.081-2.236-1.278-3.58-0.704c-1.188-1.35-2.802-2.521-3.46-4.1
			c-0.71-1.684-1.573-3.033-2.933-4.171c-0.619-0.507-1.056-1.176-0.396-2.044c2.141,1.563,3.205,4.257,6.661,4.931
			c-1.116-2.379-1.965-4.18-2.807-5.989c-2.565-0.619-2.565-0.615-4.216-2.988c-0.202-0.285-0.299-0.689-0.562-0.889
			c-0.396-0.304-0.902-0.467-1.745-0.878c0.549,1.522,0.903,2.501,1.263,3.485c-0.064,0.238-0.127,0.482-0.191,0.721
			c-1.548-1.993-3.131,1.517-4.759-0.655c1.456-0.531,1.456-0.531,1.607-2.104C366.98,338.97,366.787,339.37,367.243,343.008
			 M543.079,271.145c0-0.734,0.121-1.652-0.026-2.53c-0.277-1.719-0.765-3.405-1.045-5.124c-0.704-4.271-1.201-8.579-2.702-12.698
			c-0.689-1.887-1.232-3.885-1.426-5.875c-0.179-1.836-0.748-3.286-2.482-4.559h2.598c0.012-1.792-0.213-3.338,0.081-4.952
			c0.347-1.862,1.278-3.885-0.465-5.661c-0.153-0.157,0.121-0.741,0.211-1.202c0.499,0.431,0.813,0.706,1.218,1.055
			c0.072-3.631-2.728-5.469-4.301-8.238c-1.836,1.436-3.349,2.826-3.793,5.392c-0.54,3.09-0.274,6.042,0.242,9.065
			c0.817,4.799,2.116,9.558,1.582,14.519c-0.087,0.797,0.162,1.64,0.306,2.451c0.344,1.908,0.73,3.805,1.074,5.703
			c0.032,0.156-0.081,0.339-0.162,0.592c-0.71,0.183-1.466,0.381-2.425,0.629c0,1.949-0.158,3.796,0.041,5.606
			c0.427,3.942,1.117,7.853,0.213,11.83c-0.167,0.726,0.304,1.579,0.437,2.375c0.557,3.403,1.588,6.807,0.093,10.272
			c-1.433-0.314-2.864,0.7-4.284-0.345c-0.295-0.214-1.616,0.441-2.018,1.009c-1.573,2.237-3.323,4.458-4.327,6.956
			c-0.89,2.217-2.264,3.971-3.597,5.839c-0.776,1.095-1.435,2.282-2.09,3.327c2.688,2.318,3.793,5.244,5.112,8.055
			c0.266-0.461,0.467-1.252,0.788-1.308c2.419-0.391,3.646-2.577,5.629-3.603c0.228-0.117,0.568-0.477,0.522-0.562
			c-1.034-2.1,1.191-2.734,1.858-4.043c1.368-2.699,3.052-5.234,4.442-7.93c1.386-2.688,2.312-5.636,4.83-7.625
			c0.802-0.627,0.932-1.485,0.112-2.393c-0.375-0.422-0.574-1.138-0.58-1.721c-0.015-2.465-0.243-4.96,1.44-7.127
			c0.447-0.577,0.427-1.521,0.568-2.1c-0.924-0.674-1.597-1.162-2.601-1.892C540.016,273.134,541.465,272.196,543.079,271.145
			 M283.156,318.974c-2.728-3.784-5.487-7.569-8.197-11.399c-1.37-1.942-2.759-3.891-3.927-5.955
			c-1.313-2.318-2.445-4.743-3.55-7.179c-0.64-1.4-1.41-2.887-1.491-4.374c-0.127-2.445-0.863-4.489-2.455-6.29
			c-1.097-1.247-1.629-2.602-1.056-4.321c0.213-0.66,0.137-1.497-0.041-2.191c-0.791-3.11-1.374-6.209-1.654-9.451
			c-0.232-2.852-0.135-5.414,0.686-8.111c0.721-2.355,1.437-4.851,1.384-7.26c-0.044-2.333-0.771-4.784-1.759-6.929
			c-0.625-1.35-0.736-2.582-0.827-3.938c-0.091-1.339-0.258-2.667-0.345-3.516c-2.556-0.882-4.605-1.588-6.778-2.338
			c-0.309,0.508-0.587,1.085-0.983,1.567c-1.492,1.848-1.563,3.77-0.787,5.971c0.664,1.902,0.948,3.942,1.374,5.931
			c0.649,3.084,1.065,6.163,0.629,9.339c-0.518,3.744-0.842,7.508-1.269,11.257c-0.05,0.44-0.127,1.069-0.425,1.257
			c-2.268,1.481-1.076,3.135-0.345,4.795c0.284,0.644,0.569,1.308,0.72,1.998c0.214,0.873,0.061,1.888,0.458,2.648
			c1.917,3.659,2.952,7.625,4.22,11.51c0.024,0.087,0.091,0.162,0.121,0.249c2.659,5.479,5.195,11.014,8.005,16.406
			c1.192,2.278,2.547,4.602,5.099,5.798c0.349,0.163,0.542,0.676,0.801,1.01c-0.381,0.34-0.64,0.563-1.111,0.979
			c2.588,2.517,4.028,6.134,7.234,7.311c1.512-0.944,2.547-2.02,3.718-2.207C282.324,321.26,282.096,319.436,283.156,318.974
			 M399.041,376.869c0.309,1.711,1.521,2.77,3.135,3.642c2.77,1.486,5.723,1.138,8.654,1.157c1.091,0.006,2.414-0.173,3.226,0.355
			c1.674,1.091,3.298,0.776,5.022,0.583c3.409-0.381,5.864-2.5,8.427-4.454c1.191-0.912,1.999-1.876,1.283-3.504
			c-0.204-0.462-0.225-1.132-0.051-1.604c0.897-2.481,0.214-4.785-0.508-7.149c-1.086-3.504-2.49-7-2.186-10.738
			c0.208-2.525-1.021-3.945-2.852-5.219c-0.898-0.625-1.695-1.406-2.572-2.069c-1.308-0.984-2.516-2.315-3.997-2.822
			c-3.217-1.09-6.554-1.846-9.893-2.541c-2.079-0.437-3.104,0.183-3.911,2.156c-1.46,3.576-1.927,7.32-0.918,11.068
			c0.854,3.165,1.299,6.28,0.884,9.558c-0.244,1.893,0.05,3.855-0.072,5.764c-0.065,1.049-0.269,2.221-0.821,3.068
			C401.212,375.145,400.096,375.885,399.041,376.869 M271.133,194.444c0.234,1.02,0.619,1.963,0.64,2.922
			c0.082,2.952,0.042,5.899,0.01,8.847c-0.01,1.319,0.468,2.192,1.654,2.922c2.318,1.435,4.819,9.705,7.438,9.746
			c4.184,0.065,16.177,8.491,19.733,11.073c1.836,1.334,4.039,1.766,6.326,1.634c5.981-0.355,11.845,6.599,14.93,11.647
			c1.654,2.703,3.814-3.228,6.899-2.298c2.029,0.607,4.068,1.201,6.086,1.866c1.533,0.506,2.933,0.873,4.373-0.385
			c0.498-0.432,1.537-0.228,2.532-0.345c0.351-1.004,0.767-1.944,2.348-1.953c0.874,0,1.654-9.446,2.628-9.685
			c1.237-0.309,1.624-4.987,1.948-5.996c0.527-1.67,1.106-3.323,1.836-5.495c0.131,1.741,0.218,2.896,0.305,4.048
			c0.202-0.006,0.416-0.014,0.619-0.026c1.288-3.216,1.725-6.417-0.284-9.766c1.836-1.556,3.125-3.49,2.794-6.143
			c-0.035-0.258,0.107-0.548,0.214-0.797c1.761-3.952,2.41-8.06,2.217-12.397c-0.076-1.532,0.436-3.47,1.415-4.561
			c1.117-1.253,1.446-2.268,0.903-3.657c-0.426-1.106-0.968-2.172-1.521-3.222c-1.293-2.435-2.937-10.704-3.865-13.266
			c-1.289-3.592-2.842-7.005-4.886-10.206c-1.359-2.13-1.775-4.398-1.359-6.879c0.121-0.771,0.01-1.578,0.01-1.897
			c-8.345-3.333-15.883-1.694-23.172,2.252c0.35-0.543,0.933-0.847,1.085-1.293c0.172-0.497-0.041-1.137-0.086-1.679
			c1.993-0.654,4.196-0.218,6.225-2.019c-1.077-0.4-1.898-1.014-2.618-0.918c-5.514,0.755-10.633,2.547-14.904,6.28
			c-0.284,0.253-0.351,0.766-0.528,1.182c1.178,0.522,2.146,1.212,3.187,1.339c1.033,0.122,2.134-0.32,3.206-0.518
			c0.03,0.097,0.061,0.183,0.091,0.279c-1.42,0.958-2.846,1.917-3.698,2.491c-1.913-0.041-3.248-0.158-4.565-0.076
			c-1.64,0.096-3.283,0.289-4.906,0.568c-1.543,0.274-3.003,0.857-4.555-0.198c-0.417-0.279-1.442,0.097-2.06,0.405
			c-1.456,0.741-2.852,7.554-4.231,8.431c-0.345,0.219-0.745,0.685-0.755,1.05c-0.066,1.938-9.451,2.293-10.861,2.806
			c-1.172,0.431-2.288,1.015-3.532,1.572c-0.202-0.121-0.567-0.349-1.004-0.619c-0.658,0.7-1.297,1.238-1.775,1.897
			c-0.349,0.487-0.791,1.197-0.68,1.689c0.427,1.927,1.055,3.81,1.756,6.194c0.041-0.127-0.117,0.309-0.274,0.74
			c-0.954,2.689-1.38,5.261,0.39,7.924c1.315,1.973,0.817,4.256,0.208,6.447c-0.324,1.157-0.832,2.076-2.121,2.237
			c-1.055,0.127-2.526-0.903-2.982-2.049c-0.314-0.756-0.579-1.532-0.853-2.303C272.325,194.354,271.728,194.399,271.133,194.444
			 M479.942,145.497c-1.247-0.66-2.11-1.228-3.054-1.593c-1.522-0.589-3.114-0.994-4.647-1.547
			c-3.713-1.334-7.405-2.74-11.125-4.049c-0.583-0.203-1.283-0.106-1.933-0.065c-2.962,0.198-5.844,0.69-8.634,1.806
			c-4.961,1.994-9.983,3.825-14.954,5.809c-1.613,0.644-3.095,1.618-4.688,2.344c-1.989,0.903-2.516,2.48-2.312,4.484
			c0.253,2.516-0.538,4.677-1.969,6.752c-0.924,1.339-1.775,2.892-2.09,4.464c-1.005,5.052-1.325,10.278-2.709,15.213
			c-1.39,4.977-0.396,9.745,0.238,14.493c0.684,5.088,2.156,10.1,3.576,15.067c1.238,4.307,3.409,8.122,7.553,10.409
			c0.311,0.173,0.807,0.512,0.787,0.73c-0.188,2.023,1.775,2.562,2.567,3.886c1.404,2.35,4.378,1.573,6.179,3.201
			c0.39,0.355,1.542-0.127,2.363-0.234c0.467-0.771,0.923-1.542,1.349-2.257c0.396-0.061,0.681-0.172,0.944-0.131
			c3.146,0.478,6.007-0.649,8.918-1.547c1.41-0.436,2.399-1.359,2.952-2.693c1.157-2.815,2.456-5.499,4.992-7.411
			c1.172-0.877,1.988-2.497,3.258-2.917c3.235-1.091,5.219-3.684,7.73-5.642c1.064-0.825,2.316-1.44,3.555-1.983
			c2.396-1.045,4.582-2.572,7.229-3.043c0.407-0.076,0.73-0.547,1.138-0.766c4.621-2.521,8.198-6.604,13.097-8.705
			c0.67-0.285,1.275-0.792,1.966-0.995c1.313-0.385,1.896-1.232,2.226-2.511c0.263-1.035,0.852-1.994,1.339-2.958
			c0.102-0.198,0.416-0.278,0.589-0.385c0.537,0.507,1.025,0.959,1.562,1.466c2.31-4.793,2.31-5.165,0.355-9.192
			c-0.28-0.578-0.477-1.197-0.716-1.795c-1.821-4.55-3.557-9.126-7.229-12.631c-0.629-0.614-1.01-1.543-1.359-2.39
			c-1.374-3.358-4.188-5.27-7.072-7.107c-0.586-0.375-1.308-0.775-1.957-0.775c-1.247,0-1.882-0.665-2.719-1.441
			C485.086,146.856,482.844,144.807,479.942,145.497 M397.508,196.869c-0.172-0.888-0.329-1.775-0.517-2.79
			c-1.399,0.482-2.633,0.908-3.987,1.38c-0.543,2.872-1.096,11.795-1.659,14.747c-0.056,0.264-0.218,0.512-0.351,0.756
			c-0.598,1.105-0.993-9.476-1.866-8.659c-1.263,1.17,0.416,2.05-0.07,3.262c-0.782,1.917-0.934,4.097-1.269,6.177
			c-0.142,0.897-1.142,1.815-0.021,2.77c0.097,0.083-0.097,0.741-0.319,0.919c-0.686,0.551-0.4,1.257-0.542,1.911
			c-0.447,1.979-0.63,4.171-2.395,5.783c-0.492-0.583-0.894-1.06-1.289-1.531c-0.72,0.593-1.396,1.14-2.435,1.993
			c0.922-4.053,0.922-4.053,0.101-5.6c-0.309,0.579-0.562,1.041-0.801,1.507c-0.386,0.761-0.392,1.922-1.815,1.531
			c-0.159-0.041-0.515,0.649-0.787,0.995c-0.391,0.466-0.792,0.924-1.192,1.404c-1.522-1.596-1.593-1.612-1.258-3.175
			c0.415-1.891,0.903-3.773,1.445-5.63c0.984-3.389,0.984-6.54-1.958-9.06c-0.137-0.117-0.319-0.178-0.522-0.289
			c-1.573,0.024-2.374,12.981-3.115,14.234c-0.476,0.811-0.893,1.826-2.313,1.105c-0.998-0.497-1.734,0.365-1.521,1.267
			c0.396,1.706-0.67,3.659,0.964,5.176c0.39,0.365,0.517,1.192,0.486,1.79c-0.071,1.908-0.248,3.816-0.436,5.719
			c-0.107,1.069-0.102,2.185-1.045,3.018c-0.305,0.264-0.609,1.003-0.457,1.216c1.029,1.493-0.294,2.709-0.366,4.053
			c-0.03,0.706-0.091,1.426-0.051,2.136c0.204,3.121,0.914,6.302,0.528,9.35c-0.415,3.251,0.346,6.159,1.069,9.156
			c0.382,1.572,1.143,2.876,2.441,3.901c0.71,0.553,1.42,1.267,1.765,2.074c2.648,6.128,5.134,12.322,5.61,19.1
			c0.03,0.456-0.03,1.035,0.218,1.35c1.67,2.136,1.761,4.805,2.558,7.229c0.238,0.74,0.644,1.43,0.979,2.144
			c0.204,0.021,0.407,0.037,0.619,0.053c0.204-1.345,1.319-2.086,1.522-3.597c0.263-1.918,1.871-3.232,3.48-4.191
			c0.841-0.502,1.978-0.37,2.667,0.71c0.377,0.604,0.854,1.147,1.365,1.827c0.715-0.554,1.277-0.984,1.896-1.466
			c0.351,0.167,0.655,0.361,0.99,0.472c3.363,1.11,3.778,1.664,3.642,5.098c-0.045,0.984-0.543,2.101-0.223,2.917
			c0.791,1.994,1.933,3.845,3.18,6.234c1.132-2.141,2.046-3.723,2.822-5.383c0.502-1.07,1.253-2.318,1.079-3.352
			c-0.345-2.09,0.498-3.784,1.041-5.617c0.613-2.115,1.253-4.229,1.668-6.385c0.874-4.419,1.598-8.862,2.375-13.302
			c0.273-1.527,0.852-3.104,0.71-4.591c-0.486-4.936-0.157-9.953-1.715-14.787c-0.837-2.598-0.903-5.495-2.009-7.939
			c-1.501-3.302-2.116-6.645-2.258-10.171c-0.106-2.582,0.036-5.214-0.441-7.72c-0.598-3.161-1.856-6.185-2.576-9.324
			c-0.843-3.678-1.33-7.442-2.12-11.131c-0.352-1.668-1.056-9.227-1.599-10.855L397.508,196.869z M465.769,343.332
			c-0.4-2.003-1.009-2.221-2.922-1.04c0.547,1.64,1.943,0.756,2.988,0.979c0.203,0.479,0.405,0.948,0.716,1.67
			c0.365-0.433,0.942-0.828,0.892-1.117C467.251,342.713,466.474,343.018,465.769,343.332 M124.752,157.499
			c1.035,0.259,1.816-0.056,2.201-1.228c-0.714,0.421-1.44,0.842-2.15,1.263c-0.908,0.269-1.806,0.538-2.709,0.817
			c0.071,0.162,0.152,0.335,0.224,0.506C123.128,158.402,123.929,157.94,124.752,157.499 M315.607,382.592
			c-0.989-0.152-1.973-0.305-3.089-0.478c-1.837,4.357-5.864,5.773-9.628,6.839c-3.633,1.028-7.711,1.176-11.338-0.567
			c-1.856-0.894-3.484-2.34-5.058-3.724c-0.862-0.763-2.191-1.219-2.141-2.913c0.01-0.532-1.278-1.212-2.08-1.634
			c-0.964-0.502-1.339-1.054-1.116-2.19c0.142-0.725,0.015-1.639-0.314-2.309c-0.742-1.482-1.628-2.902-2.558-4.276
			c-0.385-0.583-0.964-1.303-1.562-1.426c-1.345-0.269-1.685-1.196-1.949-2.72c-0.908,1.041-1.542,1.775-2.171,2.502
			c-0.193-0.812-0.416-1.719-0.568-2.363c-2.201,0.293-4.464,0.404-6.621,0.918c-2.606,0.63-3.992-1.258-5.788-2.344
			c-1.852,1.035-1.852,1.035-3.104-1.872c-0.477,0.081-1.015,0.31-1.507,0.224c-0.654-0.122-1.739-0.381-1.822-0.762
			c-0.542-2.521-2.49-2.993-4.535-3.516c-0.872-0.217-1.685-0.699-2.532-1.045c-0.553-0.223-1.11-0.518-1.688-0.588
			c-1.126-0.137-2.023-0.381-2.82-1.4c-0.528-0.669-1.918-0.599-2.598-1.212c-2.364-2.132-5.184-3.141-8.4-3.795
			c-0.385,0.406-0.873,0.913-1.339,1.405c-0.218,0.021-0.421,0.091-0.579,0.041c-7.132-2.567-13.798-6.148-20.564-9.486
			c-1.096-0.539-1.928-1.588-3.312-2.764h2.023c-0.204-0.382-0.254-0.687-0.436-0.783c-1.248-0.735-2.705-1.232-3.764-2.176
			c-1.563-1.374-2.79-3.125-4.272-4.602c-1.297-1.287-2.713-2.465-4.154-3.597c-1.563-1.227-3.008-2.454-5.21-2.871
			c-1.622-0.305-3.008-2.009-4.444-3.155c-0.787-0.633-1.42-1.466-2.211-2.09c-0.32-0.254-0.888-0.197-1.339-0.273
			c-0.365-0.065-0.877,0.004-1.071-0.208c-1.582-1.785-3.109-3.627-4.616-5.402c1.101-1.537,0.989-3.055-0.522-3.647
			c-4.373-1.73-6.3-5.789-9.091-9.04c-1.481-1.734-2.231-3.871-3.276-5.845c-1.035-1.952-2.211-3.833-3.389-5.711
			c-1.136-1.795-2.344-3.541-3.541-5.295c-0.258-0.367-0.639-0.964-0.923-0.944c-1.729,0.137-2.009-1.253-2.709-2.293
			c-1.013-1.517-2.308-2.865-3.236-4.434c-1.436-2.455-2.84-4.96-3.946-7.573c-2.501-5.86-4.886-11.765-7.179-17.709
			c-2.419-6.286-4.779-12.606-6.306-19.18c-0.44-1.882-0.761-3.825-0.832-5.753c-0.163-4.012-1.075-7.832-2.191-11.673
			c-1.807-6.198-3.044-12.57-5.124-18.667c-1.198-3.531-2.683-7.001-4.023-10.506c-0.629-1.649-1.995-3.023-3.156-4.703
			c1.066-0.594,1.821-1.02,2.876-1.608c-0.486-1.648-0.841-3.343-1.491-4.92c-0.573-1.405-0.528-2.744,0.01-4.028
			c0.832-1.978,0.791-3.916,0.299-5.955c-0.815-3.399-1.618-6.813-2.288-10.252c-0.202-1.045-0.263-2.268,0.077-3.251
			c1.289-3.749,1.521-7.585,1.38-11.49c-0.117-3.155,0.359-6.204,0.958-9.319c0.64-3.354,1.122-6.869-0.137-10.344
			c-0.442-1.218-0.249-2.739-0.075-4.083c0.335-2.511,0.482-4.931-0.549-7.351c-0.781-1.836-0.289-3.582,0.868-5.215
			c2.181-3.059,2.13-3.211-0.248-6.179c-0.741-0.928-1.461-1.897-2.02-2.942c-0.224-0.406,0.03-1.06,0.071-1.7
			c1.837-0.568,3.419-1.283,4.952-2.612c1.806-1.567,4.408-2.39,7.081-2.379c1.491,0,2.983-0.325,4.468-0.563
			c0.311-0.045,0.726-0.319,0.829-0.589c0.71-1.876,2.14-1.861,3.642-1.333c1.765,0.624,3.895-0.142,5.422,1.44
			c0.157,0.163,0.71,0.025,1.041-0.091c0.335-0.127,0.607-0.417,0.922-0.604c2.822-1.689,2.943-1.892,5.88-0.243
			c2.582,1.44,5.144,1.288,7.772,0.781c4.377-0.832,8.608-0.67,12.777,1.05c1.249,0.518,2.689,0.548,4.008,0.903
			c2.197,0.594,4.363,1.274,6.635,1.943c1.654-1.055,3.53-2.262,5.428-3.459c0.294-0.188,0.827-0.527,0.943-0.432
			c2.132,1.766,2.973-0.456,4.262-1.313c0.061-0.045,0.172-0.025,0.487-0.051c0.437,0.487,0.97,1.081,1.628,1.812
			c1-0.857,2.005-1.73,3.156-2.729c0.553,0.685,1.09,1.354,1.628,2.024c0.339-0.645,0.669-1.274,0.944-1.796
			c1.664-0.385,2.576,2.471,4.424,0.239c0.263,1.912,0.466,3.388,0.75,5.463c1.136-1.583,0.669-3.693,2.901-3.389
			c0.101-1.36,0.193-2.532,0.285-3.699c0.07-0.01,0.147-0.01,0.224-0.015c0.242,1.842,0.496,3.673,0.791,5.814
			c1.968-1.431,4.083-0.67,6.092-1c0.204,0.289,0.339,0.522,0.513,0.725c3.084,3.607,2.211,7.93,2.096,12.069
			c-0.066,2.394-0.438,4.788-0.787,7.163c-0.563,3.805-0.021,7.548,0.416,11.312c1.156,10.176,2.233,20.362,3.439,30.534
			c0.456,3.932,1.202,7.832,1.795,11.753c0.472,3.079,0.914,6.164,1.375,9.243c0.041,0.268,0.015,0.639,0.182,0.791
			c1.775,1.674,1.107,3.658,0.939,5.682c-0.209,2.517-0.086,5.068,0.061,7.584c0.05,0.857,0.638,1.685,1.029,2.644
			c-1.558,1.273-0.694,3.033-0.35,4.495c0.522,2.207,1.521,4.317,2.429,6.417c0.468,1.08,0.583,1.03,2.203,0.437
			c0.958,2.318,1.927,4.636,2.887,6.964c1.19-2.07,2.687-3.906,1.368-6.528c-0.649,0.487-1.106,0.841-1.562,1.188
			c-1.471-1.121-1.664-3.41-0.496-5.946c1.013,0.219,2.038,0.441,3.246,0.7c-0.123,0.721-0.274,1.563-0.421,2.4
			c0.178,0.081,0.351,0.152,0.522,0.223c1.136-1.958,2.273-3.921,3.48-6.012c-1.709-1.146-2.84-0.547-3.896,0.619
			c-1.045-1.983-0.559-4.002-0.224-5.98c0.082-0.477,0.706-1.086,1.192-1.222c2.151-0.594,3.415-2.141,4.343-3.962
			c0.472-0.929,0.948-1.375,2.013-1.537c1.513-0.233,1.664-0.66,0.741-1.948c-0.42-0.579-0.547-0.837-0.041-1.345
			c0.204-0.213,0.365-0.589,0.335-0.878c-0.035-0.339-0.289-0.659-0.436-0.974c-0.7,0-1.593,0.269-2.04-0.056
			c-0.76-0.569-1.573-1.431-1.785-2.309c-0.274-1.126-0.021-2.415,1.664-2.562c0.345-3.82,0.67-7.649,1.049-11.474
			c0.086-0.893,0.371-1.766,0.584-2.644c0.299-1.253,0.648-2.496,0.938-3.748c0.249-1.076,0.482-2.157,0.629-3.247
			c0.202-1.537,0.329-3.079,0.45-4.616c0.103-1.253-0.212-2.572,1.33-3.353c0.466-0.234,0.66-1.212,0.776-1.882
			c0.339-1.893,0.583-3.805,1.384-5.763c0.173,0.634,0.355,1.269,0.542,1.942c3.03-1.095,3.365-1.531,3.445-4.281
			c-1.552-0.411-2.546,0.101-2.891,1.846c-0.387-2.876,0.67-5.22,2.222-7.31c1.258-1.695,2.81-3.181,4.18-4.804
			c0.528-0.625,1.573-1.167,0.518-2.283c-0.153-0.157,0.476-1.517,0.979-1.7c1.38-0.517,1.949-1.654,2.612-2.729
			c1.634-2.633,3.978-4.54,6.29-6.534c2.06-1.775,3.704-4.053,5.519-6.113c3.014-3.409,4.982-7.478,6.939-11.49
			c0.833-1.684,1.706-2.724,3.512-3.034c2.175,1.796,2.856,1.771,4.602-0.35c0.638-0.776,1.15-1.659,2.094-3.033
			c-1.39,0.578-2.231,0.918-3.692,1.521c0.953-2.044,2.333-2.805,3.662-3.373c2.12-0.898,3.982-1.812,5.479-3.81
			c1.122-1.502,3.034-2.648,5.18-2.938c0.593-0.076,1.263-0.33,1.699-0.725c1.918-1.72,3.815-3.48,5.62-5.316
			c0.629-0.645,1.583-1.192,1.142-2.572c-0.117-0.371,1.243-1.223,2.338-2.248v3.095c1.259-0.554,2.4-1.07,4.099-1.827
			c-1.096-0.7-1.765-1.131-2.415-1.552c2.263-2.76,6.939-6.148,9.457-6.514c2.689-0.396,5.437-0.335,7.999-1.481
			c0.575-0.258,1.437,0.097,2.152,0.229c0.948,0.178,1.618-0.096,2.084-1.39c-1.41,0.162-2.667,0.304-3.916,0.446
			c1.142-1.03,1.886-2.592,3.896-1.918c0.446,0.142,1.426-1.313,2.313-2.176c0.244,0.178,1.015,0.471,1.015,0.771
			c0.01,1.745,1.166,1.623,2.292,1.562c2.395-0.117,4.789-0.263,7.153-0.39c0.736-3.186,3.47-1.735,5.525-2.714
			c0.086-0.198,0.319-0.73,0.649-1.481c1.729,1.203,4.204-0.736,5.402,1.902c2.86-0.842,5.569-1.659,8.299-2.419
			c0.7-0.199,1.456-0.219,2.181-0.33c4.738-0.71,9.478-1.477,14.226-2.1c1.709-0.229,3.458-0.142,5.194-0.173
			c1.268-0.025,2.546,0.076,3.805-0.025c1.268-0.112,2.516-0.446,3.784-0.619c2.982-0.411,5.972-0.761,8.949-1.202
			c0.512-0.077,0.968-0.502,1.46-0.75c1.237-0.634,2.364-1.025,3.876-0.32c1.541,0.731,3.383,0.812,5.083,1.233
			c3.758,0.938,7.519,1.892,11.272,2.875c3.074,0.812,5.828,2.273,8.435,4.089c0.776,0.543,1.812,0.72,2.745,1.02
			c0.244,0.076,0.549,0,0.821-0.01c4.236-0.167,8.405-0.527,12.125,2.465c1.308,1.06,3.297,2.288,5.362,0.852
			c0.202-0.137,0.694,0.087,1.029,0.193c2.344,0.771,4.697,1.531,7.04,2.338c0.776,0.264,1.583,0.538,2.259,0.989
			c2.603,1.75,5.148,3.566,7.726,5.352c0.756,0.527,1.461,1.177,2.293,1.537c4.617,2.019,8.584,5.057,12.529,8.091
			c1.299,0.994,2.324,2.364,3.465,3.556c5.43,5.677,10.824,11.389,16.289,17.03c2.491,2.577,5.276,4.89,7.629,7.579
			c2.237,2.557,4.14,5.408,6.108,8.193c3.114,4.418,5.049,9.313,6.391,14.584c1.808,7.133,4.258,14.098,6.362,21.164
			c0.295,0.994,0.182,2.121,0.254,3.176c0.032,0.451-0.133,1.06,0.112,1.318c1.862,2.014,2.212,4.759,3.216,7.123
			c1.114,2.638,1.187,5.727,1.594,8.634c0.069,0.512-0.428,1.116-0.689,1.653c-0.474,0.949-1.311,1.867-1.392,2.841
			c-0.177,2.262-0.558,4.57,0.528,6.802c0.303,0.609,0.213,1.74-0.174,2.293c-0.805,1.167-0.67,2.216-0.3,3.408
			c0.655,2.121,1.417,4.074,3.005,5.814c1.008,1.101,1.141,3.034,1.576,4.621c0.225,0.863,0.254,1.781,0.447,3.272
			c2.018-1.801,3.684-3.297,5.352-4.789c-0.127-0.163-0.242-0.319-0.369-0.486c-0.649,0.396-1.311,0.781-2.298,1.38
			c0.583-1.954,1.911-2.948,3.095-3.907c3.727-2.988,4.996-7.133,5.822-11.551c0.502-2.689,0.617-5.438,1.789-8.005
			c2.832-6.254,4.982-12.327,5.344-18.312c0.329-5.469,1.426-10.78,2.125-16.162c0.112-0.822,0.058-1.665,0.04-2.496
			c-0.049-2.938-0.505-5.88,0.854-8.715c0.363-0.776,0.182-1.821,0.271-2.74c0.254-2.49-0.531-4.997,0.179-7.507
			c0.28-0.984-0.159-1.836-1.057-2.628c-1.983-1.75-2.8-4.154-3.008-6.767c-0.046-0.553-0.028-1.121-0.17-1.653
			c-0.5-1.882-0.566-3.556,1.181-5.002c0.675-0.553,1.435-1.572,0.522-2.668c1.475-1.978,0.142-4.54,1.348-6.574
			c0.233-0.39,0.353-0.913,0.682-1.162c2.748-2.09,5.104-4.708,8.501-5.926c3.603-1.293,7.124-2.851,10.675-4.291
			c1.602,0.664,3.235-1.238,4.875,0.051c0.277,0.218,0.846,0.086,1.487,0.122c-0.226-0.655-0.373-1.127-0.575-1.746
			c1.684,0.036,1.802,1.979,3.334,2.329c2.541,0.588,2.606,0.832,3.701-0.604c1.599,1.604,2.497,1.304,4.454-1.653
			c0.73,1.359,1.839,1.294,3.025,0.817c2.13-0.857,4.133-1.117,6.318,0.188c1.674,1.004,3.568,0.172,5.014-1.395
			c0.503-0.542,1.38-1.091,2.05-1.051c1.389,0.092,2.506-0.385,3.666-0.968c0.555-0.274,1.213-0.548,1.802-0.507
			c2.71,0.177,5.418,0.076,8.151,0.437c4.373,0.573,8.833,0.588,13.256,0.669c3.677,0.061,7.366-0.026,11.044-0.233
			c2.748-0.152,5.473-0.71,8.213-0.903c6.411-0.452,12.738,0.39,18.977,1.785c4.277,0.949,8.498,1.522,12.892,0.782
			c4.817-0.807,9.679-1.38,14.528-2.014c3.002-0.4,6.016-0.822,9.041-1.045c1.521-0.112,2.667-0.498,3.094-1.897
			c2.46-0.097,3.525,1.096,3.747,3.282c0.118,1.09,0.401,2.171,0.67,3.242c0.36,1.497,0.817,1.785,2.355,1.552
			c0.632-0.097,1.262-0.299,1.902-0.299c1.556-0.005,2.434,0.624,2.8,2.126c0.658,2.733,0.903,5.442-0.52,8.091
			c-0.557,1.035-1.114,2.242-1.129,3.378c-0.077,6.427-1.821,12.596-2.644,18.901c-0.893,6.823-2.546,13.408-4.556,19.952
			c-0.701,2.288-1.186,4.656-1.541,7.025c-0.479,3.13-1.98,5.733-3.684,8.28c-0.456,0.69-1.024,1.349-1.27,2.11
			c-1.917,6.062-4.2,12.002-5.295,18.333c-0.75,4.342-2.09,8.614-3.489,12.804c-2.11,6.291-4.639,12.438-6.752,18.729
			c-1.914,5.681-3.507,11.46-5.23,17.202c-0.223,0.756-0.032,1.74-1.204,1.912c-0.127,0.02-0.35,0.279-0.317,0.359
			c0.912,2.983-2.72,3.334-3.239,5.52c-0.08,0.34-1.053,0.461-1.622,0.686c0.234,0.472,0.771,1.075,0.636,1.39
			c-0.829,1.922-1.689,3.851-2.792,5.632c-0.409,0.67-1.475,0.933-2.413,1.485c0.136,0.522,0.182,1.188,0.482,1.69
			c0.964,1.608,0.776,3.018-0.676,4.479c-0.223,0.229-0.456,0.593-0.456,0.888c0.021,4.642-2.009,8.777-3.343,13.058
			c-1.833,5.911-3.957,11.723-6.067,17.536c-0.528,1.452-1.432,2.78-2.264,4.105c-0.314,0.517-0.831,1.105-1.365,1.238
			c-1.402,0.35-1.715,1.14-0.958,2.181c0.661,0.902,0.274,1.551-0.102,2.282c-1.767,3.435-3.48,6.895-5.906,9.953
			c-0.638,0.807-1.495,1.64-1.059,2.973c0.118,0.349-0.298,1.146-0.676,1.339c-2.119,1.091-2.139,3.439-3.244,5.134
			c-0.69,1.05-1.467,2.074-1.949,3.216c-0.958,2.313-3.423,3.592-4.038,6.139c-0.093,0.39-0.73,0.837-1.178,0.932
			c-0.753,0.153-1.562,0.043-2.468,0.043c-0.211,1.04-0.419,2.073-0.63,3.135c-0.943-0.331-1.801-0.939-2.511-0.793
			c-0.797,0.158-1.452,0.996-2.171,1.539c-0.661,0.496-1.259,1.151-2.001,1.455c-1.227,0.497-2.23,0.918-1.613,2.566
			c0.112,0.305-0.229,1.062-0.537,1.188c-1.87,0.775-2.719,2.598-4.139,3.794c-0.904,0.767-2.304,0.958-3.349,1.359
			c-0.208,1.243-0.153,2.497-0.655,3.455c-0.419,0.791-1.504,1.237-2.379,1.892c0.688,1.137-0.283,2.172-0.973,3.304
			c-0.73,1.202-1.374,2.465-2.27,4.093c-1.354,0.091-2.652,0.888-2.164,3.182c-0.893,0.203-1.675,0.385-2.547,0.587
			c0.069,0.649,0.147,1.254,0.234,2.045c-0.782,0.051-1.473,0.091-2.274,0.144c0.037,0.719,0.066,1.317,0.098,1.916
			c-2.168,0.174-2.168,0.174-2.806,1.953c-0.517-1.309-1.207-2.065-2.69-1.588c-1.195,0.392-2.474,0.513-3.721,0.741
			c-0.254,0.046-0.555,0.127-0.763,0.03c-3.253-1.445-6.422-0.594-9.831,0.193c0.152,0.79,0.269,1.424,0.387,2.039
			c-0.295,0.101-0.561,0.259-0.609,0.202c-0.75-0.776-1.521-1.156-2.639-0.649c-1.426,0.649-2.938,1.105-4.373,1.74
			c-4.814,2.104-9.592,4.281-14.416,6.387c-11.728,5.124-24.017,8.497-36.47,11.293c-3.688,0.827-7.43,1.404-11.125,2.247
			c-3.498,0.801-6.959,1.83-10.44,2.719c-1.033,0.259-2.15,0.654-3.176-0.71c0.944-0.462,1.775-0.873,2.659-1.305
			c-2.11-1.703-2.191-1.703-3.932-0.462c-0.685,2.467-1.334,4.45-1.761,6.479c-0.344,1.607-0.396,3.277-0.624,4.905
			c-0.155,1.09-0.269,2.211-0.629,3.236c-0.562,1.628-1.556,2.749-3.433,3.227c-1.646,0.416-3.126,1.496-4.728,2.155
			c-1.005,0.411-2.09,0.665-3.155,0.833c-1.796,0.278-3.79,0.04-5.398,0.725c-2.872,1.232-5.793,0.239-8.654,0.7
			c-0.669,0.106-1.593-0.452-2.19-0.954c-1.98-1.658-4.345-2.292-6.77-2.82c-2.491-0.543-4.98-1.105-7.913-1.761
			c0.103,1.244,0.153,2.009,0.229,2.779c0.243,2.548,0.634,5.083,0.654,7.631c0.01,0.975-0.583,2.435-1.34,2.825
			c-2.009,1.04-4.216,1.928-6.433,2.269c-1.37,0.208-2.911-0.702-4.85-1.238c-0.882,0.354-0.021,1.477,0.011,2.45
			c-0.781,0.517-1.512,1.056-2.298,1.506c-0.842,0.487-1.599,0.508-2.566-0.055c-1.365-0.797-2.938-1.045-3.455-3.019
			c-0.213-0.833-1.604-1.375-2.506-1.988c-0.843-0.575-1.735-1.056-2.82-1.7c-0.488,0.578-1.151,1.365-1.802,2.13
			c-1.628-0.897-3.094-1.703-4.642-2.556c-2.334,1.136-2.334,1.136-3.998-0.894c-2.221,2.48-5.311-0.497-7.75,1.543
			c-0.153-0.746-0.254-1.233-0.426-2.05c-0.488,0.734-0.812,1.212-1.202,1.791c-1.69-0.889-3.278-0.559-5.039-0.097
			c-1.734,0.456-3.651,0.172-5.487,0.184c-0.265,0-0.64-0.082-0.767-0.265c-0.994-1.323-2.42-1.598-3.932-1.908
			c-1.426-0.288-2.8-0.873-4.18-1.359c-0.405-0.146-0.812-0.379-1.162-0.653c-2.588-2.015-4.865-4.444-8.01-5.728
			c-1.06-0.432-1.913-1.386-3.019-2.223c-0.553,0.722-1.801,0.751-1.253,2.223c0.265,0.715-1.664,0.274-1.228,1.688
			c0.146,0.468-0.563,1.142,0.203,1.856c0.801,0.736,0.081,1.269-0.609,1.649c-1.045-0.553-2.079-1.101-3.256-1.714
			c-1.477,2.109-3.344,2.073-5.438,1.257c-2.577-0.999-5.275-1.136-8.035-1.304c-3.281-0.191-6.514-1.156-9.785-1.694
			c-1.446-0.244-2.947-0.42-4.399-0.324c-1.39,0.086-2.754,0.574-4.626,0.994c-3.288-2.536-8.162-3.714-11.474-7.365
			c-0.224-0.26-0.629-0.345-1.269-0.676c-1.533,1.481-3.216,2.897-4.607,4.562c-0.942,1.117-1.906,1.674-3.312,1.562
			c-2.403-0.196-4.662,0.139-7.036,0.868c-2.627,0.802-5.346-0.334-7.432-2.105c-1.729-1.471-3.105-3.312-5.564-3.673
			c-0.325-0.045-0.559-0.654-0.853-1.014c0.355-0.214,0.71-0.417,1.107-0.641c-0.67-1.126-1.254-2.11-1.928-3.24
			c-0.954,0.559-2.223-0.305-2.978,0.938C313.041,380.613,314.324,381.602,315.607,382.592"/>
		<path clip-path="url(#SVGID_2_)" fill="#a41c31" d="M418.349,475.536c0.02-2.633-1.614-5.671-3.188-6.347
			C416.299,471.469,417.323,473.508,418.349,475.536 M399.132,438.348c-0.482-1.38-0.964-2.756-1.541-4.414
			c0.699,0.184,1.155,0.299,1.987,0.519c0.122-2.203,0.426-4.363,0.31-6.494c-0.086-1.482-1.212-1.223-2.369-0.665
			c0.502,0.857,0.938,1.6,1.369,2.329c-0.101,0.116-0.202,0.238-0.309,0.355c-0.821-0.599-1.648-1.198-2.633-1.912
			c-0.254,0.547-0.71,1.069-0.609,1.44c0.457,1.755-0.476,2.602-1.861,3.216c-1.102,0.492-1.745,1.188-1.791,2.511
			c-0.03,0.771-0.497,1.542-0.842,2.277c-0.771,1.665-0.888,3.267-0.07,4.981c0.294,0.625,0.151,1.456,0.212,2.283
			c-2.587-0.472-3.53,0.163-4.412,2.232c-0.722,1.679-1.685,3.252-2.537,4.874c-0.087,0.163-0.192,0.422-0.315,0.437
			c-2.332,0.249-2.505,2.329-3.389,3.866c-1.48,2.582-1.552,2.536-0.01,5.631c-0.456,0.203-1.035,0.462-1.612,0.716
			c0.111,0.142,0.232,0.278,0.355,0.42c0.496,0.02,0.988,0.051,1.607,0.082c-0.061,0.482,0.015,0.938-0.178,1.172
			c-2.663,3.282-3.409,7.38-4.835,11.19c-0.472,1.263-1.109,2.471-1.745,3.663c-0.522,0.974-0.765,1.866,0.072,2.794
			c0.543,0.604,1.024,1.273,1.556,1.948c0.69,0.057,1.412,0.107,2.046,0.157c0.188,0.249,0.351,0.376,0.391,0.533
			c0.725,2.856,0.685,5.656-0.417,8.431c-0.253,0.654-0.305,1.445-0.272,2.162c0.136,3.189-0.355,6.239-1.65,9.187
			c-0.774,1.755-1.363,3.597-1.993,5.291c2.913,3.697,6.635,5.898,10.502,8.035c1.765,0.979,3.403,2.683,4.392,4.448
			c1.806,3.196,3.191,6.646,4.535,10.065c0.934,2.368,0.736,4.707-1.227,6.665c-0.848,0.848-1.543,1.842-2.648,3.176
			c0.03,0.137,0.193,0.832,0.371,1.522c1.496,5.58-0.238,7.649-4.683,10.14c-2.374,1.324-4.516,2.547-6.251,4.733
			c-1.887,2.379-4.422,4.185-7.202,5.523c-1.767,0.848-3.562,1.34-5.611,1.075c-1.415-0.182-3.002-0.08-4.332,0.401
			c-2.679,0.979-5.079,0.528-7.457-0.725c-1.866-0.99-3.622-2.142-5.808-2.501c-0.897-0.147-1.67-1.075-2.511-1.634
			c-3.663-2.455-6.726-5.6-9.06-9.258c-1.654-2.593-3.435-5.361-2.669-8.928c0.214-0.96-0.801-2.431-1.638-3.298
			c-1.325-1.37-1.928-2.72-1.618-4.642c0.156-0.948-0.264-1.983-0.458-3.166c-0.684-0.36-1.471-0.771-2.344-1.222
			c-3.012,5.914-8.176,9.588-13.108,13.412c-3.002,2.324-6.341,4.236-9.649,6.133c-1.8,1.045-3.916,1.41-5.696,2.719
			c-0.989,0.73-2.653,1.239-4.164,0.274c-0.553-0.354-1.41-0.213-2.116-0.351c-0.897-0.167-1.876-0.208-2.663-0.607
			c-2.648-1.325-5.328-1.594-8.315-1.513c-2.552,0.076-5.185-1.096-7.706-1.933c-2.617-0.873-5.114-2.116-7.73-2.993
			c-6.078-2.044-13.941-10.956-13.677-18.973c0.056-1.547-0.05-3.175-0.486-4.646c-0.918-3.095,0.734-5.328,2.181-7.666
			c1.021-1.644,2.076-3.262,3.166-4.855c2.019-2.951,4.074-5.889,6.148-8.806c0.309-0.436,0.766-0.918,1.249-1.055
			c2.404-0.676,3.631-2.755,5.352-4.252c1.628-1.42,2.947-3.317,5.322-3.708c0.309-0.045,0.639-0.345,0.831-0.619
			c1.573-2.191,3.643-1.77,5.692-1.049c2.186,0.766,2.177,0.841,3.53-1.122c0.62-0.892,14.357-1.272,15.047-2.354
			c1.501,0.193-10.74-1.653-9.675-2.74c1.019-1.039,2.096-2.027,3.059-3.108c0.599-0.676,1.137-1.437,1.517-2.247
			c0.726-1.533,1.898-2.497,3.242-3.496c1.492-1.1,2.658-2.683,3.804-4.18c1.055-1.359,2.121-2.709,1.543-4.753
			c-0.224-0.812,0.279-2.045,0.821-2.815c2.917-4.12,6.068-8.076,8.908-12.245c2.536-3.729,4.769-7.661,7.133-11.501
			c2.556-4.159,4.895-8.486,8.497-11.886c2.166-2.039,2.221-1.984,2.415-4.839c0.492,0.155,0.958,0.318,1.598,0.532
			c0.314-1.771-1.015-2.796-1.406-4.129c0.036-0.083,0.076-0.244,0.097-0.244c0.447,0.046,0.873,0.111,1.456,0.191
			c0.589-1.176,0.674-2.915,2.663-2.911c0.244,0,0.756-0.746,0.7-1.075c-0.244-1.573,0.928-2.035,1.969-2.713
			c0.609,0.293,1.269,0.613,2.1,1.013c0.629-1.253,1.218-2.444,1.745-3.5c1.969,0.371,3.855,0.837,5.768,1.011
			c0.726,0.061,1.477-0.736,2.257-0.854c1.533-0.228-0.061-1.634,1.035-2.079c2.485,2.364,5.287,3.292,8.087,1.07
			c2.597,0.898,4.92,1.739,7.274,2.496c2.901,0.928,5.808,1.825,8.735,2.643c1.055,0.294,2.172,0.421,3.262,0.426
			c3.11,0.016,6.021,0.508,8.568,2.531c0.721,0.585,1.775,0.757,2.688,1.122c1.168-1.217,2.177-2.455,3.887-1.289
			c0.162,0.106,0.522,0.01,0.741-0.091c1.064-0.522,2.109-1.075,3.084-1.584c1.947,0.295,1.82,2.289,2.981,3.536
			c0.422-0.734,0.712-1.267,1.025-1.785c0.239-0.386,0.502-0.767,0.782-1.132c0.734-0.958,2.08,0.843,2.896-0.725
			c0.35-0.669,1.648-0.847,2.51-1.248c1.893,2.44,4.672,2.166,6.981,3.044c0.345,0.137,0.872-0.121,1.277-0.284
			c0.508-0.202,0.954-0.573,1.473-0.721c1.607-0.451,3.216-0.847,4.484,0.812c0.314,0.411,0.901,0.604,1.521,0.994
			c0.361-0.314,0.751-0.649,1.35-1.172c0.416,0.508,0.862,1.011,1.927,0.817c3.161-0.573,6.409-1.197,9.588-1.06
			c4.039,0.178,8.062,0.471,12.114,0.471c2.354,0.012,4.729,0.629,7.052,1.157c1.948,0.441,3.587,1.44,4.414,3.439
			c1.628,3.916,3.246,7.837,4.94,11.729c2.947,6.771,5.945,13.52,10.262,19.575c3.162,4.435,6.479,8.761,9.44,13.322
			c2.658,4.093,4.981,8.41,7.326,12.696c1.057,1.933,1.815,4.033,2.638,6.088c0.745,1.853,1.868,3.131,4.001,3.333
			c0.809,0.076,1.6,0.456,2.396,0.676c0.441,0.115,1.03,0.405,1.319,0.228c2.682-1.577,5.189-0.157,7.716,0.41
			c1.521,0.351,2.973,0.99,4.454,1.502c0.608,0.213,1.258,0.359,1.815,0.675c2.78,1.598,5.589,3.165,8.287,4.89
			c1.149,0.73,2.137,1.746,3.065,2.755c2.881,3.125,6.088,6.036,8.436,9.527c3.247,4.798,6.038,9.941,8.604,15.152
			c1.114,2.257,1.395,4.94,2.907,7.112c0.188,0.283,0.35,0.766,0.242,1.056c-1.132,3.114,0.822,6.314-0.427,9.485
			c-1.181,2.983-1.978,6.124-2.947,9.198c-0.471,1.48-0.959,2.967-1.424,4.402c0.37,1.111,0.739,2.196,1.207,3.566
			c-1.942,0.583-3.571,1.07-5.652,1.694c-0.536,2.815-3.094,4.068-5.975,4.555c-2.76,0.472-5.667,1.335-8.319-1.024
			c-0.953,2.009-2.792,1.872-4.587,2.298c-0.214-0.741-0.425-1.495-0.69-2.399c-3.042,0.346-5.666-0.924-8.399-2.033
			c-2.171-0.884-4.596-1.224-6.94-1.609c-4.246-0.7-8.218-1.872-11.841-4.378c-2.713-1.882-5.813-3.181-8.662-4.859
			c-1.666-0.988-3.3-2.09-4.714-3.389c-0.797-0.73-1.141-1.974-1.781-3.149c-1.704,0.918-2.719,1.933-2.77,4.017
			c-0.061,2.09-0.953,3.982-2.394,5.662c-0.862,1.005-2.932,1.664-1.775,3.723c0.061,0.112-0.284,0.432-0.426,0.665
			c-0.66,1.039-1.31,2.086-2.253,3.591c-1.056,0.28-2.699,0.888-4.393,1.132c-1.553,0.218-3.166,0.046-4.688,0.046
			c-0.259,1.177-0.309,2.217-0.716,3.085c-0.852,1.836-2.298,2.257-3.769,0.897c-1.4-1.293-2.754-2.689-3.603-4.53
			c-0.4-0.868-1.525-1.404-2.606-2.334c1.39-1.217,2.749-2.415,4.26-3.729c-1.755-1.507-3.438-1.232-5.285-1.049
			c0.081,0.922,0.142,1.715,0.234,2.764h-4.526c-0.355,2.268,0.97,2.998,2.126,3.308c0.193,1.12,0.33,1.907,0.482,2.784
			c-2.43,1.279-1.792-2.667-3.704-2.323c-2.82,3.546-2.82,3.552-0.963,5.043c-2.467,1.685-4.86,3.288-8.026,2.506
			c-0.603-0.147-1.39-0.319-1.694-0.755c-0.841-1.223-1.39-2.705-3.326-2.203c-0.914-2.322-3.141-1.507-4.8-2.1
			c-1.512-0.547-2.906-1.592-4.119-2.684c-2.055-1.842-4.099-3.76-5.834-5.9c-1.725-2.13-3.185-4.498-4.545-6.889
			c-0.938-1.643-1.024-3.51-0.254-5.342c0.924-2.196,0.979-4.424,0.553-6.776c-0.299-1.68-0.056-3.455-0.056-5.494
			c-0.323-0.224-0.893-0.619-1.465-1.015c-0.238-1.162,0.729-3.647,1.779-3.744c2.019-0.198,2.942-1.81,3.582-3.049
			c2.566-4.945,6.625-8.604,10.236-12.651c0.919-1.025,2.049-1.913,2.06-3.475c0-0.177,0.042-0.441,0.157-0.512
			c2.896-1.832,3.76-5.905,7.635-6.769c0.935-0.207,1.628-1.511,2.425-2.313c-0.101-0.172-0.202-0.345-0.309-0.506
			c-0.615,0.056,7.496-0.802,6.772-0.736c-0.559-1.187-9.867-1.517-10.409-2.684c-4.049-1.176-5.084-4.869-6.911-7.924
			c-1.42,0.198-2.439-0.127-2.962-1.674c-0.305-0.897-1.115-1.618-1.872-2.663c0.727-0.123,1.249-0.218,1.842-0.319
			c-0.371-1.568-1.482-0.016-1.958-0.558c-0.183-0.168-0.365-0.259-0.446-0.412c-1.105-2.181-1.766-4.57-3.343-6.554
			c-0.767-0.964-1-2.349-1.527-3.516c-1.562-3.444-3.145-6.878-4.744-10.308c-0.188-0.421-0.349-0.994-0.689-1.172
			c-1.82-0.989-2.131-2.855-2.714-4.53c-2.043-5.823-4.028-11.668-6.088-17.653c-0.142,0.609-0.278,1.223-0.415,1.842
			C399.406,438.257,399.269,438.301,399.132,438.348"/>
		<path clip-path="url(#SVGID_2_)" fill="#a41c31" d="M126.907,450.427c0.117,0.061,0.24,0.115,0.361,0.176
			c0.579-0.618,1.142-1.237,1.715-1.851c-0.117-0.097-0.224-0.183-0.339-0.28C128.069,449.122,127.481,449.777,126.907,450.427
			 M152.125,418.929c1.481-1.157,0.74-1.994,0.294-3.074C151.009,416.838,151.465,417.727,152.125,418.929 M223.967,388.03
			c0.182,0.299,0.299,0.685,0.563,0.893c0.42,0.334,1.096,0.436,1.384,0.837c1.882,2.598,3.794,5.179,5.448,7.913
			c0.498,0.817,0.224,2.106,0.269,3.186c0.021,0.539-0.105,1.086-0.045,1.619c0.223,1.72,0.497,3.435,0.791,5.453
			c1.694-0.157,3.48-0.324,5.235-0.481c0.781,1.916,1.685,2.565,3.217,1.866c1.658-0.751,3.347-0.325,5.001-0.513
			c2.273-0.248,4.606,0.076,6.909,0.106c0.863,0.017,1.969,0.331,1.989-1.202c0.01-0.178,0.659-0.466,1.024-0.486
			c2.476-0.147,4.946-0.294,7.426-0.32c3.228-0.034,6.463,0,9.689,0.076c1.36,0.03,2.715,0.289,4.075,0.34
			c3.119,0.127,6.153-0.38,9.243-0.908c3.566-0.609,7.325-0.198,10.992-0.061c2.069,0.076,3.982,0.543,5.92-1.035
			c0.928-0.756,2.82-0.553,4.236-0.415c1.491,0.146,2.962,0.254,4.413,1.232c1.258,0.847,3.167,0.746,4.784,1.045
			c1.618,0.299,3.226,0.659,4.854,0.811c0.863,0.087,1.842-0.055,2.628-0.399c3.546-1.547,5.895-0.046,7.02,3.632
			c-0.597,0.588-1.237,1.365-2.018,1.952c-2.913,2.192-2.933,2.167-2.029,5.789c-1.634,0.533-1.862,1.862-1.319,3.765
			c-1.045,0-1.801,0.004-2.558,0c-1.997-0.006-3.606,0.42-5.011,2.205c-1.386,1.767-3.312,3.201-5.235,4.424
			c-2.162,1.37-2.42,3.272-2.303,5.459c0.01,0.273,0.204,0.568,0.147,0.812c-0.213,0.938-0.238,2.09-0.807,2.743
			c-0.811,0.929-1.862,0.234-2.739-0.335c-0.152-0.097-0.335-0.146-0.614-0.264c-0.248,0.137-0.633,0.248-0.863,0.502
			c-3.434,3.831-7.513,6.966-10.607,11.227c-3.288,4.526-7.528,8.365-11.46,12.394c-0.705,0.73-1.902,1.162-2.937,1.334
			c-1.715,0.29-2.901,1.081-3.693,2.577c-0.212,0.406-0.567,0.745-0.751,1.166c-2.069,4.77-6.148,5.606-10.713,5.546
			c-2.673-0.03-5.342-0.006-8.249-0.006c-0.269,1.486-1.308,2.247-2.972,2.273c-1.745,0.024-3.5,0.127-5.235,0.304
			c-1.329,0.132-2.644,0.431-4.363,0.73c0.466,0.705,0.69,0.954,0.811,1.247c0.421,1.005,0.508,2.056-0.462,2.739
			c-0.888,0.625-1.694,0.138-2.501-0.466c-0.618-0.466-1.43-0.706-2.181-0.979c-1.196-0.427-2.15-0.99-1.983-2.685
			c1.587-0.075,3.185,1.473,4.966-0.446c-2.612-0.177-4.936-0.583-7.214-0.421c-2.531,0.178-5.033,0.233-7.396-0.604
			c-2.192-0.771-4.201-0.559-6.118,0.492c-3.328,1.831-6.802,2.806-10.619,2.425c-1.328-0.132-2.125,0.472-2.104,2.328
			c-1.075-1.142-1.832-2.11-3.155-1.694c-2.628,0.812-14.915-6.579-16.862-4.454c-0.903,0.99,8.437,10.253,9.161,11.496
			c0.234,0.396,1.015-6.123,1.168-5.687c1.785,5.067,1.15,12.022-1.178,16.842c-0.436,0.902-0.872,1.86-1.005,2.84
			c-0.807,5.788-4.585,8.979-9.729,10.577c-3.49,1.085-7.244,2.069-10.835,1.938c-5.632-0.214-11.101,1.151-16.721,0.912
			c-3.946-0.172-7.72-0.527-11.272-2.292c-4.291-2.142-8.501-4.45-12.858-6.438c-4.206-1.918-7.347-4.881-9.705-8.761
			c-1.42-2.334-3.175-4.186-5.692-5.444c-4.555-2.271-6.254-6.843-8.279-11.073c-0.202-0.438-0.151-1.131,0.03-1.599
			c1.38-3.47,0.609-7.035,0.609-10.571c0-0.7-0.111-1.527,0.204-2.086c1.223-2.166,2.461-4.347,3.946-6.33
			c2.821-3.78,6.332-6.939,10.197-9.567c2.683-1.821,5.433-3.557,8.071-5.453c1.085-0.771,1.983-1.861,3.139-2.491
			c1.41-0.771,2.993-1.212,4.516-1.77c0.69-0.254,1.4-0.451,2.125-0.686c0.204-1.694,7.27,0.694,7.559-0.913
			c0.472-2.638-5.808-9.218-3.946-11.344c0.487-0.553,0.436-1.77,0.309-2.622c-0.224-1.395-0.821-1.628-2.505-1.359
			c0.238-2.12,0.472-4.255,0.74-6.671c2.754-0.156,4.246-2.861,6.447-4.489c1.735-1.289,1.491-3.449,1.192-5.367
			c-0.061-0.4-0.862-0.68-1.33-1.02c0.107-1.765,2.532-3.068,1-5.438c-0.97,1.111-1.832,2.084-2.685,3.061
			c-0.513,0.583-0.513,0.587-1.648-0.244c0.776-0.827,1.553-1.658,2.328-2.487c-1.237-1.327-2.268-0.028-3.373,0.093
			c-1.719-1.751,1.943-2.664,0.077-4.495c1.957,0.021,3.064-0.487,3.383-2.142c0.097-0.496,0.888-1.217,1.366-1.221
			c2.018-0.012,3.246-1.594,4.9-2.294c1.187-0.498,2.09-1.694,3.084-2.612c0.496-0.466,0.872-1.081,1.39-1.522
			c1.035-0.878,2.023-1.887,3.216-2.47c1.624-0.797,2.653-2.815,5.013-2.272c0.638,0.152,1.987-0.102,2.185-1.594
			c0.147-1.152,1.299-1.38,2.36-1.501c2.009-0.229,4.002-0.528,6.229-0.821c-0.416-0.513-0.65-0.807-1-1.249
			c2.156-0.613,4.298-0.856,6.185,0.157c1.832,0.969,3.673,0.59,5.6,0.995c0.137-1.624-1.354-1.77-1.876-2.633
			c2.247-1.232,2.455-1.329,4.028,0.589c1.085,1.319,2.516,1.308,3.865,1.719c0.913,0.279,0.567-1.309,1.866-1.049
			c1.725,0.344,3.329,1.715,5.307,0.952c0.156-0.066,0.791,0.873,1.054,1.412c0.123,0.252-0.101,0.674-0.151,0.962
			c0.583,0.152,1.801,0.492,3.175,0.874c0.7,0.526,1.613,1.187,2.487,1.906c0.329,0.274,0.577,0.659,0.801,1.024
			c1.497,2.467,2.07,2.562,4.575,0.965c0.619-0.401,1.416-0.543,2.715-1.009c-1.294,2.084-2.886,2.485-5.039,2.961
			c1.208,1.198,2.029,2.076,2.933,2.872c0.172,0.152,0.847,0.069,0.934-0.092c0.359-0.685,0.755-1.501,1.588-1.152
			c0.563,0.24,0.872,1.071,1.323,1.62c0.101,0.131,0.315,0.176,0.472,0.269c-0.371,0.07-1.061,0.151-1.061,0.218
			c0.01,0.913,0.072,1.825,0.198,2.729c0.193,1.374,0.869,2.16,2.481,1.836C226.082,390.83,225.285,389.349,223.967,388.03"/>
		<path clip-path="url(#SVGID_2_)" fill="#a41c31" d="M655.155,462.438c0.236-0.091,0.517-0.151,0.511-0.208
			c-0.006-0.232-0.087-0.466-0.142-0.694c-0.159,0.062-0.428,0.102-0.436,0.183C655.048,461.941,655.117,462.18,655.155,462.438
			 M576.763,482.669c-0.153,0.03-0.303,0.061-0.456,0.086c0.115,0.452,0.233,0.898,0.35,1.344c0.098-0.014,0.193-0.034,0.288-0.055
			C576.884,483.587,576.823,483.125,576.763,482.669 M533.767,417.681c0.323-0.218,0.71-0.375,0.692-0.482
			c-0.049-0.305-0.248-0.583-0.39-0.883c-0.28,0.152-0.557,0.3-0.843,0.447C533.392,417.041,533.553,417.319,533.767,417.681
			 M647.763,446.717c-0.133,0.072-0.274,0.144-0.407,0.218c0.28,0.615,0.568,1.223,0.843,1.842c0.366-0.462,0.32-0.766,0.193-1.039
			C648.219,447.383,647.976,447.052,647.763,446.717 M571.922,475.08c-0.023,0.237-0.04,0.472-0.055,0.71
			c0.554,0.284,1.097,0.639,1.686,0.832c0.846,0.273,1.562-0.193,1.51-0.979c-0.034-0.432-0.86-1.045-1.414-1.142
			C573.126,474.405,572.496,474.867,571.922,475.08 M650.868,454.961c1.643,0.426,2.601,1.663,3.443,2.998
			c1.152,1.821,2.5,3.506,2.512,5.925c0.009,0.938,1.268,1.868,2.139,3.054c0.407-0.831,0.621-1.278,0.884-1.815
			c0.202,0.212,0.508,0.38,0.514,0.563c0.044,1.085,0.021,2.17,0.021,3.586c0.562-0.341,0.877-0.625,1.241-0.71
			c0.286-0.076,0.756-0.006,0.909,0.182c0.156,0.198,0.136,0.706-0.012,0.938c-1.045,1.634-1.111,1.69,0.401,2.77
			c1.111,0.797,1.634,1.527,1.024,2.983c-0.852,2.06-0.375,4.17,0.31,6.226c0.496,1.501,1.019,3.021-0.237,4.585
			c-0.468-0.081-1.169-0.436-1.564-0.224c-0.456,0.244-0.67,0.979-0.946,1.517c-0.205,0.396-0.266,0.888-0.534,1.223
			c-1.805,2.294-1.481,5.083-1.871,7.727c-1.045,0.426-2.107,0.856-3.241,1.318c-2.999-1.562-4.399-0.998-5.854,2.188
			c-0.335,0.724-1.166,1.517-1.908,1.704c-2.941,0.74-5.216,2.633-7.73,4.119c-1.004,0.593-2.061,1.354-3.166,1.517
			c-4.454,0.639-8.917,1.415-13.452,0.497c-2.182-0.441-2.679-0.077-3.796,1.815c-1.073,1.821-2.199,3.607-3.51,5.297
			c-0.363-2.547,2.437-3.606,2.739-5.95c-0.072-0.111-0.188-0.513-0.36-0.539c-4.033-0.553-7.857-2.8-12.133-1.41
			c-0.595,0.193-1.473-0.055-2.066-0.379c-2.14-1.178-4.371-1.253-6.715-0.944c-1.278,0.168-2.589,0.182-3.877,0.117
			c-1.937-0.107-2.517-0.716-2.788-2.653c-0.185-1.299-0.649-2.339-1.6-3.374c-1.212-1.313-1.81-3.176-2.979-4.529
			c-1.374-1.588-2.941-3.217-5.354-2.227c-0.234-0.229-0.479-0.352-0.479-0.473c-0.04-2.679-1.743-4.454-3.545-5.971
			c-2.358-1.983-2.987-4.464-2.887-7.635c-0.952,0.173-1.786,0.4-2.638,0.481c-0.872,0.081-2.091,0.422-2.566-0.01
			c-2.48-2.231-5.438-1.323-8.207-1.542c-1.544-0.122-3.095-0.122-4.639-0.163c-0.918-0.024-1.877-0.202-2.748-0.014
			c-3.851,0.826-7.742,0.72-11.633,0.699c-2.867-0.01-5.716-0.103-8.467-0.968c-1.207-0.387-2.347-0.965-3.56-1.325
			c-3.622-1.08-7.366-0.532-11.231-0.812c0.075-0.391,0.15-0.791,0.294-1.522c-3.542,0.538-6.939,0.093-10.34-0.933
			c-0.363,0.48-0.678,0.893-1.146,1.497c-2.27-1.151-4.662-2.152-6.787-3.542c-1.299-0.848-2.456-1.537-4.038-1.44
			c-1.948,0.127-3.551-0.674-5.109-2.222c0.555-0.243,0.93-0.406,1.435-0.629c-0.605-0.816-1.212-1.624-1.957-2.622
			c1.607-0.6,3.49,0.796,4.212-1.554c-0.26-0.329-0.561-0.918-1.036-1.267c-4.483-3.282-6.799-8.225-9.633-12.729
			c-0.823-1.304-1.516-2.358-3.008-2.994c-1.092-0.46-1.917-1.537-2.962-2.425c0.94-1.41,1.677-2.516,2.465-3.707
			c-0.71-2.029-2.831-2.258-4.394-2.826c-2.231-0.806-4.23-1.816-5.834-3.505c-2.12-2.243-4.246-4.479-6.143-6.898
			c-1.629-2.086-1.416-3.191,0.106-5.368c0.619-0.888,1.035-1.918,1.562-2.871c0.498-0.897,0.994-1.664,2.293-1.634
			c0.533,0.015,1.106-0.801,1.629-1.282c0.716-0.666,1.339-1.431,2.096-2.035c0.801-0.64,1.501-0.426,2.469,0.103
			c1.892,1.045,3.981,1.725,6.037,2.444c0.329,0.107,0.909-0.604,1.29-0.528c0.459,0.097,0.835,0.619,1.213,0.924
			c1.651-0.797,3.178-1.532,4.062-1.958c1.03-2.191,1.894-3.774,2.517-5.449c0.329-0.892,0.254-1.937,0.301-2.342
			c1.067-1.62,1.885-2.847,2.763-4.172c0.895,0.722,1.853,1.416,2.713,2.223c0.447,0.412,1.045,1.062,0.99,1.548
			c-0.127,1.208,0.375,1.806,1.253,2.516c0.54,0.436,0.629,1.43,0.964,2.268c3.207,0.508,6.469,1.024,9.907,1.567
			c-0.188,0.264-0.329,0.478-0.725,1.045c5.732,0.782,11.327,1.359,16.8,2.467c5.692,1.155,11.272-0.772,17.066,0.334
			c0.071-0.726,0.133-1.299,0.228-2.293c1.123,0.259,2.188,0.507,3.476,0.807c0.092-0.351,0.214-0.822,0.369-1.41
			c1.092-0.354,2.067-0.391,3.161,0.547c1.888,1.604,2.506,1.473,4.78-0.258c-1.198-1.846-1.319-2.724-0.447-3.176
			c1.157-0.604,2.286-0.01,3.022,1.477c5.464,0.604,10.848,1.187,16.387,1.796c0.13-0.857,0.358-1.838,0.419-2.832
			c0.167-2.764,1.519-4.98,3.44-6.752c1.268-1.17,1.983-2.308,1.883-4.037c-0.041-0.595,0.303-1.208,0.517-1.958
			c1.513-0.192,2.953-0.365,4.18-0.522c0.629-1.196,0.976-2.395,1.755-3.171c0.701-0.705,1.862-0.948,3.025-1.487
			c-0.52-0.729-0.817-1.155-1.045-1.48c0.462-0.736,1.111-1.405,1.333-2.196c0.99-3.424,3.438-5.858,5.589-8.493
			c1.284-1.567,3.095-2.378,5.063-2.601c3.663-0.422,7.366-1.097,11.016-0.909c5.051,0.26,10.103,0.964,14.973,2.558
			c1.573,0.512,3.213,0.852,4.841,1.192c1.259,0.263,2.159-0.198,2.413-1.346c0.112-1.755-2.24-2.439-1.449-4.434
			c1.885,0.294,3.337,1.011,4.067,3.025c2.518-0.615,3.591,1.024,4.361,3.282c1.848-1.198,3.32-0.377,4.68,0.729
			c1.215,0.993,2.304,2.079,3.98,2.369c0.661,0.106,1.232,0.78,1.821,1.223c1.686,1.263,3.409,2.495,5.023,3.851
			c0.756,0.638,1.492,1.444,1.896,2.332c1.861,4.013,3.876,7.996,3.799,12.592c-0.015,0.821,0.193,1.806-0.177,2.435
			c-1.411,2.419-0.142,4.763,0.887,6.433c1.256,2.034,1.051,4.134,1.631,6.153c0.664,2.328,0.396,4.91,1.896,7.046
			c0.173,0.244,0.202,0.837,0.028,1.031c-2.692,3.052-4.119,7.04-7.069,9.834c-1.847,1.767-3.796,3.724-6.749,3.562
			c-1.091,1.567-13.578,5.23-14.577,7.147c3.098,3.926,16.394,2.461,18.079,7.746c-2.518-0.797-2.933-2.952-4.231-4.586
			c-0.569-0.071-1.36-0.163-2.131-0.26c-0.069,0.28-0.214,0.528-0.147,0.615c0.959,1.223,1.011,3.201,2.979,3.587
			c-0.127,0.349-0.254,0.704-0.381,1.059c0.167,0.011-3.216-8.172-3.043-8.161C647.488,447.499,650.958,455.326,650.868,454.961"/>
		<path clip-path="url(#SVGID_2_)" fill="#a41c31" d="M546.164,412.323c-1.913,0.116-3.824,0.239-5.732,0.354
			c-0.052-0.121-0.099-0.248-0.142-0.365c0.477-0.335,0.938-0.907,1.44-0.942c1.476-0.082,2.971,0.051,4.469,0.096
			C546.185,411.75,546.173,412.034,546.164,412.323"/>
		<path clip-path="url(#SVGID_2_)" fill="#a41c31" d="M148.025,411.314c-1.531-2.207-1.531-2.207,0.579-3.312
			C148.401,409.153,148.249,410.035,148.025,411.314"/>
		<path clip-path="url(#SVGID_2_)" fill="#a41c31" d="M536.708,411.029c1.931-0.943,2.196,0.071,2.404,1.396
			C537.397,413.089,537.773,411.237,536.708,411.029"/>
		<path clip-path="url(#SVGID_2_)" fill="#a41c31" d="M560.621,113.609v-2.892C562.589,111.722,561.089,112.695,560.621,113.609"/>
		<path clip-path="url(#SVGID_2_)" fill="#a41c31" d="M294.164,76.379c-0.852,0.325-1.705,0.654-2.871,1.1
			C292.241,75.938,292.241,75.938,294.164,76.379"/>
		<path clip-path="url(#SVGID_2_)" fill="#a41c31" d="M380.88,459.912c1.055-0.832,1.674-1.313,2.404-1.887
			C383.351,459.871,383.351,459.871,380.88,459.912"/>
		<path clip-path="url(#SVGID_2_)" fill="#a41c31" d="M148.31,407.235c-0.34-0.295-0.71-0.543-0.68-0.588
			c0.147-0.29,0.355-0.559,0.609-0.752c0.07-0.04,0.542,0.271,0.527,0.351C148.705,406.551,148.513,406.83,148.31,407.235"/>
		<path clip-path="url(#SVGID_2_)" fill="#a41c31" d="M398.351,389.652c-0.437-0.345-0.873-0.68-1.314-1.024
			c0.106-0.142,0.22-0.289,0.33-0.436c0.446,0.329,0.894,0.649,1.35,0.974C398.595,389.334,398.473,389.491,398.351,389.652"/>
		<path clip-path="url(#SVGID_2_)" fill="#a41c31" d="M149.334,403.283v1.232c-0.173,0.021-0.345,0.03-0.517,0.047
			c-0.042-0.432-0.083-0.863-0.127-1.3C148.903,403.273,149.121,403.277,149.334,403.283"/>
		<path clip-path="url(#SVGID_2_)" fill="#a41c31" d="M148.179,412.131v1.217c-0.167-0.01-0.472-0.01-0.472-0.03
			c-0.036-0.396-0.026-0.791-0.026-1.187C147.854,412.131,148.011,412.131,148.179,412.131"/>
		<path clip-path="url(#SVGID_2_)" fill="#a41c31" d="M580.7,392.854c0.658-0.214,0.993-0.442,1.187-0.355
			c0.254,0.106,0.396,0.466,0.589,0.72c-0.226,0.117-0.468,0.355-0.67,0.319C581.531,393.487,581.292,393.239,580.7,392.854"/>
		<path clip-path="url(#SVGID_2_)" fill="#a41c31" d="M296.95,164.236c1.379-1.055,2.531-1.928,3.597-2.745
			C298.993,164.053,298.993,164.053,296.95,164.236"/>
		<path clip-path="url(#SVGID_2_)" fill="#a41c31" d="M382.016,225.176c0.351-0.152,0.7-0.313,1.065-0.432
			c0.062-0.021,0.177,0.123,0.274,0.199c-0.329,0.263-0.65,0.526-0.975,0.785C382.26,225.546,382.139,225.363,382.016,225.176"/>
		<path clip-path="url(#SVGID_2_)" fill="#a41c31" d="M397.438,196.789c-0.076,0.431-0.151,0.862-0.335,1.938
			c-0.452-1.142-0.68-1.715-0.912-2.292c0.105-0.082,0.212-0.167,0.323-0.249c0.325,0.223,0.655,0.452,0.984,0.68
			C397.498,196.869,397.438,196.789,397.438,196.789"/>
		<path clip-path="url(#SVGID_2_)" fill="#a41c31" d="M295.94,350.485c-1.4,2.262-1.694,2.4-4.119,1.918
			c0.878-0.918,1.643-1.726,2.476-2.592C294.864,350.044,295.382,350.258,295.94,350.485"/>
	</g>
</g>
</svg>
