<svg xmlns="http://www.w3.org/2000/svg" height="150" width="600" viewBox="0 0 600 150">
  <g clip-rule="evenodd" fill="#a41c31" fill-rule="evenodd" stroke-width=".9">
    <path d="M168.6 10.2c.45.04.54.88.14 1.06-.5.1-.24-.94-.13-1.07zm235.08 5.5c.08-.35-.17-1 .13-1.1 1.24.07 2.75-.14 3.76.14.48.86.48 2.2 1.74 2.27.32-.84.05-2.27.14-3.33 1.96.15 4.24.78 6.02.25.73-.22 1.07-.74 1.74-.67 1.12.8.93 2.9 1.47 4.3 1.2-.32 1.5-1.57 2.15-2.42 2.73 1.38 1.3 6.92 3.6 8.7 1.07-.22 3.62-2.06 4.16-.4.28.9-1.14 2.35-1.87 3.36-.85 1.15-1.72 2.18-1.33 3.47 1.22.8 2.67.44 3.75 1.07 1.13.67 1.78 2.45 2.4 3.75.72 1.5 1.57 3.17 1.08 4.78h-1.74c0 1.4.83 2.16 1.47 3.1.56.8 1.58 1.8 1.74 2.94.24 1.82-1.7 3.48-1.88 5.5-.1 1.1.62 2.88.53 4.42-.07 1.06-.56 2.07-.4 2.93.2 1.16 1.78 2.3.4 3.75-1.18-.5-2.43-1.73-4.15-1.34-1.34.3-1.97 1.65-1.47 3.2 1.75.63 5.6-.67 6.03.94.22.85-1 2.34-1.87 3.1-1 .84-3.06 1.73-3.08 2.93-.05 1.7 3.52 2.53 5.5 2.83-.3 3.12-3.8 3-4.7 5.5.9 1.18 2.8 1.37 4.15 2.13v4.3c-1.06.5-2.4.2-2.8 1.22-.34.72.15 1.6.4 2.53-.82.9-1.64 1.76-2.7 2.4-.77-.15-1-.84-1.73-1.06-.78.2-1.2.75-1.47 1.46.16 1 1.56.74 2 1.45-.2 1.35-.6 2.52-1.73 2.7-1.3.2-3.28-1.35-3.35-2.02-.1-.87 1.4-2.06 2-2.8 2.1-2.55 4.6-5.7 5.9-8.3-.9-.5-2.97-1.17-4.28-.8-1 .28-1.2 1.28-1.48 2.14.52.67 1.8.6 2.4 1.2-.55 1.5-1.9 2.53-2.8 3.75-2.28 3.02-4.3 6.42-6.83 9.37-.5.56-1.2 1-1.6 1.6-1 1.45-1.46 3.3-2.82 4.55-1.26.17-2.57.3-3.22 1.07.12 1.27 1.57.9 1.75 1.88.16 1.1-1.38 2.03-2.82 2.14-1.33.1-2.83-.32-3.74.26-.16 1.73.96 2.17 1.47 3.23-.77 1-2.98 1.67-4.43.77-.22-2.04.5-3.8.4-5.6-.05-1.07-.44-2.1-.4-3.1.03-.6.45-1.24.4-1.85-.06-.75-1-1.4-1.07-2.14-.07-.67.56-1.23.67-2 .17-1.22-.07-2.13-.53-3.2-.83 0-2.07.2-2.95.12-2.2-.22-3.52-1.56-4.56-2.8-1.32.5-2.2 1.44-3.2 2.27-3.16.2-7.15-.45-9.65.4-.3 1.45.8 2.98.92 4.68.2 2.6-.85 5.5-2 6.96-.6-.08-1.04-.3-1.48-.52-.86.3-1.5.82-1.87 1.6.78 1.7 3.94 1.86 2.68 4.8.95.16 2.16 1.13 3.2 1.35 1.5.3 3.13-.22 4.95 0 .75.9.87 2.26 2 2.55 2.22.55 4.47-1.66 6.44-1.88 1.3-.15 2.6 0 3.73.54.82.36 2.08 1.96 3.35 1.87.7-.03 2.07-1.27 2.57-1.85.9-1.12 1.44-2.43 2.52-3.35.97-.82 2-1.45 2.94-2.27 2.62-2.35 5-5.34 7.1-8.32 1.24.13 2.98-.28 3.76.28-.16.9-.85.84-.94 1.87-.08.87.85 1.7.67 2.54-.27 1.22-2.2.96-3.5 1.2-1.35.24-2.36.73-3.2 1.2.33 1.23 2 1.1 2.78 1.9-.06 3.06-5.66.63-6.8 2.67.18 1.2 1.7 1.04 2.26 1.87.03.82-.45 1.16-.27 2.14.97.26 1.52-.3 2.14-.82.5-.42.98-.87 1.45-1.34.9-.87 2-2.45 2.97-2.67 1.5-.34 3.22.86 4.67 1.34v2.93c1.04-.27 1.84-.93 2.53-1.86.56-.73 1.56-2.27 1.34-3.08-.44-1.87-5-.3-7.1-.8 1.07-2.02 3.24-4.92 4.8-7.1.56-.8 1.07-1.82 1.62-2.3.82-.7 3.06-1.07 3.08-2.27.06-1.45-2.4-1.42-2.53-2.8.86-3.36 2.68-5.74 4.97-7.63 1.17.7 2.07 1.38 1.88 2.67-.23 1.38-2.53 1.66-2.4 2.95.04.75.83 1.06 2 1.2-.2 3.06-.62 5.12-2.68 6.28-.28.17-.72.12-1.07.28-.75.34-1.76.9-2.55 1.48 1.32 1.2 4.24.55 5.5 1.74.37.36.88 1.22.8 2-.06.47-.62.85-.94 1.48-.68 1.27-1.48 4.96-.93 6.82.22.82.73.93 1.34 1.74-.4.63-.5 1.2-.4 1.88.12.67.8.9.94 1.62.23.92 0 1.5-.53 2.4-1.42.4-2.78-.28-3.47-1.05.14-1.07 1-1.42.8-2.82-1.02-.15-1.45.7-2.54.8-2.47.24-5.92-2.8-6.57.53.98 1.07 3.87-.15 4.95.55.1.84-.4 1.05-.4 1.75 1.12 1.84 3.9 1.98 6.3 2.54.33 1.38 1.1 2.68.8 4.3-2.93.37-6.2 2.2-8.17 4.4-.88.98-2.27 2.23-.93 3.48 3.9-.12 4.72-4.02 8.44-3.9.5.27-.25.8-.4 1.35-.1.47.04 1.15-.13 1.6-.45 1.17-2.16 1.7-2.54 2.67 1.7 2.8-1.48 3.86-3.9 4.15-1.68 1.73-3.9 2.95-6.14 4.14-1.8-1.04-3.9-3.98-6.44-2.54-.03.45-.22.76-.13 1.34-.1.52.78.4.4.78-2 .3-4.27.3-6.43.4-.62-.32-1.05-1.28-2-1.6-.86-.27-2.3-.25-3.08.14-.7.34-.65.87-1.2 1.34-4.08 1-8.26-1.62-11.4.13-.6-.1-1.1-.3-1.73-.4.06-.78.85-1.05.8-2-.06-.94-1.37-2.13-2.15-2.13-1.08-.04-1.56 1-2.14 1.87.3 1.05 1.02 1.67 1.22 2.8-2-.07-3.94-1.22-5.76-.27-.33-.95-.78-2.4-.54-3.48 2.4-.67 6.9-.98 5.1-4.55.9-.16 3.23-1.98 3.2-2.95-.02-.96-1.1-1.5-1.74-1.6-1.26-.2-1.9.72-2.67.8-1.3.15-4.34-1.14-5.48-1.6-1.6-.68-3.32-1.52-4.55-2.42-1.38-1-2.6-2.2-4.02-3.1-.7-.43-1.45-.86-2.28-1.2-.66-.27-1.78-1-2.54-.13 0 .56.72.83 1.07 1.07 2.18 1.46 4.7 3 7.1 4.55.92.6 1.73 1.38 2.67 1.86 2.2 1.1 4.87 1.34 6.7 3.08-.4 1.78-6.1 3.08-3.48 5.35-1.1.08-2.02.33-2.42 1.08.62 1.07 1.62 1.76 2 3.07-.98.5-2.1.27-3.07.27-3.08 0-6.4.34-9.77 0-.42-.04-.97-.1-1.47-.27-1.53-.44-3.4-1.3-5.1-2.14-5.23-2.55-9.5-6.9-9.9-14.3-.33-6.25 0-13.68 0-21.15v-10.57c0-7.43-.1-14.23.54-21.15.37-4 1-6.58 3.08-9.1 1.85-2.2 5.1-4.35 8.17-5.88 1.16-.58 2.4-1.34 3.2-1.47 1.9-.34 4.14 0 6.17 0h18.47c.93.83 1.14 2.4 2.94 2.28 1.38-.08 1.62-1.4 2.54-2.27 3.8-.38 6.65.85 9.64.8.28-.04.27-.35.54-.4.13-1.65-.56-2.45-1.6-2.94-1.24.03-1.74 1.47-2.55 1.47-.6-1.8-.1-4.7-.26-6.96 1.62.28 3.64 1.02 4.55-.4.14-2.17-2.6-3-4.16-1.87-.06-2.7-1.45-4.63-4.42-4.4-.56.04-1.18.5-1.87.54-.94.04-1.95-.6-2.8-.55-.6.03-1.13.52-1.62.54-.53 0-.9-.44-1.47-.55-2.77-.5-6.25.38-8.97 0-.8-.46-.74-1.5-1.62-1.6-.98-.12-1.3.92-2 1.6h-6.7c.63-1.8-1.23-2.12-2.14-2.8-.6-2.08.9-3.5.94-5.24.02-1.04-.75-1.93-.94-3.06-.45-2.68.33-5.72 0-8.97.67-.34 2.23.2 2.54-.53-.25-.86-1.4-.82-2.27-1.07-.35-.8-.6-1.72-.53-2.94.45-.73.9.75 1.6.66.96-3.55-1.24-8.67 1.2-10.7 1.02-.85 2.84-.9 4.97-.82 1.94.12 4.1.15 5.48.67.62.12.34 1.13.94 1.24 1.07-.33 1.42-1.36 2.28-1.9 3.1.28 6.36.75 9.64.67 2.34-.02 4.54-.94 6.56-.9 2.5.02 3.8 1.4 5.62 2.8zm-27.98-1.1v-.93c-.78-.02-.78.93 0 .92zm30.66 3.35c.47.17 1.16.78 1.74.4-.56-.4-.9-1-1.6-1.22 0 .33-.23.4-.14.8zm-4.7 1.47c.18.2.82.23.82-.13-.17-.2-.8-.23-.8.12zm6.97 1.88h.67c-.08-.37.17-1.06-.13-1.2-.2.38-.7.44-.54 1.2zm6.83.13c-2-.18-2.83 2.2-4.28 3.62-1.27 1.22-2.85 1.52-3.08 2.93.8.97 2.34 1.23 4 1.34 1.9-1.16.94-4.3 3.23-5.1.53-.17 1.65.12 2.14-.52.14-1.14-.97-2.2-2-2.3zm-12.58.94c-1.12 1.2-2.28 2.36-3.48 3.46-1.07 1-2.64 1.87-2.8 3.62.86 1.14 3.1.9 4.94 1.07-.18-1.1-1.15-2.52-.4-3.73 1.9-.53 4.87.04 5.9-1.35-.57-1.85-1.75-3.08-4.16-3.08zm16.46 1.2c.07-.2.2-.34.27-.54-.16-.03-.18-.18-.4-.15-.04.3-.27.58.14.67zM390.3 25.3c.66.98 3.76 1.62 4.8.54-.72-1.84-4.16-3.46-4.8-.53zm29.85-.67c-.45.34-.9.7-1.07 1.34.93 1.2 2.18 2.1 4.15 2.28 2.06-2-1.6-3.05-3.08-3.62zm-40.7 1.88c.45.2.5.77 1.07.82.4-.63 1.17-.9 1.2-1.87-.78-1.25-1.9.3-2.27 1.07zm6.16 3.9c.57.63 2.77.57 3.35 0 .16-2.46-3.63-2.55-3.34 0zm30-1.07c-.75 1.26-2.37 1.65-2.68 3.35 2.12-.03 4.26-.03 5.5-.94-.37-1.4-1.43-2.08-2.83-2.42zm-41.37 2.28c1.42-.1 1.97-1.05 2.54-2-1.2-.3-2.53 1.1-2.54 2zm28.25.8c.08 1.63 5.24 2 5.22 0 0-1.37-2.12-1.7-3.22-1.47-.9.17-2.05.55-2 1.47zm-10.85 1.2c.3 1.45 4.27 2.35 4.3.27 0-1.1-2.54-2.3-3.36-2-.78.27-1.12.9-.94 1.74zm32.4 1.6c-.2-1.75-2.28-1.63-4.15-1.72-.28 2.08 2.8 3 4.15 1.74zm-43.24-.77c.03.17.18.24.12.52.96.23 2.32.43 3.22 0 .33-1.97-2.88-1.47-3.35-.53zm28.1 1.73c.64 1.27 3.53 1.62 4.82.67-.03-2.73-4.32-3.42-4.82-.67zm-11.38.67c-.22 1.98 3.3 1.34 2.95-.4-.08-.42-.26-.63-.94-.67-.84-.08-1.93.4-2 1.06zm-11.24 1.6c.82.56 2.63.1 3.88.26.33-2.82-3.86-2.62-3.88-.28zm43.5-.28c-.1-1.14-2.5-1.54-3.48-.66-.1.5-.22 1.12 0 1.6 1.23.77 3.62.38 3.48-.96zm-14.6 2.15c.77.7 2.76.4 3.63 0 1.12-2.7-4.34-3.05-3.6 0zm-39.48-.67c.53.1.94-.56.67-.8-.13.35-.52.44-.67.8zm27.58 1.6c.75.87 4 1.3 4.95.28.1-3-4.76-3.06-4.95-.26zm-11.1.15c.43 1.5 2.9 2.34 4.4 1.2.23-2.17-3.42-2.56-4.4-1.2zm-21.03 1.47c.7.3 1.56-.27 1.6-1.07-.7-.6-1.5.25-1.6 1.06zm54.08.13c.1-.47-.78-1.2-1.2-1.33-1.4-.45-3.88.44-2.8 2.27 1.1-.04 3.8.17 4-.92zm-43.5.4c.05-.25.3-.33.26-.66-.17 0-.2-.17-.4-.14.07.25-.16.8.13.82zm27.84 1.2c1.14 1.18 3.3-.17 2.4-1.85-1.22-.34-2.56.37-2.4 1.87zm-11.24-.38c-.3.7-.07 1.67.26 2.14 1.2.2 3.05.32 3.74-.4.48-2.56-2.68-2.82-4-1.73zm14.6 1.47c.83-.1 1.3-.55 1.6-1.2-.75-.9-1.87-.1-1.6 1.2zm-43.65-1.2c.33.26.73.3.93-.15-.32-.1-.75-.22-.92.14zm57.83 2.8c2.16.2 4.87-.12 5.1-2.28-2.4-.07-6.3-.38-5.1 2.27zm-40.02-.4c1.08 1.1 3.27.3 4.02-.54-.67-1-4.3-2.03-4.02.54zm28.38 1.34c.5.88 3.57 1.3 4.28.27.4-2.28-4.28-3.34-4.28-.28zm-9.37-.8c-.87.06-2.24.83-1.88 2 .37 1.24 4.12.7 5.22.28-.34-1.08-1.72-2.38-3.35-2.28zm20.6 4.96c0-.9-1.67-1.96-2.4-2.15-2.26-.57-4.1 1.4-4.42 3.36-1.97.8-4.4 1.15-4.42 3.88.96 1.36 3.62 1.37 4.95 2.28.54.36.66 1.02 1.22 1.2 1.34.43 2.6-.25 4-.26 0-2.72-2.15-3.27-2.4-5.75.7-1.25 3.46-.92 3.5-2.53zm-16.86 1.33c1.23.6 4.2 1.15 5.22 0 .28-3.74-5.3-3.07-5.22 0zm20.88 1.47c.14-1.9-3.68-2.6-4-.15.54 1.16 3.9 1.9 4 .14zM409.7 57.3c-.13-.84-1.64-1.53-2.8-1.46-1.46.05-2.68 1.1-3.22 1.86.6 2.5 6.47 2.38 6.02-.4zm4.96 2.27c-1.74-1.1-3.8.78-4.3 2.4.68 1.74 3.9 1.06 4.97.16.4-1.2-.07-2.17-.67-2.55zm1.47 5.76c.14.9 1.92 1.67 2.95 1.62.9-.04 2.27-.83 2.4-1.74.26-1.8-2.05-2.63-3.34-2.28-.7.2-2.18 1.45-2 2.4zm-8.84-1.6c-1 .1-2.46 1.57-2.4 2.28.06 1.44 3.62 2.84 4.94 1.63 1.27-2.03-.74-4.05-2.55-3.88zm-29.32 1.2c-.02-.2-.34-.1-.54-.12-.3.5.67.6.54.14zm16.2 2.82c.22 1.53 4.55 1.92 4.8.13.2-1.22-1.3-2-2.13-2.56-1.07.2-2.85 1.1-2.67 2.42zm28.1.8c.12 1.03 1.77 1.84 2.95 1.73 3.6-.33 1.25-4.57-1.34-3.88-1.18.34-1.68 1.36-1.6 2.14zM386.42 68c-.12-2.12-3.8-1.6-3.07 1.33 1.3 1.2 3.17.12 3.08-1.33zm-12.04-.78c-1.16-.04-1.58 1.56-2.27 2.26.92.4 3.1.94 3.87.27-.03-1.4-.7-2.52-1.6-2.55zm37.62 3.2c1.32.1 4.15.6 4.7-.54-.38-2.52-6.48-3.48-4.7.53zm-12.05.8c1.07 1.2 5.9 1.67 4.82-1.34-1.1-1.02-5.4-1.58-4.82 1.34zm-8.43-.95c-1.62-.1-2.66 1.64-2.8 2.55 1.02.58 3.08.1 4.54.26 1.18-1.36-.47-2.73-1.74-2.8zm25.3 2c-.4 2.1 5.28 3.36 5.62 1.35.16-.9-1.78-2.28-2.54-2.4-.56-.12-1.1.04-1.47.1-.82.17-1.47.26-1.6.95zm-39.22 1.08c.42.47 1.17 1.05 2 .67.1-.52.34-.9.27-1.6-1.1-.02-2.23-.07-2.27.94zm28.64 1.48c1 .36 1.8-.44 2.68-.26.76.15.82 1.16 1.74.92 2.82-3.83-5.13-3.84-4.42-.68zm-11.38.54c.08.95 1.12 1.34 1.48 1.62.44.32 1.22 1.15 2 1.06 2.17-.22.9-3.84.27-4.27-.45-.33-1.1-.4-2.15-.15-1.08.26-1.7.72-1.6 1.74zm29.05-.52c-.28.55-.64 1.06-.54 2 .8 1.07 3.7.82 4.42-.13.44-2.5-2.3-2.53-3.9-1.86zm-38.3 2.8c1.3-.1 1.6-1.9.4-2.8-2.53-.28-2.36 2.97-.4 2.8zm-13.25-.4c.16 0 .15.2.14.4 1.55.6 3.53-.53 4.14-1.74-1.4-.93-3.72.14-4.3 1.34zm44.58.26c-.22-.88-2.3-1.77-3.48-1.33-2.54 1-5.75 4.2-6.82 6.16.5 1.54 1.6 2.8 3.07 2.68 2.28-.16 2.43-3.5 3.75-4.68 1.9-.14 4-.6 3.48-2.8zm-14.2-.93c-.7 1.05-1.96 1.6-2.26 3.07.9 1.27 4.83 1.07 5.22-.53-.8-1-2-1.67-2.96-2.54zm-8.7 3.6c.12-.84-1.8-2.42-2.8-2.27-1.08.16-1.9 2.4-1.87 3.6 1.74-.16 4.5.04 4.68-1.33zm28.93 2.28c.42-.3.9-1.03.8-1.6-.1-.92-1.65-1.52-2.8-1.48-1.62.08-2.8 1.27-3.22 2.3.83.94 3.8 1.8 5.22.8zm-44.98.27c1.45 1.34 4.68.02 3.6-2.4-1.63-.98-4 .1-3.6 2.4zm19.68-.78c-1.1 0-1.87 1.32-2.15 2.53.24.1.43.3.55.54 1.23-.33 3.3.2 3.88-.8-.56-1-1.07-2.3-2.27-2.27zm-10.85.93c-.73-.26-1.44.55-2 .93-.24.65-.2 1.8.27 2.15 2.08.46 2.64-1.83 1.74-3.1zm-10.96.8c-.67 1.12-2.5 1.85-2.68 2.95 1.2.42 4 .42 5.22 0 .5-1.86-1.05-2.68-2.54-2.96zm39.1.4c-.75.84-1.9 1.26-2.16 2.57.95.56 2.9.1 4.3.25 1.6-1.4-.57-2.66-2.15-2.82zm-14.07 2.3c-.47 2.52 5.13 3.54 5.22 1.46.05-1.34-2.9-2.7-4.03-2.4-.63.17-1.1.35-1.2.94zm-10.18 2.26c.17 1.8 4.6 1.73 4.28-.4-.15-1-2.08-1.5-2.68-1.35-1.05.25-1.67 1.15-1.6 1.74zm28.1 1.34c1.54.67 3.96.18 3.76-1.75-1.66-.76-4-.5-3.75 1.74zm-48.45-2c-.34.22-.5 1.7.13 1.72.85-.15.86-1.75-.13-1.75zm11.9 1.05c-.1-1.47-2.28-1.3-2.8.14-.22.6-.25 1.28.27 2 1.18-.16 2.62-1.1 2.54-2.14zm24.9 1.88c.83 1.43 4.36 1.16 5.1-.13-.36-2.72-4.8-2.38-5.1.14zm-5.88 1.07c.22-2.5-6.55-2.4-5.1 1.06 1.52.75 4.96.52 5.1-1.07zm-26.24 1.6c.27 1.33 2.65 2.1 4.02 1.07.5-2.9-4.6-4.1-4.02-1.1zm9.1 0c.12 2.75 7 2.26 6.03-.8-.34-1.08-1.64-1-3.08-.93-1.64.1-3 .14-2.94 1.74zm31.06-1.48c-.65.15-1.28 1.22-1.2 1.9.13 1.42 3.2 2.3 4.54 1.18.42-1.67-2.25-3.32-3.35-3.08zm-12.86 2.8c.03 1.18 3.18 2.2 4.42 1.22 1.3-2.92-4.46-3.1-4.42-1.2zm5.5 6.7c-1.98.12-4.2 0-4.83 1.48.86 2.5 5.25.87 6.7 0-.04-1.07-.78-1.54-.67-2.4.2-1.4 1.9-1.5 3.75-1.5-1.06-3.8-6.04-1.7-4.95 2.42zm-33.48.95c1.7-.12 3.94.27 5.22-.27-.28-2.96-5.2-2.87-5.22.27zm-3.2 2.67c.4.07.37-.33.53-.53-.18-.03-.2-.2-.42-.16-.1.16-.17.36-.13.67zm36 2.28c.3.1.36.44.67.56.4-.42.45-.85-.13-1.1 0 .35-.53.2-.54.55zm19.55 2.3c1.12 0 2.3-.07 2.68.65-.5.63-.8 1.9.14 2.28 1.58-.62 1.64-3.76.67-5.1-1.84-.44-3.38.43-3.5 2.14zm-54.6 5.07c1.16.2 1.66-.3 1.46-1.45-.48-.47-1.14-.75-2.14-.67-.07 1 .22 1.65.67 2.12zm56.75-.67c.25-.02.3.17.53.15.18-.18.26-.94-.13-.94-.2.2-.54.27-.4.8zm-2.14 2.68c-.04.93 1.46 1.7 2.42 1.23.78-.38.74-1.33.8-2.4-1.5 0-3.15.04-3.2 1.2zm-50.2 1.48c.17 1.62 4 1.05 3.9-.4-.08-1-1.9-1.1-2.56-.93-1.06.26-1.4.78-1.34 1.33zm41.37-1.47c-.96.03-1.52 1.04-1.87 2.14.84 1 3.6 1.17 4.68.4-.52-.83-1.64-2.56-2.8-2.56zm-13.12 2.8c.06.63.84 1.2 1.2 1.22 1.43.14 2.66-2.23.8-3.07-.77.05-2.1.82-2 1.88zm-5.5 1.5c-1-.66-5.54-2.62-5.74-.4-.17 1.88 3.9 1.88 5.63 2.1 0 1.16-.2 2.54.67 2.83 2.8-.65.78-3.72-.54-4.55zM382 122.4c.16.33.44.55.93.53.03-.14.15-.2.27-.26.15-.8-1.18-1.15-1.2-.27zm-6.83.4c.03-.16.14-.23.26-.3-.02-.32-.2-.5-.53-.52-.4.33-.1.6.27.8zm36.14.66c.17-.08.3-.15.4-.28-.17-.02-.72.23-.4.27zm2.82 1.87c.27.04.27.35.54.4.56-.38 1.43-.45 1.47-1.34-.67-.6-1.97.02-2 .93zm-25.7-.94c-.3.14-.87 1.16-.8 1.6.3 1.82 3.62 1.03 5.22.66.16-1.72-3.08-2.95-4.42-2.27zm-7.5.93c-.96-.94-3.12-.82-3.08.4.05.9 2.95 1.74 3.75 1.2-.3-.6-.18-1.1-.68-1.6zm36 1.47c.76.56 2.58.67 3.36.1.6-2.5-3.7-2.38-3.35-.1zm-8.82 3.46c.9 0 2.1-1.05 2.14-2 .1-1.8-2.2-2.63-3.88-1.74-1.53 1.65.4 3.77 1.74 3.75zm-8.44 0c.75-2.68-2.45-2.54-4.82-2.54-.08 2.4 2.65 3.28 4.82 2.55zm22.63 0c.8 1.6 3.9.97 3.87-.93-.9-1.45-3.77-.72-3.88.94zm-39.9.28c.82 1.8 3.04.44 2.67-1.6-1.45-.8-2.2.64-2.67 1.6zm29.04.13c.4 1.7 2.38 1.82 4.3 2 .18-2.1-2.9-3.16-4.3-2zm-11.5.94c-.3.9-.1 2.18.66 2.43 1.26.28 2.9-.23 4.15-.4.1-2.43-3.23-3.28-4.82-2zm-7.9 1.9c-.5-.5-1-1.02-1.6-1.34-.05-.1-.12-.16-.28-.14-.76.7-1.56 1.38-2 2.4 1.08.88 3.1.83 4.94.95.12-.92-.63-1.45-1.07-1.88zm-13.8.1c.08 2.1 2.8 3.05 4.7 2.02.2-2.27-3.3-2.98-4.7-2zm39.36 1.5c.74 1.1 2.93.97 2.95-.67-.47-1.05-3.24-.98-2.95.67zm-7.9.4c-1.27-1.18-4.18-1.94-3.34 1.34.44.22 1.28.1 2 .1.76 0 1.73.23 2-.25.35-.3-.27-.85-.66-1.2zm-14.6.67c-.5.28-.72.94-.52 1.6.9.66 4.2 1.22 4.95 0-.45-1.57-2.32-1.7-4.42-1.6zm16.75 2.93c.5 1.4 2.16 1.68 4 1.74 2.02-2.34-2.7-3.34-4-1.75zm-8.97-.13c-1.06-.1-2.3.33-2.4 1.23-.2 1.87 3.96 3.08 5.48 2-.18-1.36-1.62-3.05-3.08-3.23zm-11.25 1.48c-1.2-.37-2.27.1-2.27 1.2 0 1.64 3.5 2.46 4.55.68-.55-.42-1.35-1.6-2.27-1.87zm30.66 2.95c.2-1.37-2.7-2.32-3.63-1.07-.35.5-.22 1-.13 1.9 1.2.35 3.57.33 3.75-.82zm-14.34 2.27c1.48 1.07 4.43 1 3.48-1.34-.33-.82-2.9-1.7-3.88-1.33-1.37.55-.33 2.15.4 2.67zm-10.7 1.9c.92.07 2.38-.93 2.4-1.75.04-1.43-3.16-2.62-4.28-1.07.1 1.36.65 2.7 1.87 2.8zM367.4 13.12c.43-.05.56.18.67.4.03.5-.2.72-.67.68-.1-.3-.27-.8 0-1.07zm-.94 1.23c.03.33-.2.4-.4.52-.37.1-.26-.27-.53-.27.02-.37.56-.24.93-.26z"/>
    <path d="M425.1 18.48h.53v.94c-.72.25-.8-.6-.53-.93zm3.48 9.37h1.2v1.48c-.9.03-1.28-.5-1.2-1.47zm3.75 1.34c.48.5.9 2.2 0 2.55-.93-.42-1.34-1.36-2.14-1.9.35-.55 1.1-.75 2.13-.66zm-370 2h.92c-.13.44-.37.8-.93.8v-.8zm445.77 0h.93c-.13.44-.36.8-.93.8v-.8zM48 31.74h.53v.53c-.45.1-.64-.08-.54-.54zm20.34 0c.42-.08.56.16.67.4 0 .37-.2.55-.66.53v-.94zm425.43 0h.54v.53c-.44.1-.63-.08-.53-.54zm20.35 0c.43-.08.56.16.67.4-.03.37-.23.55-.68.53v-.94zm-468 1.06c.87.57 1.36 1.5 1.2 3.1-1.43-.53-2.85-1.07-3.08-2.8.43-.3 1.14-.3 1.88-.28zm27.98 1.22c-.25 1.22-2.68 1.76-3.75.93-.04-2.47 2.74-2.45 3.75-.93zm417.8-1.2c.87.55 1.36 1.5 1.2 3.07-1.4-.55-2.87-1.05-3.07-2.8.42-.3 1.13-.3 1.87-.28zm27.98 1.2c-.25 1.22-2.68 1.76-3.75.93-.04-2.5 2.76-2.45 3.75-.93zm-456.36-.4c.4.05.6.27.67.66-.27 0-.1.45-.4.4-.38.12-.28-.26-.55-.26-.06-.45.2-.54.27-.82zm445.78 0c.4.05.62.27.67.66-.25 0-.1.45-.4.4-.37.12-.27-.26-.54-.26-.06-.45.2-.54.27-.82zm-428.1.14c.92.45.6 2.15.66 3.46-1.15-.25-2.3-2.86-.67-3.46zm352.73 0c.5-.1.63 1.03 0 .93-.2-.2-.2-.77 0-.95zm93.04 0c.93.45.62 2.15.67 3.46-1.17-.23-2.27-2.87-.67-3.46zm-16.06.78c.66 1.12 3.02 1.34 2.7 2.96-.24 1.1-2.1 1.1-3.1.26-.25-.96.15-2.34.4-3.23zm-445.77.15c1 .86 2.52 1.2 2.8 2.8-.55 1.2-2.54 1.02-3.34.13.12-1.03.17-2.14.53-2.94zm-25.17 2.13h.4c-.02.7-.1 1.34-.8 1.34.04-.54.2-.97.4-1.34zm17.94 0c.33.16.44.55.53.93h-.53v-.94zm427.84 0h.4c-.02.7-.1 1.34-.8 1.34.06-.54.2-.97.4-1.34zm17.94 0c.33.16.45.55.54.93h-.54v-.94zM75.58 38.7h1.46c.06.9-.74.96-1.47 1.07V38.7zm445.77 0h1.47c.06.9-.73.96-1.47 1.07V38.7zM81.32 40.04c.8.1 1 .78.94 1.74-.25.18-.53.33-.94.4v-2.15zm445.8 0c.77.1 1 .78.92 1.74-.25.18-.53.33-.93.4v-2.15zM85.46 41.8c.12.75-.14 1.17-.13 1.85-.5.53-1.3.75-2.4.67 0-1.67.85-2.53 2.53-2.54zm445.8 0c.04.88-.1 1.6-.4 2.1-.54.35-1.24.48-2.16.42 0-1.7.86-2.54 2.56-2.54zm-458.78.92c1.15-.4 2.3.35 3.07.8-.45.3-.56 1.05-.94 1.07-.6.05-1.45-1.68-2.14-1.87zm445.64 0c1.22-.42 2.43.33 3.2.8-.44.3-.57 1.05-.93 1.07-.66.06-1.4-1.8-2.26-1.87zm-151.68 4.95c.12.76-.98.87-.93.13.18-.2.58-.14.93-.14zm-282.73 2.4c-.7 0-1.5-.63-1.33-1.06.73-.4 1.42.23 1.33 1.08zm445.8 0c-.76 0-1.02-.5-1.5-.8.4-.9 1.72-.1 1.5.82zm48.18-1.2c1.33.03 2.1.6 2.15 1.88-1.4.06-2.15-.52-2.14-1.87zm-491.3.67c.23-.03.3.12.15.14-.5 1.2-1.05 2.34-1.34 3.75-.77.06-1.4-.03-1.73-.4.02-2.12 1.56-2.73 2.94-3.5zm445.8 0c.24-.03.27.12.13.14-.5 1.2-1.06 2.34-1.34 3.75-.8.06-1.42-.03-1.75-.4 0-2.16 1.58-2.7 2.94-3.5zm-451.54 3.9c-1.48 0-.62-1.15 0-.95.3.08.2.55 0 .92zm445.24 0c-.92-1.72 2.07-.43 0 0zm53.28.25h.54c.06.42-.1.6-.54.53zm-158.5.66c.54-.04.73.26.67.8-.26.05-.33.3-.67.26-.2-.2-.2-.9 0-1.07zm.94 2.94c.5-.1.17.64.27.95h-1.08c.2-.4.6-.56.8-.94zM85.47 64.27c-.14-.93-.63-2.5.27-2.95.84.56.8 2.75-.27 2.96zm445.8 0c-.16-.93-.65-2.5.25-2.95.84.56.8 2.75-.26 2.96zM69 64c-.1.5-.8.66-1.06.27.2-.38.7-.45 1.07-.27zm445.8 0c-.12.5-.8.66-1.08.27.2-.38.7-.45 1.07-.27zm-463.6.8c.4.06.64.67.4.94-.6.15-.63-.67-.4-.93zm445.8 0c.38.06.62.67.4.94-.6.15-.65-.67-.4-.93zm-412.86.14c0 .45-.38.5-.8.53-.07-.1-.15-.22-.14-.4.18-.2.58-.13.94-.13zm445.78 0c0 .45-.38.5-.8.53-.07-.1-.14-.22-.14-.4.17-.2.58-.13.94-.13zm17.8 1.62c.67-.05.9.96.14.92-.18-.16-.14-.58-.14-.93zm12.85 21.27c.23.17.53.28.54.67-.38.4-.53.4-.93 0-.06-.42.36-.36.4-.67zm-274.83.93c1.68.82.63 4.2-1.6 3.1 0-1.08 1.03-2.15 1.6-3.1zm-.4 4.68h.54V94c-.45.1-.64-.1-.54-.56zm-12.45.15c.5.1.72.94 0 .92-.2-.17-.2-.75 0-.93zm150.86 5.6c-.26.87-.47 1.77-.8 2.55-1.54-.15-2.4-1-3.62-1.47.43-1.4 2.6-1.05 4.42-1.07zm9.37 6.03c0 .5-.26.73-.67.8-.67-.5.1-1.5.67-.8zm-348.46 3.35h.54c-.1.34.26 1.15-.26 1.07-.53.08-.16-.73-.27-1.07zm445.78 0h.54c-.12.34.25 1.15-.28 1.07-.52.08-.15-.73-.27-1.07zM380.4 111.5h.25c.52.27.3 1.97.14 2.44-.86-.1-.2-1.68-.4-2.4zm-44.2.83c-.03.45-.44.53-.8.67-.1-.1-.07-.37-.26-.4.04-.4.76-.56 1.07-.27zm-4.8 7.1h.53c-.05.26-.36.26-.4.53-.18-.05-.12-.34-.14-.54zm234.26 4.02c.83-.17 1.56-.4 2.28-.67 2.1.9 3.3 2.66 4.95 4.02-1.32.47-.57 3-1.75 3.6-1.8-.27-2.8-2.03-5.1-1.34.35 1.03 1.7 1 2.56 1.34 1.8.67 3.46 1.5 3.62 4.02-1.74.4-3.35-.83-4.95-.67-.53.05-.9.5-1.47.67-.88.22-2-.06-2.68.13-.76.2-1.42 1.12-1.74 1.88.82.73 2.27.84 2.67 2-.7.37-1.64.5-2.4.8v4.3c.3.88 1.24 1.1 1.2 2-.1 1.7-3.4 2-5.22 2.4-.34.55-.5 1.28-1.07 1.6-1.68-.17-3-1.3-4.15-2.15-1.1-.8-2.6-1.83-2.54-3.75.37-.24 1.2-.04 1.34-.52-.1-1.63-1.8-1.14-2.54-2-.7-.8-1.05-2.72-.8-3.48.5-1.54 2.85-.48 4-1.6.04-.9-1.1-.9-1.6-1.2-.7-.45-1.13-1.17-1.73-1.62-.34-2.8 1.1-4.94 2.8-7.23 1.68-2.26 3.96-4.8 6.7-2.94.9-.28 1.07-1.23 1.74-1.74 1.67.23 3.68-.4 4.82.25.7.43.55 1.23 1.06 1.9zm-9.1 2.94c1 0 1.6-.38 1.87-1.1-.97 0-1.78.2-1.87 1.1zm-4.15 2.4c.25.85 1.68 1.1 2.7.78.2-.42.43-.8.4-1.45-1.18.06-2.77-.27-3.1.66zm8.3.66c.16-.07.3-.15.4-.27-.17-.04-.73.2-.4.25zm-1.87 3.46h-.8c-.1.6.87.5.8 0zm1.74 1.9v-1.08c-.9-.18-.83 1.2 0 1.07zm-3.88 1.45c.3-.6-.34-.87-.68-1.2-.56-.57-1.1-1.08-2-1.07-.5 1.62 1.07 2.3 2.67 2.28zm-6.3 1.62c0-.2.07-.3.13-.4-.1-.15-.85-.32-.93 0 .33.05.3.5.8.38zm6.16 5.34c1.2.14 1.78-.33 2.68-.53-.45-1.1-2.6-.38-2.68.54zM85.34 124.9c.6-.13.64.67.4.95-.53.1-.38-.5-.4-.94zm445.78 0c.43.04.6.3.54.82-.16-.03-.22.03-.27.13-.4-.02-.25-.56-.28-.94zm41.5 5.9c1.23 0 2.27.24 2.28 1.46-.14 0-.1.18-.14.28-1.3.52-2.32-.33-2.14-1.74zm-487.55 5.22c.86 0 .74 1 0 1.07-.2-.2-.2-.88 0-1.08zm445.8 0c.84 0 .72 1 0 1.07-.2-.2-.2-.88 0-1.08z"/>
    <path d="M565.53 136.56c.18.04.1.33.13.53h-.53c.04-.28.35-.27.4-.54zm5.62 1.34c.45.02.6.3.54.8-.17-.02-.24.03-.28.14-.38-.04-.25-.56-.27-.95zm-6.96 10.84c.2-.87 1.28-.85 2.13-1.07-.4-2.4 1.12-2.5 3.08-2.93 3.66-.78 3.7-3.16 5.9-5.22.95 2.32-1 4.98-2.8 6.8-1.65 1.67-3.5 3.46-5.5 3.63-1 .07-2.34-.2-2.8-1.2zm-181-8.3c.67-.02.6.78.13.94-.33.02-.4-.2-.53-.4-.03-.34.22-.42.4-.53zm-302.95 4.02c.34-.02.43.2.54.4-.14.67-.6.72-.95.26-.06-.43.36-.36.4-.67zm446.05 0c.06.1.12.22.27.27-.04.72-.44.87-.94.53 0-.5.27-.7.67-.8zm-491.96.27c1.6.55 3.6.78 5.35 1.2-.64 1.45.85 2.48.93 3.2-1.26.52-3.5-.54-4.7-1.46-.82-.65-1.6-1.63-1.6-2.93zm445.78 0c1.62.55 3.6.78 5.35 1.2-.2.62-.15 1.07 0 1.6.23.72 1.06 1.1.94 1.6-1.25.5-3.5-.56-4.67-1.47-.84-.65-1.62-1.63-1.6-2.93zm85.27.66h.4c.3.3 0 .66-.14.93-.38 0-.24-.56-.27-.92zm-497.33 1.48c1.82.18 3.15.86 3.88 2.12-1.65 1-4-.08-3.88-2.12zm445.78 0c1.82.18 3.15.86 3.9 2.12-1.66 1-4.03-.08-3.9-2.12zm48.6 2h.53v.53c-.42.08-.6-.1-.53-.52zm-146.45.4h.53v.53c-.44.12-.63-.07-.53-.52zM101 11.1c1.8-.2 5.05-.1 7.63-.1 2.63 0 5.45-.33 7.5 0 .6.1 1.15.67 1.74.67.63 0 1.12-.56 1.74-.67.8-.15 2.16 0 3.36 0 1.2 0 2.56-.22 3.34 0 .8.2 1 1.36 1.88 1.6 1.76.47 2.48-1.3 3.6-1.6.8-.23 1.63.03 2.56.1.6 1.25 1.05 2.14.67 3.35-.22.75-1.22 1-1.33 1.48-.25 1.12.9 1.16 1.47 2v18.9c0 2.14.36 4.48 0 6.28-.1.45-.9 1.23-.94 1.87-.06.84.78 1.67.94 2.68.16.97.28 4.32 0 5.35-.2.75-1.04 1.14-1.07 1.74-.05.9.76 1.23 1.07 1.88V94.1c0 1.8.33 3.82 0 5.24-.16.67-.9.83-.94 1.6-.03.67.8 1 .94 1.74.22 1.1-.26 2.93-.94 3.46-.38.33-1.03.27-1.74.56-.15 1.22.17 2.23.67 3.06 1.5 2.42 4.13 3.94 6.43 5.5.82-.43 1.22-1.3 1.2-2.55 2.68-.3 5.28.52 7.1-.27 1.6-.7 1.4-2.3 2.4-3.6-.16-.9-.68-1.47-1.06-2.13v-9.38c0-3.17-.34-6.52 0-9.37.1-.82.52-1.5.53-2.28 0-1-.58-1.87-.67-2.8-.22-2.5.36-4.37 1.6-5.5-.16-.98-1.06-1.23-1.46-2 .26-1.57-.37-3.2 0-4.42.3-1 1.48-1.07 1.87-1.87-.78-.87-1.74-1.56-2.54-2.4.22-1.87.25-3.94.67-5.62.9-.1 2.14.18 2.8-.14-.37-1.05-1.98-.86-2.54-1.74-.84-4.74-.44-10.64-.67-15.95-.04-.72-.23-1.52-.14-2.26.07-.5.45-.94.54-1.48.4-2.3-.38-4.8 0-6.83.14-.8.9-1.54 1.07-2.4-.1-.43-.78-.32-1.07-.55.26-1.84-.42-4.02.13-5.35.4-1 1.25-.67 1.6-1.62-.27-1.27-1.08-2.04-1.73-2.95v-5.45c1 .3 3.05 1.34 3.74 0-.4-1.92-4.05-.6-3.88-3.1.9-.46 1.94-.26 2.95-.26 1.07 0 2.28-.2 3.22 0 .78.15 1.23.88 1.87.92.73.04 1.3-.78 2-.94 1.84-.45 3.68.3 5.76 0 1.1.36 2.37 2.3 3.6 2 .88-.22.66-1.5 1.5-2h14.98c-.16 2.15.38 5.02-.4 6.55-1.12.04-1.32-.83-2.28-.94.2 1.66 1.6 2.15 2.68 2.94v35.34h-1.34c.2 2.76 1.93 4.68 1.2 7.9-.22.42-.8.46-1.2.66-.42.23-.78.5-1.2.67.66 1.04 1.78 1.6 2.54 2.56v26.77c0 3.12.37 6.34 0 8.85-.08.5-.54 1.1-.54 1.6 0 .54.45.92.54 1.48.22 1.18.27 3.57 0 4.68-.2.75-1.67 1.42-1.6 2.27.07.8 1.03.7 1.6 1.2v5.25c-.45.76-1.6.8-2 1.6.4.47 1.47.3 2 .67v5.62c-1.06.1-1.34-.5-2.4-.4-.83.33-.9 2.23-.28 2.82 1.15.23 1.67-.9 2.28-.8 1.15 6.4-.62 11.5-3.35 14.73-4.62 5.45-13.15 7.8-22.63 6.57-.6-.1-1.34-.36-2-.28-.7.08-.68.4-1.35.52H148c-.66-.4-.76-1.28-1.35-1.74-.56-.4-1.18-.5-2-.67-.3.86.83 1.42.8 2.42-5.75-.26-13.02.6-17.67-.53-.92.58-2.16.52-4.02.52-.9 0-1.9.16-2.68 0-1.07-.2-3.23-2.36-4.55-2-.95.26-.62 1.65-1.6 2-5.08-.3-8.63-2.38-11.52-5.5-2.6-2.77-5.43-7.24-5.2-11.75.03-.64.33-1.3.4-2 .15-1.8-.74-3.65-.4-5.5.08-.45.4-1.12.66-1.6.22-.45.78-.9.8-1.5.12-1.63-2.16-3.04-1.47-5.6.58-1.46 3.27-1.9 3.2-3.36-.05-1.35-2.1-.9-2.8-2-.3-1.04-.06-2.62-.14-3.88 2.42.13 3.64-2.06 4.55-3.88 1.9 0 2.88-.9 4.03-1.6-.84-1.4-2.98-.95-4.55-1.35-1.66-.42-2.94-1.2-4.02-1.88v-15.4c0-1.76-.3-3.76 0-5.08.25-1.06 1.48-1.63 1.87-2.57.17-.98-1.73-1.96-2.14-3.2-.7-2.1.47-3.95 2.8-3.75.17-1.64-2.3-2.57-2.8-4.28-.34-1.2-.23-2.9.26-4.15 1.76.72 3.68.4 3.75-1.2.1-1.77-1.84-2.8-3.74-2.95-.3-1.6-.6-4.35.4-5.36 1.05 0 3.08 1.6 3.48.25.53-1.73-2.9-1.07-3.88-2 .3-3.77-.78-8.9.94-11.25-.3-1.26-.78-2.35-.94-3.75 1.72-1.56 2.8.8 4.15 1.06 2.27.43 5.7-1.55 7.24-2.27 4.57-2.06 8.14-4.35 11.24-7.62 1.6-1.66 2.54-3.72 4.02-5.34 1.26.6 3.42 2.34 4.15.13-.3-.6-1.14-.8-1.74-1.1-.66-.3-1.24-.5-1.73-.93 1.17-2.9-.3-5.8-3.2-5.24-2.32.45-2.1 4.24-2.83 6.58-2.27 3.4-4.62 7.15-9.77 8.15-.7.16-1.75.43-2.27.28-1.3-.33-1.68-3.23-3.48-3.6-1.2-.23-2.48.18-2.68 2.14-1.06.04-2-.04-2.54-.53-.3-.78-.06-2.1-.14-3.08.92-.3 1.9-.34 2-1.08.2-1.23-2-1.4-2.4-2.4V13.5c1.15-.4 2.97-.14 3.75-.93-.2-.67-.88-.9-1.2-1.47zm76.04 1.35c-.2 1.62 4.24 2.57 4.15 0-.7-.5-3.5-.72-4.16 0zm-67.2.28c.1 2.08 3.76 3.6 3.48.4-.67-.62-2.48-.9-3.48-.4zm53.68 2.68c.04-1-1.78-2.1-2.54-1.87-2.57.9 2.42 4.54 2.54 1.88zm-57.3 3.1c.65-.2 1.03-1.16.8-2.02-.15-.6-1.44-1.5-2.27-1.45-.96.02-1.45.82-1.87 1.6.56.77 1.94 2.34 3.34 1.87zm64.66-2.28c.32.27.36.27.67 0 .02-.33-.2-.42-.4-.53 0 .24-.37.14-.27.5zm2.55 1.88c.9-.12 1.37-.67 1.74-1.34-.6-1.84-3.13 0-1.74 1.34zm-58.77-.54v.67c.7.4 1.28 1.67 2.14 1.6.67-.04 1.1-.97 1.47-1.72-.83-.46-2.4-.88-3.6-.53zm39.5 1.07c.66.83 2.22 1.7 3.47.8.4-2.03-3.24-2.56-3.48-.8zm25.56 2.8c.1-1.18-2-2.35-3.08-1.86-2.54 1.15 2.85 4.77 3.08 1.87zm-12.45-.4c.22-.32 1.3-.46 1.07-.8-.3.24-1.28.5-1.07.8zm-56.9 2.7c.86-.04 2.07-1.24 2-1.76-.9-.95-2.63-1.12-4.54-1.07.3 1.25 1.16 2.84 2.54 2.8zm48.6-.3c.6.95 2.74 2.2 3.2.28-.88-.77-2.67-2.07-3.2-.27zm12.85.8c-.62-.3-1.3-.75-1.74-.92-.1.34-.37.53-.4.94.38 1.1 2.4 2.3 3.48 1.07.1-.77-.87-.82-1.34-1.06zm-37.88 0c-.52-1.62-3.16.77-1.2 1.62.5-.42 1.5-.67 1.2-1.6zm19.4 1.75c-.9 1.88 2.46 2.97 3.08 1.34-.64-.82-1.56-1.38-3.07-1.34zm-25.03 2c-.55-.8-2-.77-3.33-.8.16 1.5 2.85 2.7 3.34.82zm36.02.15c-.2 1.45 3.6 1.6 3.9 0-.76-.67-3.72-1.34-3.9 0zm-46.05 2.27c.67 1.23 2 1.83 3.75 2-.02-1.78-2.52-3.54-3.75-2zM133 34.8c1.45-1.46-.34-3.3-2-3.34-.2 1.9.53 3.54 2 3.35zm26.5-2.54c.3.26.96.08.94-.4-.33-.28-1-.1-.94.42zm-46.3.8c-2.06 1.76 1.23 4.08 3.33 2.94-.2-1.9-1.78-2.4-3.34-2.94zm57.95.93c.1-.3.5-.84-.13-.8.05.4-.34.68.13.8zm-19 1.47c-.03-.34.2-.42.26-.67-.16 0-.18-.17-.4-.14-.17.17-.22.8.14.8zm-28.66-.14c.33.78 1.25 2.3 2.14 2.4.75.1 1.2-.6 1.87-1.07-.48-1.27-2.47-1.93-4-1.34zm31.18.4c.34.4.6.1.8-.28-.26-.35-.77-.3-.8.27zm-43.9 2.54c-.15-1.34-3.24-2.17-4.7-1.2-.66 3 4.95 3.6 4.7 1.18zm6.7.13c.1 1.62 1.1 2.34 2.53 2.68.97-1.68-.72-3.4-2.53-2.68zm40.02-.15c-2.37.2.4 3.5 1.87 2.15-.14-.87-.94-2.23-1.87-2.16zm-28.38 2.3c-.23 2.17 3 2.76 2.94.43-.37-.78-2.3-1.12-2.94-.4zM101 42.06c-.18 2.34 3.35 2.17 3.22-.14-.06-1-.9-1.64-2-1.32-.96.3-1.18 1.02-1.22 1.48zm13.93 2.27c.62-2.12-1.9-2.9-3.75-2.54 0 1.95 1.94 3.24 3.75 2.53zm36.27-1.07c-.14.78 1.6 2.08 2.4 1.75.1-.2.24-.33.42-.4.47-2-2.57-2.67-2.82-1.34zm30.26.67c.85-.98-1.4-.4 0 0zm-74.3 5.25c.5.25 1.34.52 2 .4 1.86-.38 1.26-3.44 0-4.43-1.06-.86-3.67-.96-4.68.25-.04 1 1.4 3.05 2.68 3.74zm10.58-3.1c-3.3-.06-3.68 3.4-1.2 4.3 1.13.4 3.4.16 4-.8.5-.83.38-2.4-.13-2.96-.48-.55-1.26-.57-2.4-.5h-.26zm38.42 2.15c.85-1-1.4-.42 0 0zm2.4.8c.32.27.36.27.68 0 .02-.33-.2-.42-.4-.54 0 .26-.37.16-.27.53zm-30.1 1.6c.5.6 1.7.45 2.26 0 .26-.44.48-.93.4-1.72-1.47 0-2.8.15-2.67 1.74zm-17.82 1.23c.82.65 2.07.87 3.62.78.24-1.9-4.97-4.12-3.62-.78zm58.77-1.22c.28 0 .18.38.55.28.4-.33.1-.6-.27-.8 0 .27-.37.17-.27.54zm-19 2c.67.86 2.7 1.4 2.95-.25.22-1.43-1.1-2-2.15-1.88-1.62.18-1.52 1.23-.8 2.12zm28.25-.66c.47.9 3.3.8 3.34-.4-.63-.78-3.5-1.38-3.35.4zm-55.02 1.9c.2-.08 1.1-1.07 1.07-1.24-.18-.85-2.26-.78-3.62-.78.07 1.12 1.38 2.3 2.55 2zm37.6-1.1c-.35 1.17 2.43 2.4 3.1.95-.2-.98-2.3-1.86-3.1-.94zm-28.5 1.08h.4v-.4h-.4v.4zm40.03.93c.4.67.8 1.34 1.74 1.47.47-.3.8-.7.93-1.34-.33-1-2.34-1.33-2.67-.12zm-67.07 1.18l.4.4c.66-.16 1.35-.32 1.33-1.2-.76-.33-1.6.12-1.74.8zm13.1 1.08c-.3-1.3-1.38-1.83-2.94-1.87-.18 1.67 1.56 2.6 2.95 1.86zm36.3-.53c.43.65 1.2 1 2.4.93 0-1-2.03-2-2.4-.94zm-25.05 2.13c.58-2-1.97-2-3.88-2 .22 1.68 2.16 2.26 3.88 2zm37.9.55c.5-.08 1-.16 1.2-.55-.48-.58-.92.17-1.2.55zM112.9 60.9c.7-2.26-1.87-2.4-3.88-2.4-.15 2.12 2.12 3.46 3.88 2.4zm64.66-2c.22 1.1.9 1.68 1.87 2 .65-.28 1-.85 1.07-1.73-.5-.5-2.12-.56-2.94-.28zm-57.84 1.88c.07 2.1 4.24 2.56 4.56.8.26-1.52-2.3-2.4-3.08-2.27-1.17.23-1.5.65-1.48 1.5zm12.86-.14c-.37-.04-1.12.3-1.2.95-.1.7.9 1.44 1.6 1.73.98-.67.56-2.53-.4-2.67zm-27.98 1.34c-.65.1-1.3 1-1.2 1.62.17 1.28 2.98 1.5 3.74.27-.18-.7-1.84-1.98-2.54-1.9zm56.62.56c.14-.45-.2-.45-.53-.4-.04.35.2.43.54.4zm-46.72 1.6c-.25 1.78 2.63 3 3.75 1.07-.1-1.53-3.46-3.2-3.75-1.07zm58.9 0c-.4-.12-.42-.65-.93-.67-.55.52.5 1.1.93.67zm-44.97.93c-.96-.82-2.8-.22-2.95.67-.22 1.43 2.8 2.83 3.62 1.07-.27-.63-.18-1.3-.67-1.73zm26.23.94c.08.87 2.27 1 2.28 0-.56-.68-1.58-.2-2.28 0zm12.6 1.9c.03-1.22-.44-1.9-1.62-1.9.06 1.13.58 1.76 1.6 1.9zm-57.17 1.74c.7.07 1.62-.34 1.75-.94.33-1.6-2.1-1.86-3.48-1.34.16.98.67 2.18 1.74 2.3zm8.7-.94c0 1.27 3.22 3.43 4.43 1.62.6-2.48-4.38-3.64-4.42-1.6zm59.3.28c.5-.37 0-.73-.52-.8-.06.5.1.78.53.8zm-76.96 2c-.03 2.1 4.66 3 5.35.4-.37-1.35-5.34-3.05-5.36-.38zm33.06.27c.08-1.3-2.26-1.63-3.88-1.6-.37 1.97 3.76 3.52 3.88 1.6zm28.12-.8c-.45-.8-1.68-.85-2.95-.8.03 1.5 2.34 2.47 2.95.8zm9.77.4c-.32-1.18-1.93-.5-1.9.53.04.53.5.98 1.22 1.08.33-.8.83-.97.67-1.6zm-16.88 4.14c.04-.32.47-.25.4-.68-.7-.6-1.26-1.34-2.14-1.74-.42.83 1.05 1.8 1.74 2.4zm-40.3-1.35c.53.78 2.1.23 1.88-.93-.83.1-1.6.3-1.87.94zm12.46 1.88c.66-2.2-1.4-2.8-3.35-2.8.03 1.94 1.47 3.15 3.35 2.8zm-17.8-1.2c-1.27-.34-3.04-.12-3.22 1.06-.14.88 1.23 2.8 2.27 3.08 1.34.34 2.57-.22 3.35-1.07 0-1.5-.96-2.67-2.4-3.06zm54.88 1.06c.44.26.8.63 1.47.66-.13-.44-.13-1-.4-1.34-.65-.05-.93.25-1.07.67zm-43.78 4c1.98-.08.96-3.56-.94-3.2-.44.1-.6.68-1.2 1.2.56.73 1.16 2.08 2.14 2.02zm55.96-2c.85-.98-1.4-.4 0 0zm-45.38 3.76c.92.07 1.95-.96 1.87-1.87-.1-1.35-1.9-1.46-3.6-1.5.07 1.45.5 3.26 1.73 3.35zm-27.7.4c.5-.1 1.33-.86 1.33-1.47-.05-1.2-2.8-2.24-3.9-1.87-2.63.9.74 3.77 2.55 3.34zm8.3-1.47c-.12.03-.17.1-.15.27-.5 1.9 3.34 3.03 4.43 1.34-.47-1.4-2.54-1.9-4.28-1.6zm68.4 1.07c.63 1.14 2.4 2.46 3.47.94.72-2.37-3.3-2.94-3.48-.92zm-8.98.13c0-.27.37-.17.27-.55-.37.04-.78-.56-1.07-.1.2.26.3.65.8.65zm-48.2.67c-.04 1.5 3.14 2.7 4.3 1.06-.04-1.9-4.2-3.23-4.3-1.07zm29.73.53c.32.27.37.27.68 0 .02-.34-.2-.43-.4-.54 0 .26-.37.16-.27.53zm-47.25 1.07c.4.96.74 2.2 1.75 2.28 1.08.06 2.1-1.3 1.6-2.82-.98-.58-2.8-.16-3.35.54zm70.3 1.87c-.1-.75-.7-1-1.5-1.06.06.78.96 1.6 1.5 1.07zm-57.98 1.34c.6.4 1.23.74 2.28.67 2.4-2.14-2.94-4.66-2.28-.67zm-18.07.28c-.1 1.27 1.45 2.86 2.4 2.8 1.97-.08 2.05-5.16-.13-4.94-1.03.1-2.23 1.34-2.27 2.14zm27.98-.4c-.23.94 1.1 2 1.87 2.26 1.16.42 2.6-.22 2.54-1.33-.07-1.16-2.37-1.87-3.35-1.62-.52.1-.92.03-1.07.67zm-13.93-.15c-2.25-1.52-2.42 3.53-.93 4.3 2.3.02 2-3.55.93-4.27zm8.7 2.3c-1.1 1.66.8 3.28 2.68 3.08 2.06-2.38-1.4-4.97-2.67-3.08zm48.73.55c.08-.43.3-.7.4-1.08-.94-.12-1.1.9-.4 1.07zm-64.92 1.2c.48.27 1.04.47 1.87.4-.02-1.3-1.76-2.08-1.87-.4zm55.82.66c.22.74.7 1.18 1.34 1.48.3-.1.36-.44.67-.55.08-1.05-1.37-1.82-2.02-.93zm-44.44-.26c-.5.92-.96 2.35-.67 3.62.6.4 1.86 1.18 2.67.53.38-.72-.33-1.1-.4-1.75.2-.44.45-.8.54-1.34-.3-.77-1-1.16-2.14-1.07zM100.6 98.3c.7-.04 1.4-.33 1.47-1.33.05-.67-.72-1.2-.67-1.88.06-.68 1.42-1.3 1.34-2-.1-.9-1.6-1.04-2.4-1.1-.04 2.22-1.16 4.84.26 6.3zm5.1-4.95c.47 1.2 2.7 1.14 2.93-.28-.5-1.1-2.76-1.27-2.94.27zm68.93.26h.4v-.4h-.4zm-62.65 2.02h1.07c.08-.75-.4-.94-1.07-.94v.93zm45.1-.14c.86-.98-1.38-.4 0 0zm-28.37.67c.57.67 2.4.75 2.83-.1-.48-.57-2.53-.68-2.82.1zm-5.74 0c-.23 1.14-.23 3.16 0 4.3.64.3 1.4 0 1.87-.27.56-1.58.47-4.46-1.87-4.02zm-17.54 1.62c-.03.1 0 .27-.13.27.15.7.62 1.14 1.46 1.2.17-.38-.1-1.3-.4-1.6-.36 0-.78-.06-.94.12zm6.03.94c.5 0 .92-.06.93-.55 0-.48-.4-.58-.93-.52v1.07zm68.27.4c.9.58 1.94.07 2-.94-.86-.62-2.74-.78-2 .95zm-15 .53c-.14-1-2.03-1.94-3.2-1.33-1.3 2.86 3.6 4.08 3.2 1.33zm-12.04-.67c.2.07.33.2.53.27.2-.22.3-1.06-.26-.93-.05.25-.37.24-.26.66zm-34.4 2c.66-1.63-1.12-1.88-2.42-2 .04 1.4 1.34 2.1 2.4 2zm10.7.28c-1.56-.38-1.23.8-.8 2.14-1.23 1.36-4.82.34-7.1.67-1.45 1.67-.53 5.2 1.48 5.08 1.13-.07 1.5-1.48 1.74-2.8 2.17-.35 4-1 5.62-1.9.33-1.24.03-2.97-.94-3.2zm-12.98.4c-.58.64-1.43 1-2.4 1.2-1.13.25-2.65.08-2.56 1.35 2.5-.04 4.3-.8 6.7-.94-.1-.65-.26-1.26-.67-1.6-.2.05-1-.1-1.07 0zm58.23.8c.85-1-1.4-.4 0 0zm-17.27 2.27c.58-.2.56-1.05.54-1.9-.34-.2-.56-.48-1.2-.38 0 .98 0 1.98.66 2.28zm10.04 1.07c.9.33 2.3.1 2.8-.4-.4-1.47-2.33-.38-2.8.4zm-54.62 1.47c.97-1.83-1.4-2.23-3.08-2.27.23 1.48 1.3 2.8 3.08 2.27zm65.6-.8c.04 1.05 1.9 1.03 2.68.4.1-1.97-2.74-1.65-2.68-.4zm-26.37 1.47c.88.15 1.1-.7.8-1.33-.73.07-1.3.82-.8 1.34zm-48.86.4c-.67 2.13 2.75 3.58 4.15 2.02.24-2.15-2.57-2.54-4.16-2zm14.2 4.16c.66-.1 1.5-.67 1.47-1.34-.04-1.2-2.78-1.97-3.88-1.6-2.34.8.7 3.17 2.4 2.95zm55.68-2.67c-.04.97.62 1.25 1.2 1.6.5-.4.3-1.6-.13-1.9-.5-.04-.75.15-1.08.27zm-17.27.25c-.8.8-.15 2.8.54 3.35 1.03.03 1.77-.78 2.53-1.23.7-.4 1.97-.63 1.88-1.86-1.15-.5-3.76-.2-4.95-.26zm-26.1 3.07c.3-1.23-2.34-2.4-3.08-2.14-2.75 1 2.48 4.46 3.08 2.14zM167 114.2c1.56.42 2.95-.4 3.2-1.74h-3.6c-.07.78.02 1.4.4 1.74zm-59.04.66c.87 1.12 4 1.64 4.3.28.28-1.36-3.8-3.2-4.83-1.74.18.5.22 1.07.53 1.45zm68.55-.92c0 1.72 3.35 1.95 3.9.53-.3-1.07-3.14-1.62-3.9-.53zm-53.27 2.27c.1-1.28-3.42-2.76-3.62-.9-.08.8.76 1.28 1.35 2 1.27.03 2.2-.17 2.28-1.08zm27.44-.1c.07-.22.2-.33.27-.56-.17 0-.2-.15-.4-.1-.05.3-.3.55.13.66zm11.65 0c-.6-1.14-2.1-.45-2.82.1.4 1.02 1.06 1.73 2.55 1.63.56-.47.5-1.3.27-1.74zM133 118.9c.75 0 1.53-.46 1.6-1.2.23-2.15-4.76-2.8-5.08-.27 1.36-.18 2.23 1.45 3.48 1.45zm36.95-1.07c.07 1.54 3.45 2.05 4.28.53-.02-1.98-4.38-2.47-4.28-.53zm-67.6-.13c-.07 2.48 3.45 2.73 3.74.4-.57-.95-2.8-1.05-3.76-.42zm41.9 2.54c.96.03 1.72-.76 1.47-1.73-.27-.97-2.68-1.44-3.9-.93.08 1.12 1.24 2.68 2.42 2.68zm-30.93-1.45c-.15 2.05 4.85 2.73 4.42.24-.18-1-2.6-1.5-3.48-1.2-.67.22-.9.37-.94.94zm42.57 3.06c.6-.12 1.2-.9 1.06-1.74-.2-1.2-2.6-1.83-3.88-.95.25 1.1 1.34 2.95 2.8 2.67zm-31.07-1.2c.08 1.35 2.46 2.02 3.62.93.74-2.32-3.75-3.25-3.62-.94zm43.24 1.06c-.53-1.16-1.78-1.6-3.35-1.74-.42 2.26 2.66 4.17 3.35 1.74zm-28.38 1.74c.6-2.06-1.54-2.47-3.36-2.56-.4 2.25 1.5 3.43 3.35 2.56zm-28.52-.4c.03-.43-.54-1.35-.94-1.62-1.2-.78-3.35-.3-4.15.53-.07 1.96 4.9 3.2 5.08 1.07zm64.25-.55c.56.6 1.64 2.18 2.82 1.75.66-.22.78-1.26.53-2.26-.78-.98-3.2-1.13-3.35.53zm-57.43.95c.56 1.45 2.68 2.96 4.56 1.86.2-1.94-3.35-3.82-4.56-1.86zm33.2.26c-.93-.75-2.26-1.1-4-1.06 0 2.04 3.4 3.42 4 1.07zm10.58 1.08c-.22-1.23-2.62-1.63-3.35-.4.23 1.8 3.74 2.64 3.35.4zm-32.53.1c-.38 1.46 3.5 3.3 4.55 1.9.9-2-4.08-3.67-4.55-1.9zm40.03 1.35c.2.78 2.08 1.63 2.94.8.74-2.5-3.57-3.2-2.94-.8zM101 125.3c-.2 2 2.73 3.42 3.48 1.34-.46-1.1-2-1.62-3.48-1.34zm11.78 3.62c1.48 1 4.24.3 4.15-1.06-.06-1.18-3.03-1.82-3.88-1.6-1.54.4-1.45 1.9-.27 2.67zm28.65-2.53c-.02 1.94 3.54 2.94 3.48.25-.6-.78-2.46-.55-3.47-.26zm10.7 1.6c-.13 1.26 1.9 2.27 3.22 1.33.23-2.15-3-3.12-3.2-1.34zm-25.56-.28c-1.8-1.22-4.46.36-4.95 2.28 2.25-1.05 3.93 1.23 6.02.27.1-1.2-.44-2.1-1.07-2.53zm38.82 3.35c.64.03 1.5-.33 1.6-.94.2-1.34-2.6-2.63-3.88-1.6.1 1.07 1.07 2.47 2.27 2.53zm-30.26-.8c.04 1.05 1.32 1.45 2.4 1.75 2.7-1.84-2.5-4.54-2.4-1.74zm39.36.56c.13 1.22 2.86 1.93 3.75.66.2-2.44-4-2.88-3.75-.67zm-68.28-.42c.34 1.46 2.03 3.08 3.75 1.9-.1-1.72-2.45-3-3.75-1.88zm39.76.82c.23 1.25 2.23 1.83 3.48 1.2.12-1.93-2.3-2-3.48-1.2zm-28.38.4c.26 2.14 2.98 3.95 3.75 1.22-.56-1.22-2.37-2.36-3.75-1.22zm41.9 3.1c2.44-.4-.9-4.36-2.14-2.02.64.64 1.04 2.2 2.14 2zm-30.8-1.35c-.15.72 1.02 2.2 2.16 2.27.73.06 1.76-.33 1.87-1.06.22-1.4-2-2.2-3.08-1.87-.6.2-.8.1-.94.68zm41.1-.4c-.58.08-1.28.74-1.2 1.48.14 1.12 1.8 1.34 3.35 1.34-.1-1.27-.78-2.97-2.14-2.82zm-69.33 1.6c.47.62 1.02 1.13 1.6 1.62.8-.1 1.12-.6 1.6-.96-.46-1.2-2.6-2.56-3.2-.67zm41.36 2.3c1.38.4 2.18-.53 2.15-1.35-.07-1.45-1.95-1.4-3.35-1.62-.04 1.42.53 2.24 1.2 2.95zm12.72.5c.1-1.1-1.5-.8-2.54-1.06-.3 1.8 2.46 2.2 2.55 1.1zm-31.46-.8c-1.06 1.5 1.9 2.77 2.94 1.75-.2-1.36-1.5-1.62-2.95-1.73zm13.5 3.63c2.33-.75-1.55-4.58-2.53-1.76.53.67 1.38 2.12 2.54 1.75zm38.57-.15c.94-.08 1.56-.5 1.74-1.34-.82-.7-1.87.24-1.73 1.35zm-69.48-1.2c-.04 2.67 2.44 3.23 3.2 1.06-.56-.8-1.86-1.5-3.2-1.06zm41.22 1.73c.26.55 1.03.58 1.87.53.03-.74-.2-1.22-.54-1.6-.9-.08-1.15.45-1.34 1.06zm-28.5 1.6c1 .67 2.08-.1 2-1.34-.7-1.17-2.27-.07-2 1.34zm39.48.67c.87-.07 1.56-.9 1.47-1.48-.45-.48-1.47-.4-2.4-.4.1.82.4 1.47.93 1.9zm-28.92.67c.58.56 1.86.13 2.28-.28-.2-1.16-2.3-.96-2.28.27zm13.92.52c.08-.64-.7-1.08-1.47-1.33-.5.52-.84 1.23-.8 2.28.82.1 2.18-.1 2.27-.92zm-31.2 1.08c.33.75 2.4 1.02 2.82.13.23-.98-2.9-2.3-2.8-.13zm39.9 1.07c.8.28 1.5-.4 1.88-.96-.64-.44-1.5-.65-2.28-.94 0 .76.17 1.36.4 1.9zm-25.96 0c.08-1.5-2.24-1.3-2.82 0 .37 1.46 2.75 1.14 2.82 0zm7.76.77c.08 1 2.42 2.07 3.2.67-.12-1.48-3.33-2.57-3.2-.67zm29.45 0c.56.4 1.17.1 1.47-.4-.15-.2-.4-.33-.4-.66-.82-.1-1.08.34-1.07 1.08zm413.92-134.1c2.72.06 3.1 2.3 3.08 5.48 0 .82.18 1.7-.27 2.27-1.03-.23-1.3-1.2-2.67-1.07-.13 2.06 2.24 2.76 2.95 4.4-.1.85-.44 1.43-.67 2.16.45.9.23 2.48.27 3.75-.1.63-.84.6-1.07 1.1.24.6 1.05.63 1.47 1.06v11.92c0 1.25.22 2.57-.27 3.63-.63.3-.67-1-1.6-.8-.62 1.48-1.6 3.18-1.74 5.08-.23 3.16 1.6 5.32 3.6 6.7v10.3c0 3.6.35 7.33 0 10.3-.2 2-1.82 4.06 0 5.35v10.7c-1.22-.2-1.8-1.03-2.8-1.46v3.35h2.68c.3.73.05 2 .13 2.94h-1.07c1.3.9.33 2.6-1.47 2.8.57.76 1.4 1.2 2.55 1.34-.02 3.43.56 7.43-2.94 7.36.05-2.12-.66-3.52-2.67-3.6-.08.9 1.23 1.54 1.34 2.68h-31.6v-7.77c1.5.35 3.27.05 3.9-.9-.57-1.43-2.4.37-3.76-.28-.3-1.4-.04-3.35-.13-4.95-.02-.53.9-.6 1.08-1.23.4-1.34-.92-3.68-1.08-5.88-.27-3.85.63-5.73 2.82-7.5V79.8c-.35-.45-.76-.86-1.5-.94-.7.67 1.02 2.68-.66 2.8-1.1-.96-.5-3.67-.67-5.6.64-.66 1.4-1.2 2.15-1.74-.65-.87-1.6-1.45-2.15-2.4v-8.2c1.23.22 1.45 1.4 2.15 2.16-2.27 2.94 2.84 6 4.4 7.62-.32.78-1.07 1.14-1.32 2 .06.65.8.63 1.2.94.95-.45 1.5-1.27 2.4-1.74-.84-1.67-1.9-3.17-2.8-4.8.1-.6.63-.8.8-1.33-1.26-3.26-3.75-5.28-5.35-8.18 3.93-1.24-.94-4.65-1.74-6.57.48-3.6.27-9.04.27-13.67v-6.3c0-2-.22-4.03.27-5.87.97.2 1.88 1.73 2.95.66-.06-2.34-3.2-3.62-3.1-5.76.05-.92.68-1.07.95-2-.26-.67-.7-1.17-1.08-1.74.08-1.65-.15-3.63.14-5.08.5-.7 2.13-.65 2.95-.27.6.95.9 2.17 1.2 3.36 2.24-.22 1.54-3.05 3.1-3.46 1.95-.56 5.93 4.07 6.15 0h2.67c1.37.53 1.74 2.5 3.88 1.86.12-1.08-.74-1.22-.53-2.4 1.34.16 2.05-.1 3.2.27 1.63.52 2.13 2.38 3.22 2.4.8.05 1.5-.77 1.48-2.1h3.2c.9.66 1.16 1.96 2.3 2.4 1.3-.98-.57-1.6-.15-3.22zM548.8 18.6c.02 1.98 1.2 4.1 3.2 3.2-.06-1.96-1.24-4.78-3.2-3.2zm6.55-.53c-.44 2.92 1.7 5.52 4.15 3.87-.22-2.46-1.56-3.8-4.15-3.88zm16.47 4c1.9-.95.07-3.46-1.88-3.35-1 1.32.25 3.37 1.88 3.35zm-8.3-.94c.22.65 1.78 1.26 2.28.42-.43-.5-1.88-1.5-2.28-.4zm-4.82 5.1c-.08-.2.16-.7-.13-.67-.23.2-.47.68.13.66zm6.56 1.6c.27.42.7.66 1.34.68.22-1.34-1.03-1.9-1.34-.67zm-11.9.68c-.18-.9-1.1-1.06-2.16-1.06.14.95 1 1.16 2.15 1.07zm7.2-.26c.16-.9-.72-.78-1.46-.8.1.62.78 1.23 1.47.8zm13.8.8c-.02-.44.1-1-.13-1.22h-1.47c-.03.98.72 1.16 1.6 1.22zm-6.82 3.74c-.98.82.3 3.46 1.47 2.14-.2-1-.44-1.96-1.46-2.14zm6.96 2.28c.3.25.93.38 1.2 0-.13-.56-.58-.76-.94-1.08-.22.22-.33.55-.26 1.07zm-14.2 0c.84.18 1.8.1 2.15-.56-.67-.22-1.43-.33-2.28-.4-.08.46.1.63.14.95zm-5.75 0c.56.13.56-.96 0-.82v.8zm21.02 3.87c-.06.6.16.9.67.94-.08-.35.16-1.04-.14-1.2-.02.26-.44.1-.53.28zm-12.32 3.2c1.23-.4 1.23-2.78-.4-2.8-.2 1.14-.4 2.18.4 2.8zm2.4-1.73c.27.96.5 2.12.95 3.07.4.88 1.05 1.95 1.74 2.02 1.3-.63.33-2.23-.14-3.08-.53-1-1.27-2.2-2.14-2.42h-.26c0 .16-.17.2-.14.4zm-16.2 1.06c0-.33.24-.4.28-.67-.17 0-.2-.17-.4-.13-.06.3-.3.72.13.8zm27.05.54c.47.33 1.34.26 2.15.26.33-1.72-2.4-2.28-2.15-.26zm-20.34-1.07h-.8c-.25.73 1.04.73.8 0zm14.72 1.33v-1.18h-1.07c.16.6.28 1.23 1.08 1.2zm-14.72 2.55c-.56-.64-3.1-3.84-3.62-1.6-.22.93.83 1.55 1.34 2.4.45.75 1.03 1.9 1.2 2.7.12.44-.05.93 0 1.33.15.96.74 1.58.94 2.54.62.36 2 .45 2.14-.4.3-1.56-1.75-2.62-1.6-4.02.33.25 1.08.08 1.6.12-.3-1.1-.98-1.9-2-3.07zm4.15 2.94c1.94.92 3.02-.93 4.3-1.5-1.17-1.33-2.72-2.27-4.03-3.47-.74.92-.38 3.6-.26 4.95zm-12.44-2.43c.5.04.5-.83 0-.8v.8zm.67 5.9c1.48 1.97 5.37 3.23 5.35-.26-.8.05-1.38.32-2 .54-1.57-1.4-2.32-3.57-4.7-4.15.16 1.1.5 2.76 1.35 3.87zm23.96-2.68h.26c0-.17.17-.2.13-.4h-.4v.4zm-6.84 4.56c-.05-2.1-.84-3.46-2.8-3.63-1 2.17.73 3.65 2.8 3.62zm4.28-2.15c.86.12 1.5 1.2 2.4.8-.25-.84-2.06-2.84-2.4-.8zm-14.6 2.68c1.02 2.23 1.46 5.06 4.97 4.82-.26-1.02-1.24-1.73-1.2-2.82.05-.9 1.07-1.38.8-2.28-.02-.14-.14-.22-.26-.26-.6 1.75-2.98 0-4.3.52zm8.18 1.48c.6.13.67.82 1.47.78.03-.14.14-.2.26-.26.04-1.14-1.38-1.6-1.74-.54zm-13.66-.56c-.55 1.34.73 2.98 1.08 4.3-.85 1.4-.12 2.6.26 3.88.48 1.53.47 2.23 1.48 2.67 1.22 0 2.45.06 2.94-.67-.1-1.4-1.56-1.47-1.74-2.8-.07-.5.48-.42.67-.68-.9-.33-2.06-.5-2.14-1.45-.05-.78.62-.85.95-1.62-.8-1.56-1.62-3.12-3.5-3.6zm4.42 1.23c-.1-.9-.9-1.1-1.74-1.23.1.9.96 1.02 1.74 1.23zm17.4-.67c-.5.44-.28 1.9.14 2.26.5.22 1.67.45 2.27.13-.56-1.02-1-2.23-2.4-2.4zm3.22 4.68c.03-.15.14-.22.27-.28 0-.44-.38-.5-.8-.53.04.4.22.67.53.8zm3.48.78c.42.23.65-.76.13-.67-.1.17-.17.37-.12.67zm-12.32 15.95c.1-.66.85-1.14.8-1.75-.04-.7-1.18-1.56-1.73-2.27-.56-.75-1.34-1.68-1.2-2.96.06-.57.6-.95.66-1.62.03-.4-.26-1.5-.4-2.53-.32-2.15-.68-2.72-1.75-3.75-1.03-.96-2.1-1.6-4.02-1.33-.13 0-.15.1-.27.13-.04.16-.1.18-.13.4-.07 2.63 3.94 4.2 3.88 6.42-.68.14-1.06-.53-1.46-.26-.28.3-.56.6-.8.94.3 1.27 1.45 2.16 2.54 3.1.86.72 2.86 1.82 1.47 3.2-.52-.37-1-.78-1.87-.8-.18 2.12 1.28 3.57 2.54 4.68.87.76 1.9.98 1.2 2.54-.62.12-1.6-.16-2 .15.95 2.4 4.82 3.46 3.88 6.83-.52.33-1-.38-1.74-.27-.5 2.63 4.42 2.96 4.42 4.68 0 .75-.78.66-1.34 1.35-.3.4-.94 1.82-.94 2.16 0 .27.23.65.4 1.08 1.1.18 3.3.35 4.02-.28.25-1-.7-1.83-1.07-2.8-.48-1.35-.67-3.28-1.2-4.97-.8-2.5-2.66-4.68-1.08-6.7-1.22-1.24-3.16-3-2.8-5.34zm-1.87-15.93c1.77 3.32 5.77 4.4 7.08 8.18.65-.15 1.1-.5 1.07-1.34-1.56-1.34-2.9-2.9-3.88-4.82.34-.22.3-.84.54-1.2h-.8c-.36-.05.12.74-.26.68-1.4-.26-2.2-2.23-3.75-1.47zm-15.67 1.34v-1.06c-.37.08-1.06-.16-1.2.14.26.44.35 1.07 1.2.93zm25.43 1.34c.42.08.56-.15.67-.4-.3.06-.58.15-.67.4zm-20.08 5.77c.02 1.4 2.87 3.1 2.8 4.54-.02.83-.95 1.36-1.33 2 .63.72 1.28 1.43 1.88 2.15.58.68 1.5 1.46 1.47 2.67-.78.14-1.56-.25-2 0 .44 2.34 1.8 3.8 4.4 4 1.1-2.22-.2-3.13-.93-4.67-.4-.85-1.1-2.12-1.07-2.8 0-.53.5-1 .54-1.48.15-2.66-2.97-4.17-3.22-6.7h1.48c.18-3.76-4.04-1.56-4.02.27zm20.35.4c.1 1.3 3.2 1.9 4.55 2-.2-1.52-.8-3.73-2-4.7-.45 1.33-2.7 1.22-2.55 2.7zm-4.02 1.06c.28-1.37-.92-2.36-2.13-2.68-.56 1.57.9 2.88 2.14 2.68zm-21.8 3.46c.36.1.26-.26.53-.26.02-.33-.2-.42-.4-.53-.23.33-.56.44-.14.78zm20.6.15c0 3.57 3.7 3.28 4.7.8-1.14-.65-3.26-1.67-4.7-.8zm8.58 1.87c.16.2.8.24.8-.1-.17-.2-.8-.26-.8.1zm-25.17 2.3c-.75.43.12 2.37-.4 3.33-.63.03-1.47-.13-1.73.27.35 1.64 1.76 2.23 3.2 2.8.97-2 1.3-5.7-1.06-6.42zm18.62 3.47c.6 1.6 1.7 2.68 3.88 2.68.56-.42.47-2.03.27-2.8-.86-.7-3.48-.82-4.15.13zm-23.83 7.77c3.67.2 1.95-5.26-.82-4.82.34 1.56.5 3.26.8 4.83zm13.24-3.08c-.65.3-1.6.14-2 .8.05 2.3 2.22 3.65 4.54 4.12-.07-2.4.36-5.35-1.07-6.4-.3.64-.77 1.14-1.46 1.46zm-3.75 3.87c-.12-.58.13-1.33 0-1.87-.3-1.2-1.68-2.2-2.42-2.4-.1.4-.22.77-.67.8-.6.07-.8-.26-1.2-.4-.66.67-1.22 1.45-.53 2.4.65.9 2.3 1.13 3.22 2.16 1.68 1.9.62 3.88 2.13 5.75.9-.12 1.48-.6 1.47-1.18 0-.78-1.43-1.12-1.47-1.88 1.14-1.36-.3-2.28-.54-3.34zm21-1.47c-.08-1.02-1.55-2.73-2.53-2.68-2.7.16-1.2 5.74 2.14 4.7-.03-.97.48-1.3.4-2.02zm-27.84 3.2c-2.38.66-.27 5.48 1.74 3.77-.13-1.7-.75-2.9-1.74-3.74zm14.06.16c-1.16.38-2.9 1.56-3.48 2.68.54 1.36 2.68 2.4 4.28 1.47.82-1.02.38-4.53-.8-4.14zm-11.78 9.1c-.02-.92-.04-1.84-.67-2.15-.8.46-.5 2.2.67 2.15zm21.15 2.4c.62-.17 1.35-1.15 1.2-1.74-.3-1.15-2.6-.95-3.35-.14-.62-.36-.7-1.25-1.34-1.6-1.05 1.94 1.33 4.07 3.5 3.47zm-15-1.87c.62.08.33-.75.4-1.22h-.54c.03.42-.08.97.14 1.2zm9.5 2.53c-.26-1.74-.72-3.28-2.54-3.48-.67 1.83.58 3.46 2.54 3.48zm-14.32-1.74c.85-1-1.4-.43 0 0zm-.4 5.46c1.56.25 1.4-2 .4-2.27-.37.55-1 1.55-.4 2.27zm7.36-1.6c-.6.14-.9.85-.67 1.74.26.95 1.63 1.28 2.95 1.47.06-1.16-1.12-3.48-2.28-3.2zm-14.2 1.88c.52.33 1.93.42 2.42 0-.16-1.2-3.66-2.8-2.4 0zm20.9.93c.47.27 1.03.47 1.87.4.04-1.57-.72-2.32-2.13-2.42-.07.82.13 1.38.26 2zm-11.4-.55c-.2.08-.77-.16-.8.14.27.16.84.5.8-.13zM212.4 11c1.6.05 3.8-.1 5.5 0 3.15.1 6.28 0 8.7.67.88.22 1.78.96 2.67 1.06 2.8.3 5.18-2 8.03-.8.3 1.17.06 2.9.14 4.28-1.93.6-3.27-1.68-5.1-.8-.05.45.62 1.03 1.08 1.48.48.47 1.05 1.12 1.6 1.2.92.15 1.57-.57 2.68-.53.15 1.08-.6 2.18-.67 3.35-.1 2.03.76 4.74.42 7.36-.08.56-.54 1.2-.54 1.74 0 .52.45.97.54 1.6.22 1.34.25 3.93 0 5.1-.16.72-.8 1.1-1.08 1.73 1.2 1.63 1.08 3.5 1.08 6.7 0 5.24.1 10.93-.14 16.45-.1 2.1-.73 4.08-.8 5.9-.08 2.1.67 4.4.53 6.42-.43.98-1.84.9-2 1.86-.18 1.23 1.3 1.62 2 2.54-.08 1.66.18 3.65-.12 5.1-1.37-.4-2.77-.8-3.6.4.38 1.53 1.88 1.93 3.2 2.55v17.67c-.07.48-.78-.08-.94.52-.1 1.63.6 4.35 1.88 4.55.7.1 1.78-.8 2.67-1.2 2.48-1.2 5.84-2.54 7.62-3.9 1.25-1.44 2.57-2.78 3.75-4.3-.56-.2-1.1-.4-1.34-.93.26-1.65.28-3.54.54-5.2.22-.54.92-.6 1.34-.94-.1-.36 1.07-.75 1.08-1.08.02-.54-2.2-1.84-2.4-2.55-.3-.9 0-2.03 0-2.8 0-.85-.2-1.73.26-2.55.84 0 1.1.6 1.74.8.83-.33 1.37-.95 1.87-1.6-.93-1.04-2.8-1.12-3.88-2 .36-5.5-.48-11.4 0-16.48.07-.7.37-1.34.4-2 .1-1.76-.6-3.4-.4-4.96.08-.6.52-1.22.94-1.86.34-.56.96-1.3.94-1.75-.03-.84-1.1-1.03-1.34-2-.48-1.95.23-4.1-.26-5.65 1.45.2 3.5.87 3.08-1.07-.47-.8-1.7.07-2.68 0-.3-2.5-.05-5.58-.14-8.3 1.28.44 3.43 2.42 4.42.4-.22-.86-.8-1.35-1.47-1.74-1 .1-1.88.67-2.8.4-.26-1.38-.15-3.2-.15-5.07 0-1.76-.33-3.88 0-5.1.26-.94 1.32-1.13 1.48-1.88-.14-.95-.93-1.22-1.48-1.74v-4.7c.7-.62 1.8-.88 2.55-1.46-.82-1.56-2.42-2.3-2.4-4.7 3.18-.5 4.18 2.28 6.55 2.3.97 0 1.53-.8 2.54-1.22 1.54-.67 3.24-.9 5.22-.4.4 1.5 1.86 3.67 3.62 3.47.7-.08.9-.5 1.33-1.07-.3-.98-1.77-1.43-1.73-2.3 4.67-.74 10.27-.2 14.73.28 1.04.96 2.5 1.5 3.75 2.27-.02 1.94-.04 3.9-.8 5.08-1.6.24-2.5-.88-3.9-.4-.12 1.23 1.1 2.18 1.75 3.08.97-.2 1.75-.58 2.68-.8.1 1.16-.67 2.17-.67 3.6 0 .6.35 1.12.4 1.75.37 2.83 0 7.23 0 11.25 0 4.37.38 8.08 0 11.1-.18 1.57-1.44 1.8-2.13 2.96.18.63 1.1.52 1.6.8.3 2.42.75 5.18.54 8.44-.07 1.07-.12 2.46-.4 3.2-.57 1.62-3.05 1.9-3.2 4.03.53.34 1.65.07 2.4.15.12 1.25-.73 1.96-.66 2.95.07 1.07 1.2 1.7 1.2 2.94-1.18.08-2.64-.13-3.6.15v1.06c1.1.22 2.6-.33 3.87-.4-.28 1.26.38 2.83 0 4.54-.1.58-.94 1.3-.93 1.9 0 .63.72 1 .94 1.6.5 1.33.3 3.53-.66 4-1.56.8-4.06-.44-4.28-2.27-.1-.96.3-1.52.4-2.56-1.45-.14-2.95.82-4.15 1.33 0 2.2.3 4.1.8 5.77.84-.02 1.83-1.74 2.56-1.87-.14 1.3.1 2.5-.67 3.2-1.2 1.08-3.07.1-3.76-1.07l-1.34.67c.75 1.25 1.34 2.94 2.8 3.1 1.5.13 3.25-1.96 4.83-.68.26.62-.3 1.2-.4 1.87.48.44 1.23-.5 1.6-.14 1.28.2 1.87 1.1 2.82 1.6h7.9c-.9 1.52-.34 3.5.93 4.3 1.5.07 2.68-.18 2.8-1.46-.66-.7-2.22-.45-2.8-1.23-.02-2.73 4.44-1 4.3-3.87.95-.63 1.82-1.38 2.26-2.54-.7-.4-2.05-.18-2.8-.54-.07-3.42-.63-7.67.66-10.3.45-.9 1.17-1.2 1.34-2.15-.05-.78-.74-.08-1.34-.25-.13-.67.78-1.1.8-1.88 0-.78-.7-1.17-.93-1.9 0-10.85-.06-24.15.4-34.52.08-1.83-.6-4.42.93-4.82-.4-.5-.66-.56-.8-1.2-.33-1.46 0-3.62 0-5.5V12.15h13.25c1.64 0 3.43-.27 4.42 0 .78.22 1.5 1.92 2.4 1.34.44-.27.5-1 .4-1.6 3.96 0 8.7.1 12.6.4 1.25.08 2.56-.08 3.48.66.3 4.94.04 10.5.13 15.65-.67.25-1.52.35-2 .8-.68 1.9 1.74 3 2 4.15.14.64-.15 1.85-.27 2.67-.1.8-.18 1.8-.8 2.15-1.05-.23-1.86-1.17-2.8-1.9-.92-.67-1.9-1.45-3.2-1.6.43 1.73.7 4.22 2.4 4.7.67.18 1.74-.2 2.54.12.65.27 1.34 1.2 1.07 2.1-.2.77-1.66.62-1.86 1.5-.43 1.78 2.3 1.9 2.4 3.48.05.78-1.08 1.26-1.07 2.14 0 .62.9 1.05 1.08 1.74.4 1.56-.32 3.28 0 5.1-1.37.05-2.8.07-3.35.9.22 2.13 1.97 2.77 3.35 3.76v11.1c-1.3 1.38-3.46.3-5.36.14-2.64-.23-5.07.5-5.63 2.8 1.4.12 2.65-1.02 4-.94.96.07 2.36 1.1 3.63 1.2.93.07 1.7-.3 2.8-.13-.74 2.5.87 7.43-.26 9.5-.42.8-1.74.9-1.74 1.75 0 1.24 1.94 1.06 2.14 2-.37 1.8-.53 2.83-.26 4.8-.78.34-1.8.47-2.95.4-.2-1.3-.04-2.98-.8-3.74-.73.16-1.54.2-2.4.16.2-4.28-2.52-7.12-6.84-5.62-.05.76.66 1.34 1.2 1.86.83.85 1.5 1.63 2.8 2 .8.97 1.48 2.02 2.28 2.95-1.42 2.54.96 2.85 3.08 3.5 1.93.6 3.2 1.78 3.75 2.94 0 .94-2.16 1.44-1.86 2.67 0 .58.9.1 1.07 0 .34.2.6.5.54 1.07-.44.78-2.52.27-3.34.67.38 1.6 2.08 2.33 2.8 3.76.62 1.22 1.03 2.7.8 4.54-1.05-.05-3.53-1.7-4.54-.14-.65 1-.1 3 1.2 3.75 1 .6 2.17.4 3.22.68-.4 1.65-1.68 2.9-1.34 4.83-2.05-.37-4.78-1.7-6.96-.66-.98 4.72 4.53 2.48 7.1 2-.1 2.7-1.86 3.7-4.02 4.3-.27 1.24-.03 2.45-.4 3.34-.68 1.56-3.7 3.18-5.76 4.02-5.38 2.15-11.8 1.74-19.4 1.74h-28.4c-1.9 0-4-.28-5.62 0-1.3.22-3 1.45-4.4 2.14-7.38 3.64-14.18 7.36-21.57 10.84-3.03 1.45-6.38 2.97-9.76 3.2-3.68.28-7.18.18-10.84 0-15.06-.65-24.28-5.23-24.9-19-.1-2.52-.15-5.32 0-8.42.2-4.27.18-9.65.4-14.46.2-4.12-.38-7.96.67-12.04-.58-.86-.54-2-.54-3.9 0-.86-.13-1.95 0-2.54.15-.67.94-1.23.94-1.87 0-.62-.78-1.06-.94-1.75-.33-1.4.1-3.7.8-4.7.5-.72 1.43-.88 2.02-1.47-.62-1.15-2.1-1.5-2.4-2.68-.35-1.23 0-3 0-4.28 0-1.46-.35-3.1 0-4.3.23-.9 1.85-2.03 2.53-2.8 1.06-1.22 1.75-2.2 2.27-3.1-.62-1.3-1.85-2.05-2.8-3.06-1 1.5-.27 4.74-2.15 5.36-.2-7.78.34-15.77.67-23.3.3-6.66 0-13.9 0-20.88 0-2.34-.4-5.35 0-6.83.18-.63 2.12-2.44 2.95-2.66 1.64-.42 3.68.3 5.35 0 .15 2.27 2.3 3.2 4.82 2.67-.66-1-1.9-1.4-2.02-2.93zm101.47 2.12c-.92.07-1.33 1.67-1.47 2.68 1.17.07 2.1-.1 2.8-.53.1-1.27-.6-2.18-1.33-2.14zm-90.76 3.1c.95.2 2.1-.18 2.13-.95.04-.82-2.54-2.07-3.74-2-.05.4-.3.6-.42.93.56.4 1.05 1.8 2 2zm58.63-.14c.33-1.5-2.5-2.4-3.48-2.14-3.57.9 2.94 4.6 3.48 2.14zm-73.77.26c-1.5-.22-2.45-.94-3.88-1.22.28 1.56 3.27 3.95 3.88 1.22zm54.62 2.27c.78.03 1.48-.77 1.74-1.73-.58-.85-2.14-.7-3.48-.8.34 1.04.65 2.5 1.74 2.54zm66.4-1.6c-.2 1.32 2.04 3.24 2.95 1.6.24-2.12-2.7-3.27-2.95-1.6zm-114.2-.14c0 1.93 2.35 2.74 4.16 2-.07-1.9-2.32-2.74-4.15-2zm107.24 1.07c.4.8 1.18 2.36 2.4 1.47-.02-1.02-.26-1.87-.8-2.4-.93-.12-1.4.28-1.6.92zm-49.8.4c-.1.67 1.03 1.28 1.6 1.73.42-.33 1-.5 1.08-1.2-.9-.26-2.43-1.82-2.68-.54zm-45.92-.28c-1.45 1.26.9 3.68 2.4 3.48.86-.1 1.22-.9 1.75-1.6-1.02-1-2.53-1.5-4.15-1.88zm87.82.4c-.82 2.38 2.68 5.1 3.88 2.57-1.02-1.06-2.03-3.18-3.88-2.57zm-57.3 3.63c.95.05 1.8-.87 1.75-1.6-.1-1.44-2.73-1.9-4.42-1.6 0 .16-.17.2-.13.4.4.7 1.94 2.77 2.8 2.8zm53.82-2.95c-2.5-.7-2 2.7-1.6 4.43 3.04 1.15 3.72-3.8 1.6-4.4zm-45.1 1.9c.13 1.53 2.7 3.37 3.6 1.34-.52-1.1-2.68-3.12-3.6-1.34zm10.3 2c.46 1.54 2.5 2.5 4.4 1.74.28-.5.52-1.4.28-2-1.3-.17-3.8-.42-4.68.26zm59.3 1.74c-.38-.96-1.1-1.6-2-2-.8 1 1.07 3.5 2 2zm-104.28-.94c.55 1.5 2.56 2.98 4.28 1.75-.22-1.65-2.68-2.34-4.28-1.74zm28.5-.26c-1.28.76 1.15 2.95 2.3 2.95.8 0 1.25-.7 1.73-1.06-1.3-.67-2.36-1.58-4.03-1.87zm65.87.67c-1.36 1.5 1.8 2.8 3.22 1.88-.8-.9-1.87-1.54-3.22-1.88zm-6.3 3.35c.8.57 2.33.97 2.42-.4.06-.86-2.62-3.4-4.02-2.54.04.1 0 .26.14.26.1.93.58 2 1.47 2.68zM204.76 26.1c.93.1 1.34-.3 1.47-.94-.53-1.12-1.45.02-1.47.95zm22.76-.4c.43.05.4-.34.54-.56-.16 0-.2-.16-.4-.1-.1.13-.18.32-.13.66zm87.16 3.2c.35-1.56-3.13-4.43-4.7-2.68-.14 2 .8 2.9 1.75 3.75 1.46 0 2.76-.2 2.96-1.08zm-44.05-1.34c.57.67 1.97 1.03 3.1.67-.12-1.5-1.4-1.83-2.55-2.28-.03.64-.78 1.12-.54 1.6zm-17.12-1.2c-.54.33-.76 1.02-.8 1.86.7 1.27 3.3 1.63 4.82.93-.94-1.33-2.06-2.47-4.02-2.78zm-26.9 2.67c1.17-.08 2.56.05 2.67-1.08-.84-1.07-2.83-.4-2.68 1.07zm78.7-1.48c-.66.6-.53 1.85-.4 2.94.3.46 1.6.64 2 .16-.3-1.25-.48-2.63-1.6-3.08zm-22.62 2.68c.16.06.3.14.4.26 1.16-.08 1.34-1.14 1.6-2.1-1.04.22-2.06.5-2 1.86zm-16.06 1.07c.9-1.45-.9-2.15-2.4-2 .36 1.1 1.07 1.85 2.4 2zm-58.1-.67c.67.44 2.63.47 2.8-.4-.9-.42-2.44-.65-2.8.4zm69.08 2.94c1.9 0 .9-3.58-1.07-3.5.04 1.63-.3 3.47 1.08 3.5zm54.08-.54c-.18-2.16-1.62-3.04-4.02-2.96.32 2 1.62 3 4.02 2.95zm-9.9-2.16c-3.42.1.83 5.56 2.94 2.95-.37-.94-1.6-2.98-2.95-2.94zm-100.8.8h-.8c-.08.47.9.6.8 0zm11.9 2.27c-.1-1.27-.55-2.2-1.87-2.27-.03 1.3.84 2.42 1.86 2.26zm82.73 1.88c1.22-.34.74-3.13 0-3.88-.9-.15-1.68-.14-2.15.4-.37 1.5.84 3.83 2.14 3.46zm-55.83-3.88c-.7.42-1.42.82-1.74 1.6.56.43 1 .98 1.74 1.22.62-.46 1.34-.83 1.74-1.5-.58-.43-1-1.04-1.73-1.33zm-57.43 1.08c.16.02.22.13.27.25.38.1.28-.27.55-.27.02-.67-.83-.67-.8 0zm104.15 1.2c-.45 2.44 2.2 3.92 3.2 1.86-.46-1.2-1.1-2.3-2.8-2.26-.08.2-.23.33-.4.4zm-92.78.4c.22 1.22 2.1 1.36 2.14-.14-.44-.48-1.78-.26-2.14.15zm55.7.8c.55.77 1.52 1.62 2.67 1.06.66-1.83-2.22-2.84-2.7-1.05zm55 1.73c-1.7 1.9 1.48 4.85 3.5 3.1-.7-1.5-1.83-2.57-3.5-3.08zM281.6 38c.17.53.53.9 1.2.94.22-.45.47-.87.4-1.6-.8-.06-1.12.38-1.6.66zm-74.04-.4c-.06 1.22 1.56 1.78 2 .67-.25-.58-1.46-.8-2-.67zm10.85 1.34h-.66c-.05.44.78.55.67 0zm46.86.66c.47-.02.67-.3.8-.66-.47.02-.67.3-.8.66zm54.35 1.6c.17-.6.12-1.38.28-2h-2.95c-.33 1.98 1.36 3.27 2.68 2zm-9.23.57c.15.82 1.07 1.38 2.28 1.45 1.15-2.53-2.8-4.3-2.28-1.45zm-81-.82c.26.96.8 1.62 1.9 1.74.2-.3.6-.45.52-1.08-.45-.53-1.6-.98-2.42-.67zm98.14 1.74c-.07.3.27.82.28 1.2.02.56-.36 1.14-.27 1.75.12.9.82 1.6 1.75 1.47.45-.06 1.04-.78 1.47-1.22.5-.5 1.05-.94 1.2-1.6-.75-.1-1.87.18-2.4-.13.52-.64.76-1.85 0-2.4-1-.12-1.8.17-2 .9zm-114.58 1.2c.98.06 1.6-.27 1.74-1.06-.63-.9-1.68.2-1.74 1.07zm10.44 1.23c.85-1-1.4-.43 0 0zm11.65 2c-.04-.85.12-1.9-.13-2.56-.2 0-.3-.06-.4-.1-.62.66-.6 2.6.54 2.66zm85.4-1.9c-.95 2.05.87 3.27 2.96 3.1-.56-1.45-1.6-2.43-2.95-3.08zm-55.8 2.02c.55.7.85-.56 0 0zm-46.06.8c.2-.07.7.17.67-.12-.27-.28-.5-.27-.66.14zm56.22 2.42c.93-.33 1.68-.84 1.88-1.9-1.32-.1-2.34.64-1.88 1.9zm-15.26-.4c-.9-.46-2.3-.4-3.48-.55-.06 2.03 3.2 2.84 3.48.54zm-45.9 1.33c.1-1.23-1.7-1.86-2.82-.94-.1.93.15 1.53.53 2 1.1.2 2.22-.16 2.3-1.07zm113.9 1.07c-2.3-2.42-4.6 1.58-3.34 3.87 1.4.58 1.9-.75 2-1.88.64-.6 1.46-.96 2.55-1.08 1.97-.22 4.62.78 5.77-.53 0-1-1.5-.45-2.14-.8v-2c-2.42 0-4.17.65-4.82 2.4zm-57.15-.95c-.93.22-2.06.27-2.55.94.52.97 2.9.55 3.08-.42-.04-.3-.4-.3-.53-.53zm-46.05 1.74c-.12-1.67-2.87-.56-1.6 1.34.86-.07 1.64-.65 1.6-1.34zm54.6 2.57c1.55-.08 2.87-1.1 2.42-2.68-1.2.48-2.2 1.17-2.4 2.68zm-44.43.1h.54c.52-.22.8-1.42.27-1.86-.86 0-1.38 1.28-.8 1.88zm26.9.3c.7.7 2.22.25 2.42-.68-.98.05-2.28-.23-2.42.67zm10.45.92c.52.5.8 1.23 1.74 1.34.9-.37.56-2.24-.13-2.57-.7.25-1.4.5-1.6 1.22zm-55.3.4c.8.04 1.2-.23 1.35-.8-.24-.8-1.4.05-1.34.8zm39.24-.94c-.6-.05-1.1.65-1.34 1.34.58.67.9 1.6 1.87 1.9.77-.86.5-3.1-.54-3.23zm-28.65 2c.4.35.9.55 1.6.57v-1.3c-.86-.1-1.3.28-1.6.77zm-16.73 1.9c.56.06 1.14-.32 1.2-.8.15-1.03-1.74-1.84-2.8-1.6-.05.88.83 2.33 1.6 2.4zm116.87-2.4c-.42-.1-.9 1-.8 1.46.05.38.73.9 1.34 1.34 1.45 1.08 3.14 1.5 3.08-1.34-.56-.5-2.65-1.27-3.62-1.47zm-58.5 2.27c-.1-1.28-2.8-1.05-2.28.66.88.63 2.35.17 2.28-.66zm-45.78 1.07c-.6-.45-1.5-.56-2.55-.54-.1 1.67 2.08 1.76 2.56.54zm56.76.26c-.45-2.17-3.66.56-1.6 1.88.77-.3 1.8-.92 1.6-1.88zm43.1-.53c-.67.96.34-.14 0 0zm-8.3.26c-.22.53-.78 1.13-.4 1.87 1.2.26 2.8.17 2.68-1.34-.67-.26-1.45-.42-2.28-.52zm-80.05 2.27c.22-1.36-2.3-.97-1.47.8.78-.26 1.34-.08 1.47-.8zm101.34 2c0-.66-2.4-2.7-2.94-2.8-.9-.15-1.5.33-2.14.67-.52 1.02-.08 2.42.4 3.2 1.73.2 4.7.5 4.7-1.06zm-27.43-1.33c.75.05 1.4-.02 1.47-.67-.2-.33-.45-.6-.94-.67-.15.47-.52.73-.53 1.34zm-94.78-.8c.08.67.6.9 1.33.93.3-1.1-.74-1.5-1.34-.94zm48.45.67c.13-.27.6-.23.53-.67-.33 0-.86.47-.53.67zm8.97.67c.3.03.06-.46.13-.66h-.4c.05.25-.18.8.27.67zm30.12.68c.78.33 1.6-.34 1.74-1.08-.5-.1-1.56.38-1.74 1.06zm21.42-.8c.33.55.48 1.3 1.07 1.6.78-.3 1.7-.43 2.14-1.07-.47-.75-2.32-1.38-3.2-.52zm-97.06 1.06c.4.67.93 1.2 1.74 1.45 1.6-.68-1.2-2.94-1.74-1.46zm46.72 0c.45.05.56-.24.8-.4-.46-.08-.7.1-.8.4zm-18.87.53c.33.27.73.3.93-.14-.18-.17-.93-.25-.93.14zm72.15 1.47c1.05.78 1.64 2 3.08 2.4.54-.3.83-.87.8-1.74-.73-.78-3.38-2.9-3.88-.67zm-115.53.93c.18-.23.36-.45.27-.94-.56-.25-1.67-.67-2.4-.28.73.38 1.02 1.2 2.13 1.2zm54.22-.54c.77.67 2.98 2.8 3.34.4-1.4-.06-2.32-.6-3.22-1.2 0 .32-.22.4-.13.8zm53.54 1.2c1.18-.02 2.37-.04 2.27-1.33-.9-.6-2.3.14-2.26 1.34zm-6.96.67c.78-.22 1.36-.7 1.47-1.6-1.07-1.04-2.65.75-1.47 1.6zm-84.88-.26c-.33-.63-.62-1.25-1.34-1.5-.4.82.72 1.73 1.34 1.5zm-6.56.1c.62.54 1.87.23 2.4-.1-.12-1-2.62-1.56-2.4.1zm83.27.15c.87-1-1.4-.42 0 0zm-24.35 1.06c.03-.15.14-.22.26-.27 0-.35-.18-.54-.52-.55-.42.33-.1.6.27.8zm-74.84.8c.35-.62-.6-.95-1.06-1.2-.1.8.67 1.33 1.07 1.2zm27.86-.4c.04.5.3.75.8.8V71.3c-.42-.07-.52.2-.8.27zm28.65 1.2c.76-.1 1.1-.6 1.48-1.07-.82.02-1.4.3-1.47 1.06zm-46.05 1.34c1.1.47 1.93-.22 2.15-1.07-.78-1.6-3.37-.62-2.15 1.07zm106.97-.54c.15.56.6.83 1.07 1.07.54-.63 1.3-1.1 1.6-2-1.04-.8-2.16.35-2.68.94zm-49 .67c.3.27.36.27.67 0 0-.33-.2-.42-.4-.53 0 .26-.38.16-.28.53zm40.3.94c.04 1.23 4.03 2.2 4.4.67.18-.7-1.35-1.9-1.86-2-.47-.12-.92.05-1.2.1-.92.23-1.37.56-1.35 1.23zm-87.42.4c.96 1 2.45.13 2.68-1.08-.8-.9-2.07.5-2.68 1.05zm-14.86.66c-.45-1.37-2-1.65-3.88-1.6-.2 1.9 2.9 3.37 3.88 1.6zm43.77-.94c.05.2 1.13.33.95-.12-.03-.2-1.1-.33-.94.1zm26.92.94c-.03-.72-.45-1.06-1.07-1.2-.08.83.47 1.04 1.07 1.2zm-17.4.27c.02 1 1.75 1.28 3.08.93-.26-1.33-3.13-2.6-3.08-.93zm59.44.53c-2.18-.48-1.9 2.3-3.08 3.62-1.04 1.17-2 .83-2.28 1.9 2.5.27 4.24-1.3 6.96-1.23-.06-1.87-.25-4-1.6-4.28zm-14.33.4c.1-.46-1.1-.3-1.2-.13.26.1 1.02.85 1.2.15zm19.8.14c.13-.28-.32-.6-.4-.27.2.04.24.22.4.28zm-100 1.07c-.06.63 1.16 2.25 2.3 2.42.82.1 2.22-.22 2.4-.94.36-1.45-2.05-2.67-3.08-2.54-.9.1-1.53.4-1.6 1.07zm-9.22.4c.94-.07 1.76-.3 2.02-1.06-.7-.58-2.27.34-2 1.08zm41.37 1.48c-.2-1.33-1.6-1.45-2.8-1.75.28 1.16 1.44 2.1 2.8 1.74zm23.7-1.33c.04.65.6.8 1.07 1.05.26-.34.5-.67.4-1.34-.64-.05-1.1.07-1.47.27zm-73.23.77c.3 1.8 2.9 2.74 4.55 1.6-.23-1.85-3.24-3.2-4.56-1.6zm64.26-.12c.33-.1.76-.14.94-.4-.48-.04-.8.08-.94.4zm58.37 2.94c.75-.68.66-2.53-.14-3.1-1.23-.33-2.68.14-3.2.95.4 1.34 1.53 2.63 3.34 2.15zm-63.46.12c1.26-1.38-.66-2.23-2.13-2.14.13 1.3 1.12 1.73 2.14 2.14zm-47.9 0c.47 1.4 4.82 1.85 4.4-.27-.2-.97-3.07-1.3-3.88-.92-.6.3-.75.56-.53 1.2zm55.4-.53c0-.28.38-.18.28-.55-.45-.02-.52-.4-1.07-.28.05.5.32.76.8.8zm-72.55 2.23c.56 1.1 2.54 1.3 3.62.52-.14-1.87-4.22-4.8-3.62-.53zm106.03-.56c1.04 0 1.62-.5 2.14-1.06-.64-.82-2.04.15-2.14 1.08zM262.18 83c-2.42.37.07 3.5 1.74 3.22.6-.1.85-.73 1.34-1.2-.62-.6-1.67-2.2-3.08-2zm38.82.68c.45 2.2 4.3 2.77 4.82.27-1.27-.56-3.65-1.53-4.82-.28zm-84.07 2.54c.8 1.95 3.37.94 3.48-1.07-.95-1.22-3.22-.1-3.47 1.07zm57.3 2.4c.86 0 2.2-1.66 2.14-2.27-.17-1.7-3.3-1-4 0 .54.92.77 2.25 1.86 2.27zm-47.26-1.88c.92 1.1 2.18 3.95 4.02 2.28.37-2.65-2.7-4.44-4.03-2.27zm95.32.28c-.5-.53-1.35-.78-2.3-.54-.62.78-1 2.4-.8 3.62 2.13.64 3.87-.83 3.1-3.07zm-65.6 2.27c1.22.55 2.95.05 2.94-.96 0-1-1.7-1.37-2.55-1.87-.5.6-.95 1.96-.4 2.8zm-46.73-.82c.37 1.45 2.12 2.98 3.35 1.34.53-1.9-2.8-2.5-3.35-1.34zm58.24 2.8c1.12-.26 2.12-.66 2-1.6-.15-1.27-2.5-1.2-4-1.35.02 1.63 1.22 2.08 2 2.95zm44.58-2c.34-.26.34-.84-.13-.95.08.28-.17.9.13.94zm1.2.78c-.04.34.4.16.4.4.87-.03 1.15-.63 1.35-1.32-.76.13-1.7.1-1.74.93zm-93.3 0c.07 1.93 2.8 3.13 3.48 1.08-.7-.75-2.06-1.85-3.48-1.07zm85.95 1.9c1.36-.05 2.74-.4 2.27-1.9-1.25-.33-2.26.56-2.27 1.9zm16.33-1.08c-2.45 1.98 1.3 6.07 3.6 3.74-.04-2.4-1.64-3.26-3.6-3.75zm-88.62 3.6c.72-.07 1.34-1.05 1.34-2.26-.6-.8-1.8-1-3.22-.94.2 1.45.45 3.37 1.88 3.2zm27.97-.12c.83.1 1.64-.25 1.76-.8.26-1.34-3.24-3.3-4.15-1.34.5.55 1.46 2 2.4 2.14zm-58.22-1.74c.38.97 2.1 1.5 2.4.1-.32-.58-2.24-1.26-2.4-.1zm10.7.1c-.13 1.83 1.28 3.13 2.96 2.3.62-1.87-1.12-2.44-2.95-2.28zm55.97.96c.67 1 1.53 1.86 2.54 2.54 1.03-.56 2.5-.7 2.94-1.87-.6-1.54-4.35-2.08-5.5-.67zm45.25.13c-1.1 1-.45 1.84.4 2.96 1.07 1.4 3.1 2.45 4.95.94-.67-2-3.12-3.6-5.35-3.88zm-89.96 1.75c-.1 1.42 2.42 2.77 3.48 1.07.16-2.07-3.33-3.2-3.48-1.08zm-17.8.8c0 2 3.3 3.46 4.28 1.34-1.14-.6-3.06-2.57-4.3-1.35zm49.93.14c-.27-1.3-3.15-.46-3.22.92 1.12.86 3.46.34 3.22-.92zm22.48-.15c1.05.7 1.57 1.93 2.82 2.4.04-.3.46-.2.4-.66-1.23-.45-1.68-1.7-2.8-2.27-.05.27-.37.27-.42.54zm29.2 1.67c1.33-.14 2.38-.56 2.53-1.9-1.7-.3-2.88.6-2.54 1.9zm15.65-.15c-.4.76-.26 1.34-.67 2.28-1.25-1.43-4.52-1.34-5.5.28-.6 2.85-2.22 4.7-3.74 6.7-.5.2-1.1.32-1.34.8-.15 2 1.8 2.5 3.6 2.13-.2-1.07-1.05-1.58-.8-2.67.3-1.24 2.62-1.76 3.5-.68-.9 2.23.34 4.82 2.26 4.68 1.3-.1 2.12-1.54 2-3.5-1.66-1.6-4.06-2.52-5.74-4.14 1-1.85 3.36-.4 4.95-.53.72-.06 1.56-.64 2.4-1.07 2.46-1.25 4.98-2.57 6.43-4.4-1.25-1.9-6.17-2.05-7.36.12zm-47.25-.67h.4v-.4h-.4v.4zm-10.04.14c-.5 0-1.05 1.56-1.33 1.86 2.27.85 2.67-1.92 1.34-1.88zm3.9 1.2c.04-.27.28-.35.26-.68-.17 0-.18-.17-.4-.13.05.4-.34.67.13.8zm30.5.12c.48.86 1.83-.02 2.02-.67-.7-.34-1.9-.07-2 .66zm-83.66 1.45c1.15 1 4.24.94 4.82-.5-.86-1.54-4.9-2.4-4.82.52zm68-.38c.62 1.88 3.86 2.98 5.1.94-.17-2.28-4.33-3.4-5.1-.95zm-8.96-.26c-.85-.2-2.57-1.3-2.95 0 .54.6.94 1.67 1.88 1.9 1.55.33 3.6-.93 4.02-2.16-.97.1-2.4-.26-2.94.27zm-74.3 2.42c.4.38 1.6.38 2 0 .93-2.08-2.8-1.96-2 0zm28.38.26c.2.05.16.3.27.42 1.34.6 2.84-.67 2-1.88-1.2-.42-2.36.17-2.27 1.45zm28.25.15c.9.04 1.62-.1 2.15-.4.02-1.95-2.38-1.16-2.14.4zm22.23.52c.9.03 1.7-.06 1.87-.78-.9-.26-1.5-.83-2.4-1.08.18.6.08 1.52.53 1.88zm30.12-1.86c-.64.34-.85 1.12-1.2 1.74.35 1.92 3.2 1.93 4 .4-.63-1-1.9-1.4-2.8-2.15zm-41.63 3.75c2.84.85 4.68-3.6 1.2-3.48-.33.25-.2.95-.8.94-.5-.12-1.14-.12-1.6-.26 0 1.37.25 2.52 1.2 2.8zm-56.23-1.22c1.13.63 2.22.1 2.13-.78-.1-.97-1.42-.96-2.54-1.08-.1.84.1 1.4.4 1.87zm92.23 1.75c.62.04 1.3-.27 1.47-.93.42-1.62-1.2-2.5-3.08-2.4-.06 1.5.3 3.26 1.6 3.33zm-82.87-2c-.33 2.9 3.68 3.12 4.96 1.47-.4-1.67-3.35-2.66-4.96-1.5zm74.3 0c-2.43 1.76.56 4.1 2.54 2.54-.44-1.25-1.37-2-2.54-2.54zm-44.98 1.74c.6 1.16 2.7.55 2.8-.67-.6-1.16-2.7-.56-2.8.67zm-46.32.67c.22.9 1.95 1.25 3.2.93.2-1.9-3.75-3.27-3.2-.93zm120.62-1.34c-1.06-.08-1.43.33-1.6 1.07.55 1 1.53 1.56 2.4 2.26 1.48 0 3.03.1 3.75-.67-.26-1.3-2.82-2.54-4.55-2.67zm-64.53 1.2c.45 1.47 3.08 2.28 4.42 1.23-.38-1.62-2.95-1.83-4.42-1.23zm18.48 1.5c.25-.72-.6-1.35-1.34-1.5-.05.94.62 1.76 1.33 1.5zm-64.13-.55c.17 2.07 2.8 3.28 4.55 2.14.03-2.35-2.85-3.9-4.55-2.15zm68.4 3.08c.7-.05 1.15-.78 1.08-1.45-.1-1.06-1.95-2.07-2.94-1.75-.26 1.3.62 3.3 1.87 3.2zm-39.62-2.27c.45 1.3 2.96 2.9 3.75.8-.7-.88-2.84-2.52-3.75-.8zm48.33-.53c-.97.08-2.3-.2-3.07.1.06 1.15 3.3 1.57 3.08-.1zm-14.58 1.73c-1.34-1.2-2.83-1.9-3.88-.54-.45-.44-1.6-.2-2.4-.27.2 2.17 4.47 1.68 4.8 3.62.12.62-.5 1.3-.4 2 .12.82 1.57 2.13 2 2.55.64.6 1.78 1.75 2.96.8-.4-2.34-2.53-3-3.08-5.22.56-.16 1.3-.14 1.47-.67.1-.78-.8-1.67-1.48-2.28zm31.06 2.68c.78-1.9-1.38-2.9-3.62-2.68-.24 2.26 1.56 3.18 3.62 2.68zm-81.13-1.08c.67 1.03 2.97.34 3.22-.66-.56-1.27-3.15-.6-3.22.66zm28.25-.55c.33.97 3.06 1 3.08-.25-.75-.1-2.75-.48-3.08.27zm45.38-.25c-4.38-1.28-2.57 5.24.4 3.08.56-.85.27-2.62-.4-3.08zm-63.2.54c-.6 2.1 2.44 2.98 3.9 1.86-.38-1.45-2.2-2.16-3.9-1.87zm30 2.66c1.16.18 2.68-.28 2.68-1.2 0-.58-1.62-1.98-2.55-1.6-.32.13-.24.77-.65.93-.5-.08-.98-.65-1.34-.4-.05.25-.28.32-.26.66.45.52 1.07 1.45 2.14 1.6zm-44.18.67c.34-1.9-1.52-1.6-3.07-1.6.15 1.4 1.5 1.62 3.07 1.6zm68.68-1.6c-.27.36-.45.8-.67 1.22.34 2.04 3 2.57 3.36.1-.8-.5-1.73-.92-2.68-1.32zm29.72 10.6c0-1.08-.47-2.1-.8-3.1-.37-1.1-.56-2.36-1.08-3.2-.46-.76-1.67-1.44-2.94-2.28-1.42-.94-2.4-2.05-3.62-2-.22 1.2-.72 2.33-.4 3.22.25.65 1.54 1.3 2.4 2 1.46 1.17 2.76 1.93 1.9 4.14.45 1.46 3.3 3.02 4.54 1.23zm-73.1-9.52c.4 1 2.5.8 2.82-.13-.96-.22-2.57-1.56-2.8.14zm73.23-.53c-.07.15-.14.3-.27.4.03 2.78 3.7 4.8 5.36 2.4-.92-1.7-2.75-2.5-5.1-2.8zm-37.35 1.45c.04-.18.23-.22.27-.4-.22-.1-.22-.48-.54-.52-.28.33-.35.9.28.93zm-23.3 1.34c-.47-.27-.72-.78-1.2-1.06.03.67.62 1.45 1.2 1.07zm-26.76 0c.26-.33.3-.72-.14-.92-.18.17-.26.93.14.93zm27.7-.1c.53.12.54-.8.14-.82-.16.15-.16.46-.13.8zm22.5.5c.75.53 2.42.62 2.27-.8-1 .03-2.24-.18-2.28.8zm23.96-.66c-.56.12-.9.88-.8 1.48.25 1.53 2.95 1.58 4.4 2.26 0-1.53-2.66-3.94-3.6-3.75zm-39.22 1.6c.08 1.08 2.23 1.85 3.48 1.24.04-1.8-3.64-3.2-3.48-1.23zm31.32-.1c-.28 2.34 2.23 3.54 4.15 2.4-.45-1.68-2.1-2.8-4.15-2.4zm-56.36.26c.04.2 1.12.3.94-.14-.03-.18-1.12-.3-.94.15zm30.4-.14c-.03-.2-.34-.1-.55-.1-.3.47.67.58.54.1zm19.8 3.24c.65.4 2.17.8 2.95.25.7-2.05-1.45-2.35-3.22-2.4-.05.86.04 1.57.27 2.15zm-40.02-.95c.03-.18.3-.15.4-.26.03-.42-.16-.63-.54-.67-.18.2-.25.95.14.95zm20.08 1.2c1.4.57 3.45.32 3.48-1.32-1.4-.32-3.02.27-3.48 1.33zm12.3-.4c0 2.2 2.77 3.58 3.9 1.62-.92-.93-2.35-3.68-3.9-1.6zm-5.88.15c-2.23 1.1.7 3.8 2.14 3.2-.4-1.37-1.06-2.5-2.14-3.2zm29.45 2.53c.06 1.87 4 2.98 4.42 1.2.3-1.28-2.32-3.12-2.8-3.08-1.2.12-1.64.96-1.62 1.87zm-5.5-.54c-1 0-1.85.78-1.86 1.73 0 1.68 3.74 3.32 5.2 1.6-.17-.9-1.75-3.36-3.34-3.34zm-8.15 2.4c-.4 1.83 2.25 3.82 3.6 2.28-.88-.95-1.88-3.46-3.6-2.3zm23.7 3.08c.84-.08 1.02-.84 1.2-1.6-1-.07-1.18.7-1.2 1.6zm-11.12-.1c.2-.06.22-.23.4-.3-.06-.55-.6-.64-1.07-.8.1.5.17 1 .68 1.08zm6.16 3.45c.76.05 1.42-.45 1.47-1.2.12-1.47-2.13-2.23-3.6-2-.1.03-.16.1-.14.26-.02.78 1.12 2.88 2.28 2.95zm6.16-2.12c.37 2.23 3.28 1.07 3.08-.95-1.34 0-2.5.18-3.08.94zm-14.6.4c-.13.17-.22.4-.4.52.34 1.5 1.45 2.2 3.35 2.15-.4-1.45-1.5-2.24-2.94-2.68zm-7.22 2c.05-.26.38-.25.26-.67h-.4c.08.2-.15.7.14.67zm1.47 1.2c-.04.63.37.78.67 1.07 1.84-.2.22-2.56-.67-1.08z"/>
    <path d="M12.1 12.86c.68.37 0 2.08.42 2.68.93-.17 1.36-1.82 2.8-2.27.98-.32 5.32-.48 6.57-.14.72.23 1.16 1.2 1.73 1.5.73-.3 1.02-1.04 1.87-1.22-.1 1.82.4 2.73 1.6 3.63.4.26 1.57.9 1.48.92 1.34-.5-.67-4.06 1.2-4.28.54.28.63 1 1.34 1.34 1.2.56 2.94.53 3.9 0 1.5 2.27 1.06 6.5 1.32 10.05-.74.35-2.78 1.06-2.8 2.12-.06 1.56 4.34 2.56 5.35 3.34 0 .97-1.4 1.5-1.62 2.58-.3 1.48.78 2.93.4 4.8-.1.58-.78 1-.93 1.6-.23.9 0 2.04 0 2.96 0 .82-.23 1.8.4 2.4 2.17-.5 3.52-1.83 4.95-3.08.67-2 1.34-2.46 3.2-1.75.55.2 1.05.62 1.5.54 1.37-.24 1.66-4.93 3.2-4.94 1 0 1 1.64 1.74 1.74 1.36-.33.93-2.45 2-3.08 1.3-.22 3.53-.22 4.83 0 .5 1.42-1.27 1.64-2.28 2.14-1.5.74-4.58 2.1-3.1 4.7.86 1.44 4.68 1.37 5.5-.57.34-.8.13-1.4.27-2.4 1.43.16 2.45 1.63 3.6 2.4.5.35.9.3 1.22.68.48.64.62 1.6.66 2.58-2.23 0-3.04-3.04-4.96-2.57-1.4.37-1.07 3.07-2 4.17.9.78 2.7 1.26 3.88 1.07 1.16-.2 3.2-1.97 4.28-2.67 1.56-1.05 2.97-2.05 3.88-2.96-.17-1.16-1.16-2.76-.67-3.74.9-.4 1.1.85 1.34 1.45.6 1.42 1.17 3.18.55 5.1-.54 1.66-1.93 3.98-2.8 4.03-.84.04-1.18-1.12-2.02-1.2-2.08-.23-2.84 2.74-3.2 4.12.32.62 1.05.44 1.46.56.52.12 1.05.34 1.6.26 2.2-.26 3.3-3.68 5.75-1.87 1.56-.9 2.5-2.4 4.15-3.22 2.8.06 3.16-2.28 5.9-2.28-.34 1.16-1.54 1.75-1.6 3.08-.07.94 1.03 1.98.12 2.8-1.8-.12-1.94-2.42-3.6-2.28-1.82.17-1.17 3.53-2.42 4.82-1.77.73-1.84-1.26-2.95-1.6-1.1.28-1.7.96-2.54 1.86-.57.62-1.7 1.64-1.6 2.68.1 1.07.98 1.3 1.74 1.34 1.95.1 3.48-2.2 4.95-2.4 1-.15 1.86.4 2.67.4.75-.7-.24-1.9-.13-2.3 1.96.07 2.56 1.96 3.75 2.95 1.2 1 2.62 1.28 4.27 2-.1 1.45.16 2.52.4 3.62-.26.67-1.17.7-1.74 1.07-1.2-.78-3.68-1.28-4.42.27-.1 1.2.2 1.97.42 2.82-.98.3-1.8-.3-2.68-.4-2-.27-3.88.36-5.9.4 1.88-.38 2.7-1.78 2.82-3.92-1.38-.56-2.57-1.98-4.3-1.6-1.35.32-1.32 2.04-2.4 2.82-2.73.44-4.83 1-6.96 2-.64.3-1.4.83-2 .93-1.12.2-2.3-.27-3.48.27-.98-1.12-.65-3.55-2.15-4.15-2.58.76-1.54 4.07-3.74 4.15-.96.03-1.23-.9-2.15-.94-.86-.03-1.26.56-2 .94-2.37.18-4.02-.36-6.16-.4-.97 1.1-.95 2.68-1.07 4-.3 3.16-.56 6.56-.4 10.33.2 4.64.62 8.93.26 13.93-.27 3.8.12 8.8-.26 12.85-.1 1.28-.6 2.1-1.07 3.2.28.82.94 1.42 1.48 2.15.46.65 1.22 1.5 1.34 2.14.14 1.04-.76 1.8 0 2.82 1.28.33 2.94.03 3.6-.67.13-.67-.38-1.54.13-2.3 2.6.06 3.43 1.82 5.63 1.08.93-.3 1.95-1.3 2.4-2.12.5-.9.56-2.03 1.34-2.15 1.34-.2 1.42 1.63 2.82 1.74 1.47-1.12 1.2-4.1-.14-5.1-.95-.7-2.15-.63-3.48-.8.06-1-.13-2.27.13-3.07.63-.58 1.9-.53 2.28-1.34.38.26.75.5 1.35.53.87-.35 1.34-1.2 1.2-2-.33-1.84-3.57-1.32-5.08-.8-.26-1.46.55-2.82.53-4.16-.02-1.27-.56-2.5-.4-3.75.17-1.56 1.06-3 .94-4.28-.08-.76-.9-1.5-.94-2.28-.04-.66.48-1.27.54-2 .07-1.12-.5-1.9-.4-2.96.98.05 1.96 1.3 2.94 1.2.9-.07.96-.74 1.47-1.6 1.8.3 3.17 1 4.42 1.86h3.2c1.06-.76 2.27-1 4.16-1.2.87-.1 2-.3 2.55-.15 1.67.46 1.76 3.16 3.08 3.5 1.2.28 2-.45 2.67-.82-.1-.85-.63-1.23-.53-2.28 1.7-.5 3.62-.67 5.22 0 1.27 2.6 3.57 4.2 6.16 5.5.44.8.6 1.9.53 3.2-2.05.67-5.28.18-5.6 2.28-.4 2.45 2.44 3.32 5.34 3.2.12.95-.44 1.82-.4 2.7.02.85.54 1.6.54 2.4 0 1.56-.9 2.73-1.47 3.9-.6 1.15-1.1 2.24-2 3.2-.83-.2-1.45-.6-2-1.07-.62.9-2.07 1.35-2.15 2.44-.2 2.53 6.13 4 5.35 6.96-1.5 1.45-3-1.04-4.42-1.06-.9 0-1.94.55-2.14 1.47-.33 1.5 1.63 3.7 2.95 3.9 1.8.28 2.7-1.03 3.87-1.48-.37 1.3-1.56 1.75-2 2.94.35 1.32.57 2.72 1.2 3.75.33.57.72.93 1.2 1.35-.9.7-1.83 1.3-2.8 1.88.02 1.42.2 2.04.8 2.82.7.96 2.1 1.3 2.14 2.54.07 2.22-4.72 3-4.55 5.76.06 1 .72 1.36 1.6 2-.4.4-.55 1.3-1.33 1.2-.8-.07-.9-1.18-1.47-1.86-.78-.93-2.2-1.85-3.75-.94-.26.15-.95.5-.94 1.34.03 1.8 3.2 2 3.62 3.6.6 2.36-1.88 3.84-4.55 3.63 1.03-1.7.72-4.35-1.07-4.94 0-1.6-.52-3.33-.14-4.83 1.04.1 1.72.6 3.08.4.36-.64-.5-.96-.8-1.34-2.3-2.77-4.72-6.4-8.57-7.75-1.86 1.76-2.86 4.38-6.96 3.88-2.1 1.45 2.07 6.8 4.15 4.68-.03 3.13 1.97 4.9 5.1 4.42.92-2.12.28-4.2-1.35-4.96-1-.45-2.98-.07-3.48-1.2-.3-.64.4-1.93 1.2-2.15 1.7-.48 3.72.5 4.4 1.34 2.05 2.5.8 10.78-2.27 11.1-1.2.13-1.42-.82-2.67-.67-1.28.18-1.4 1.4-1.48 3.24-1.45-.27-3.53-1.14-4.82-.28-.22.13-.33.55-.67.4-.37-2.93-1.6-5-5.23-4.7-.17-1.5-1.38-4.28-3.2-4.54-1.4-.2-3.02.56-2.7 2.28.35 1.86 3.52 1.6 4.97 2.68v3.74c-1.3 0-2.3-.78-3.48-.8-1.53 0-2.88 1.17-4.42.82-.43-1.6 1.42-1.68 1.6-2.95.27-1.9-1.82-3-2.4-4.68-1.08.83-1.5 2.32-2.68 3.06-.65-1.95.04-5.72-2-6.14-1.08-.23-2.63.74-3.22 1.74 0 .78.76 1.4.26 2.26-1.48.4-2.04-.62-3.74-.4-1.06.13-4.02 2.37-2.15 3.2.68.3 1.42-1.33 2.42-1.33 2.08-.03 2.65 3.24 2.15 5.22-2.68.47-5.98.27-9.24.27-3.27 0-6.64.3-9.37 0-.78-.08-1.56-.3-2.14-.8-.05-.67.22-1.03.4-1.47-.38-.8-.9-1.43-1.74-1.74-.9.12-.74 1.32-1.07 2-1.44-.32-2.53-1.55-3.74-2.53-3.43-2.72-6.88-6.14-6.3-12.86.12-1.3.97-2.86 0-4 .26-12-.28-24.44.27-36.7.34-7.05-.16-14.1.14-21.02.37-8.5 0-16.28.4-25.03.33-7.5-.3-17.34.8-24.35.45-2.84.72-4.7 2.14-6.43.74-.3 1.5-.56 2.02-1.06 2.1-.18 4.22-.32 6.3-.52zM20.83 17c.2-.02.5.05.53-.13-.18-.18-.5-.18-.53.13zm1.87 3.36c.1-.4.63-.36.53-.95h-.67c.07.3-.17.9.13.95zm6.15 2.12c1.58 0 3.12-.08 3.08-1.73-1.4-.78-3.13.2-3.08 1.74zM23.1 24.1c.96.63 2.56.63 4 .8 0-.97-.27-1.67-.66-2.27-1.23-.52-3.63-.37-3.35 1.47zm4.14 5.9c.2.02.22.2.4.26.14-.32.45-.45.4-.94-.4.1-.78.22-.8.67zm-4.95.93c.1 1 .88 1.33 1.86 1.47.17-1.23-.85-1.9-1.87-1.5zM16 33.47c.44.07.55-.78.13-.8-.16.15-.16.46-.13.8zm18.07 1.87c.07-.74-.18-1.16-.4-1.6-3.4-.48-2.46 2.2.4 1.6zm0 .14c-.03.25.16.3.13.53.43.08.6-.1.54-.52-.18-.17-.5-.17-.67 0zm12.58 10.44c1.93-1 5.7-.74 5.63-3.07-.04-1.14-1.52-2.17-2.82-2.14-1.87.05-3 2.02-4 2.82-.8.08-1.6-.1-2.3 0-1.55.22-2.67 1.56-4 2.28-.4.2-.93.2-1.2.4-.7.47-1.1 1.5-1.2 2.4.5.72 1.35.67 1.86 1.33.74 1 .5 2.26.27 3.76 1.06 1.1 3.3 1.76 5.2 1.6.46-.5.57-1.3.95-1.86 1.7-.93 4.4-.86 5.48-2.4-.8-1.04-1.47-2.2-3.07-2.42-.9 1.34-1.76 2.72-2.82 3.9-.78-.93-2.93-.47-4.28-.8-.45-3.17 2-3.47 4.42-3.76.7-.67.97-1.53 1.87-2zM32.73 43.4c-.22-.05-.62-.53-.8-.15.14.5.7 1 .8.15zm22.36 6.55c1.53-.2 2.26-2.73 1.33-3.74-.5-.52-1.46-.77-2.82-.53-4.1.76-.88 4.62 1.5 4.3zm-25.3 1.22c.5.03.5-.84 0-.8v.8zm31.98.93c-.22-1.14-2.23-1.65-3.6-1.47-.68.63-.88 2.42-.55 3.62 2.1.5 4.46-.47 4.15-2.14zm-7.9 1.47c-1.7-.67-3.84.64-3.35 2.68.73 1.42 3.95 2.34 5.1.67-.16-1.06-.52-2.87-1.75-3.35zm-16.6 1.6c.1-.93-1.36-1.15-1.47.12.4.9 1.43.5 1.48-.12zM65.8 57.3c.2-.93-.4-2.7-1.34-2.8-1.26-.1-2.94 2.57-3.22 3.75 1.5 1.22 4.2.9 4.56-.94zm7.5-.1c.37 2.73 4.14 4.08 6.28 1.85.2-2.76-4.6-3.5-6.3-1.87zm-24.9-.3c-1.8-.36-3.82.1-4.3 1.48.68 1.73 3.18 2.64 4.83 1.2.22-1.06.15-2.17-.54-2.67zm-10.05.54c.32.27.36.27.67 0 .02-.33-.2-.42-.4-.53 0 .28-.37.17-.27.54zm19.28 1.07c-.6.5-1.25.98-1.34 2.02.64.84 3.72 1.26 4.54.26-.44-1.38-1.78-1.88-3.2-2.28zm-16.06 1.46c-1.32-.14-3.3.83-3.08 2.3 1.55.47 3.9-.37 5.48.53-.38-1.13-1-2.66-2.4-2.82zm12.98 1.5c-.2 0-.5-.06-.53.12.17.18.5.18.53-.13zM35 63.58c.3.24 1 .08 1.48.12.1-1.1-1.5-1.18-1.47-.13zm17.94 21.03c.12.02.16.1.14.26.75.58 1.9.77 2.94 1.06 4.24-1.6-3.73-6.8-3.08-1.34zm12.86-.67c-.53.45-1.05.9-1.48 1.45 1 .77 2.23 1.28 3.62 1.63 1.63-1.23-.8-2.76-2.14-3.08zm10.04 3.07c.52.86 1.74 1.02 3.08 1.07.6-2.73-2.8-4.07-3.08-1.06zm-17.67 1.6c1 .96 2.25 1.68 4.28 1.6.7-2.73-3.76-4.1-4.28-1.6zm12.58 2.68c.6.32 1.6.7 2.14.4 1.4-.8-.5-2.8-1.08-2.94-.4-.1-.78.03-1.2.14-2 .53-.72 1.95.13 2.4zm-18.88.94c.78 1.04 2.9.78 4.56.93.55-2.95-4.08-3-4.56-.93zm16.2 1.07c-.84-1.58-4.84-1.4-4.82.27 0 .85 3.16 2.86 4.42 2.14.75-.9.8-1.63.4-2.4zm11.25 2.4c-.05-.7-1.4-1.8-2.15-2.13-2.5-1.06-2.9 1.98-3.07 4.28 1.9.14 5.35-.16 5.22-2.14zm-18.48.4c-1.1-.83-4.1-.3-4.28.82-.26 1.64 3.66 3.28 5.1 2.4.1-1.36.18-2.46-.82-3.22zm10.3 5.5c1.26.12 2.6-.74 2.42-2.27-.1-1-1.64-2.45-2.28-2.67-.46-.17-.75-.12-1.33 0-3.7.6-.5 4.76 1.2 4.94zm8.58-1.73c-.2 1.64 1.5 3 2.68 3.6 1.22-.58.7-2.93.8-4.67-1.42-.84-3.33-.25-3.48 1.08zm-17.4 2.8c.33 1.24 2.14 2.88 3.34 2.7 1.07-.2 1.68-2.02 1.34-3.1-.37-1.2-1.78-2.2-3.75-1.6-1.06.3-1.26.77-.93 2zm14.2-1.07c-1.5-.34-3.63.98-3.63 2.4 0 1.95 2.85 2.53 4.94 2.27 1.23-1.47.04-4.38-1.33-4.68zM59.9 104c-1.5-1.33-4.12 0-3.76 2.4 1 1.07 2.62 2.18 4.55 1.88.54-1.12-.1-3.66-.8-4.28zm10.3 6.56c1.2 0 2.38-1.45 2.4-2.55.05-2.15-3.43-4.1-5.08-1.88.03 2.14.9 4.42 2.67 4.42zm-5.63 3.2c.92-.05 2.1-1.6 2-2.54-.08-.63-2.34-2.76-2.95-2.8-1-.08-2.4 1.4-2.54 2-.1.45 0 .9.14 1.47 1.85-.07 1.8 1.96 3.35 1.87zm11.1-4.28c-1.78-.44-3.9 1-3.88 2.43.02 2.15 4.2 3.1 6.16 1.88.28-1.6-1.06-3.98-2.28-4.28zm-20.35 5.36c.23 1.17 2.4 2.6 3.75 2.3.86-.2 1.72-1.9 1.6-2.83-.15-1.3-2.53-3-3.6-2.8-1.3.25-2.06 1.68-1.75 3.35zm15.13-.93c-1.14-.82-3.6-.62-4.28.4-1.53 2.4 2.8 5.73 5.22 4.16.5-1.65.33-3.6-.94-4.55zM48.53 117c-.1 1.5 1.5 2.58 2.4 2.94.74.28 1.9.1 2.68 1.07.87 1.08.8 3.4 1.75 4.16.34.27 1.43.72 2.28.53 1.17-.27 1.94-2.13 1.74-3.22-.2-1.08-1.5-1.42-2.68-2.14-1.04-.64-2.37-2.12-3.1-3.08-.8-1.1-1.73-2-3.07-1.87-.8.05-1.9.28-2 1.58zm15-.14c-1.57-.58-3.47.3-3.62 1.62-.33 2.56 3.3 3.73 5.5 2.4.24-1.44-.56-3.5-1.88-4zm-29.2.14c-.03-.1-.1-.15-.26-.13-.74.67-1.72 1.06-1.88 2.3 1.7-.2 3.2.5 4.28.52.15-1.28-1.34-1.96-2.14-2.7zm37.36 4.15c.5 1.4 2.48 1.5 3.47 2.68.18 2.28 3.6 4.9 5.9 3.48 1.84-1.15.37-4.12-1.5-4.4-1.08-.17-1.4.25-2.53.27-.3-1.36-.05-3.23-.13-4.82-2.56-1.34-6.46-.48-5.2 2.8zm-28.8-.26c.47 1.4 1.52 3.3 2.68 3.33.78.04 1.68-.7 1.88-1.2 1.03-2.5-1.3-4.65-2.68-4.68-1.9-.02-2.4.94-1.88 2.55zm24.9.65c-1.78-.13-3.64 1.96-2.4 4.02 2.27-.87 3.56.56 5.48.82.06-2.36-1.06-4.67-3.08-4.83zm-29.58 4.17c1.26.26 3.5-.1 3.6-.94.12-.93-2.37-2-3.07-2-.95-.05-2 .4-2.27 1.18.37.67.6 1.5 1.74 1.74zm9.24-.14c-.17 2.3 1.93 2.08 3.48 2.82 1.6.8 2.5 1.87 2.4 4.15-1.92 1.7-2.86-.94-4.55-.8-1.12.1-1.9 1.45-1.88 2.28.06 1.75 2.6 2.67 4.02 3.08 1.1-.48.8-1.52 2-2.4 1.57-1.14 4.3-.72 5.1-2 1.27-2.13-.95-5-3.9-4.03-1.44-1.08-1.7-3.4-2.8-4.82-1.9-.73-3.76.1-3.88 1.74zm14.6-.52c-1.35-.17-3.4 1.34-3.36 2.68.07 1.7 4.43 3.68 5.5 1.6.36-2.07-.46-4.07-2.15-4.28zm-28.93.67c-1.4-.08-3.26 1.26-2.94 2.67 1.07.5 1.85-.9 2.8-.93.76-.06 1.17.44 2 .67.16-.26.34-.47.54-.67-.56-.64-1.34-1.68-2.4-1.75zm42.84 2.54c-.78-.67-1.62-2-2.8-2-1.07 0-2.3 1.42-2.3 2.4 0 .55.76 1.78 1.35 2.16.82.5 2.17.55 3.2.4.55-.64.6-1.74.55-2.96zm-31.06-1.45c-1.27-.45-3.18.93-3.33 1.86-.45 2.6 2.4 3.35 4.8 3.48.93-1.56-.14-4.9-1.46-5.35zm-8.96 4.8c-.22.96.16 1.84.94 2 .54.14.95-.37 1.6-.4.82 0 1.17.4 2 .55 1.65-2.6-3.96-4.77-4.54-2.14zm-6.3-.26c.86-1-1.38-.4 0 0zm47.8 4.55c1.75.68 3.84-.38 3.35-2.8-.23-1.14-2.52-2.2-3.63-1.87-2.56.73-1.14 4.12.27 4.68zm-67.6-2.26h1.6v-1.06c-.92-.04-1.58.2-1.6 1.07zm23.3.28c-2.15-.4-4.36 1.3-4.16 2.94 1.42-.1 2.03-1 3.35-1.23.8.32 1 1.23 2.14 1.23 1.3-1.34-.13-2.73-1.34-2.96zm7.35 3.2c-.42 2.65 4.04 3.98 5.08 2.42 1.34-2-1.78-4.2-3.34-3.9-1.08.22-1.63.77-1.75 1.48zm20.74 5.23c-.78-.78-2.34-2.03-3.48-3.07-1.16-1.07-2.8-2.7-4-2.54-.8.1-1.64 1.25-1.62 2.14.05 2.1 3.06 3.12 4.7 3.6.4 1.12.28 2.75.8 3.75.94-.18 1.7-.52 2.53-.8.58.37 1.34 1.2 2.28.8.84-1.54-.45-3.13-1.2-3.9zm-34.94-4.7c.32.3.36.3.67 0 .03-.32-.2-.4-.4-.5 0 .26-.37.16-.27.52zm2.68 1.63c-.22.08-.78-.15-.8.14.26.15.82.5.8-.14zm-.4 8.57c.3-2.34-1.67-2.43-3.6-2.54.08 1.85 1.88 4.02 3.6 2.55zm429.32-135c.67.38-.03 2.1.4 2.7.92-.18 1.36-1.83 2.8-2.28.98-.32 5.32-.48 6.57-.14.74.23 1.17 1.2 1.74 1.5.7-.35 1.07-1.02 1.88-1.22-.3 2.87 1.65 3.45 3.08 4.56 1.07-.78-.44-4.1 1.2-4.28.52.3.63 1 1.35 1.34 1.2.53 2.95.53 3.9 0 1.52 2.26 1.04 6.52 1.33 10.04-1 .6-2.8.93-2.8 2.12-.06 1.63 4.47 2.47 5.34 3.5-.18.83-1.4 1.36-1.6 2.4-.3 1.48.78 2.92.4 4.8-.12.58-.8 1-.94 1.6-.22.9 0 2.05 0 2.96 0 .83-.22 1.82.4 2.4 1.72-.56 3.74-1.57 4.82-2.95.56-.72.84-2.08 1.74-2.27 1.08-.23 2.1 1.1 3.07.93 1.4-.26 1.67-4.94 3.2-4.94.94 0 1.13 1.7 1.75 1.74 1.34-.33.93-2.45 2-3.08 1.32-.22 3.52-.22 4.83 0 .45 1.43-1.23 1.62-2.28 2.15-1.48.73-4.57 2.08-3.08 4.68.62 1.1 2.9 1.32 4.28.68 1.42-.67 1.37-2.23 1.47-3.63 1.4.2 2.4 1.54 3.48 2.28.45.3.9.33 1.2.67.56.6.8 1.62.8 2.68-2.2 0-3.05-3.02-4.94-2.57-1.4.35-1.1 3.06-2.02 4.17.86.82 2.7 1.26 3.88 1.07 1.17-.2 3.2-1.97 4.28-2.67 1.57-1.05 2.97-2.06 3.9-2.96-.2-1.16-1.18-2.76-.68-3.74.9-.42 1.07.83 1.34 1.45.5 1.24 1.02 2.02.8 4.03-.2 1.78-1.95 5.02-3.08 5.1-.78.04-1.3-1.12-2-1.2-2.07-.23-2.8 2.56-3.22 4.12.33.62 1.05.44 1.47.56.54.12 1.06.34 1.6.26 2.2-.26 3.3-3.68 5.76-1.87 1.57-.9 2.5-2.4 4.15-3.22 2.8.06 3.16-2.28 5.9-2.28-.37 1.12-1.53 1.8-1.6 3.08-.08.95.9 1.76.26 2.68-1.8.33-2-2.3-3.75-2.16-2.13.2-.9 5.02-3.23 4.96-1.33-.04-.8-1.23-2.14-1.73-1.17.22-1.7.97-2.54 1.87-.6.63-1.73 1.65-1.62 2.68.1 1.05.96 1.3 1.74 1.34 1.97.1 3.6-2.23 5.1-2.4 1-.12 1.73.4 2.53.4.75-.7-.24-1.88-.13-2.3 1.95.07 2.57 2 3.75 2.95 1.23 1 2.62 1.28 4.28 2-.1 1.43.1 2.57.4 3.62-.25.66-1.17.7-1.74 1.06-1.18-.78-3.67-1.28-4.4.27-.12 1.17.13 2 .4 2.8-1.08.05-2.04 0-2.68-.4-2.34-.25-3.8.4-5.9.4 1.9-.36 2.7-1.8 2.82-3.9-1.4-.56-2.56-2-4.28-1.6-1.36.3-1.34 2.03-2.4 2.8-2.75.46-4.84 1-6.97 2.02-.66.3-1.44.82-2.02.92-1.14.2-2.3-.26-3.48.27-1-1.1-.64-3.57-2.14-4.15-2.64.74-1.5 4.2-3.9 4.14-.83 0-1.14-.9-2-.93-.85-.03-1.25.56-2 .94-2.37.18-4.02-.35-6.16-.4-.98 1.05-.95 2.64-1.07 4.02-.15 1.5-.34 3.03-.4 4.57-.28 6.07.74 12.7.26 19.4-.3 3.87.03 8.82-.27 12.84-.1 1.4-.52 2.32-1.07 3.5.28.8.93 1.4 1.47 2.13.45.65 1.23 1.5 1.34 2.15.15 1.03-.76 1.78 0 2.8 1.3.34 2.95.04 3.6-.66 0-.87-.32-1.7.15-2.3 2.34 0 3.5 1.8 5.62 1.07.9-.3 1.87-1.17 2.4-2.12.63-1.15.57-2.03 1.35-2.15 1.2-.18 1.86 1.9 2.8 1.74 1.63-.3.86-4.2 0-4.95-.95-.85-2.05-.77-3.62-.96v-2.95c.6-.7 2-.6 2.4-1.46.38.25.75.5 1.35.53.85-.34 1.34-1.23 1.2-2-.3-1.83-3.53-1.35-5.08-.8-.28-1.46.56-2.8.53-4.16-.02-1-.58-2.2-.4-3.74.17-1.56 1.06-3 .94-4.3-.08-.73-.9-1.5-.94-2.26-.04-.7.48-1.28.54-2 .07-1.15-.56-1.9-.4-2.97 1 .08 2.05 1.38 3.08 1.2.82-.14.8-.85 1.33-1.6 1.8.3 3.17 1 4.42 1.87h3.22c1.03-.8 2.23-1 4.15-1.2.85-.12 2-.3 2.54-.15 1.67.44 1.75 3.14 3.08 3.48 1.2.3 1.98-.45 2.68-.82-.07-.86-.7-1.18-.54-2.26 1.67-.5 3.63-.67 5.22 0 1.23 2.64 3.57 4.18 6.16 5.48.44.82.6 1.9.53 3.22-2.08.67-5.27.18-5.63 2.27-.42 2.5 2.46 3.3 5.36 3.23.1.92-.45 1.8-.4 2.67.04 1.16.66 1.96.4 3.22-.52 2.34-1.94 4.35-3.35 6.3-.83-.2-1.45-.6-2-1.08-.62.9-2.07 1.34-2.15 2.42-.1 1.4 1.75 2.2 2.94 3.2 1.27 1.08 2.55 2.1 2.4 3.76-1.44 1.45-2.92-.97-4.27-1.06-1-.07-2.12.52-2.28 1.6-.22 1.34 1.6 3.5 2.82 3.74 1.85.36 2.8-1 4-1.47-.36 1.23-1.46 1.74-2 2.8.32 1.32.53 2.73 1.08 3.76.33.66.84 1 1.33 1.47-.9.67-1.83 1.3-2.8 1.88 0 1.34.2 1.96.66 2.68.73 1.1 2.32 1.38 2.3 2.82-.07 2.08-4.6 3.03-4.56 5.5 0 1.02.67 1.47 1.6 2.13-.4.4-.56 1.27-1.34 1.2-.8-.06-.9-1.2-1.47-1.87-.78-.93-2.2-1.83-3.75-.93-.28.16-.95.45-.93 1.34.02 1.84 3.2 1.97 3.6 3.62.6 2.35-1.86 3.82-4.54 3.62 1.04-1.73.72-4.3-1.06-4.94 0-1.6-.52-3.32-.14-4.82.96.2 1.77.56 3.08.4.36-.64-.5-.97-.8-1.34-2.3-2.77-4.72-6.4-8.57-7.75-1.86 1.73-2.83 4.37-6.95 3.87-2 1.75 1.92 6.58 4.15 4.7-.04 3.1 1.98 4.86 5.1 4.4.9-2 .3-4.2-1.35-4.96-1.23-.55-2.9-.14-3.62-1.33.06-.9.52-1.36.94-1.87 3.98-.78 5.9 1.48 5.9 5.22-.03 2.9-1.27 6.87-3.35 7.1-1.23.13-1.77-.8-2.68-.68-1.36.2-1.45 1.63-1.47 3.24-1.15-.1-2.74-.93-4.02-.67-.7.12-.95.57-1.47.93-.34-3-1.56-5.13-5.22-4.8-.54-2.02-1.25-4.3-3.22-4.56-1.56-.22-3.12.56-2.67 2.4.4 1.7 3.74 1.58 4.95 2.55v3.74c-1.27.03-2.23-.78-3.48-.8-.73 0-1.7.37-2.4.56-.68.14-1.46.65-2.02.26-.42-1.6 1.43-1.68 1.6-2.95.26-1.86-1.82-3-2.4-4.68-1.12.8-1.5 2.32-2.68 3.06-.67-1.94.07-5.72-2-6.14-1.08-.23-2.63.73-3.22 1.74 0 .78.76 1.4.27 2.26-1.17.37-2.45-.64-3.9-.4-1.5.22-3.34 1.85-2 3.2 1.05.12 1.27-1.33 2.4-1.33 1.8-.03 2.65 2.72 2.15 5.1-1.23.66-2.85.4-4.42.4-4.22 0-10.13.42-14.2 0-.77-.08-1.58-.3-2.13-.8.63-1.6-.1-2.8-1.34-3.2-.9.1-.74 1.3-1.07 2-2.3-.94-4.45-2.9-6.3-4.82-2.8-2.87-4.9-7.67-3.22-13.25-.04-.6-.4-.85-.53-1.34.37-11.76-.4-24.25.13-36.4.7-15.8.1-32.37.8-47.8.23-5.23-.28-11.42.14-16.6.4-4.86.37-9.94 2.68-12.73.72-.3 1.47-.56 2-1.06 2.1-.18 4.22-.32 6.3-.52zm8.7 4.16c.2-.02.5.05.53-.13-.17-.18-.5-.18-.53.13zm1.87 3.36c.1-.4.64-.36.54-.95h-.66c.08.3-.17.9.13.95zm6.16 2.12c1.6 0 3.1-.1 3.08-1.73-1.38-.78-3.14.2-3.07 1.74zm-5.76 1.62c.97.63 2.6.63 4.02.8-.04-.94-.3-1.67-.68-2.27-1.23-.52-3.62-.37-3.35 1.47zm4.15 5.9c.5.4.8-.23.8-.68-.4.1-.77.22-.8.67zm-4.95.93c.1 1 .9 1.33 1.88 1.47.16-1.23-.85-1.9-1.88-1.5zm-6.3 2.54c.46.07.57-.78.14-.8-.14.15-.14.46-.12.8zm15.4.94c-.1.97 1.34.94 2.68.93.1-.67-.18-.98-.27-1.47-1.06-.25-2.32-.25-2.4.56zm2.68 1.07c-.03.25.16.3.14.53.4.07.6-.1.52-.53-.18-.17-.5-.17-.67 0zm12.85 10.3c1.93-.86 5.42-.73 5.36-2.95-.04-1.14-1.52-2.18-2.8-2.14-1.9.04-3.03 2-4.03 2.8-.8.1-1.56-.1-2.28 0-1.56.23-2.67 1.57-4 2.28-.42.23-.93.2-1.22.4-.7.47-1.1 1.5-1.2 2.4.5.73 1.36.67 1.87 1.34.76 1.03.47 2.23.27 3.76 1.07 1.12 3.33 1.76 5.22 1.6.44-.48.55-1.3.93-1.86 1.7-.92 4.4-.85 5.5-2.4-.8-1.04-1.5-2.16-3.1-2.4-.88 1.32-1.78 2.68-2.8 3.9-.78-.95-2.94-.48-4.3-.82-.43-3.18 1.98-3.5 4.43-3.75.74-.74 1.06-1.65 2.14-2.12zm-14.46-1.9c.04-.14.15-.2.27-.25 0-.45-.37-.5-.8-.53.05.38.23.63.54.77zm20.22 5.1c.76.67 1.67 1.05 2.4.94 1.54-.2 2.3-2.7 1.35-3.72-.48-.53-1.44-.8-2.8-.54-2.76.5-2.17 2.28-.94 3.35zm-22.9 2.2c.52 0 .52-.86 0-.82v.8zm32 1.05c-.14-1.18-2.12-1.8-3.6-1.6-.68.63-.88 2.42-.55 3.62 2.02.45 4.36-.36 4.16-2zm-7.9 1.34c-1.74-.67-3.83.67-3.34 2.68.72 1.4 3.95 2.34 5.08.67-.17-1.07-.5-2.87-1.74-3.34zm-16.6 1.6c.1-.93-1.36-1.15-1.47.12.38.9 1.4.5 1.46-.1zm28.52 1.87c.08-.78-.4-2.45-1.34-2.54-1.18-.13-2.88 2.44-3.2 3.6 1.4 1.53 4.34.95 4.54-1.08zm10.84-.67c-1.27-.17-3.2-.06-3.35.94-.1.78 1.62 2.5 2 2.68 1.46.66 3.5-.07 4.3-.93-.05-1.53-1.34-2.46-2.95-2.68zM489.9 58.1c.44 1.93 2.9 2.9 4.68 1.6.33-1 .3-2.22-.4-2.8-1.77-.42-3.53.17-4.3 1.2zm-5.76-.67c.3.27.35.27.66 0 .03-.33-.2-.42-.4-.53 0 .26-.37.16-.26.53zm17.93 3.2c.85.64 3.73 1.2 4.56.16-.7-1.9-4.47-3.58-4.56-.14zM487.35 60c-1.26-.15-3.13.75-3.2 2.28 1.64.5 4-.37 5.6.54-.37-1.12-1-2.65-2.4-2.8zm12.98 1.48c-.2.02-.5-.05-.53.13.18.17.5.17.53-.14zM480.8 63.6c.28.25.97.1 1.46.13.13-1.1-1.53-1.22-1.47-.13zm17.93 21.03c.1.02.15.1.13.26.75.58 1.9.77 2.95 1.06 4.25-1.56-3.72-6.8-3.07-1.34zm12.85-.67c-.53.45-1.05.9-1.47 1.45 1 .77 2.24 1.28 3.62 1.63 1.6-1.2-.78-2.77-2.14-3.08zm12.05 1.34c-1.12-.34-1.92.44-2 1.73.5.86 1.73 1.04 3.07 1.07-.15-1.12-.1-2.52-1.07-2.8zm-16.07 2.68c-1-.95-3.6-.93-3.6.4 0 1.1 2.84 2.02 4.27 1.86-.08-.96-.08-1.72-.67-2.28zm10.04.78c-1-.23-2.42.33-2.4 1.22 0 1.03 3.18 2.57 3.87 1.34.12-1.16-.5-2.34-1.47-2.56zm-19.94 3.5c.78 1.03 2.9.77 4.55.93.57-2.97-4.06-3.03-4.54-.95zm11.37 1.33c.03.8 1.34 1.44 1.6 1.6.8.47 1.76.92 2.55.66.9-.3 1.05-1.83.67-2.54-.44-.87-1.9-1.23-3.2-.95-.8.16-1.63.34-1.62 1.2zm16.07 2.13c-.08-1.23-2.66-2.86-3.88-2.14-1.36.77-.97 2.44-1.34 4.4 2.1-.22 5.35-.24 5.22-2.28zm-18.34.53c-1.12-1-4.24-.5-4.42.67-.24 1.66 3.65 3.27 5.1 2.4.13-1.32.16-2.33-.68-3.08zm8.16 4.02c.54.65 1.23 1.26 2 1.34 1.07.1 2.53-.63 2.42-2.14-.04-.6-.82-1.47-1.2-1.87-.45-.47-1.3-1.1-2.4-.92-2.42.4-1.73 2.5-.82 3.6zm10.58-.67c-.4 1.75 1.48 3.3 2.68 3.9 1.23-.6.7-2.95.8-4.7-1.23-.77-3.2-.3-3.48.82zm-17.4 3.1c.33 1.22 2.12 2.86 3.34 2.67 1.08-.2 1.68-2 1.34-3.1-.37-1.22-2.12-2.1-3.75-1.6-1.06.3-1.27.76-.93 2zm14.2-1.1c-1.5-.33-3.63 1-3.63 2.42 0 1.94 2.87 2.52 4.96 2.26 1.22-1.47.03-4.38-1.34-4.68zm-20.36 4.83c1 1.08 2.63 2.16 4.55 1.87.66-1.74-.34-3.87-1.48-4.68-2.3-.34-3.05.9-3.08 2.8zm14.06 4.15c1 0 2.34-1.3 2.4-2.4.12-1.72-2-3.36-3.88-2.8-2.56.7-.6 5.2 1.48 5.2zm-5.63 3.2c.93-.05 2.12-1.6 2-2.53-.03-.42-2.67-3.42-3.47-2.8-1.1.8-2.8 1.93-1.87 3.33 1.63.1 1.85 2.1 3.34 2zm11.1-4.27c-1.77-.44-3.9 1-3.87 2.43.02 2.14 4.2 3.1 6.16 1.87.25-1.6-1.03-3.97-2.28-4.28zm-20.33 5.36c.22 1.17 2.4 2.6 3.74 2.3.85-.2 1.68-1.62 1.6-2.7-.1-1.55-2.4-3.16-3.6-2.93-1.3.25-2.06 1.67-1.74 3.34zm15.4-.67c-1.1-1.1-3.8-1-4.56.14-1.54 2.4 2.8 5.7 5.22 4.15.45-1.6.4-3.25-.67-4.3zM494.3 117c-.1 1.43 1.4 2.58 2.42 2.96.95.37 1.85.03 2.68 1.07.9 1.15.7 3.2 1.6 4.02 1.95 1.78 4.58-.26 4.15-2.55-.16-.92-1.4-1.45-2.54-2.14-1.36-.84-2.4-2-3.2-3.08-.8-1.1-1.74-2-3.08-1.87-.64.05-1.9.2-2 1.6zm15-.12c-1.56-.6-3.46.3-3.6 1.62-.3 2.56 3.26 3.74 5.48 2.4.25-1.44-.56-3.5-1.88-4zm-29.05.15c-.16 0-.2-.17-.4-.14-.73.66-1.72 1.05-1.87 2.28 1.72-.2 3.2.5 4.28.53.22-1.28-1.37-1.8-2-2.66zm37.35 4.4c.64 1.2 2.4 1.24 3.35 2.4.33.65.4 1.43.8 2.02.96 1.4 4.55 2.77 5.62.94.82-1.4-.22-3.62-2-3.92-1-.14-1.65.42-2.68.15v-4.7c-2.7-1.52-6.82-.1-5.1 3.1zm-28.9-.54c.46 1.46 1.55 3.3 2.66 3.33 2.2.08 2.4-2.98 1.6-4.4-.32-.6-1.4-1.45-2.4-1.48-1.9-.02-2.4.94-1.87 2.55zm23.15 1.07c-.82.56-1.63 2.56-.54 3.75 2-1.2 3.5.53 5.37.67.3-3.25-2.43-6.06-4.82-4.43zm-29.6 1.87c0 2.23 4.32 2.46 5.37.94-.7-1.73-4.05-2.82-5.36-.95zm11.4 3.35c.55.68 2 .66 3.07 1.2 1.56.75 2.52 1.9 2.4 4.14-2.22 1.6-2.96-.94-4.54-.8-.93.08-1.9 1.23-1.88 2.28.04 1.22 2.7 3.25 3.88 3.07 1.18-.17 1.23-1.76 2.15-2.4 1.7-1.22 4.24-.65 5.08-2.02.88-1.43-.16-3.8-1.73-4.15-.74-.17-1.34.2-2.14.13-1.43-1.1-1.74-3.35-2.8-4.82-2.7-1.26-4.98 1.47-3.5 3.35zm10.83.66c.1 1.2 2.62 2.5 3.75 2.4 3.1-.22 1.67-4.8-.13-5.2-.38-.1-.82.04-1.2.13-.92.2-2.52 1.6-2.42 2.67zm-25.57-2.14c-1.38-.08-3.22 1.26-2.93 2.67 1.1.5 1.84-.9 2.8-.94.76-.06 1.18.44 2.02.67.14-.26.32-.47.52-.67-.55-.64-1.33-1.68-2.4-1.76zm42.85 2.54c-.78-.67-1.62-2-2.8-2-1.07 0-2.3 1.42-2.28 2.4 0 .55.74 1.77 1.33 2.15.82.53 2.17.57 3.22.4.53-.62.6-1.72.53-2.94zm-31.06-1.45c-1.3-.44-3.2.94-3.35 1.87-.45 2.6 2.4 3.35 4.82 3.48.9-1.56-.15-4.9-1.48-5.35zm-8.97 4.8c-.2.68.06 1.82.93 2 .54.15.96-.37 1.6-.38.83 0 1.12.43 2.02.54 1.4-3.06-3.9-4.5-4.55-2.14zm-6.3-.25c.85-1-1.4-.4 0 0zm47.8 4.55c1.72.67 3.96-.45 3.34-2.8-.3-1.2-2.48-2.2-3.6-1.88-2.7.78-.9 4.23.25 4.68zm-67.6-2.27h1.6v-1.06c-.93-.04-1.6.2-1.6 1.07zm23.28.27c-2.14-.4-4.34 1.3-4.14 2.95 1.42-.1 2.03-1 3.35-1.23.83.3 1.02 1.23 2.15 1.23 1.3-1.34-.1-2.73-1.34-2.96zm7.38 3.22c-.42 2.64 4.05 3.97 5.08 2.4 1.34-2-1.76-4.2-3.34-3.9-1.07.23-1.63.78-1.74 1.5zm21.82 6.56c-.67-1.12-1.6-1.83-2.68-2.8-1.28-1.17-4.4-4.34-5.9-4.15-.77.1-1.62 1.25-1.6 2.14.05 2.06 3.02 3.14 4.7 3.6.4 1.12.28 2.75.8 3.75.94-.2 1.7-.54 2.54-.8.55.4 1.33 1.2 2.27.8.56-.72.22-2-.13-2.58zm-36-6.03c.3.28.34.28.66 0 .02-.33-.2-.4-.4-.52 0 .27-.37.17-.27.53zm2.66 1.62c-.22.08-.78-.16-.8.13.26.16.83.52.8-.13zm-.4 8.57c.3-2.34-1.67-2.43-3.6-2.55.08 1.84 1.88 4 3.6 2.54z"/>
  </g>
</svg>
